<svg xmlns="http://www.w3.org/2000/svg" version="1.1" width="1500" height="800" >
<text x="150" y="139" font-size="15px" fill="black"  text-anchor='end'>S1</text>
<rect x="165" y="121" width="140.24552293728" height="18" style="fill:blue"   />

			<g style="fill:none">
			<title>s1.fake.4,s1,s1,179,539,0</title>
			<polygon points="173.233502330526,121 173.233502330526,139 189.792501431025,139 189.792501431025,121 " style="fill:rgb(50,205,50);stroke:purple;stroke-width:0"/> 
			</g>
<rect x="330.543993785265" y="121" width="466.871780194619" height="18" style="fill:blue"   />

			<g style="fill:none">
			<title>s10000.fake.7,s1,s10000,1,10150,0</title>
			<polygon points="330.589991004988,121 330.589991004988,139 797.415773979884,139 797.415773979884,121 " style="fill:rgb(50,205,50);stroke:purple;stroke-width:0"/> 
			</g>

			<g style="fill:none">
			<title>s10000.fake.2,s1,s10000,1,10150,0</title>
			<polygon points="330.589991004988,121 330.589991004988,139 797.415773979884,139 797.415773979884,121 " style="fill:rgb(50,205,50);stroke:purple;stroke-width:0"/> 
			</g>

			<g style="fill:none">
			<title>s10000.fake.3,s1,s10000,1,361,0</title>
			<polygon points="330.589991004988,121 330.589991004988,139 347.148990105487,139 347.148990105487,121 " style="fill:rgb(50,205,50);stroke:purple;stroke-width:0"/> 
			</g>

			<g style="fill:none">
			<title>s10000.fake.9,s1,s10000,1,10150,0</title>
			<polygon points="330.589991004988,121 330.589991004988,139 797.415773979884,139 797.415773979884,121 " style="fill:rgb(50,205,50);stroke:purple;stroke-width:0"/> 
			</g>
<text x="150" y="319" font-size="15px" fill="black"  text-anchor='end'>S2</text>
<rect x="165" y="301" width="441.987284324148" height="18" style="fill:blue"   />

			<g style="fill:none">
			<title>s2.fake.9,s2,s2,180,9609,0</title>
			<polygon points="173.279499550249,301 173.279499550249,319 606.987284324148,319 606.987284324148,301 " style="fill:rgb(50,205,50);stroke:purple;stroke-width:0"/> 
			</g>
<rect x="632.285755172132" y="301" width="480.670946111702" height="18" style="fill:blue"   />

			<g style="fill:none">
			<title>s20000.fake.1,s2,s20000,1,10450,0</title>
			<polygon points="632.331752391856,301 632.331752391856,319 1112.95670128383,319 1112.95670128383,301 " style="fill:rgb(50,205,50);stroke:purple;stroke-width:0"/> 
			</g>

			<g style="fill:none">
			<title>s20000.fake.2,s2,s20000,181,10450,0</title>
			<polygon points="640.611251942105,301 640.611251942105,319 1112.95670128383,319 1112.95670128383,301 " style="fill:rgb(50,205,50);stroke:purple;stroke-width:0"/> 
			</g>
<text x="150" y="499" font-size="15px" fill="black"  text-anchor='end'>S3</text>
<rect x="165" y="481" width="234.125848393164" height="18" style="fill:blue"   />

			<g style="fill:none">
			<title>gene_s301,s3,s3,77,1099,1</title>
			<polygon points="168.541785918718,481 168.541785918718,499 215.550944476245,499 215.550944476245,481 " style="fill:rgb(50,205,50);stroke:purple;stroke-width:0"/> 
			</g>

			<g style="fill:none">
			<title>gene_s302,s3,s3,1096,1878,1</title>
			<polygon points="215.412952817074,481 215.412952817074,499 251.382778640935,499 251.382778640935,481 " style="fill:rgb(50,205,50);stroke:purple;stroke-width:0"/> 
			</g>

			<g style="fill:none">
			<title>gene_s303,s3,s3,2915,3109,1</title>
			<polygon points="299.081895494317,481 299.081895494317,499 308.005356120697,499 308.005356120697,481 " style="fill:rgb(50,205,50);stroke:purple;stroke-width:0"/> 
			</g>
<rect x="424.424319241148" y="481" width="138.037656390547" height="18" style="fill:blue"   />
<g fill="none" stroke="black" stroke-width="2"><path stroke-dasharray="2,2" d="M399.125848393164,490 L424.171334532668,490" /></g>
			<g style="fill:none">
			<title>gene_s304,s3,s3,477,848,1</title>
			<polygon points="446.364993049309,481 446.364993049309,499 463.429961566768,499 463.429961566768,481 " style="fill:rgb(50,205,50);stroke:purple;stroke-width:0"/> 
			</g>

			<g style="fill:none">
			<title>gene_s305,s3,s3,1334,1771,1</title>
			<polygon points="485.784610352441,481 485.784610352441,499 505.885395371658,499 505.885395371658,481 " style="fill:rgb(50,205,50);stroke:purple;stroke-width:0"/> 
			</g>

			<g style="fill:none">
			<title>gene_s306,s3,s3,1816,2889,0</title>
			<polygon points="507.95527025922,481 507.95527025922,499 557.310287022651,499 557.310287022651,481 " style="fill:rgb(50,205,50);stroke:purple;stroke-width:0"/> 
			</g>
<rect x="587.76044647968" y="481" width="166.049963202224" height="18" style="fill:blue"   />
<g fill="none" stroke="black" stroke-width="2"><path stroke-dasharray="2,2" d="M562.461975631695,490 L587.5074617712,490" /></g>
			<g style="fill:none">
			<title>gene_s307,s3,s3,6,422,1</title>
			<polygon points="588.036429798021,481 588.036429798021,499 607.171273203042,499 607.171273203042,481 " style="fill:rgb(50,205,50);stroke:purple;stroke-width:0"/> 
			</g>

			<g style="fill:none">
			<title>gene_s308,s3,s3,665,1603,1</title>
			<polygon points="618.348597595879,481 618.348597595879,499 661.493989696623,499 661.493989696623,481 " style="fill:rgb(50,205,50);stroke:purple;stroke-width:0"/> 
			</g>

			<g style="fill:none">
			<title>gene_s309,s3,s3,1790,2089,0</title>
			<polygon points="670.095469784938,481 670.095469784938,499 683.848638482296,499 683.848638482296,481 " style="fill:rgb(50,205,50);stroke:purple;stroke-width:0"/> 
			</g>

			<g style="fill:none">
			<title>gene_s310,s3,s3,2089,2361,0</title>
			<polygon points="683.848638482296,481 683.848638482296,499 696.359882247118,499 696.359882247118,481 " style="fill:rgb(50,205,50);stroke:purple;stroke-width:0"/> 
			</g>
<rect x="779.108880529888" y="481" width="184.034876114155" height="18" style="fill:blue"   />

			<g style="fill:none">
			<title>gene_s303000,s3,s3000,926,1120,1</title>
			<polygon points="821.702305993949,481 821.702305993949,499 830.625766620329,499 830.625766620329,481 " style="fill:rgb(50,205,50);stroke:purple;stroke-width:0"/> 
			</g>

			<g style="fill:none">
			<title>gene_s304000,s3,s3000,1487,1858,1</title>
			<polygon points="847.506746258893,481 847.506746258893,499 864.571714776351,499 864.571714776351,481 " style="fill:rgb(50,205,50);stroke:purple;stroke-width:0"/> 
			</g>

			<g style="fill:none">
			<title>gene_s305000,s3,s3000,2344,2781,1</title>
			<polygon points="886.926363562025,481 886.926363562025,499 907.027148581241,499 907.027148581241,481 " style="fill:rgb(50,205,50);stroke:purple;stroke-width:0"/> 
			</g>

			<g style="fill:none">
			<title>gene_s306000,s3,s3000,2816,3889,0</title>
			<polygon points="908.637051271568,481 908.637051271568,499 957.992068034999,499 957.992068034999,481 " style="fill:rgb(50,205,50);stroke:purple;stroke-width:0"/> 
			</g>
<rect x="988.442227492027" y="481" width="184.034876114155" height="18" style="fill:blue"   />

			<g style="fill:none">
			<title>gene_s3030000,s3,s30000,926,1120,1</title>
			<polygon points="1031.03565295609,481 1031.03565295609,499 1039.95911358247,499 1039.95911358247,481 " style="fill:rgb(50,205,50);stroke:purple;stroke-width:0"/> 
			</g>

			<g style="fill:none">
			<title>gene_s3040000,s3,s30000,1487,1858,1</title>
			<polygon points="1056.84009322103,481 1056.84009322103,499 1073.90506173849,499 1073.90506173849,481 " style="fill:rgb(50,205,50);stroke:purple;stroke-width:0"/> 
			</g>

			<g style="fill:none">
			<title>gene_s3050000,s3,s30000,2344,2781,1</title>
			<polygon points="1096.25971052416,481 1096.25971052416,499 1116.36049554338,499 1116.36049554338,481 " style="fill:rgb(50,205,50);stroke:purple;stroke-width:0"/> 
			</g>

			<g style="fill:none">
			<title>gene_s3060000,s3,s30000,2816,3889,0</title>
			<polygon points="1117.97039823371,481 1117.97039823371,499 1167.32541499714,499 1167.32541499714,481 " style="fill:rgb(50,205,50);stroke:purple;stroke-width:0"/> 
			</g>
<text x="150" y="679" font-size="15px" fill="black"  text-anchor='end'>S4</text>
<rect x="165" y="661" width="184.034876114155" height="18" style="fill:blue"   />

			<g style="fill:none">
			<title>gene_s403000,s4,s4000,926,1120,1</title>
			<polygon points="207.593425464061,661 207.593425464061,679 216.516886090441,679 216.516886090441,661 " style="fill:rgb(50,205,50);stroke:purple;stroke-width:0"/> 
			</g>

			<g style="fill:none">
			<title>gene_s404000,s4,s4000,1487,1858,1</title>
			<polygon points="233.397865729005,661 233.397865729005,679 250.462834246463,679 250.462834246463,661 " style="fill:rgb(50,205,50);stroke:purple;stroke-width:0"/> 
			</g>

			<g style="fill:none">
			<title>gene_s405000,s4,s4000,2344,2781,1</title>
			<polygon points="272.817483032137,661 272.817483032137,679 292.918268051353,679 292.918268051353,661 " style="fill:rgb(50,205,50);stroke:purple;stroke-width:0"/> 
			</g>

			<g style="fill:none">
			<title>gene_s406000,s4,s4000,2816,3889,0</title>
			<polygon points="294.52817074168,661 294.52817074168,679 343.883187505111,679 343.883187505111,661 " style="fill:rgb(50,205,50);stroke:purple;stroke-width:0"/> 
			</g>
<rect x="374.333346962139" y="661" width="322.026535284978" height="18" style="fill:blue"   />

			<g style="fill:none">
			<title>gene_s4020000,s4,s40000,107,889,1</title>
			<polygon points="379.255049472565,661 379.255049472565,679 415.224875296427,679 415.224875296427,661 " style="fill:rgb(50,205,50);stroke:purple;stroke-width:0"/> 
			</g>

			<g style="fill:none">
			<title>gene_s4030000,s4,s40000,1926,2120,1</title>
			<polygon points="462.923992149808,661 462.923992149808,679 471.847452776188,679 471.847452776188,661 " style="fill:rgb(50,205,50);stroke:purple;stroke-width:0"/> 
			</g>

			<g style="fill:none">
			<title>gene_s4040000,s4,s40000,2487,2858,1</title>
			<polygon points="488.728432414752,661 488.728432414752,679 505.79340093221,679 505.79340093221,661 " style="fill:rgb(50,205,50);stroke:purple;stroke-width:0"/> 
			</g>

			<g style="fill:none">
			<title>gene_s4050000,s4,s40000,3344,3781,1</title>
			<polygon points="528.148049717884,661 528.148049717884,679 548.2488347371,679 548.2488347371,661 " style="fill:rgb(50,205,50);stroke:purple;stroke-width:0"/> 
			</g>

			<g style="fill:none">
			<title>gene_s4060000,s4,s40000,3816,4889,0</title>
			<polygon points="549.858737427427,661 549.858737427427,679 599.213754190858,679 599.213754190858,661 " style="fill:rgb(50,205,50);stroke:purple;stroke-width:0"/> 
			</g>

			<g style="fill:none">
			<title>gene_s4070000,s4,s40000,5006,5422,1</title>
			<polygon points="604.59542889852,661 604.59542889852,679 623.730272303541,679 623.730272303541,661 " style="fill:rgb(50,205,50);stroke:purple;stroke-width:0"/> 
			</g>

			<g style="fill:none">
			<title>gene_s4080000,s4,s40000,5665,6603,1</title>
			<polygon points="634.907596696377,661 634.907596696377,679 678.052988797122,679 678.052988797122,661 " style="fill:rgb(50,205,50);stroke:purple;stroke-width:0"/> 
			</g>
<rect x="721.658353095102" y="661" width="74.0555237550086" height="18" style="fill:blue"   />
<g fill="none" stroke="black" stroke-width="2"><path stroke-dasharray="2,2" d="M696.359882247118,670 L721.405368386622,670" /></g>
			<g style="fill:none">
			<title>gene_s4100000,s4,s40000,89,361,0</title>
			<polygon points="725.752105650503,661 725.752105650503,679 738.263349415324,679 738.263349415324,661 " style="fill:rgb(50,205,50);stroke:purple;stroke-width:0"/> 
			</g>
<polygon points="173.279499550249,310 606.987284324148,310 797.415773979884,130 330.589991004988,130" style="fill:rgb(255,222,173);stroke:#000000;stroke-width:0;opacity:0.6"/><polygon points="299.081895494317,490 308.005356120697,490 216.516886090441,670 207.593425464061,670" style="fill:rgb(255,222,173);stroke:#000000;stroke-width:0;opacity:0.6"/><polygon points="588.036429798021,490 607.171273203042,490 623.730272303541,670 604.59542889852,670" style="fill:rgb(255,222,173);stroke:#000000;stroke-width:0;opacity:0.6"/><polygon points="683.848638482296,490 696.359882247118,490 548.2488347371,670 528.148049717884,670" style="fill:rgb(255,222,173);stroke:#000000;stroke-width:0;opacity:0.6"/>
</svg>