<svg xmlns="http://www.w3.org/2000/svg" version="1.1" width="1500" height="800" >
<text x="150" y="134.5" font-size="15px" fill="black"  text-anchor='end'>S1</text>
<rect x="165" y="125.5" width="137.625902214248" height="9" style="fill:green"   />

		<g style="fill:none">
			<title>gene_s101,s1,s1,87,1109,1</title>
			<polygon points="168.991151164213,123.25 168.991151164213,136.75 201.810341312238,136.75 201.810341312238,145.75 215.875708518534,130 201.810341312238,114.25 201.810341312238,123.25" style="fill:ForestGreen;stroke:purple;stroke-width:0"/> 
		</g>
<text x="192.433429841373" y="114.25" font-size="10px" fill="black"  text-anchor='start'   transform="rotate(-45 192.433429841373 114.25)" font-family="Times New Roman">gene_s101</text>

		<g style="fill:none">
			<title>gene_s102,s1,s1,1106,1888,1</title>
			<polygon points="215.738082616319,123.25 215.738082616319,136.75 240.850222240346,136.75 240.850222240346,145.75 251.6125677935,130 240.850222240346,114.25 240.850222240346,123.25" style="fill:black;stroke:purple;stroke-width:0"/> 
		</g>
<text x="233.67532520491" y="114.25" font-size="10px" fill="black"  text-anchor='start'   transform="rotate(-45 233.67532520491 114.25)" font-family="Times New Roman">gene_s103.label</text>
<rect x="327.857317620193" y="125.5" width="137.671777514986" height="9" style="fill:green"   />
<g fill="none" stroke="black" stroke-width="2"><path stroke-dasharray="2,2" d="M302.625902214248,130 L327.605003466134,130" /></g>
		<g style="fill:none">
			<title>gene_s104,s1,s1,487,858,1</title>
			<polygon points="350.19858907964,123.25 350.19858907964,136.75 362.11240468132,136.75 362.11240468132,145.75 367.218325653468,130 362.11240468132,114.25 362.11240468132,123.25" style="fill:ForestGreen;stroke:purple;stroke-width:0"/> 
		</g>
<text x="358.708457366554" y="114.25" font-size="10px" fill="black"  text-anchor='start'   transform="rotate(-45 358.708457366554 114.25)" font-family="Times New Roman">gene_s104</text>

		<g style="fill:none">
			<title>gene_s105,s1,s1,1344,1781,1</title>
			<polygon points="389.513721812176,123.25 389.513721812176,136.75 403.546976307956,136.75 403.546976307956,145.75 409.561228234718,130 403.546976307956,114.25 403.546976307956,123.25" style="fill:ForestGreen;stroke:purple;stroke-width:0"/> 
		</g>
<text x="399.537475023447" y="114.25" font-size="10px" fill="black"  text-anchor='start'   transform="rotate(-45 399.537475023447 114.25)" font-family="Times New Roman">gene_s105</text>

		<g style="fill:none">
			<title>gene_s106,s1,s1,1816,2889,0</title>
			<polygon points="411.166863760551,130 425.93412306814,145.75 425.93412306814,136.75 460.391061452514,136.75 460.391061452514,123.25 425.93412306814,123.25 425.93412306814,114.25" style="fill:ForestGreen;stroke:purple;stroke-width:0"/> 
		</g>
<text x="435.778962606533" y="114.25" font-size="10px" fill="black"  text-anchor='start'   transform="rotate(-45 435.778962606533 114.25)" font-family="Times New Roman">gene_s106</text>
<rect x="490.760510541125" y="125.5" width="165.609835664478" height="9" style="fill:green"   />
<g fill="none" stroke="black" stroke-width="2"><path stroke-dasharray="2,2" d="M465.529095135179,130 L490.508196387065,130" /></g>
		<g style="fill:none">
			<title>gene_s107,s1,s1,6,422,1</title>
			<polygon points="491.035762345553,123.25 491.035762345553,136.75 504.394649920483,136.75 504.394649920483,145.75 510.119887452595,130 504.394649920483,114.25 504.394649920483,123.25" style="fill:ForestGreen;stroke:purple;stroke-width:0"/> 
		</g>
<text x="500.577824899074" y="114.25" font-size="10px" fill="black"  text-anchor='start'   transform="rotate(-45 500.577824899074 114.25)" font-family="Times New Roman">gene_s107</text>

		<g style="fill:none">
			<title>gene_s108,s1,s1,665,1603,1</title>
			<polygon points="521.26758553195,123.25 521.26758553195,136.75 551.389307996575,136.75 551.389307996575,145.75 564.298617624271,130 551.389307996575,114.25 551.389307996575,123.25" style="fill:ForestGreen;stroke:purple;stroke-width:0"/> 
		</g>
<text x="542.78310157811" y="114.25" font-size="10px" fill="black"  text-anchor='start'   transform="rotate(-45 542.78310157811 114.25)" font-family="Times New Roman">gene_s108</text>

		<g style="fill:none">
			<title>gene_s109,s1,s1,1790,2089,0</title>
			<polygon points="572.877298862292,130 576.992313338499,145.75 576.992313338499,136.75 586.594013782979,136.75 586.594013782979,123.25 576.992313338499,123.25 576.992313338499,114.25" style="fill:ForestGreen;stroke:purple;stroke-width:0"/> 
		</g>
<text x="579.735656322636" y="114.25" font-size="10px" fill="black"  text-anchor='start'   transform="rotate(-45 579.735656322636 114.25)" font-family="Times New Roman">gene_s109</text>

		<g style="fill:none">
			<title>gene_s110,s1,s1,2089,2361,0</title>
			<polygon points="586.594013782979,130 590.337438323207,145.75 590.337438323207,136.75 599.072095583738,136.75 599.072095583738,123.25 590.337438323207,123.25 590.337438323207,114.25" style="fill:ForestGreen;stroke:purple;stroke-width:0"/> 
		</g>
<text x="592.833054683358" y="114.25" font-size="10px" fill="black"  text-anchor='start'   transform="rotate(-45 592.833054683358 114.25)" font-family="Times New Roman">gene_s110</text>
<rect x="681.601761611548" y="125.5" width="183.547078253069" height="9" style="fill:green"   />

		<g style="fill:none">
			<title>gene_s103000,s1,s1000,926,1120,1</title>
			<polygon points="724.082290095013,123.25 724.082290095013,136.75 730.312155935244,136.75 730.312155935244,145.75 732.982098438201,130 730.312155935244,114.25 730.312155935244,123.25" style="fill:yellow;stroke:purple;stroke-width:0"/> 
		</g>
<text x="728.532194266607" y="114.25" font-size="10px" fill="black"  text-anchor='start'   transform="rotate(-45 728.532194266607 114.25)" font-family="Times New Roman">gene_s103000.label</text>

		<g style="fill:none">
			<title>gene_s104000,s1,s1000,1487,1858,1</title>
			<polygon points="749.818333809077,123.25 749.818333809077,136.75 761.732149410757,136.75 761.732149410757,145.75 766.838070382906,130 761.732149410757,114.25 761.732149410757,123.25" style="fill:ForestGreen;stroke:purple;stroke-width:0"/> 
		</g>
<text x="758.328202095992" y="114.25" font-size="10px" fill="black"  text-anchor='start'   transform="rotate(-45 758.328202095992 114.25)" font-family="Times New Roman">gene_s104000</text>

		<g style="fill:none">
			<title>gene_s105000,s1,s1000,2344,2781,1</title>
			<polygon points="789.133466541614,123.25 789.133466541614,136.75 803.166721037393,136.75 803.166721037393,145.75 809.180972964156,130 803.166721037393,114.25 803.166721037393,123.25" style="fill:ForestGreen;stroke:purple;stroke-width:0"/> 
		</g>
<text x="799.157219752885" y="114.25" font-size="10px" fill="black"  text-anchor='start'   transform="rotate(-45 799.157219752885 114.25)" font-family="Times New Roman">gene_s105000</text>

		<g style="fill:none">
			<title>gene_s106000,s1,s1000,2816,3889,0</title>
			<polygon points="810.786608489989,130 825.553867797578,145.75 825.553867797578,136.75 860.010806181952,136.75 860.010806181952,123.25 825.553867797578,123.25 825.553867797578,114.25" style="fill:ForestGreen;stroke:purple;stroke-width:0"/> 
		</g>
<text x="835.39870733597" y="114.25" font-size="10px" fill="black"  text-anchor='start'   transform="rotate(-45 835.39870733597 114.25)" font-family="Times New Roman">gene_s106000</text>
<rect x="890.380255270562" y="125.5" width="183.547078253069" height="9" style="fill:green"   />

		<g style="fill:none">
			<title>gene_s1030000,s1,s10000,926,1120,1</title>
			<polygon points="932.860783754027,123.25 932.860783754027,136.75 939.090649594258,136.75 939.090649594258,145.75 941.760592097215,130 939.090649594258,114.25 939.090649594258,123.25" style="fill:red;stroke:purple;stroke-width:0"/> 
		</g>
<text x="937.310687925621" y="114.25" font-size="10px" fill="black"  text-anchor='start'   transform="rotate(-45 937.310687925621 114.25)" font-family="Times New Roman">gene_s1030000.label</text>

		<g style="fill:none">
			<title>gene_s1040000,s1,s10000,1487,1858,1</title>
			<polygon points="958.596827468091,123.25 958.596827468091,136.75 970.510643069771,136.75 970.510643069771,145.75 975.61656404192,130 970.510643069771,114.25 970.510643069771,123.25" style="fill:ForestGreen;stroke:purple;stroke-width:0"/> 
		</g>
<text x="967.106695755005" y="114.25" font-size="10px" fill="black"  text-anchor='start'   transform="rotate(-45 967.106695755005 114.25)" font-family="Times New Roman">gene_s1040000</text>

		<g style="fill:none">
			<title>gene_s1050000,s1,s10000,2344,2781,1</title>
			<polygon points="997.911960200628,123.25 997.911960200628,136.75 1011.94521469641,136.75 1011.94521469641,145.75 1017.95946662317,130 1011.94521469641,114.25 1011.94521469641,123.25" style="fill:ForestGreen;stroke:purple;stroke-width:0"/> 
		</g>
<text x="1007.9357134119" y="114.25" font-size="10px" fill="black"  text-anchor='start'   transform="rotate(-45 1007.9357134119 114.25)" font-family="Times New Roman">gene_s1050000</text>

		<g style="fill:none">
			<title>gene_s1060000,s1,s10000,2816,3889,0</title>
			<polygon points="1019.565102149,130 1034.33236145659,145.75 1034.33236145659,136.75 1068.78929984097,136.75 1068.78929984097,123.25 1034.33236145659,123.25 1034.33236145659,114.25" style="fill:ForestGreen;stroke:purple;stroke-width:0"/> 
		</g>
<text x="1044.17720099498" y="114.25" font-size="10px" fill="black"  text-anchor='start'   transform="rotate(-45 1044.17720099498 114.25)" font-family="Times New Roman">gene_s1060000</text>
<rect x="1099.15874892958" y="125.5" width="165.609835664478" height="9" style="fill:green"   />
<g fill="none" stroke="black" stroke-width="2"><path stroke-dasharray="2,2" d="M1073.92733352363,130 L1098.90643477552,130" /></g>
		<g style="fill:none">
			<title>gene_s1070000,s1,s10000,6,422,1</title>
			<polygon points="1099.434000734,123.25 1099.434000734,136.75 1112.79288830893,136.75 1112.79288830893,145.75 1118.51812584105,130 1112.79288830893,114.25 1112.79288830893,123.25" style="fill:ForestGreen;stroke:purple;stroke-width:0"/> 
		</g>
<text x="1108.97606328753" y="114.25" font-size="10px" fill="black"  text-anchor='start'   transform="rotate(-45 1108.97606328753 114.25)" font-family="Times New Roman">gene_s1070000</text>

		<g style="fill:none">
			<title>gene_s1080000,s1,s10000,665,1603,1</title>
			<polygon points="1129.6658239204,123.25 1129.6658239204,136.75 1159.78754638503,136.75 1159.78754638503,145.75 1172.69685601272,130 1159.78754638503,114.25 1159.78754638503,123.25" style="fill:ForestGreen;stroke:purple;stroke-width:0"/> 
		</g>
<text x="1151.18133996656" y="114.25" font-size="10px" fill="black"  text-anchor='start'   transform="rotate(-45 1151.18133996656 114.25)" font-family="Times New Roman">gene_s1080000</text>

		<g style="fill:none">
			<title>gene_s1090000,s1,s10000,1790,2089,0</title>
			<polygon points="1181.27553725074,130 1185.39055172695,145.75 1185.39055172695,136.75 1194.99225217143,136.75 1194.99225217143,123.25 1185.39055172695,123.25 1185.39055172695,114.25" style="fill:ForestGreen;stroke:purple;stroke-width:0"/> 
		</g>
<text x="1188.13389471109" y="114.25" font-size="10px" fill="black"  text-anchor='start'   transform="rotate(-45 1188.13389471109 114.25)" font-family="Times New Roman">gene_s1090000</text>

		<g style="fill:none">
			<title>gene_s1100000,s1,s10000,2089,2361,0</title>
			<polygon points="1194.99225217143,130 1198.73567671166,145.75 1198.73567671166,136.75 1207.47033397219,136.75 1207.47033397219,123.25 1198.73567671166,123.25 1198.73567671166,114.25" style="fill:ForestGreen;stroke:purple;stroke-width:0"/> 
		</g>
<text x="1201.23129307181" y="114.25" font-size="10px" fill="black"  text-anchor='start'   transform="rotate(-45 1201.23129307181 114.25)" font-family="Times New Roman">gene_s1100000</text>
<text x="150" y="314.5" font-size="15px" fill="black"  text-anchor='end'>S2</text>
<rect x="165" y="305.5" width="412.877706642744" height="9" style="fill:green"   />

		<g style="fill:none">
			<title>gene_s201,s2,s2,87,1109,1</title>
			<polygon points="168.991151164213,303.25 168.991151164213,316.75 201.810341312238,316.75 201.810341312238,325.75 215.875708518534,310 201.810341312238,294.25 201.810341312238,303.25" style="fill:ForestGreen;stroke:purple;stroke-width:0"/> 
		</g>
<text x="192.433429841373" y="294.25" font-size="10px" fill="black"  text-anchor='start'   transform="rotate(-45 192.433429841373 294.25)" font-family="Times New Roman">gene_s201</text>

		<g style="fill:none">
			<title>gene_s202,s2,s2,1106,1888,1</title>
			<polygon points="215.738082616319,303.25 215.738082616319,316.75 240.850222240346,316.75 240.850222240346,325.75 251.6125677935,310 240.850222240346,294.25 240.850222240346,303.25" style="fill:ForestGreen;stroke:purple;stroke-width:0"/> 
		</g>
<text x="233.67532520491" y="294.25" font-size="10px" fill="black"  text-anchor='start'   transform="rotate(-45 233.67532520491 294.25)" font-family="Times New Roman">gene_s202</text>

		<g style="fill:none">
			<title>gene_s203,s2,s2,2925,3119,1</title>
			<polygon points="299.185254658892,303.25 299.185254658892,316.75 305.415120499123,316.75 305.415120499123,325.75 308.08506300208,310 305.415120499123,294.25 305.415120499123,303.25" style="fill:ForestGreen;stroke:purple;stroke-width:0"/> 
		</g>
<text x="303.635158830486" y="294.25" font-size="10px" fill="black"  text-anchor='start'   transform="rotate(-45 303.635158830486 294.25)" font-family="Times New Roman">gene_s203</text>

		<g style="fill:none">
			<title>gene_s204,s2,s2,3486,3857,1</title>
			<polygon points="324.921298372956,303.25 324.921298372956,316.75 336.835113974636,316.75 336.835113974636,325.75 341.941034946785,310 336.835113974636,294.25 336.835113974636,303.25" style="fill:ForestGreen;stroke:purple;stroke-width:0"/> 
		</g>
<text x="333.43116665987" y="294.25" font-size="10px" fill="black"  text-anchor='start'   transform="rotate(-45 333.43116665987 294.25)" font-family="Times New Roman">gene_s204</text>

		<g style="fill:none">
			<title>gene_s205,s2,s2,4343,4780,1</title>
			<polygon points="364.236431105493,303.25 364.236431105493,316.75 378.269685601272,316.75 378.269685601272,325.75 384.283937528035,310 378.269685601272,294.25 378.269685601272,303.25" style="fill:ForestGreen;stroke:purple;stroke-width:0"/> 
		</g>
<text x="374.260184316764" y="294.25" font-size="10px" fill="black"  text-anchor='start'   transform="rotate(-45 374.260184316764 294.25)" font-family="Times New Roman">gene_s205</text>

		<g style="fill:none">
			<title>gene_s206,s2,s2,4815,5888,0</title>
			<polygon points="385.889573053868,310 400.656832361457,325.75 400.656832361457,316.75 435.11377074583,316.75 435.11377074583,303.25 400.656832361457,303.25 400.656832361457,294.25" style="fill:ForestGreen;stroke:purple;stroke-width:0"/> 
		</g>
<text x="410.501671899849" y="294.25" font-size="10px" fill="black"  text-anchor='start'   transform="rotate(-45 410.501671899849 294.25)" font-family="Times New Roman">gene_s206</text>

		<g style="fill:none">
			<title>gene_s207,s2,s2,6005,6421,1</title>
			<polygon points="440.481180932186,303.25 440.481180932186,316.75 453.840068507116,316.75 453.840068507116,325.75 459.565306039229,310 453.840068507116,294.25 453.840068507116,303.25" style="fill:rgb(255,165,0);stroke:purple;stroke-width:0"/> 
		</g>
<text x="450.023243485707" y="294.25" font-size="10px" fill="black"  text-anchor='start'   transform="rotate(-45 450.023243485707 294.25)" font-family="Times New Roman">gene_s207.label</text>

		<g style="fill:none">
			<title>gene_s208,s2,s2,6664,7602,1</title>
			<polygon points="470.713004118583,303.25 470.713004118583,316.75 500.834726583208,316.75 500.834726583208,325.75 513.744036210904,310 500.834726583208,294.25 500.834726583208,303.25" style="fill:ForestGreen;stroke:purple;stroke-width:0"/> 
		</g>
<text x="492.228520164743" y="294.25" font-size="10px" fill="black"  text-anchor='start'   transform="rotate(-45 492.228520164743 294.25)" font-family="Times New Roman">gene_s208</text>

		<g style="fill:none">
			<title>gene_s209,s2,s2,7789,8088,0</title>
			<polygon points="522.322717448926,310 526.437731925132,325.75 526.437731925132,316.75 536.039432369612,316.75 536.039432369612,303.25 526.437731925132,303.25 526.437731925132,294.25" style="fill:ForestGreen;stroke:purple;stroke-width:0"/> 
		</g>
<text x="529.181074909269" y="294.25" font-size="10px" fill="black"  text-anchor='start'   transform="rotate(-45 529.181074909269 294.25)" font-family="Times New Roman">gene_s209</text>

		<g style="fill:none">
			<title>gene_s210,s2,s2,8088,8360,0</title>
			<polygon points="536.039432369612,310 539.78285690984,325.75 539.78285690984,316.75 548.517514170371,316.75 548.517514170371,303.25 539.78285690984,303.25 539.78285690984,294.25" style="fill:ForestGreen;stroke:purple;stroke-width:0"/> 
		</g>
<text x="542.278473269991" y="294.25" font-size="10px" fill="black"  text-anchor='start'   transform="rotate(-45 542.278473269991 294.25)" font-family="Times New Roman">gene_s210</text>
<rect x="603.109122048689" y="305.5" width="183.547078253069" height="9" style="fill:green"   />

		<g style="fill:none">
			<title>gene_s203000,s2,s2000,926,1120,1</title>
			<polygon points="645.589650532153,303.25 645.589650532153,316.75 651.819516372385,316.75 651.819516372385,325.75 654.489458875341,310 651.819516372385,294.25 651.819516372385,303.25" style="fill:ForestGreen;stroke:purple;stroke-width:0"/> 
		</g>
<text x="650.039554703747" y="294.25" font-size="10px" fill="black"  text-anchor='start'   transform="rotate(-45 650.039554703747 294.25)" font-family="Times New Roman">gene_s203000</text>

		<g style="fill:none">
			<title>gene_s204000,s2,s2000,1487,1858,1</title>
			<polygon points="671.325694246218,303.25 671.325694246218,316.75 683.239509847898,316.75 683.239509847898,325.75 688.345430820046,310 683.239509847898,294.25 683.239509847898,303.25" style="fill:ForestGreen;stroke:purple;stroke-width:0"/> 
		</g>
<text x="679.835562533132" y="294.25" font-size="10px" fill="black"  text-anchor='start'   transform="rotate(-45 679.835562533132 294.25)" font-family="Times New Roman">gene_s204000</text>

		<g style="fill:none">
			<title>gene_s205000,s2,s2000,2344,2781,1</title>
			<polygon points="710.640826978755,303.25 710.640826978755,316.75 724.674081474534,316.75 724.674081474534,325.75 730.688333401297,310 724.674081474534,294.25 724.674081474534,303.25" style="fill:ForestGreen;stroke:purple;stroke-width:0"/> 
		</g>
<text x="720.664580190026" y="294.25" font-size="10px" fill="black"  text-anchor='start'   transform="rotate(-45 720.664580190026 294.25)" font-family="Times New Roman">gene_s205000</text>

		<g style="fill:none">
			<title>gene_s206000,s2,s2000,2816,3889,0</title>
			<polygon points="732.29396892713,310 747.061228234718,325.75 747.061228234718,316.75 781.518166619092,316.75 781.518166619092,303.25 747.061228234718,303.25 747.061228234718,294.25" style="fill:rgb(255,165,0);stroke:purple;stroke-width:0"/> 
		</g>
<text x="756.906067773111" y="294.25" font-size="10px" fill="black"  text-anchor='start'   transform="rotate(-45 756.906067773111 294.25)" font-family="Times New Roman">gene_s206000.label</text>
<rect x="811.887615707703" y="305.5" width="183.547078253069" height="9" style="fill:green"   />

		<g style="fill:none">
			<title>gene_s2030000,s2,s20000,926,1120,1</title>
			<polygon points="854.368144191167,303.25 854.368144191167,316.75 860.598010031399,316.75 860.598010031399,325.75 863.267952534355,310 860.598010031399,294.25 860.598010031399,303.25" style="fill:ForestGreen;stroke:purple;stroke-width:0"/> 
		</g>
<text x="858.818048362761" y="294.25" font-size="10px" fill="black"  text-anchor='start'   transform="rotate(-45 858.818048362761 294.25)" font-family="Times New Roman">gene_s2030000</text>

		<g style="fill:none">
			<title>gene_s2040000,s2,s20000,1487,1858,1</title>
			<polygon points="880.104187905232,303.25 880.104187905232,316.75 892.018003506912,316.75 892.018003506912,325.75 897.12392447906,310 892.018003506912,294.25 892.018003506912,303.25" style="fill:ForestGreen;stroke:purple;stroke-width:0"/> 
		</g>
<text x="888.614056192146" y="294.25" font-size="10px" fill="black"  text-anchor='start'   transform="rotate(-45 888.614056192146 294.25)" font-family="Times New Roman">gene_s2040000</text>

		<g style="fill:none">
			<title>gene_s2050000,s2,s20000,2344,2781,1</title>
			<polygon points="919.419320637769,303.25 919.419320637769,316.75 933.452575133548,316.75 933.452575133548,325.75 939.466827060311,310 933.452575133548,294.25 933.452575133548,303.25" style="fill:ForestGreen;stroke:purple;stroke-width:0"/> 
		</g>
<text x="929.44307384904" y="294.25" font-size="10px" fill="black"  text-anchor='start'   transform="rotate(-45 929.44307384904 294.25)" font-family="Times New Roman">gene_s2050000</text>

		<g style="fill:none">
			<title>gene_s2060000,s2,s20000,2816,3889,0</title>
			<polygon points="941.072462586144,310 955.839721893732,325.75 955.839721893732,316.75 990.296660278106,316.75 990.296660278106,303.25 955.839721893732,303.25 955.839721893732,294.25" style="fill:ForestGreen;stroke:purple;stroke-width:0"/> 
		</g>
<text x="965.684561432125" y="294.25" font-size="10px" fill="black"  text-anchor='start'   transform="rotate(-45 965.684561432125 294.25)" font-family="Times New Roman">gene_s2060000</text>
<rect x="1020.66610936672" y="305.5" width="165.609835664478" height="9" style="fill:green"   />
<g fill="none" stroke="black" stroke-width="2"><path stroke-dasharray="2,2" d="M995.434693960771,310 L1020.41379521266,310" /></g>
		<g style="fill:none">
			<title>gene_s2070000,s2,s20000,6,422,1</title>
			<polygon points="1020.94136117115,303.25 1020.94136117115,316.75 1034.30024874608,316.75 1034.30024874608,325.75 1040.02548627819,310 1034.30024874608,294.25 1034.30024874608,303.25" style="fill:rgb(255,165,0);stroke:purple;stroke-width:0"/> 
		</g>
<text x="1030.48342372467" y="294.25" font-size="10px" fill="black"  text-anchor='start'   transform="rotate(-45 1030.48342372467 294.25)" font-family="Times New Roman">gene_s2070000.label</text>

		<g style="fill:none">
			<title>gene_s2080000,s2,s20000,665,1603,1</title>
			<polygon points="1051.17318435754,303.25 1051.17318435754,316.75 1081.29490682217,316.75 1081.29490682217,325.75 1094.20421644986,310 1081.29490682217,294.25 1081.29490682217,303.25" style="fill:ForestGreen;stroke:purple;stroke-width:0"/> 
		</g>
<text x="1072.6887004037" y="294.25" font-size="10px" fill="black"  text-anchor='start'   transform="rotate(-45 1072.6887004037 294.25)" font-family="Times New Roman">gene_s2080000</text>

		<g style="fill:none">
			<title>gene_s2090000,s2,s20000,1790,2089,0</title>
			<polygon points="1102.78289768788,310 1106.89791216409,325.75 1106.89791216409,316.75 1116.49961260857,316.75 1116.49961260857,303.25 1106.89791216409,303.25 1106.89791216409,294.25" style="fill:ForestGreen;stroke:purple;stroke-width:0"/> 
		</g>
<text x="1109.64125514823" y="294.25" font-size="10px" fill="black"  text-anchor='start'   transform="rotate(-45 1109.64125514823 294.25)" font-family="Times New Roman">gene_s2090000</text>

		<g style="fill:none">
			<title>gene_s2100000,s2,s20000,2089,2361,0</title>
			<polygon points="1116.49961260857,310 1120.2430371488,325.75 1120.2430371488,316.75 1128.97769440933,316.75 1128.97769440933,303.25 1120.2430371488,303.25 1120.2430371488,294.25" style="fill:ForestGreen;stroke:purple;stroke-width:0"/> 
		</g>
<text x="1122.73865350895" y="294.25" font-size="10px" fill="black"  text-anchor='start'   transform="rotate(-45 1122.73865350895 294.25)" font-family="Times New Roman">gene_s2100000</text>
<text x="150" y="494.5" font-size="15px" fill="black"  text-anchor='end'>S3</text>
<rect x="165" y="485.5" width="229.376503690413" height="9" style="fill:green"   />

		<g style="fill:none">
			<title>gene_s301,s3,s3,87,1109,1</title>
			<polygon points="168.991151164213,483.25 168.991151164213,496.75 201.810341312238,496.75 201.810341312238,505.75 215.875708518534,490 201.810341312238,474.25 201.810341312238,483.25" style="fill:ForestGreen;stroke:purple;stroke-width:0"/> 
		</g>
<text x="192.433429841373" y="474.25" font-size="10px" fill="black"  text-anchor='start'   transform="rotate(-45 192.433429841373 474.25)" font-family="Times New Roman">gene_s301</text>

		<g style="fill:none">
			<title>gene_s302,s3,s3,1106,1888,1</title>
			<polygon points="215.738082616319,483.25 215.738082616319,496.75 240.850222240346,496.75 240.850222240346,505.75 251.6125677935,490 240.850222240346,474.25 240.850222240346,483.25" style="fill:ForestGreen;stroke:purple;stroke-width:0"/> 
		</g>
<text x="233.67532520491" y="474.25" font-size="10px" fill="black"  text-anchor='start'   transform="rotate(-45 233.67532520491 474.25)" font-family="Times New Roman">gene_s302</text>

		<g style="fill:none">
			<title>gene_s303,s3,s3,2925,3119,1</title>
			<polygon points="299.185254658892,483.25 299.185254658892,496.75 305.415120499123,496.75 305.415120499123,505.75 308.08506300208,490 305.415120499123,474.25 305.415120499123,483.25" style="fill:ForestGreen;stroke:purple;stroke-width:0"/> 
		</g>
<text x="303.635158830486" y="474.25" font-size="10px" fill="black"  text-anchor='start'   transform="rotate(-45 303.635158830486 474.25)" font-family="Times New Roman">gene_s303</text>
<rect x="419.607919096359" y="485.5" width="137.671777514986" height="9" style="fill:green"   />
<g fill="none" stroke="black" stroke-width="2"><path stroke-dasharray="2,2" d="M394.376503690413,490 L419.355604942299,490" /></g>
		<g style="fill:none">
			<title>gene_s304,s3,s3,487,858,1</title>
			<polygon points="441.949190555805,483.25 441.949190555805,496.75 453.863006157485,496.75 453.863006157485,505.75 458.968927129633,490 453.863006157485,474.25 453.863006157485,483.25" style="fill:ForestGreen;stroke:purple;stroke-width:0"/> 
		</g>
<text x="450.459058842719" y="474.25" font-size="10px" fill="black"  text-anchor='start'   transform="rotate(-45 450.459058842719 474.25)" font-family="Times New Roman">gene_s304</text>

		<g style="fill:none">
			<title>gene_s305,s3,s3,1344,1781,1</title>
			<polygon points="481.264323288342,483.25 481.264323288342,496.75 495.297577784121,496.75 495.297577784121,505.75 501.311829710884,490 495.297577784121,474.25 495.297577784121,483.25" style="fill:ForestGreen;stroke:purple;stroke-width:0"/> 
		</g>
<text x="491.288076499613" y="474.25" font-size="10px" fill="black"  text-anchor='start'   transform="rotate(-45 491.288076499613 474.25)" font-family="Times New Roman">gene_s305</text>

		<g style="fill:none">
			<title>gene_s306,s3,s3,1816,2889,0</title>
			<polygon points="502.917465236717,490 517.684724544305,505.75 517.684724544305,496.75 552.141662928679,496.75 552.141662928679,483.25 517.684724544305,483.25 517.684724544305,474.25" style="fill:ForestGreen;stroke:purple;stroke-width:0"/> 
		</g>
<text x="527.529564082698" y="474.25" font-size="10px" fill="black"  text-anchor='start'   transform="rotate(-45 527.529564082698 474.25)" font-family="Times New Roman">gene_s306</text>
<rect x="582.51111201729" y="485.5" width="165.609835664478" height="9" style="fill:green"   />
<g fill="none" stroke="black" stroke-width="2"><path stroke-dasharray="2,2" d="M557.279696611344,490 L582.25879786323,490" /></g>
		<g style="fill:none">
			<title>gene_s307,s3,s3,6,422,1</title>
			<polygon points="582.786363821718,483.25 582.786363821718,496.75 596.145251396648,496.75 596.145251396648,505.75 601.870488928761,490 596.145251396648,474.25 596.145251396648,483.25" style="fill:ForestGreen;stroke:purple;stroke-width:0"/> 
		</g>
<text x="592.32842637524" y="474.25" font-size="10px" fill="black"  text-anchor='start'   transform="rotate(-45 592.32842637524 474.25)" font-family="Times New Roman">gene_s307</text>

		<g style="fill:none">
			<title>gene_s308,s3,s3,665,1603,1</title>
			<polygon points="613.018187008115,483.25 613.018187008115,496.75 643.13990947274,496.75 643.13990947274,505.75 656.049219100436,490 643.13990947274,474.25 643.13990947274,483.25" style="fill:ForestGreen;stroke:purple;stroke-width:0"/> 
		</g>
<text x="634.533703054276" y="474.25" font-size="10px" fill="black"  text-anchor='start'   transform="rotate(-45 634.533703054276 474.25)" font-family="Times New Roman">gene_s308</text>

		<g style="fill:none">
			<title>gene_s309,s3,s3,1790,2089,0</title>
			<polygon points="664.627900338458,490 668.742914814664,505.75 668.742914814664,496.75 678.344615259144,496.75 678.344615259144,483.25 668.742914814664,483.25 668.742914814664,474.25" style="fill:ForestGreen;stroke:purple;stroke-width:0"/> 
		</g>
<text x="671.486257798801" y="474.25" font-size="10px" fill="black"  text-anchor='start'   transform="rotate(-45 671.486257798801 474.25)" font-family="Times New Roman">gene_s309</text>

		<g style="fill:none">
			<title>gene_s310,s3,s3,2089,2361,0</title>
			<polygon points="678.344615259144,490 682.088039799372,505.75 682.088039799372,496.75 690.822697059903,496.75 690.822697059903,483.25 682.088039799372,483.25 682.088039799372,474.25" style="fill:ForestGreen;stroke:purple;stroke-width:0"/> 
		</g>
<text x="684.583656159524" y="474.25" font-size="10px" fill="black"  text-anchor='start'   transform="rotate(-45 684.583656159524 474.25)" font-family="Times New Roman">gene_s310</text>
<rect x="773.352363087714" y="485.5" width="183.547078253069" height="9" style="fill:green"   />

		<g style="fill:none">
			<title>gene_s303000,s3,s3000,926,1120,1</title>
			<polygon points="815.832891571178,483.25 815.832891571178,496.75 822.06275741141,496.75 822.06275741141,505.75 824.732699914366,490 822.06275741141,474.25 822.06275741141,483.25" style="fill:ForestGreen;stroke:purple;stroke-width:0"/> 
		</g>
<text x="820.282795742772" y="474.25" font-size="10px" fill="black"  text-anchor='start'   transform="rotate(-45 820.282795742772 474.25)" font-family="Times New Roman">gene_s303000</text>

		<g style="fill:none">
			<title>gene_s304000,s3,s3000,1487,1858,1</title>
			<polygon points="841.568935285242,483.25 841.568935285242,496.75 853.482750886923,496.75 853.482750886923,505.75 858.588671859071,490 853.482750886923,474.25 853.482750886923,483.25" style="fill:ForestGreen;stroke:purple;stroke-width:0"/> 
		</g>
<text x="850.078803572157" y="474.25" font-size="10px" fill="black"  text-anchor='start'   transform="rotate(-45 850.078803572157 474.25)" font-family="Times New Roman">gene_s304000</text>

		<g style="fill:none">
			<title>gene_s305000,s3,s3000,2344,2781,1</title>
			<polygon points="880.884068017779,483.25 880.884068017779,496.75 894.917322513559,496.75 894.917322513559,505.75 900.931574440321,490 894.917322513559,474.25 894.917322513559,483.25" style="fill:ForestGreen;stroke:purple;stroke-width:0"/> 
		</g>
<text x="890.90782122905" y="474.25" font-size="10px" fill="black"  text-anchor='start'   transform="rotate(-45 890.90782122905 474.25)" font-family="Times New Roman">gene_s305000</text>

		<g style="fill:none">
			<title>gene_s306000,s3,s3000,2816,3889,0</title>
			<polygon points="902.537209966154,490 917.304469273743,505.75 917.304469273743,496.75 951.761407658117,496.75 951.761407658117,483.25 917.304469273743,483.25 917.304469273743,474.25" style="fill:ForestGreen;stroke:purple;stroke-width:0"/> 
		</g>
<text x="927.149308812136" y="474.25" font-size="10px" fill="black"  text-anchor='start'   transform="rotate(-45 927.149308812136 474.25)" font-family="Times New Roman">gene_s306000</text>
<rect x="982.130856746728" y="485.5" width="183.547078253069" height="9" style="fill:green"   />

		<g style="fill:none">
			<title>gene_s3030000,s3,s30000,926,1120,1</title>
			<polygon points="1024.61138523019,483.25 1024.61138523019,496.75 1030.84125107042,496.75 1030.84125107042,505.75 1033.51119357338,490 1030.84125107042,474.25 1030.84125107042,483.25" style="fill:ForestGreen;stroke:purple;stroke-width:0"/> 
		</g>
<text x="1029.06128940179" y="474.25" font-size="10px" fill="black"  text-anchor='start'   transform="rotate(-45 1029.06128940179 474.25)" font-family="Times New Roman">gene_s3030000</text>

		<g style="fill:none">
			<title>gene_s3040000,s3,s30000,1487,1858,1</title>
			<polygon points="1050.34742894426,483.25 1050.34742894426,496.75 1062.26124454594,496.75 1062.26124454594,505.75 1067.36716551808,490 1062.26124454594,474.25 1062.26124454594,483.25" style="fill:ForestGreen;stroke:purple;stroke-width:0"/> 
		</g>
<text x="1058.85729723117" y="474.25" font-size="10px" fill="black"  text-anchor='start'   transform="rotate(-45 1058.85729723117 474.25)" font-family="Times New Roman">gene_s3040000</text>

		<g style="fill:none">
			<title>gene_s3050000,s3,s30000,2344,2781,1</title>
			<polygon points="1089.66256167679,483.25 1089.66256167679,496.75 1103.69581617257,496.75 1103.69581617257,505.75 1109.71006809934,490 1103.69581617257,474.25 1103.69581617257,483.25" style="fill:ForestGreen;stroke:purple;stroke-width:0"/> 
		</g>
<text x="1099.68631488806" y="474.25" font-size="10px" fill="black"  text-anchor='start'   transform="rotate(-45 1099.68631488806 474.25)" font-family="Times New Roman">gene_s3050000</text>

		<g style="fill:none">
			<title>gene_s3060000,s3,s30000,2816,3889,0</title>
			<polygon points="1111.31570362517,490 1126.08296293276,505.75 1126.08296293276,496.75 1160.53990131713,496.75 1160.53990131713,483.25 1126.08296293276,483.25 1126.08296293276,474.25" style="fill:ForestGreen;stroke:purple;stroke-width:0"/> 
		</g>
<text x="1135.92780247115" y="474.25" font-size="10px" fill="black"  text-anchor='start'   transform="rotate(-45 1135.92780247115 474.25)" font-family="Times New Roman">gene_s3060000</text>
<text x="150" y="674.5" font-size="15px" fill="black"  text-anchor='end'>S4</text>
<rect x="165" y="665.5" width="183.547078253069" height="9" style="fill:green"   />

		<g style="fill:none">
			<title>gene_s403000,s4,s4000,926,1120,1</title>
			<polygon points="207.480528483465,663.25 207.480528483465,676.75 213.710394323696,676.75 213.710394323696,685.75 216.380336826653,670 213.710394323696,654.25 213.710394323696,663.25" style="fill:ForestGreen;stroke:purple;stroke-width:0"/> 
		</g>
<text x="211.930432655059" y="654.25" font-size="10px" fill="black"  text-anchor='start'   transform="rotate(-45 211.930432655059 654.25)" font-family="Times New Roman">gene_s403000</text>

		<g style="fill:none">
			<title>gene_s404000,s4,s4000,1487,1858,1</title>
			<polygon points="233.216572197529,663.25 233.216572197529,676.75 245.130387799209,676.75 245.130387799209,685.75 250.236308771358,670 245.130387799209,654.25 245.130387799209,663.25" style="fill:ForestGreen;stroke:purple;stroke-width:0"/> 
		</g>
<text x="241.726440484443" y="654.25" font-size="10px" fill="black"  text-anchor='start'   transform="rotate(-45 241.726440484443 654.25)" font-family="Times New Roman">gene_s404000</text>

		<g style="fill:none">
			<title>gene_s405000,s4,s4000,2344,2781,1</title>
			<polygon points="272.531704930066,663.25 272.531704930066,676.75 286.564959425845,676.75 286.564959425845,685.75 292.579211352608,670 286.564959425845,654.25 286.564959425845,663.25" style="fill:ForestGreen;stroke:purple;stroke-width:0"/> 
		</g>
<text x="282.555458141337" y="654.25" font-size="10px" fill="black"  text-anchor='start'   transform="rotate(-45 282.555458141337 654.25)" font-family="Times New Roman">gene_s405000</text>

		<g style="fill:none">
			<title>gene_s406000,s4,s4000,2816,3889,0</title>
			<polygon points="294.184846878441,670 308.952106186029,685.75 308.952106186029,676.75 343.409044570403,676.75 343.409044570403,663.25 308.952106186029,663.25 308.952106186029,654.25" style="fill:ForestGreen;stroke:purple;stroke-width:0"/> 
		</g>
<text x="318.796945724422" y="654.25" font-size="10px" fill="black"  text-anchor='start'   transform="rotate(-45 318.796945724422 654.25)" font-family="Times New Roman">gene_s406000</text>
<rect x="373.778493659014" y="665.5" width="321.172980467316" height="9" style="fill:green"   />

		<g style="fill:none">
			<title>gene_s4020000,s4,s40000,107,889,1</title>
			<polygon points="378.687150837989,663.25 378.687150837989,676.75 403.799290462015,676.75 403.799290462015,685.75 414.561636015169,670 403.799290462015,654.25 403.799290462015,663.25" style="fill:ForestGreen;stroke:purple;stroke-width:0"/> 
		</g>
<text x="396.624393426579" y="654.25" font-size="10px" fill="black"  text-anchor='start'   transform="rotate(-45 396.624393426579 654.25)" font-family="Times New Roman">gene_s4020000</text>

		<g style="fill:none">
			<title>gene_s4030000,s4,s40000,1926,2120,1</title>
			<polygon points="462.134322880561,663.25 462.134322880561,676.75 468.364188720793,676.75 468.364188720793,685.75 471.034131223749,670 468.364188720793,654.25 468.364188720793,663.25" style="fill:ForestGreen;stroke:purple;stroke-width:0"/> 
		</g>
<text x="466.584227052155" y="654.25" font-size="10px" fill="black"  text-anchor='start'   transform="rotate(-45 466.584227052155 654.25)" font-family="Times New Roman">gene_s4030000</text>

		<g style="fill:none">
			<title>gene_s4040000,s4,s40000,2487,2858,1</title>
			<polygon points="487.870366594625,663.25 487.870366594625,676.75 499.784182196305,676.75 499.784182196305,685.75 504.890103168454,670 499.784182196305,654.25 499.784182196305,663.25" style="fill:ForestGreen;stroke:purple;stroke-width:0"/> 
		</g>
<text x="496.38023488154" y="654.25" font-size="10px" fill="black"  text-anchor='start'   transform="rotate(-45 496.38023488154 654.25)" font-family="Times New Roman">gene_s4040000</text>

		<g style="fill:none">
			<title>gene_s4050000,s4,s40000,3344,3781,1</title>
			<polygon points="527.185499327162,663.25 527.185499327162,676.75 541.218753822942,676.75 541.218753822942,685.75 547.233005749704,670 541.218753822942,654.25 541.218753822942,663.25" style="fill:ForestGreen;stroke:purple;stroke-width:0"/> 
		</g>
<text x="537.209252538433" y="654.25" font-size="10px" fill="black"  text-anchor='start'   transform="rotate(-45 537.209252538433 654.25)" font-family="Times New Roman">gene_s4050000</text>

		<g style="fill:none">
			<title>gene_s4060000,s4,s40000,3816,4889,0</title>
			<polygon points="548.838641275537,670 563.605900583126,685.75 563.605900583126,676.75 598.0628389675,676.75 598.0628389675,663.25 563.605900583126,663.25 563.605900583126,654.25" style="fill:ForestGreen;stroke:purple;stroke-width:0"/> 
		</g>
<text x="573.450740121519" y="654.25" font-size="10px" fill="black"  text-anchor='start'   transform="rotate(-45 573.450740121519 654.25)" font-family="Times New Roman">gene_s4060000</text>

		<g style="fill:none">
			<title>gene_s4070000,s4,s40000,5006,5422,1</title>
			<polygon points="603.430249153856,663.25 603.430249153856,676.75 616.789136728785,676.75 616.789136728785,685.75 622.514374260898,670 616.789136728785,654.25 616.789136728785,663.25" style="fill:ForestGreen;stroke:purple;stroke-width:0"/> 
		</g>
<text x="612.972311707377" y="654.25" font-size="10px" fill="black"  text-anchor='start'   transform="rotate(-45 612.972311707377 654.25)" font-family="Times New Roman">gene_s4070000</text>

		<g style="fill:none">
			<title>gene_s4080000,s4,s40000,5665,6603,1</title>
			<polygon points="633.662072340252,663.25 633.662072340252,676.75 663.783794804877,676.75 663.783794804877,685.75 676.693104432574,670 663.783794804877,654.25 663.783794804877,663.25" style="fill:ForestGreen;stroke:purple;stroke-width:0"/> 
		</g>
<text x="655.177588386413" y="654.25" font-size="10px" fill="black"  text-anchor='start'   transform="rotate(-45 655.177588386413 654.25)" font-family="Times New Roman">gene_s4080000</text>
<rect x="720.182889532276" y="665.5" width="73.859234188313" height="9" style="fill:green"   />
<g fill="none" stroke="black" stroke-width="2"><path stroke-dasharray="2,2" d="M694.95147412633,670 L719.930575378216,670" /></g>
		<g style="fill:none">
			<title>gene_s4100000,s4,s40000,89,361,0</title>
			<polygon points="724.265791297965,670 728.009215838193,685.75 728.009215838193,676.75 736.743873098724,676.75 736.743873098724,663.25 728.009215838193,663.25 728.009215838193,654.25" style="fill:ForestGreen;stroke:purple;stroke-width:0"/> 
		</g>
<text x="730.504832198344" y="654.25" font-size="10px" fill="black"  text-anchor='start'   transform="rotate(-45 730.504832198344 654.25)" font-family="Times New Roman">gene_s4100000</text>
<polygon points="299.185254658892,310 308.08506300208,310 308.08506300208,490 299.185254658892,490" style="fill:rgb(255,222,173);stroke:#000000;stroke-width:0;opacity:0.6"/><polygon points="299.185254658892,490 308.08506300208,490 216.380336826653,670 207.480528483465,670" style="fill:rgb(255,222,173);stroke:#000000;stroke-width:0;opacity:0.6"/><polygon points="491.035762345553,130 510.119887452595,130 459.565306039229,310 440.481180932186,310" style="fill:rgb(255,222,173);stroke:#000000;stroke-width:0;opacity:0.6"/><polygon points="440.481180932186,310 459.565306039229,310 601.870488928761,490 582.786363821718,490" style="fill:rgb(255,222,173);stroke:#000000;stroke-width:0;opacity:0.6"/><polygon points="582.786363821718,490 601.870488928761,490 622.514374260898,670 603.430249153856,670" style="fill:rgb(255,222,173);stroke:#000000;stroke-width:0;opacity:0.6"/><polygon points="299.185254658892,310 308.08506300208,310 458.968927129633,490 441.949190555805,490" style="fill:rgb(255,222,173);stroke:#000000;stroke-width:0;opacity:0.6"/><polygon points="586.594013782979,130 599.072095583738,130 548.517514170371,310 536.039432369612,310" style="fill:rgb(255,222,173);stroke:#000000;stroke-width:0;opacity:0.6"/><polygon points="536.039432369612,310 548.517514170371,310 690.822697059903,490 678.344615259144,490" style="fill:rgb(255,222,173);stroke:#000000;stroke-width:0;opacity:0.6"/><polygon points="678.344615259144,490 690.822697059903,490 547.233005749704,670 527.185499327162,670" style="fill:rgb(255,222,173);stroke:#000000;stroke-width:0;opacity:0.6"/><polygon points="1019.565102149,130 1068.78929984097,130 1128.97769440933,310 1116.49961260857,310" style="fill:rgb(255,222,173);stroke:#000000;stroke-width:0;opacity:0.6"/><polygon points="1116.49961260857,310 1128.97769440933,310 736.743873098724,670 724.265791297965,670" style="fill:rgb(255,222,173);stroke:#000000;stroke-width:0;opacity:0.6"/><rect x="1312.125" y="364" width="47.25" height="16" style="fill:rgb(255,165,0);stroke:black;stroke-width:1;fill-opacity:1;stroke-opacity:1" /><text x="1365.45" y="378" font-size="18px" fill="black" text-anchor='start'>legend.s2</text><rect x="1312.125" y="384" width="47.25" height="16" style="fill:yellow;stroke:black;stroke-width:1;fill-opacity:1;stroke-opacity:1" /><text x="1365.45" y="398" font-size="18px" fill="black" text-anchor='start'>legend.s1i</text><rect x="1312.125" y="404" width="47.25" height="16" style="fill:red;stroke:black;stroke-width:1;fill-opacity:1;stroke-opacity:1" /><text x="1365.45" y="418" font-size="18px" fill="black" text-anchor='start'>legend.s1</text><rect x="1312.125" y="424" width="47.25" height="16" style="fill:black;stroke:black;stroke-width:1;fill-opacity:1;stroke-opacity:1" /><text x="1365.45" y="438" font-size="18px" fill="black" text-anchor='start'>legend.s1.g</text><rect x="1305.375" y="360" width="173.25" height="83.2" style="fill:none;stroke:black;stroke-width:1;fill-opacity:0;stroke-opacity:1" />
</svg>