<svg xmlns="http://www.w3.org/2000/svg" version="1.1" width="1500" height="800" style="background-color:white;">
<text x="135" y="130.18" font-size="15px" fill="black"  text-anchor='end'>s1</text>
<g fill="none" stroke="black" stroke-width="2"><path stroke-dasharray="2,5" d="M291.775853517401,130 L314.792923865421,130" /></g><g fill="none" stroke="black" stroke-width="2"><path stroke-dasharray="2,5" d="M455.034306026287,130 L478.051376374308,130" /></g><g fill="none" stroke="black" stroke-width="2"><path stroke-dasharray="2,5" d="M1065.66090766306,130 L1088.67797801108,130" /></g><text x="135" y="310.18" font-size="15px" fill="black"  text-anchor='end'>s2</text>
<g fill="none" stroke="black" stroke-width="2"><path stroke-dasharray="2,5" d="M987.077374555675,310 L1010.0944449037,310" /></g><text x="135" y="490.18" font-size="15px" fill="black"  text-anchor='end'>s4</text>
<g fill="none" stroke="black" stroke-width="2"><path stroke-dasharray="2,5" d="M684.83301645036,490 L707.85008679838,490" /></g><text x="135" y="670.18" font-size="15px" fill="black"  text-anchor='end'>s3</text>
<g fill="none" stroke="black" stroke-width="2"><path stroke-dasharray="2,5" d="M242.998264032405,670 L266.015334380425,670" /></g><g fill="none" stroke="black" stroke-width="2"><path stroke-dasharray="2,5" d="M404.861742580805,670 L427.878812928825,670" /></g><rect x="1312.125" y="391.936" width="47.25" height="5.04" style="fill:black;stroke:black;stroke-width:0.5;fill-opacity:1;stroke-opacity:1" /><text x="1365.45" y="396.724" font-size="20px" fill="black" text-anchor='start'>legend.s1i</text><rect x="1312.125" y="397.48" width="47.25" height="5.04" style="fill:red;stroke:black;stroke-width:0.5;fill-opacity:1;stroke-opacity:1" /><text x="1365.45" y="402.268" font-size="20px" fill="black" text-anchor='start'>legend.s1</text><rect x="1312.125" y="403.024" width="47.25" height="5.04" style="fill:rgb(255,165,0);stroke:black;stroke-width:0.5;fill-opacity:1;stroke-opacity:1" /><text x="1365.45" y="407.812" font-size="20px" fill="black" text-anchor='start'>legend.s2</text>
<line x1="150" y1="752" x2="1275" y2="752" style="stroke:green;stroke-width:0.5"/>
<line x1="150" y1="744" x2="150" y2="752" style="stroke:green;stroke-width:0.5;opacity:1"/>
<text x="150" y="767" font-size="13px" fill="green"  text-anchor='middle' font-family="Times New Roman">0</text>
<line x1="242.998264032405" y1="744" x2="242.998264032405" y2="752" style="stroke:green;stroke-width:0.5;opacity:1"/>
<text x="242.998264032405" y="767" font-size="13px" fill="green"  text-anchor='middle' font-family="Times New Roman">2,000</text>
<line x1="335.996528064809" y1="744" x2="335.996528064809" y2="752" style="stroke:green;stroke-width:0.5;opacity:1"/>
<text x="335.996528064809" y="767" font-size="13px" fill="green"  text-anchor='middle' font-family="Times New Roman">4,000</text>
<line x1="428.994792097214" y1="744" x2="428.994792097214" y2="752" style="stroke:green;stroke-width:0.5;opacity:1"/>
<text x="428.994792097214" y="767" font-size="13px" fill="green"  text-anchor='middle' font-family="Times New Roman">6,000</text>
<line x1="521.993056129619" y1="744" x2="521.993056129619" y2="752" style="stroke:green;stroke-width:0.5;opacity:1"/>
<text x="521.993056129619" y="767" font-size="13px" fill="green"  text-anchor='middle' font-family="Times New Roman">8,000</text>
<line x1="614.991320162024" y1="744" x2="614.991320162024" y2="752" style="stroke:green;stroke-width:0.5;opacity:1"/>
<text x="614.991320162024" y="767" font-size="13px" fill="green"  text-anchor='middle' font-family="Times New Roman">10,000</text>
<line x1="707.989584194428" y1="744" x2="707.989584194428" y2="752" style="stroke:green;stroke-width:0.5;opacity:1"/>
<text x="707.989584194428" y="767" font-size="13px" fill="green"  text-anchor='middle' font-family="Times New Roman">12,000</text>
<line x1="800.987848226833" y1="744" x2="800.987848226833" y2="752" style="stroke:green;stroke-width:0.5;opacity:1"/>
<text x="800.987848226833" y="767" font-size="13px" fill="green"  text-anchor='middle' font-family="Times New Roman">14,000</text>
<line x1="893.986112259238" y1="744" x2="893.986112259238" y2="752" style="stroke:green;stroke-width:0.5;opacity:1"/>
<text x="893.986112259238" y="767" font-size="13px" fill="green"  text-anchor='middle' font-family="Times New Roman">16,000</text>
<line x1="986.984376291643" y1="744" x2="986.984376291643" y2="752" style="stroke:green;stroke-width:0.5;opacity:1"/>
<text x="986.984376291643" y="767" font-size="13px" fill="green"  text-anchor='middle' font-family="Times New Roman">18,000</text>
<line x1="1079.98264032405" y1="744" x2="1079.98264032405" y2="752" style="stroke:green;stroke-width:0.5;opacity:1"/>
<text x="1079.98264032405" y="767" font-size="13px" fill="green"  text-anchor='middle' font-family="Times New Roman">20,000</text>
<line x1="1172.98090435645" y1="744" x2="1172.98090435645" y2="752" style="stroke:green;stroke-width:0.5;opacity:1"/>
<text x="1172.98090435645" y="767" font-size="13px" fill="green"  text-anchor='middle' font-family="Times New Roman">22,000</text>
<line x1="1275" y1="744" x2="1275" y2="752" style="stroke:green;stroke-width:0.5;opacity:1"/>
<text x="1275" y="767" font-size="13px" fill="green"  text-anchor='middle' font-family="Times New Roman">24,194bp</text>
<line x1="150" y1="24" x2="1275" y2="24" style="stroke:green;stroke-width:0.5"/>
<line x1="150" y1="32" x2="150" y2="24" style="stroke:green;stroke-width:0.5;opacity:1"/>
<text x="150" y="21" font-size="13px" fill="green"  text-anchor='middle' font-family="Times New Roman">0</text>
<line x1="242.998264032405" y1="32" x2="242.998264032405" y2="24" style="stroke:green;stroke-width:0.5;opacity:1"/>
<text x="242.998264032405" y="21" font-size="13px" fill="green"  text-anchor='middle' font-family="Times New Roman">2,000</text>
<line x1="335.996528064809" y1="32" x2="335.996528064809" y2="24" style="stroke:green;stroke-width:0.5;opacity:1"/>
<text x="335.996528064809" y="21" font-size="13px" fill="green"  text-anchor='middle' font-family="Times New Roman">4,000</text>
<line x1="428.994792097214" y1="32" x2="428.994792097214" y2="24" style="stroke:green;stroke-width:0.5;opacity:1"/>
<text x="428.994792097214" y="21" font-size="13px" fill="green"  text-anchor='middle' font-family="Times New Roman">6,000</text>
<line x1="521.993056129619" y1="32" x2="521.993056129619" y2="24" style="stroke:green;stroke-width:0.5;opacity:1"/>
<text x="521.993056129619" y="21" font-size="13px" fill="green"  text-anchor='middle' font-family="Times New Roman">8,000</text>
<line x1="614.991320162024" y1="32" x2="614.991320162024" y2="24" style="stroke:green;stroke-width:0.5;opacity:1"/>
<text x="614.991320162024" y="21" font-size="13px" fill="green"  text-anchor='middle' font-family="Times New Roman">10,000</text>
<line x1="707.989584194428" y1="32" x2="707.989584194428" y2="24" style="stroke:green;stroke-width:0.5;opacity:1"/>
<text x="707.989584194428" y="21" font-size="13px" fill="green"  text-anchor='middle' font-family="Times New Roman">12,000</text>
<line x1="800.987848226833" y1="32" x2="800.987848226833" y2="24" style="stroke:green;stroke-width:0.5;opacity:1"/>
<text x="800.987848226833" y="21" font-size="13px" fill="green"  text-anchor='middle' font-family="Times New Roman">14,000</text>
<line x1="893.986112259238" y1="32" x2="893.986112259238" y2="24" style="stroke:green;stroke-width:0.5;opacity:1"/>
<text x="893.986112259238" y="21" font-size="13px" fill="green"  text-anchor='middle' font-family="Times New Roman">16,000</text>
<line x1="986.984376291643" y1="32" x2="986.984376291643" y2="24" style="stroke:green;stroke-width:0.5;opacity:1"/>
<text x="986.984376291643" y="21" font-size="13px" fill="green"  text-anchor='middle' font-family="Times New Roman">18,000</text>
<line x1="1079.98264032405" y1="32" x2="1079.98264032405" y2="24" style="stroke:green;stroke-width:0.5;opacity:1"/>
<text x="1079.98264032405" y="21" font-size="13px" fill="green"  text-anchor='middle' font-family="Times New Roman">20,000</text>
<line x1="1172.98090435645" y1="32" x2="1172.98090435645" y2="24" style="stroke:green;stroke-width:0.5;opacity:1"/>
<text x="1172.98090435645" y="21" font-size="13px" fill="green"  text-anchor='middle' font-family="Times New Roman">22,000</text>
<line x1="1275" y1="32" x2="1275" y2="24" style="stroke:green;stroke-width:0.5;opacity:1"/>
<text x="1275" y="21" font-size="13px" fill="green"  text-anchor='middle' font-family="Times New Roman">24,194bp</text>


<g><title>gene_s203 -> gene_s303</title><polygon points="286.009961147392,310 295.030792758535,310 308.376043647185,670 317.396875258329,670" style="fill:#3CB371;stroke:#000000;stroke-width:0;opacity:0.5"/></g>
<g><title>gene_s110 -> gene_s210</title><polygon points="576.350541456559,130 588.998305364966,130 538.732743655452,310 526.084979747045,310" style="fill:#00BFFF;stroke:#000000;stroke-width:0;opacity:0.8"/></g>
<g><title>gene_s203 -> gene_s304</title><polygon points="286.009961147392,310 295.030792758535,310 351.713234686286,670 334.462056708275,670" style="fill:#FF8C00;stroke:#000000;stroke-width:0;opacity:0.6"/></g>
<g><title>gene_s2100000 -> gene_s4100000</title><polygon points="1107.46362734562,315.4 1120.11139125403,315.4 724.86876911631,484.6 712.221005207903,484.6" style="fill:#FF8C00;stroke:#000000;stroke-width:0;opacity:0.3"/></g>
<g><title>gene_s303 -> gene_s403000</title><polygon points="308.376043647185,670 317.396875258329,670 202.079027858147,490 193.058196247003,490" style="fill:#FF8C00;stroke:#000000;stroke-width:0;opacity:0.6"/></g>
<g><title>gene_s210 -> gene_s310</title><polygon points="526.084979747045,310 538.732743655452,310 579.744978093742,670 567.097214185335,670" style="fill:#FF8C00;stroke:#000000;stroke-width:0;opacity:0.6"/></g>
<g><title>gene_s1060000 -> gene_s2100000</title><polygon points="1010.55943622386,130 1060.45300487724,130 1120.11139125403,310 1107.46362734562,310" style="fill:#FF8C00;stroke:#000000;stroke-width:0;opacity:0.6"/></g>
<g><title>gene_s107 -> gene_s207</title><polygon points="479.49284946681,130 498.83648838555,130 429.227287757295,310 448.570926676035,310" style="fill:#3CB371;stroke:#000000;stroke-width:0;opacity:0.6"/></g>
<g><title>gene_s308 -> gene_s4070000</title><polygon points="500.882450194263,670 544.498636025461,670 592.067248078036,490 611.410886996776,490" style="fill:#3CB371;stroke:#000000;stroke-width:0;opacity:0.6"/></g>
<g><title>gene_s207 -> gene_s307</title><polygon points="429.227287757295,315.4 448.570926676035,315.4 489.583161114326,664.6 470.239522195586,664.6" style="fill:#FF8C00;stroke:#000000;stroke-width:0;opacity:0.6"/></g>
<g><title>gene_s310 -> gene_s4050000</title><polygon points="567.097214185335,670 579.744978093742,670 535.105811358188,490 514.785690667108,490" style="fill:#FF8C00;stroke:#000000;stroke-width:0;opacity:0.6"/></g>


<g><title>s1,2,3050</title><rect x="150" y="129.1" width="141.775853517401" height="1.8" style="fill:blue"   /></g>
<g><title>s1,3000,6010</title><rect x="315.025419525502" y="129.1" width="140.008886500785" height="1.8" style="fill:blue"   /></g>
<g><title>s1,5980,9609</title><rect x="478.283872034389" y="129.1" width="168.791849218815" height="1.8" style="fill:blue"   /></g>
<g><title>s1000,2000,6000</title><rect x="670.325287261304" y="129.1" width="186.043027196826" height="1.8" style="fill:blue"   /></g>

				<g style="fill:none">
				<title>gene_s103000,s1,s1000,2925,3119,1</title>
				<polygon points="713.383483508308,128.2 713.383483508308,131.8 719.698065636108,131.8 719.698065636108,133.6 722.404315119451,130 719.698065636108,126.4 719.698065636108,128.2" style="fill:black;stroke:black;stroke-width:0;opacity:0.8"/> 
				</g>
<g><title>s10000,6000,10000</title><rect x="1088.91047367116" y="129.1" width="186.043027196826" height="1.8" style="fill:blue"   /></g>
<g><title>s2,1,9000</title><rect x="150" y="309.1" width="418.492188145821" height="1.8" style="fill:blue"   /></g>
<g><title>s2000,2000,6000</title><rect x="591.741754153922" y="309.1" width="186.043027196826" height="1.8" style="fill:blue"   /></g>
<g><title>s20000,2000,6000</title><rect x="801.034347358849" y="309.1" width="186.043027196826" height="1.8" style="fill:blue"   /></g>
<g><title>s20000,6000,10000</title><rect x="1010.32694056378" y="309.1" width="186.043027196826" height="1.8" style="fill:blue"   /></g>
<g><title>s4000,2000,6000</title><rect x="150" y="489.1" width="186.043027196826" height="1.8" style="fill:blue"   /></g>
<g><title>s40000,1000,8000</title><rect x="359.292593204927" y="489.1" width="325.540423245433" height="1.8" style="fill:blue"   /></g>
<g><title>s40000,8000,9609</title><rect x="708.082582458461" y="489.1" width="74.8636025460858" height="1.8" style="fill:blue"   /></g>
<g><title>s3,11,2010</title><rect x="150" y="669.1" width="92.9982640324047" height="1.8" style="fill:blue"   /></g>
<g><title>s3,2020,5000</title><rect x="266.247830040506" y="669.1" width="138.613912540299" height="1.8" style="fill:blue"   /></g>
<g><title>s3,5100,9609</title><rect x="428.111308588906" y="669.1" width="209.711085393073" height="1.8" style="fill:blue"   /></g>
<g><title>s3000,2000,6000</title><rect x="661.07195999008" y="669.1" width="186.043027196826" height="1.8" style="fill:blue"   /></g>
<g><title>s30000,2000,6000</title><rect x="870.364553195007" y="669.1" width="186.043027196826" height="1.8" style="fill:blue"   /></g>



				<g style="fill:none">
				<title>gene_s101,s1,s1,87,1109,1</title>
				<polygon points="153.998925353393,126.4 153.998925353393,133.6 187.264404397785,133.6 187.264404397785,135.4 201.521038273952,130 187.264404397785,124.6 187.264404397785,126.4" style="fill:rgb(50,205,50);stroke:black;stroke-width:0;opacity:0.8"/> 
				</g>

				<g style="fill:none">
				<title>gene_s102,s1,s1,1106,1888,1</title>
				<polygon points="201.381540877904,126.4 201.381540877904,133.6 226.835165743573,133.6 226.835165743573,135.4 237.743862114574,130 226.835165743573,124.6 226.835165743573,126.4" style="fill:rgb(50,205,50);stroke:black;stroke-width:0;opacity:0.8"/> 
				</g>

				<g style="fill:none">
				<title>gene_s104,s1,s1,3486,3857,1</title>
				<polygon points="337.670496817393,126.4 337.670496817393,133.6 349.746321402,133.6 349.746321402,135.4 354.921674795404,130 349.746321402,124.6 349.746321402,126.4" style="fill:rgb(50,205,50);stroke:black;stroke-width:0;opacity:0.8"/> 
				</g>

				<g style="fill:none">
				<title>gene_s105,s1,s1,4343,4780,1</title>
				<polygon points="377.520252955278,126.4 377.520252955278,133.6 391.744337439034,133.6 391.744337439034,135.4 397.840373646359,130 391.744337439034,124.6 391.744337439034,126.4" style="fill:rgb(50,205,50);stroke:black;stroke-width:0;opacity:0.8"/> 
				</g>

				<g style="fill:none">
				<title>gene_s106,s1,s1,4815,5888,0</title>
				<polygon points="399.467843266926,130 414.435913862941,135.4 414.435913862941,133.6 449.361411920311,133.6 449.361411920311,126.4 414.435913862941,126.4 414.435913862941,124.6" style="fill:rgb(50,205,50);stroke:black;stroke-width:0;opacity:0.8"/> 
				</g>

				<g style="fill:none">
				<title>gene_s107,s1,s1,6005,6421,1</title>
				<polygon points="479.49284946681,126.4 479.49284946681,133.6 493.033396709928,133.6 493.033396709928,135.4 498.83648838555,130 493.033396709928,124.6 493.033396709928,126.4" style="fill:rgb(50,205,50);stroke:black;stroke-width:0;opacity:0.8"/> 
				</g>

				<g style="fill:none">
				<title>gene_s108,s1,s1,6664,7602,1</title>
				<polygon points="510.135777465487,126.4 510.135777465487,133.6 540.667107547326,133.6 540.667107547326,135.4 553.751963296685,130 540.667107547326,124.6 540.667107547326,126.4" style="fill:rgb(50,205,50);stroke:black;stroke-width:0;opacity:0.8"/> 
				</g>

				<g style="fill:none">
				<title>gene_s109,s1,s1,7789,8088,0</title>
				<polygon points="562.447300983715,130 566.618273125568,135.4 566.618273125568,133.6 576.350541456559,133.6 576.350541456559,126.4 566.618273125568,126.4 566.618273125568,124.6" style="fill:rgb(50,205,50);stroke:black;stroke-width:0;opacity:0.8"/> 
				</g>

				<g style="fill:none">
				<title>gene_s110,s1,s1,8088,8360,0</title>
				<polygon points="576.350541456559,130 580.144870629082,135.4 580.144870629082,133.6 588.998305364966,133.6 588.998305364966,126.4 580.144870629082,126.4 580.144870629082,124.6" style="fill:rgb(50,205,50);stroke:black;stroke-width:0;opacity:0.8"/> 
				</g>

				<g style="fill:none">
				<title>gene_s104000,s1,s1000,3486,3857,1</title>
				<polygon points="739.469496569397,126.4 739.469496569397,133.6 751.545321154005,133.6 751.545321154005,135.4 756.720674547408,130 751.545321154005,124.6 751.545321154005,126.4" style="fill:rgb(50,205,50);stroke:black;stroke-width:0;opacity:0.8"/> 
				</g>

				<g style="fill:none">
				<title>gene_s105000,s1,s1000,4343,4780,1</title>
				<polygon points="779.319252707283,126.4 779.319252707283,133.6 793.543337191039,133.6 793.543337191039,135.4 799.639373398363,130 793.543337191039,124.6 793.543337191039,126.4" style="fill:rgb(50,205,50);stroke:black;stroke-width:0;opacity:0.8"/> 
				</g>

				<g style="fill:none">
				<title>gene_s106000,s1,s1000,4815,5888,0</title>
				<polygon points="801.26684301893,130 816.234913614946,135.4 816.234913614946,133.6 851.160411672315,133.6 851.160411672315,126.4 816.234913614946,126.4 816.234913614946,124.6" style="fill:rgb(50,205,50);stroke:black;stroke-width:0;opacity:0.8"/> 
				</g>

				<g style="fill:none">
				<title>gene_s1040000,s1,s10000,3486,3857,1</title>
				<polygon points="948.762089774324,126.4 948.762089774324,133.6 960.837914358932,133.6 960.837914358932,135.4 966.013267752335,130 960.837914358932,124.6 960.837914358932,126.4" style="fill:rgb(50,205,50);stroke:black;stroke-width:0;opacity:0.8"/> 
				</g>

				<g style="fill:none">
				<title>gene_s1050000,s1,s10000,4343,4780,1</title>
				<polygon points="988.61184591221,126.4 988.61184591221,133.6 1002.83593039597,133.6 1002.83593039597,135.4 1008.93196660329,130 1002.83593039597,124.6 1002.83593039597,126.4" style="fill:rgb(50,205,50);stroke:black;stroke-width:0;opacity:0.8"/> 
				</g>

				<g style="fill:none">
				<title>gene_s1060000,s1,s10000,4815,5888,0</title>
				<polygon points="1010.55943622386,130 1025.52750681987,135.4 1025.52750681987,133.6 1060.45300487724,133.6 1060.45300487724,126.4 1025.52750681987,126.4 1025.52750681987,124.6" style="fill:rgb(50,205,50);stroke:black;stroke-width:0;opacity:0.8"/> 
				</g>

				<g style="fill:none">
				<title>gene_s1070000,s1,s10000,6005,6421,1</title>
				<polygon points="1089.18946846326,126.4 1089.18946846326,133.6 1102.73001570637,133.6 1102.73001570637,135.4 1108.533107382,130 1102.73001570637,124.6 1102.73001570637,126.4" style="fill:rgb(50,205,50);stroke:black;stroke-width:0;opacity:0.8"/> 
				</g>

				<g style="fill:none">
				<title>gene_s1080000,s1,s10000,6664,7602,1</title>
				<polygon points="1119.83239646193,126.4 1119.83239646193,133.6 1150.36372654377,133.6 1150.36372654377,135.4 1163.44858229313,130 1150.36372654377,124.6 1150.36372654377,126.4" style="fill:rgb(50,205,50);stroke:black;stroke-width:0;opacity:0.8"/> 
				</g>

				<g style="fill:none">
				<title>gene_s1090000,s1,s10000,7789,8088,0</title>
				<polygon points="1172.14391998016,130 1176.31489212201,135.4 1176.31489212201,133.6 1186.047160453,133.6 1186.047160453,126.4 1176.31489212201,126.4 1176.31489212201,124.6" style="fill:rgb(50,205,50);stroke:black;stroke-width:0;opacity:0.8"/> 
				</g>

				<g style="fill:none">
				<title>gene_s1100000,s1,s10000,8088,8360,0</title>
				<polygon points="1186.047160453,130 1189.84148962553,135.4 1189.84148962553,133.6 1198.69492436141,133.6 1198.69492436141,126.4 1189.84148962553,126.4 1189.84148962553,124.6" style="fill:rgb(50,205,50);stroke:black;stroke-width:0;opacity:0.8"/> 
				</g>

				<g style="fill:none">
				<title>gene_s11000001,s1,s10000,8361,8560,0</title>
				<polygon points="1198.74142349343,130 1201.5174216748,135.4 1201.5174216748,133.6 1207.99475076465,133.6 1207.99475076465,126.4 1201.5174216748,126.4 1201.5174216748,124.6" style="fill:rgb(50,205,50);stroke:black;stroke-width:0;opacity:0.8"/> 
				</g>

				<g style="fill:none">
				<title>gene_s201,s2,s2,87,1109,1</title>
				<polygon points="154.04542448541,306.4 154.04542448541,313.6 187.310903529801,313.6 187.310903529801,315.4 201.567537405968,310 187.310903529801,304.6 187.310903529801,306.4" style="fill:rgb(50,205,50);stroke:black;stroke-width:0;opacity:0.8"/> 
				</g>

				<g style="fill:none">
				<title>gene_s202,s2,s2,1106,1888,1</title>
				<polygon points="201.42804000992,306.4 201.42804000992,313.6 226.881664875589,313.6 226.881664875589,315.4 237.79036124659,310 226.881664875589,304.6 226.881664875589,306.4" style="fill:rgb(50,205,50);stroke:black;stroke-width:0;opacity:0.8"/> 
				</g>

				<g style="fill:none">
				<title>gene_s203,s2,s2,2925,3119,1</title>
				<polygon points="286.009961147392,306.4 286.009961147392,313.6 292.324543275192,313.6 292.324543275192,315.4 295.030792758535,310 292.324543275192,304.6 292.324543275192,306.4" style="fill:rgb(50,205,50);stroke:black;stroke-width:0;opacity:0.8"/> 
				</g>

				<g style="fill:none">
				<title>gene_s204,s2,s2,3486,3857,1</title>
				<polygon points="312.095974208481,306.4 312.095974208481,313.6 324.171798793089,313.6 324.171798793089,315.4 329.347152186493,310 324.171798793089,304.6 324.171798793089,306.4" style="fill:rgb(50,205,50);stroke:black;stroke-width:0;opacity:0.8"/> 
				</g>

				<g style="fill:none">
				<title>gene_s205,s2,s2,4343,4780,1</title>
				<polygon points="351.945730346367,306.4 351.945730346367,313.6 366.169814830123,313.6 366.169814830123,315.4 372.265851037447,310 366.169814830123,304.6 366.169814830123,306.4" style="fill:rgb(50,205,50);stroke:black;stroke-width:0;opacity:0.8"/> 
				</g>

				<g style="fill:none">
				<title>gene_s206,s2,s2,4815,5888,0</title>
				<polygon points="373.893320658014,310 388.86139125403,315.4 388.86139125403,313.6 423.786889311399,313.6 423.786889311399,306.4 388.86139125403,306.4 388.86139125403,304.6" style="fill:rgb(50,205,50);stroke:black;stroke-width:0;opacity:0.8"/> 
				</g>

				<g style="fill:none">
				<title>gene_s207,s2,s2,6005,6421,1</title>
				<polygon points="429.227287757295,306.4 429.227287757295,313.6 429.227287757295,313.6 429.227287757295,315.4 448.570926676035,310 429.227287757295,304.6 429.227287757295,306.4" style="fill:rgb(255,165,0);stroke:black;stroke-width:0;opacity:0.8"/> 
				</g>

				<g style="fill:none">
				<title>gene_s208,s2,s2,6664,7602,1</title>
				<polygon points="459.870215755973,306.4 459.870215755973,313.6 490.401545837811,313.6 490.401545837811,315.4 503.48640158717,310 490.401545837811,304.6 490.401545837811,306.4" style="fill:rgb(50,205,50);stroke:black;stroke-width:0;opacity:0.8"/> 
				</g>

				<g style="fill:none">
				<title>gene_s209,s2,s2,7789,8088,0</title>
				<polygon points="512.1817392742,310 516.352711416054,315.4 516.352711416054,313.6 526.084979747045,313.6 526.084979747045,306.4 516.352711416054,306.4 516.352711416054,304.6" style="fill:rgb(50,205,50);stroke:black;stroke-width:0;opacity:0.8"/> 
				</g>

				<g style="fill:none">
				<title>gene_s210,s2,s2,8088,8360,0</title>
				<polygon points="526.084979747045,310 529.879308919567,315.4 529.879308919567,313.6 538.732743655452,313.6 538.732743655452,306.4 529.879308919567,306.4 529.879308919567,304.6" style="fill:rgb(50,205,50);stroke:black;stroke-width:0;opacity:0.8"/> 
				</g>

				<g style="fill:none">
				<title>gene_s203000,s2,s2000,2925,3119,1</title>
				<polygon points="634.799950400926,306.4 634.799950400926,313.6 641.114532528726,313.6 641.114532528726,315.4 643.820782012069,310 641.114532528726,304.6 641.114532528726,306.4" style="fill:rgb(50,205,50);stroke:black;stroke-width:0;opacity:0.8"/> 
				</g>

				<g style="fill:none">
				<title>gene_s204000,s2,s2000,3486,3857,1</title>
				<polygon points="660.885963462015,306.4 660.885963462015,313.6 672.961788046623,313.6 672.961788046623,315.4 678.137141440026,310 672.961788046623,304.6 672.961788046623,306.4" style="fill:rgb(50,205,50);stroke:black;stroke-width:0;opacity:0.8"/> 
				</g>

				<g style="fill:none">
				<title>gene_s205000,s2,s2000,4343,4780,1</title>
				<polygon points="700.735719599901,306.4 700.735719599901,313.6 714.959804083657,313.6 714.959804083657,315.4 721.055840290981,310 714.959804083657,304.6 714.959804083657,306.4" style="fill:rgb(50,205,50);stroke:black;stroke-width:0;opacity:0.8"/> 
				</g>

				<g style="fill:none">
				<title>gene_s206000,s2,s2000,4815,5888,0</title>
				<polygon points="722.683309911548,306.4 722.683309911548,313.6 772.576878564934,313.6 772.576878564934,306.4 " style="fill:rgb(255,165,0);stroke:black;stroke-width:0;opacity:0.5"/> 
				</g>

				<g style="fill:none">
				<title>gene_s2030000,s2,s20000,2925,3119,1</title>
				<polygon points="844.092543605853,306.4 844.092543605853,313.6 850.407125733653,313.6 850.407125733653,315.4 853.113375216996,310 850.407125733653,304.6 850.407125733653,306.4" style="fill:rgb(50,205,50);stroke:black;stroke-width:0;opacity:0.8"/> 
				</g>

				<g style="fill:none">
				<title>gene_s2040000,s2,s20000,3486,3857,1</title>
				<polygon points="870.178556666942,306.4 870.178556666942,313.6 882.25438125155,313.6 882.25438125155,315.4 887.429734644953,310 882.25438125155,304.6 882.25438125155,306.4" style="fill:rgb(50,205,50);stroke:black;stroke-width:0;opacity:0.8"/> 
				</g>

				<g style="fill:none">
				<title>gene_s2050000,s2,s20000,4343,4780,1</title>
				<polygon points="910.028312804828,306.4 910.028312804828,313.6 924.252397288584,313.6 924.252397288584,315.4 930.348433495908,310 924.252397288584,304.6 924.252397288584,306.4" style="fill:rgb(50,205,50);stroke:black;stroke-width:0;opacity:0.8"/> 
				</g>

				<g style="fill:none">
				<title>gene_s2060000,s2,s20000,4815,5888,0</title>
				<polygon points="931.975903116475,310 946.943973712491,315.4 946.943973712491,313.6 981.86947176986,313.6 981.86947176986,306.4 946.943973712491,306.4 946.943973712491,304.6" style="fill:rgb(50,205,50);stroke:black;stroke-width:0;opacity:0.8"/> 
				</g>

				<g style="fill:none">
				<title>gene_s2070000,s2,s20000,6005,6421,1</title>
				<polygon points="1010.60593535587,306.4 1010.60593535587,313.6 1022.21211870712,313.6 1022.21211870712,313.6 1029.94957427461,310 1022.21211870712,306.4 1022.21211870712,306.4" style="fill:rgb(255,165,0);stroke:black;stroke-width:0;opacity:0.8"/> 
				</g>

				<g style="fill:none">
				<title>gene_s2080000,s2,s20000,6664,7602,1</title>
				<polygon points="1041.24886335455,306.4 1041.24886335455,313.6 1071.78019343639,313.6 1071.78019343639,315.4 1084.86504918575,310 1071.78019343639,304.6 1071.78019343639,306.4" style="fill:rgb(50,205,50);stroke:black;stroke-width:0;opacity:0.8"/> 
				</g>

				<g style="fill:none">
				<title>gene_s2090000,s2,s20000,7789,8088,0</title>
				<polygon points="1093.56038687278,310 1097.73135901463,315.4 1097.73135901463,313.6 1107.46362734562,313.6 1107.46362734562,306.4 1097.73135901463,306.4 1097.73135901463,304.6" style="fill:rgb(50,205,50);stroke:black;stroke-width:0;opacity:0.8"/> 
				</g>

				<g style="fill:none">
				<title>gene_s2100000,s2,s20000,8088,8360,0</title>
				<polygon points="1107.46362734562,310 1111.25795651814,315.4 1111.25795651814,313.6 1120.11139125403,313.6 1120.11139125403,306.4 1111.25795651814,306.4 1111.25795651814,304.6" style="fill:rgb(50,205,50);stroke:black;stroke-width:0;opacity:0.8"/> 
				</g>

				<g style="fill:none">
				<title>gene_s403000,s4,s4000,2925,3119,1</title>
				<polygon points="193.058196247003,486.4 193.058196247003,493.6 199.372778374804,493.6 199.372778374804,495.4 202.079027858147,490 199.372778374804,484.6 199.372778374804,486.4" style="fill:rgb(50,205,50);stroke:black;stroke-width:0;opacity:0.8"/> 
				</g>

				<g style="fill:none">
				<title>gene_s404000,s4,s4000,3486,3857,1</title>
				<polygon points="219.144209308093,486.4 219.144209308093,493.6 231.220033892701,493.6 231.220033892701,495.4 236.395387286104,490 231.220033892701,484.6 231.220033892701,486.4" style="fill:rgb(50,205,50);stroke:black;stroke-width:0;opacity:0.8"/> 
				</g>

				<g style="fill:none">
				<title>gene_s405000,s4,s4000,4343,4780,1</title>
				<polygon points="258.993965445978,486.4 258.993965445978,493.6 273.218049929735,493.6 273.218049929735,495.4 279.314086137059,490 273.218049929735,484.6 273.218049929735,486.4" style="fill:rgb(50,205,50);stroke:black;stroke-width:0;opacity:0.8"/> 
				</g>

				<g style="fill:none">
				<title>gene_s406000,s4,s4000,4815,5888,0</title>
				<polygon points="280.941555757626,490 295.909626353641,495.4 295.909626353641,493.6 330.835124411011,493.6 330.835124411011,486.4 295.909626353641,486.4 295.909626353641,484.6" style="fill:rgb(50,205,50);stroke:black;stroke-width:0;opacity:0.8"/> 
				</g>

				<g style="fill:none">
				<title>gene_s4020000,s4,s40000,1106,1888,1</title>
				<polygon points="364.26800033066,486.4 364.26800033066,493.6 389.72162519633,493.6 389.72162519633,495.4 400.630321567331,490 389.72162519633,484.6 389.72162519633,486.4" style="fill:rgb(50,205,50);stroke:black;stroke-width:0;opacity:0.8"/> 
				</g>

				<g style="fill:none">
				<title>gene_s4030000,s4,s40000,2925,3119,1</title>
				<polygon points="448.849921468133,486.4 448.849921468133,493.6 455.164503595933,493.6 455.164503595933,495.4 457.870753079276,490 455.164503595933,484.6 455.164503595933,486.4" style="fill:rgb(50,205,50);stroke:black;stroke-width:0;opacity:0.8"/> 
				</g>

				<g style="fill:none">
				<title>gene_s4040000,s4,s40000,3486,3857,1</title>
				<polygon points="474.935934529222,486.4 474.935934529222,493.6 487.01175911383,493.6 487.01175911383,495.4 492.187112507233,490 487.01175911383,484.6 487.01175911383,486.4" style="fill:rgb(50,205,50);stroke:black;stroke-width:0;opacity:0.8"/> 
				</g>

				<g style="fill:none">
				<title>gene_s4050000,s4,s40000,4343,4780,1</title>
				<polygon points="514.785690667108,486.4 514.785690667108,493.6 529.009775150864,493.6 529.009775150864,495.4 535.105811358188,490 529.009775150864,484.6 529.009775150864,486.4" style="fill:rgb(50,205,50);stroke:black;stroke-width:0;opacity:0.8"/> 
				</g>

				<g style="fill:none">
				<title>gene_s4060000,s4,s40000,4815,5888,0</title>
				<polygon points="536.733280978755,490 551.701351574771,495.4 551.701351574771,493.6 586.62684963214,493.6 586.62684963214,486.4 551.701351574771,486.4 551.701351574771,484.6" style="fill:rgb(50,205,50);stroke:black;stroke-width:0;opacity:0.8"/> 
				</g>

				<g style="fill:none">
				<title>gene_s4070000,s4,s40000,6005,6421,1</title>
				<polygon points="592.067248078036,486.4 592.067248078036,493.6 605.607795321154,493.6 605.607795321154,495.4 611.410886996776,490 605.607795321154,484.6 605.607795321154,486.4" style="fill:rgb(50,205,50);stroke:black;stroke-width:0;opacity:0.8"/> 
				</g>

				<g style="fill:none">
				<title>gene_s4080000,s4,s40000,6664,7602,1</title>
				<polygon points="622.710176076713,486.4 622.710176076713,493.6 653.241506158552,493.6 653.241506158552,495.4 666.326361907911,490 653.241506158552,484.6 653.241506158552,486.4" style="fill:rgb(50,205,50);stroke:black;stroke-width:0;opacity:0.8"/> 
				</g>

				<g style="fill:none">
				<title>gene_s4100000,s4,s40000,8088,8360,0</title>
				<polygon points="712.221005207903,490 716.015334380425,495.4 716.015334380425,493.6 724.86876911631,493.6 724.86876911631,486.4 716.015334380425,486.4 716.015334380425,484.6" style="fill:rgb(50,205,50);stroke:black;stroke-width:0;opacity:0.8"/> 
				</g>

				<g style="fill:none">
				<title>gene_s410000000,s4,s40000,8188,8260,1</title>
				<polygon points="716.870918409523,486.4 716.870918409523,493.6 719.21447466314,493.6 719.21447466314,495.4 720.21885591469,490 719.21447466314,484.6 719.21447466314,486.4" style="fill:rgb(50,205,50);stroke:black;stroke-width:0;opacity:0.8"/> 
				</g>

				<g style="fill:none">
				<title>gene_s301,s3,s3,87,1109,1</title>
				<polygon points="153.580433165248,666.4 153.580433165248,673.6 186.845912209639,673.6 186.845912209639,675.4 201.102546085806,670 186.845912209639,664.6 186.845912209639,666.4" style="fill:rgb(50,205,50);stroke:black;stroke-width:0;opacity:0.8"/> 
				</g>

				<g style="fill:none">
				<title>gene_s302,s3,s3,1106,1888,1</title>
				<polygon points="200.963048689758,666.4 200.963048689758,673.6 226.416673555427,673.6 226.416673555427,675.4 237.325369926428,670 226.416673555427,664.6 226.416673555427,666.4" style="fill:rgb(50,205,50);stroke:black;stroke-width:0;opacity:0.8"/> 
				</g>

				<g style="fill:none">
				<title>gene_s303,s3,s3,2925,3119,1</title>
				<polygon points="308.376043647185,666.4 308.376043647185,673.6 314.690625774986,673.6 314.690625774986,675.4 317.396875258329,670 314.690625774986,664.6 314.690625774986,666.4" style="fill:rgb(50,205,50);stroke:black;stroke-width:0;opacity:0.8"/> 
				</g>

				<g style="fill:none">
				<title>gene_s304,s3,s3,3486,3857,1</title>
				<polygon points="334.462056708275,666.4 334.462056708275,673.6 346.537881292883,673.6 346.537881292883,675.4 351.713234686286,670 346.537881292883,664.6 346.537881292883,666.4" style="fill:rgb(50,205,50);stroke:black;stroke-width:0;opacity:0.8"/> 
				</g>

				<g style="fill:none">
				<title>gene_s305,s3,s3,4343,4780,1</title>
				<polygon points="374.31181284616,666.4 374.31181284616,673.6 388.535897329917,673.6 388.535897329917,675.4 394.631933537241,670 388.535897329917,664.6 388.535897329917,666.4" style="fill:rgb(50,205,50);stroke:black;stroke-width:0;opacity:0.8"/> 
				</g>

				<g style="fill:none">
				<title>gene_s307,s3,s3,6005,6421,1</title>
				<polygon points="470.239522195586,666.4 470.239522195586,673.6 483.780069438704,673.6 483.780069438704,675.4 489.583161114326,670 483.780069438704,664.6 483.780069438704,666.4" style="fill:rgb(50,205,50);stroke:black;stroke-width:0;opacity:0.8"/> 
				</g>

				<g style="fill:none">
				<title>gene_s308,s3,s3,6664,7602,1</title>
				<polygon points="500.882450194263,666.4 500.882450194263,673.6 531.413780276102,673.6 531.413780276102,675.4 544.498636025461,670 531.413780276102,664.6 531.413780276102,666.4" style="fill:rgb(50,205,50);stroke:black;stroke-width:0;opacity:0.8"/> 
				</g>

				<g style="fill:none">
				<title>gene_s309,s3,s3,7789,8088,0</title>
				<polygon points="553.193973712491,670 557.364945854344,675.4 557.364945854344,673.6 567.097214185335,673.6 567.097214185335,666.4 557.364945854344,666.4 557.364945854344,664.6" style="fill:rgb(50,205,50);stroke:black;stroke-width:0;opacity:0.8"/> 
				</g>

				<g style="fill:none">
				<title>gene_s310,s3,s3,8088,8360,0</title>
				<polygon points="567.097214185335,670 570.891543357857,675.4 570.891543357857,673.6 579.744978093742,673.6 579.744978093742,666.4 570.891543357857,666.4 570.891543357857,664.6" style="fill:rgb(50,205,50);stroke:black;stroke-width:0;opacity:0.8"/> 
				</g>

				<g style="fill:none">
				<title>gene_s303000,s3,s3000,2925,3119,1</title>
				<polygon points="704.130156237083,666.4 704.130156237083,673.6 710.444738364884,673.6 710.444738364884,675.4 713.150987848227,670 710.444738364884,664.6 710.444738364884,666.4" style="fill:rgb(50,205,50);stroke:black;stroke-width:0;opacity:0.8"/> 
				</g>

				<g style="fill:none">
				<title>gene_s304000,s3,s3000,3486,3857,1</title>
				<polygon points="730.216169298173,666.4 730.216169298173,673.6 742.291993882781,673.6 742.291993882781,675.4 747.467347276184,670 742.291993882781,664.6 742.291993882781,666.4" style="fill:rgb(50,205,50);stroke:black;stroke-width:0;opacity:0.8"/> 
				</g>

				<g style="fill:none">
				<title>gene_s305000,s3,s3000,4343,4780,1</title>
				<polygon points="770.065925436058,666.4 770.065925436058,673.6 784.290009919815,673.6 784.290009919815,675.4 790.386046127139,670 784.290009919815,664.6 784.290009919815,666.4" style="fill:rgb(50,205,50);stroke:black;stroke-width:0;opacity:0.8"/> 
				</g>

				<g style="fill:none">
				<title>gene_s306000,s3,s3000,4815,5888,0</title>
				<polygon points="792.013515747706,670 806.981586343721,675.4 806.981586343721,673.6 841.907084401091,673.6 841.907084401091,666.4 806.981586343721,666.4 806.981586343721,664.6" style="fill:rgb(50,205,50);stroke:black;stroke-width:0;opacity:0.8"/> 
				</g>

				<g style="fill:none">
				<title>gene_s3030000,s3,s30000,2925,3119,1</title>
				<polygon points="913.42274944201,666.4 913.42274944201,673.6 919.737331569811,673.6 919.737331569811,675.4 922.443581053154,670 919.737331569811,664.6 919.737331569811,666.4" style="fill:rgb(50,205,50);stroke:black;stroke-width:0;opacity:0.8"/> 
				</g>

				<g style="fill:none">
				<title>gene_s3040000,s3,s30000,3486,3857,1</title>
				<polygon points="939.5087625031,666.4 939.5087625031,673.6 951.584587087708,673.6 951.584587087708,675.4 956.759940481111,670 951.584587087708,664.6 951.584587087708,666.4" style="fill:rgb(50,205,50);stroke:black;stroke-width:0;opacity:0.8"/> 
				</g>

				<g style="fill:none">
				<title>gene_s3050000,s3,s30000,4343,4780,1</title>
				<polygon points="979.358518640985,666.4 979.358518640985,673.6 993.582603124742,673.6 993.582603124742,675.4 999.678639332066,670 993.582603124742,664.6 993.582603124742,666.4" style="fill:rgb(50,205,50);stroke:black;stroke-width:0;opacity:0.8"/> 
				</g>

				<g style="fill:none">
				<title>gene_s3060000,s3,s30000,4815,5888,0</title>
				<polygon points="1001.30610895263,670 1016.27417954865,675.4 1016.27417954865,673.6 1051.19967760602,673.6 1051.19967760602,666.4 1016.27417954865,666.4 1016.27417954865,664.6" style="fill:rgb(50,205,50);stroke:black;stroke-width:0;opacity:0.8"/> 
				</g>


<g><title>s10000,2000,6000</title><rect x="879.617880466231" y="129.1" width="186.043027196826" height="1.8" style="fill:blue"   /></g>



				<g style="fill:none">
				<title>gene_s1030000,s1,s10000,2925,3119,1</title>
				<polygon points="922.676076713235,126.4 922.676076713235,133.6 922.676076713235,133.6 922.676076713235,134.68 931.696908324378,130 922.676076713235,125.32 922.676076713235,126.4" style="fill:red;stroke:black;stroke-width:0;opacity:1"/> 
				</g>

</svg>