<svg xmlns="http://www.w3.org/2000/svg" version="1.1" width="1300" height="500" style="background-color:white;">
<text x="117" y="150" font-size="15px" fill="black"  text-anchor='end' alignment-baseline="middle" >pO83_CORR</text>
<text x="117" y="350" font-size="15px" fill="black"  text-anchor='end' alignment-baseline="middle" >pO83_CORR.indel</text>

<line x1="130" y1="480" x2="1105" y2="480" style="stroke:green;stroke-width:0.5"/>
<line x1="130" y1="475" x2="130" y2="480" style="stroke:green;stroke-width:0.5;opacity:1"/>
<text x="130" y="490" font-size="6px" fill="green"  text-anchor='middle' font-family="Times New Roman">0bp</text>
<line x1="364.773371104816" y1="475" x2="364.773371104816" y2="480" style="stroke:green;stroke-width:0.5;opacity:1"/>
<text x="364.773371104816" y="490" font-size="6px" fill="green"  text-anchor='middle' font-family="Times New Roman">1,700</text>
<line x1="599.546742209632" y1="475" x2="599.546742209632" y2="480" style="stroke:green;stroke-width:0.5;opacity:1"/>
<text x="599.546742209632" y="490" font-size="6px" fill="green"  text-anchor='middle' font-family="Times New Roman">3,400</text>
<line x1="834.320113314448" y1="475" x2="834.320113314448" y2="480" style="stroke:green;stroke-width:0.5;opacity:1"/>
<text x="834.320113314448" y="490" font-size="6px" fill="green"  text-anchor='middle' font-family="Times New Roman">5,100</text>
<line x1="1105" y1="475" x2="1105" y2="480" style="stroke:green;stroke-width:0.5;opacity:1"/>
<text x="1105" y="490" font-size="6px" fill="green"  text-anchor='middle' font-family="Times New Roman">7,060bp</text>



<rect x="130" y="149" width="975" height="2" style="fill:blue;opacity:0.2"   />

<rect x="130" y="349" width="593.976628895184" height="2" style="fill:blue;opacity:0.2"   />






			<polygon id="pO83_CORR.NC_017659.1.5460.147060.1.+" points="884.036827195467,149 884.036827195467,151 20439.4157223796,151 20439.4157223796,149 " style="fill:orange;stroke:black;stroke-width:0;opacity:0.5"/>




			<polygon id="pO83_CORR.indel.NC_017659.1.fake.5460.147060.1.+" points="649.401558073654,349 649.401558073654,351 20204.7804532578,351 20204.7804532578,349 " style="fill:orange;stroke:black;stroke-width:0;opacity:0.5"/>








 <defs>    <clipPath id="cut-off-bottom-884.036827195467-157-20439.4157223796-157-20204.7804532578-343-649.401558073654-343"><path d="M130 349 L723.976628895184 349 L1105 149 L130 149 Z" /></clipPath>  </defs>
<path d="M884.036827195467 157 L20439.4157223796 157 L20204.7804532578 343 L649.401558073654 343 Z"  clip-path="url(#cut-off-bottom-884.036827195467-157-20439.4157223796-157-20204.7804532578-343-649.401558073654-343)" style="stroke:black;stroke-width:0;fill:orange;opacity:0.5" />







			<polygon id="pO83_CORR.NC_017659.1.2101.5468.1.+" points="420.152266288952,149 420.152266288952,151 885.279745042493,151 885.279745042493,149 " style="fill:orange;stroke:black;stroke-width:0;opacity:0.5"/>




			<polygon id="pO83_CORR.indel.NC_017659.1.fake.1891.5257.1.+" points="156.515580736544,349 156.515580736544,351 621.504957507082,351 621.504957507082,349 " style="fill:orange;stroke:black;stroke-width:0;opacity:0.5"/>








 <polygon points="420.152266288952,157 885.279745042493,157 621.504957507082,343 156.515580736544,343" style="stroke:black;stroke-width:0;fill:orange;opacity:0.4997"/>







			<polygon id="pO83_CORR.NC_017659.1.1.1898.1.+" points="130.138101983003,149 130.138101983003,151 392.25566572238,151 392.25566572238,149 " style="fill:orange;stroke:black;stroke-width:0;opacity:0.5"/>




			<polygon id="pO83_CORR.indel.NC_017659.1.fake.1.1898.1.+" points="-104.49716713881,349 -104.49716713881,351 157.620396600567,351 157.620396600567,349 " style="fill:orange;stroke:black;stroke-width:0;opacity:0.5"/>








 <defs>    <clipPath id="cut-off-bottom-130.138101983003-157-392.25566572238-157-157.620396600567-343--104.49716713881-343"><path d="M130 349 L723.976628895184 349 L1105 149 L130 149 Z" /></clipPath>  </defs>
<path d="M130.138101983003 157 L392.25566572238 157 L157.620396600567 343 L-104.49716713881 343 Z"  clip-path="url(#cut-off-bottom-130.138101983003-157-392.25566572238-157-157.620396600567-343--104.49716713881-343)" style="stroke:black;stroke-width:0;fill:orange;opacity:0.49945" />







			<polygon id="pO83_CORR.NC_017659.1.1891.2100.1.+" points="391.150849858357,149 391.150849858357,151 420.152266288952,151 420.152266288952,149 " style="fill:orange;stroke:black;stroke-width:0;opacity:0.5"/>




			<polygon id="pO83_CORR.indel.NC_017659.1.fake.5251.5460.1.+" points="620.538243626062,349 620.538243626062,351 649.539660056657,351 649.539660056657,349 " style="fill:orange;stroke:black;stroke-width:0;opacity:0.5"/>








 <polygon points="391.150849858357,157 420.152266288952,157 649.539660056657,343 620.538243626062,343" style="stroke:black;stroke-width:0;fill:orange;opacity:0.5"/>


</svg>