<svg xmlns="http://www.w3.org/2000/svg" version="1.1" width="1500" height="400" style="background-color:white;">
<text x="135" y="80.16" font-size="15px" fill="black"  text-anchor='end'>s1</text>
<text x="135" y="160.16" font-size="15px" fill="black"  text-anchor='end'>s2</text>
<text x="135" y="240.16" font-size="15px" fill="black"  text-anchor='end'>s3</text>
<text x="135" y="320.16" font-size="15px" fill="black"  text-anchor='end'>s4</text>

<line x1="150" y1="384" x2="1275" y2="384" style="stroke:green;stroke-width:0.5"/>
<line x1="150" y1="380" x2="150" y2="384" style="stroke:green;stroke-width:0.5;opacity:1"/>
<text x="150" y="394" font-size="13px" fill="green"  text-anchor='middle' font-family="Times New Roman">0</text>
<line x1="250.928542591845" y1="380" x2="250.928542591845" y2="384" style="stroke:green;stroke-width:0.5;opacity:1"/>
<text x="250.928542591845" y="394" font-size="13px" fill="green"  text-anchor='middle' font-family="Times New Roman">2,000</text>
<line x1="351.85708518369" y1="380" x2="351.85708518369" y2="384" style="stroke:green;stroke-width:0.5;opacity:1"/>
<text x="351.85708518369" y="394" font-size="13px" fill="green"  text-anchor='middle' font-family="Times New Roman">4,000</text>
<line x1="452.785627775535" y1="380" x2="452.785627775535" y2="384" style="stroke:green;stroke-width:0.5;opacity:1"/>
<text x="452.785627775535" y="394" font-size="13px" fill="green"  text-anchor='middle' font-family="Times New Roman">6,000</text>
<line x1="553.71417036738" y1="380" x2="553.71417036738" y2="384" style="stroke:green;stroke-width:0.5;opacity:1"/>
<text x="553.71417036738" y="394" font-size="13px" fill="green"  text-anchor='middle' font-family="Times New Roman">8,000</text>
<line x1="654.642712959225" y1="380" x2="654.642712959225" y2="384" style="stroke:green;stroke-width:0.5;opacity:1"/>
<text x="654.642712959225" y="394" font-size="13px" fill="green"  text-anchor='middle' font-family="Times New Roman">10,000</text>
<line x1="755.57125555107" y1="380" x2="755.57125555107" y2="384" style="stroke:green;stroke-width:0.5;opacity:1"/>
<text x="755.57125555107" y="394" font-size="13px" fill="green"  text-anchor='middle' font-family="Times New Roman">12,000</text>
<line x1="856.499798142915" y1="380" x2="856.499798142915" y2="384" style="stroke:green;stroke-width:0.5;opacity:1"/>
<text x="856.499798142915" y="394" font-size="13px" fill="green"  text-anchor='middle' font-family="Times New Roman">14,000</text>
<line x1="957.42834073476" y1="380" x2="957.42834073476" y2="384" style="stroke:green;stroke-width:0.5;opacity:1"/>
<text x="957.42834073476" y="394" font-size="13px" fill="green"  text-anchor='middle' font-family="Times New Roman">16,000</text>
<line x1="1058.3568833266" y1="380" x2="1058.3568833266" y2="384" style="stroke:green;stroke-width:0.5;opacity:1"/>
<text x="1058.3568833266" y="394" font-size="13px" fill="green"  text-anchor='middle' font-family="Times New Roman">18,000</text>
<line x1="1159.28542591845" y1="380" x2="1159.28542591845" y2="384" style="stroke:green;stroke-width:0.5;opacity:1"/>
<text x="1159.28542591845" y="394" font-size="13px" fill="green"  text-anchor='middle' font-family="Times New Roman">20,000</text>
<line x1="1275" y1="380" x2="1275" y2="384" style="stroke:green;stroke-width:0.5;opacity:1"/>
<text x="1275" y="394" font-size="13px" fill="green"  text-anchor='middle' font-family="Times New Roman">22,293bp</text>


<g><title>gene_s403000 -> gene_s406000</title><path d="M206.519983851433 352.8 L196.729915220024 352.8 A74.7628179249092 16  0 1 0   346.255551069843 319.2 L292.107387969318 319.2 A42.7937020589423 14.4 0 0 1 206.519983851433 352.8 Z"  style="fill:#FF8C00;opacity:1" /></g><g><title>gene_s406000 -> gene_s4060000</title><path d="M346.255551069843 287.2 L292.107387969318 287.2 A155.783205490513 40  0 0 1   603.673798950343 287.2 L549.525635849818 287.2 A101.635042389988 32 0 1 0 346.255551069843 287.2 Z"  style="fill:#FF8C00;opacity:1" /></g><g><title>gene_s208 -> gene_s304</title><line x1="509.961647153815" y1="176.8" x2="339.367178037949" y2="256.8" style="stroke:#FF8C00;stroke-width:3.2;opacity:1" /></g>
<g><title>gene_s1060000 -> gene_s2100000</title><polygon points="1003.19943480016,79.2 1057.34759790069,79.2 1142.27896649172,127.2 1128.55268469923,127.2" style="fill:#FF8C00;stroke:#000000;stroke-width:0;opacity:1"/></g>
<g><title>gene_s307 -> gene_s308</title><line x1="457.17601937828" y1="256.8" x2="490.431974162293" y2="256.8" style="stroke:red;stroke-width:3.2;opacity:1" /></g>
<g><title>gene_s303 -> gene_s403000</title><polygon points="301.695599515543,272.8 311.485668146952,272.8 206.519983851433,320.8 196.729915220024,320.8" style="fill:#FF8C00;stroke:#000000;stroke-width:0;opacity:1"/></g>
<g><title>gene_s404000 -> gene_s4020000</title><path d="M243.762616067824 320.8 L225.040371417037 320.8 A88.3881711748082 40  0 0 1   401.816713766653 320.8 L362.353653613242 320.8 A59.2955187727089 32 0 1 0 243.762616067824 320.8 Z"  style="fill:#FF8C00;opacity:0.5" /></g><g><title>gene_s2100000 -> gene_s4100000</title><polygon points="1128.55268469923,159.2 1142.27896649172,159.2 741.794509487283,326.526281792491 741.794509487283,312.8" style="fill:#FF8C00;stroke:#000000;stroke-width:0;opacity:1"/></g>
<g><title>gene_s203 -> gene_s303</title><polygon points="297.607993540573,192.8 307.398062171982,192.8 311.485668146952,240.8 301.695599515543,240.8" style="fill:#FF8C00;stroke:#000000;stroke-width:0;opacity:1"/></g>


<g><title>s1,2,3050</title><rect x="150" y="79.6" width="153.865563181268" height="1.6" style="fill:blue;opacity:0.2"   /></g>
<g><title>s1,3000,6010</title><rect x="308.91199031086" y="79.6" width="151.947920872023" height="1.6" style="fill:blue;opacity:0.2"   /></g>
<g><title>s1,5980,9609</title><rect x="465.906338312475" y="79.6" width="183.185304804199" height="1.6" style="fill:blue;opacity:0.2"   /></g>
<g><title>s1000,2000,6000</title><rect x="654.138070246266" y="79.6" width="201.907549454986" height="1.6" style="fill:blue;opacity:0.2"   /></g>
<g><title>s10000,2000,6000</title><rect x="861.092046830844" y="79.6" width="201.907549454986" height="1.6" style="fill:blue;opacity:0.2"   /></g>
<g><title>s10000,6000,10000</title><rect x="1068.04602341542" y="79.6" width="201.907549454986" height="1.6" style="fill:blue;opacity:0.2"   /></g>
<g><title>s2,1,9000</title><rect x="150" y="159.6" width="454.178441663302" height="1.6" style="fill:blue;opacity:0.2"   /></g>
<g><title>s2000,2000,6000</title><rect x="609.224868792895" y="159.6" width="201.907549454986" height="1.6" style="fill:blue;opacity:0.2"   /></g>
<g><title>s20000,2000,6000</title><rect x="816.178845377473" y="159.6" width="201.907549454986" height="1.6" style="fill:blue;opacity:0.2"   /></g>
<g><title>s20000,6000,10000</title><rect x="1023.13282196205" y="159.6" width="201.907549454986" height="1.6" style="fill:blue;opacity:0.2"   /></g>
<g><title>s3,11,2010</title><rect x="150" y="239.6" width="100.928542591845" height="1.6" style="fill:blue;opacity:0.2"   /></g>
<g><title>s3,2020,5000</title><rect x="255.974969721437" y="239.6" width="150.433992733145" height="1.6" style="fill:blue;opacity:0.2"   /></g>
<g><title>s3,5100,9609</title><rect x="411.455389584174" y="239.6" width="227.59386354461" height="1.6" style="fill:blue;opacity:0.2"   /></g>
<g><title>s3000,2000,6000</title><rect x="644.095680258377" y="239.6" width="201.907549454986" height="1.6" style="fill:blue;opacity:0.2"   /></g>
<g><title>s30000,2000,6000</title><rect x="851.049656842955" y="239.6" width="201.907549454986" height="1.6" style="fill:blue;opacity:0.2"   /></g>
<g><title>s4000,2000,6000</title><rect x="150" y="319.6" width="201.907549454986" height="1.6" style="fill:blue;opacity:0.2"   /></g>
<g><title>s40000,1000,8000</title><rect x="356.953976584578" y="319.6" width="353.300363342753" height="1.6" style="fill:blue;opacity:0.2"   /></g>
<g><title>s40000,8000,9609</title><rect x="715.300767056924" y="319.6" width="81.2474767864352" height="1.6" style="fill:blue;opacity:0.2"   /></g>



			<g style="fill:none">
			<title>gene_s101,s1,s1,87,1109,1</title>
			<polygon points="154.339927331449,88.8 154.339927331449,104.8 190.442067016552,104.8 190.442067016552,112.8 205.914412595882,96.8 190.442067016552,80.8 190.442067016552,88.8" style="fill:rgb(50,205,50);stroke:black;stroke-width:0;opacity:1"/> 
			</g>

			<g style="fill:none">
			<title>gene_s102,s1,s1,1106,1888,1</title>
			<polygon points="205.763019781994,88.8 205.763019781994,104.8 233.387161889382,104.8 233.387161889382,112.8 245.226079935406,96.8 233.387161889382,80.8 233.387161889382,88.8" style="fill:rgb(50,205,50);stroke:black;stroke-width:0;opacity:1"/> 
			</g>

			<g style="fill:none">
			<title>gene_s104,s1,s1,3486,3857,1</title>
			<polygon points="333.488090431974,88.8 333.488090431974,104.8 346.593661687525,104.8 346.593661687525,112.8 352.210335082761,96.8 346.593661687525,80.8 346.593661687525,88.8" style="fill:rgb(50,205,50);stroke:black;stroke-width:0;opacity:1"/> 
			</g>

			<g style="fill:none">
			<title>gene_s105,s1,s1,4343,4780,1</title>
			<polygon points="376.73597093258,88.8 376.73597093258,104.8 392.172991522002,104.8 392.172991522002,112.8 398.788857488898,96.8 392.172991522002,80.8 392.172991522002,88.8" style="fill:rgb(50,205,50);stroke:black;stroke-width:0;opacity:1"/> 
			</g>

			<g style="fill:none">
			<title>gene_s106,s1,s1,4815,5888,0</title>
			<polygon points="400.555106984255,63.2 416.799555914413,79.2 416.799555914413,71.2 454.70327008478,71.2 454.70327008478,55.2 416.799555914413,55.2 416.799555914413,47.2" style="fill:rgb(50,205,50);stroke:black;stroke-width:0;opacity:1"/> 
			</g>

			<g style="fill:none">
			<title>gene_s107,s1,s1,6005,6421,1</title>
			<polygon points="467.218409366169,88.8 467.218409366169,104.8 481.913605167541,104.8 481.913605167541,112.8 488.211546225273,96.8 481.913605167541,80.8 481.913605167541,88.8" style="fill:rgb(50,205,50);stroke:black;stroke-width:0;opacity:1"/> 
			</g>

			<g style="fill:none">
			<title>gene_s108,s1,s1,6664,7602,1</title>
			<polygon points="500.474364150182,88.8 500.474364150182,104.8 533.609204683084,104.8 533.609204683084,112.8 547.809850625757,96.8 533.609204683084,80.8 533.609204683084,88.8" style="fill:rgb(50,205,50);stroke:black;stroke-width:0;opacity:1"/> 
			</g>

			<g style="fill:none">
			<title>gene_s109,s1,s1,7789,8088,0</title>
			<polygon points="557.246669358094,63.2 561.773314493339,79.2 561.773314493339,71.2 572.335486475575,71.2 572.335486475575,55.2 561.773314493339,55.2 561.773314493339,47.2" style="fill:rgb(50,205,50);stroke:black;stroke-width:0;opacity:1"/> 
			</g>

			<g style="fill:none">
			<title>gene_s110,s1,s1,8088,8360,0</title>
			<polygon points="572.335486475575,63.2 576.453371013323,79.2 576.453371013323,71.2 586.061768268066,71.2 586.061768268066,55.2 576.453371013323,55.2 576.453371013323,47.2" style="fill:rgb(50,205,50);stroke:black;stroke-width:0;opacity:1"/> 
			</g>

			<g style="fill:none">
			<title>gene_s103000,s1,s1000,2925,3119,1</title>
			<polygon points="700.86798546629,88.8 700.86798546629,104.8 707.721033508276,104.8 707.721033508276,112.8 710.658054097699,96.8 707.721033508276,80.8 707.721033508276,88.8" style="fill:rgb(50,205,50);stroke:black;stroke-width:0;opacity:1"/> 
			</g>

			<g style="fill:none">
			<title>gene_s104000,s1,s1000,3486,3857,1</title>
			<polygon points="729.178441663302,88.8 729.178441663302,104.8 742.284012918853,104.8 742.284012918853,112.8 747.90068631409,96.8 742.284012918853,80.8 742.284012918853,88.8" style="fill:rgb(50,205,50);stroke:black;stroke-width:0;opacity:1"/> 
			</g>

			<g style="fill:none">
			<title>gene_s105000,s1,s1000,4343,4780,1</title>
			<polygon points="772.426322163908,88.8 772.426322163908,104.8 787.863342753331,104.8 787.863342753331,112.8 794.479208720226,96.8 787.863342753331,80.8 787.863342753331,88.8" style="fill:rgb(50,205,50);stroke:black;stroke-width:0;opacity:1"/> 
			</g>

			<g style="fill:none">
			<title>gene_s106000,s1,s1000,4815,5888,0</title>
			<polygon points="796.245458215583,63.2 812.489907145741,79.2 812.489907145741,71.2 850.393621316108,71.2 850.393621316108,55.2 812.489907145741,55.2 812.489907145741,47.2" style="fill:rgb(50,205,50);stroke:black;stroke-width:0;opacity:1"/> 
			</g>

			<g style="fill:none">
			<title>gene_s1030000,s1,s10000,2925,3119,1</title>
			<polygon points="907.821962050868,88.8 907.821962050868,104.8 914.675010092854,104.8 914.675010092854,112.8 917.612030682277,96.8 914.675010092854,80.8 914.675010092854,88.8" style="fill:rgb(50,205,50);stroke:black;stroke-width:0;opacity:1"/> 
			</g>

			<g style="fill:none">
			<title>gene_s1040000,s1,s10000,3486,3857,1</title>
			<polygon points="936.13241824788,88.8 936.13241824788,104.8 949.237989503431,104.8 949.237989503431,112.8 954.854662898668,96.8 949.237989503431,80.8 949.237989503431,88.8" style="fill:rgb(50,205,50);stroke:black;stroke-width:0;opacity:1"/> 
			</g>

			<g style="fill:none">
			<title>gene_s1050000,s1,s10000,4343,4780,1</title>
			<polygon points="979.380298748486,88.8 979.380298748486,104.8 994.817319337909,104.8 994.817319337909,112.8 1001.4331853048,96.8 994.817319337909,80.8 994.817319337909,88.8" style="fill:rgb(50,205,50);stroke:black;stroke-width:0;opacity:1"/> 
			</g>

			<g style="fill:none">
			<title>gene_s1060000,s1,s10000,4815,5888,0</title>
			<polygon points="1003.19943480016,63.2 1019.44388373032,79.2 1019.44388373032,71.2 1057.34759790069,71.2 1057.34759790069,55.2 1019.44388373032,55.2 1019.44388373032,47.2" style="fill:rgb(50,205,50);stroke:black;stroke-width:0;opacity:1"/> 
			</g>

			<g style="fill:none">
			<title>gene_s1070000,s1,s10000,6005,6421,1</title>
			<polygon points="1068.3488090432,88.8 1068.3488090432,104.8 1083.04400484457,104.8 1083.04400484457,112.8 1089.3419459023,96.8 1083.04400484457,80.8 1083.04400484457,88.8" style="fill:rgb(50,205,50);stroke:black;stroke-width:0;opacity:1"/> 
			</g>

			<g style="fill:none">
			<title>gene_s1080000,s1,s10000,6664,7602,1</title>
			<polygon points="1101.60476382721,88.8 1101.60476382721,104.8 1134.73960436011,104.8 1134.73960436011,112.8 1148.94025030279,96.8 1134.73960436011,80.8 1134.73960436011,88.8" style="fill:rgb(50,205,50);stroke:black;stroke-width:0;opacity:1"/> 
			</g>

			<g style="fill:none">
			<title>gene_s1090000,s1,s10000,7789,8088,0</title>
			<polygon points="1158.37706903512,63.2 1162.90371417037,79.2 1162.90371417037,71.2 1173.4658861526,71.2 1173.4658861526,55.2 1162.90371417037,55.2 1162.90371417037,47.2" style="fill:rgb(50,205,50);stroke:black;stroke-width:0;opacity:1"/> 
			</g>

			<g style="fill:none">
			<title>gene_s1100000,s1,s10000,8088,8360,0</title>
			<polygon points="1173.4658861526,63.2 1177.58377069035,79.2 1177.58377069035,71.2 1187.19216794509,71.2 1187.19216794509,55.2 1177.58377069035,55.2 1177.58377069035,47.2" style="fill:rgb(50,205,50);stroke:black;stroke-width:0;opacity:1"/> 
			</g>

			<g style="fill:none">
			<title>gene_s11000001,s1,s10000,8361,8560,0</title>
			<polygon points="1187.24263221639,63.2 1190.25534921276,79.2 1190.25534921276,71.2 1197.28502220428,71.2 1197.28502220428,55.2 1190.25534921276,55.2 1190.25534921276,47.2" style="fill:rgb(50,205,50);stroke:black;stroke-width:0;opacity:1"/> 
			</g>

			<g style="fill:none">
			<title>gene_s201,s2,s2,87,1109,1</title>
			<polygon points="154.390391602745,168.8 154.390391602745,184.8 190.492531287848,184.8 190.492531287848,192.8 205.964876867178,176.8 190.492531287848,160.8 190.492531287848,168.8" style="fill:rgb(50,205,50);stroke:black;stroke-width:0;opacity:1"/> 
			</g>

			<g style="fill:none">
			<title>gene_s202,s2,s2,1106,1888,1</title>
			<polygon points="205.81348405329,168.8 205.81348405329,184.8 233.437626160678,184.8 233.437626160678,192.8 245.276544206702,176.8 233.437626160678,160.8 233.437626160678,168.8" style="fill:rgb(50,205,50);stroke:black;stroke-width:0;opacity:1"/> 
			</g>

			<g style="fill:none">
			<title>gene_s203,s2,s2,2925,3119,1</title>
			<polygon points="297.607993540573,168.8 297.607993540573,184.8 304.46104158256,184.8 304.46104158256,192.8 307.398062171982,176.8 304.46104158256,160.8 304.46104158256,168.8" style="fill:rgb(50,205,50);stroke:black;stroke-width:0;opacity:1"/> 
			</g>

			<g style="fill:none">
			<title>gene_s204,s2,s2,3486,3857,1</title>
			<polygon points="325.918449737586,168.8 325.918449737586,184.8 339.024020993137,184.8 339.024020993137,192.8 344.640694388373,176.8 339.024020993137,160.8 339.024020993137,168.8" style="fill:rgb(50,205,50);stroke:black;stroke-width:0;opacity:1"/> 
			</g>

			<g style="fill:none">
			<title>gene_s205,s2,s2,4343,4780,1</title>
			<polygon points="369.166330238191,168.8 369.166330238191,184.8 384.603350827614,184.8 384.603350827614,192.8 391.219216794509,176.8 384.603350827614,160.8 384.603350827614,168.8" style="fill:rgb(50,205,50);stroke:black;stroke-width:0;opacity:1"/> 
			</g>

			<g style="fill:none">
			<title>gene_s206,s2,s2,4815,5888,0</title>
			<polygon points="392.985466289867,143.2 409.229915220024,159.2 409.229915220024,151.2 447.133629390392,151.2 447.133629390392,135.2 409.229915220024,135.2 409.229915220024,127.2" style="fill:rgb(50,205,50);stroke:black;stroke-width:0;opacity:1"/> 
			</g>

			<g style="fill:none">
			<title>gene_s207,s2,s2,6005,6421,1</title>
			<polygon points="453.037949132015,168.8 453.037949132015,184.8 467.733144933387,184.8 467.733144933387,192.8 474.031085991118,176.8 467.733144933387,160.8 467.733144933387,168.8" style="fill:rgb(50,205,50);stroke:black;stroke-width:0;opacity:1"/> 
			</g>

			<g style="fill:none">
			<title>gene_s208,s2,s2,6664,7602,1</title>
			<polygon points="486.293903916027,168.8 486.293903916027,184.8 519.42874444893,184.8 519.42874444893,192.8 533.629390391603,176.8 519.42874444893,160.8 519.42874444893,168.8" style="fill:rgb(50,205,50);stroke:black;stroke-width:0;opacity:1"/> 
			</g>

			<g style="fill:none">
			<title>gene_s209,s2,s2,7789,8088,0</title>
			<polygon points="543.06620912394,143.2 547.592854259185,159.2 547.592854259185,151.2 558.155026241421,151.2 558.155026241421,135.2 547.592854259185,135.2 547.592854259185,127.2" style="fill:rgb(50,205,50);stroke:black;stroke-width:0;opacity:1"/> 
			</g>

			<g style="fill:none">
			<title>gene_s210,s2,s2,8088,8360,0</title>
			<polygon points="558.155026241421,143.2 562.272910779168,159.2 562.272910779168,151.2 571.881308033912,151.2 571.881308033912,135.2 562.272910779168,135.2 562.272910779168,127.2" style="fill:rgb(50,205,50);stroke:black;stroke-width:0;opacity:1"/> 
			</g>

			<g style="fill:none">
			<title>gene_s203000,s2,s2000,2925,3119,1</title>
			<polygon points="655.954784012919,168.8 655.954784012919,184.8 662.807832054905,184.8 662.807832054905,192.8 665.744852644328,176.8 662.807832054905,160.8 662.807832054905,168.8" style="fill:rgb(50,205,50);stroke:black;stroke-width:0;opacity:1"/> 
			</g>

			<g style="fill:none">
			<title>gene_s204000,s2,s2000,3486,3857,1</title>
			<polygon points="684.265240209931,168.8 684.265240209931,184.8 697.370811465482,184.8 697.370811465482,192.8 702.987484860719,176.8 697.370811465482,160.8 697.370811465482,168.8" style="fill:rgb(50,205,50);stroke:black;stroke-width:0;opacity:1"/> 
			</g>

			<g style="fill:none">
			<title>gene_s205000,s2,s2000,4343,4780,1</title>
			<polygon points="727.513120710537,168.8 727.513120710537,184.8 742.95014129996,184.8 742.95014129996,192.8 749.566007266855,176.8 742.95014129996,160.8 742.95014129996,168.8" style="fill:rgb(50,205,50);stroke:black;stroke-width:0;opacity:1"/> 
			</g>

			<g style="fill:none">
			<title>gene_s206000,s2,s2000,4815,5888,0</title>
			<polygon points="751.332256762212,143.2 767.57670569237,159.2 767.57670569237,151.2 805.480419862737,151.2 805.480419862737,135.2 767.57670569237,135.2 767.57670569237,127.2" style="fill:rgb(50,205,50);stroke:black;stroke-width:0;opacity:1"/> 
			</g>

			<g style="fill:none">
			<title>s2.s2000.2.2000.6000.2.tick1,s2,s2000,5920,6000,1</title>
			<polygon points="811.13241824788,104.7 811.13241824788,105.34 815.169559951554,105.34 815.169559951554,104.7 " style="fill:rgb(50,205,50);stroke:black;stroke-width:0;opacity:1"/> 
			</g>

			<g style="fill:none">
			<title>s2.s2000.2.2000.6000.2.tick0,s2,s2000,5920,6000,1</title>
			<polygon points="811.13241824788,112.44 811.13241824788,113.08 815.169559951554,113.08 815.169559951554,112.44 " style="fill:rgb(50,205,50);stroke:black;stroke-width:0;opacity:1"/> 
			</g>

			<g style="fill:none">
			<title>s2.s2000.2.2000.6000.2.tick2,s2,s2000,5920,6000,1</title>
			<polygon points="811.13241824788,96.96 811.13241824788,97.6 815.169559951554,97.6 815.169559951554,96.96 " style="fill:rgb(50,205,50);stroke:black;stroke-width:0;opacity:1"/> 
			</g>

			<g style="fill:none">
			<title>s2.s2000.2.2000.6000.2.tick3,s2,s2000,5920,6000,1</title>
			<polygon points="811.13241824788,89.22 811.13241824788,89.86 815.169559951554,89.86 815.169559951554,89.22 " style="fill:rgb(50,205,50);stroke:black;stroke-width:0;opacity:1"/> 
			</g>

			<g style="fill:none">
			<title>s2.s2000.2.2000.6000.1.tick0,s2,s2000,5920,6000,1</title>
			<polygon points="811.13241824788,158.88 811.13241824788,159.52 815.169559951554,159.52 815.169559951554,158.88 " style="fill:rgb(50,205,50);stroke:black;stroke-width:0;opacity:1"/> 
			</g>

			<g style="fill:none">
			<title>s2.s2000.2.2000.6000.1.tick5,s2,s2000,5920,6000,1</title>
			<polygon points="811.13241824788,120.18 811.13241824788,120.82 815.169559951554,120.82 815.169559951554,120.18 " style="fill:rgb(50,205,50);stroke:black;stroke-width:0;opacity:1"/> 
			</g>

			<g style="fill:none">
			<title>s2.s2000.2.2000.6000.1.tick3,s2,s2000,5920,6000,1</title>
			<polygon points="811.13241824788,135.66 811.13241824788,136.3 815.169559951554,136.3 815.169559951554,135.66 " style="fill:rgb(50,205,50);stroke:black;stroke-width:0;opacity:1"/> 
			</g>

			<g style="fill:none">
			<title>s2.s2000.2.2000.6000.1.tick1,s2,s2000,5920,6000,1</title>
			<polygon points="811.13241824788,151.14 811.13241824788,151.78 815.169559951554,151.78 815.169559951554,151.14 " style="fill:rgb(50,205,50);stroke:black;stroke-width:0;opacity:1"/> 
			</g>

			<g style="fill:none">
			<title>s2.s2000.2.2000.6000.1.tick2,s2,s2000,5920,6000,1</title>
			<polygon points="811.13241824788,143.4 811.13241824788,144.04 815.169559951554,144.04 815.169559951554,143.4 " style="fill:rgb(50,205,50);stroke:black;stroke-width:0;opacity:1"/> 
			</g>

			<g style="fill:none">
			<title>s2.s2000.2.2000.6000.1.tick4,s2,s2000,5920,6000,1</title>
			<polygon points="811.13241824788,127.92 811.13241824788,128.56 815.169559951554,128.56 815.169559951554,127.92 " style="fill:rgb(50,205,50);stroke:black;stroke-width:0;opacity:1"/> 
			</g>

			<g style="fill:none">
			<title>s2.s2000.2.2000.6000.2,s2,s2000,5980,6000,1</title>
			<polygon points="811.13241824788,89.153 811.13241824788,112.373 812.141703673799,112.373 812.141703673799,89.153 " style="fill:rgb(50,205,50);stroke:black;stroke-width:0;opacity:1"/> 
			</g>

			<g style="fill:none">
			<title>s2.s2000.2.2000.6000.1,s2,s2000,5980,6000,1</title>
			<polygon points="811.13241824788,120.113 811.13241824788,158.813 812.141703673799,158.813 812.141703673799,120.113 " style="fill:rgb(50,205,50);stroke:black;stroke-width:0;opacity:1"/> 
			</g>

			<g style="fill:none">
			<title>gene_s2030000,s2,s20000,2925,3119,1</title>
			<polygon points="862.908760597497,168.8 862.908760597497,184.8 869.761808639483,184.8 869.761808639483,192.8 872.698829228906,176.8 869.761808639483,160.8 869.761808639483,168.8" style="fill:rgb(50,205,50);stroke:black;stroke-width:0;opacity:1"/> 
			</g>

			<g style="fill:none">
			<title>gene_s2040000,s2,s20000,3486,3857,1</title>
			<polygon points="891.219216794509,168.8 891.219216794509,184.8 904.32478805006,184.8 904.32478805006,192.8 909.941461445297,176.8 904.32478805006,160.8 904.32478805006,168.8" style="fill:rgb(50,205,50);stroke:black;stroke-width:0;opacity:1"/> 
			</g>

			<g style="fill:none">
			<title>gene_s2050000,s2,s20000,4343,4780,1</title>
			<polygon points="934.467097295115,168.8 934.467097295115,184.8 949.904117884538,184.8 949.904117884538,192.8 956.519983851433,176.8 949.904117884538,160.8 949.904117884538,168.8" style="fill:rgb(50,205,50);stroke:black;stroke-width:0;opacity:1"/> 
			</g>

			<g style="fill:none">
			<title>gene_s2060000,s2,s20000,4815,5888,0</title>
			<polygon points="958.28623334679,143.2 974.530682276948,159.2 974.530682276948,151.2 1012.43439644732,151.2 1012.43439644732,135.2 974.530682276948,135.2 974.530682276948,127.2" style="fill:rgb(50,205,50);stroke:black;stroke-width:0;opacity:1"/> 
			</g>

			<g style="fill:none">
			<title>gene_s2070000,s2,s20000,6005,6421,1</title>
			<polygon points="1023.43560758983,168.8 1023.43560758983,184.8 1038.1308033912,184.8 1038.1308033912,192.8 1044.42874444893,176.8 1038.1308033912,160.8 1038.1308033912,168.8" style="fill:rgb(50,205,50);stroke:black;stroke-width:0;opacity:1"/> 
			</g>

			<g style="fill:none">
			<title>gene_s2080000,s2,s20000,6664,7602,1</title>
			<polygon points="1056.69156237384,168.8 1056.69156237384,184.8 1089.82640290674,184.8 1089.82640290674,192.8 1104.02704884941,176.8 1089.82640290674,160.8 1089.82640290674,168.8" style="fill:rgb(50,205,50);stroke:black;stroke-width:0;opacity:1"/> 
			</g>

			<g style="fill:none">
			<title>gene_s2090000,s2,s20000,7789,8088,0</title>
			<polygon points="1113.46386758175,143.2 1117.990512717,159.2 1117.990512717,151.2 1128.55268469923,151.2 1128.55268469923,135.2 1117.990512717,135.2 1117.990512717,127.2" style="fill:rgb(50,205,50);stroke:black;stroke-width:0;opacity:1"/> 
			</g>

			<g style="fill:none">
			<title>gene_s2100000,s2,s20000,8088,8360,0</title>
			<polygon points="1128.55268469923,143.2 1132.67056923698,159.2 1132.67056923698,151.2 1142.27896649172,151.2 1142.27896649172,135.2 1132.67056923698,135.2 1132.67056923698,127.2" style="fill:rgb(50,205,50);stroke:black;stroke-width:0;opacity:1"/> 
			</g>

			<g style="fill:none">
			<title>gene_s301,s3,s3,87,1109,1</title>
			<polygon points="153.885748889786,248.8 153.885748889786,264.8 189.987888574889,264.8 189.987888574889,272.8 205.460234154219,256.8 189.987888574889,240.8 189.987888574889,248.8" style="fill:rgb(50,205,50);stroke:black;stroke-width:0;opacity:1"/> 
			</g>

			<g style="fill:none">
			<title>gene_s302,s3,s3,1106,1888,1</title>
			<polygon points="205.308841340331,248.8 205.308841340331,264.8 232.932983447719,264.8 232.932983447719,272.8 244.771901493742,256.8 232.932983447719,240.8 232.932983447719,248.8" style="fill:rgb(50,205,50);stroke:black;stroke-width:0;opacity:1"/> 
			</g>

			<g style="fill:none">
			<title>s3.s3.1.11.2010.3.tick2,s3,s3,1930,2010,1</title>
			<polygon points="250.928542591845,215.66 250.928542591845,216.3 254.965684295519,216.3 254.965684295519,215.66 " style="fill:rgb(50,205,50);stroke:black;stroke-width:0;opacity:1"/> 
			</g>

			<g style="fill:none">
			<title>s3.s3.1.11.2010.3.tick1,s3,s3,1930,2010,1</title>
			<polygon points="250.928542591845,223.4 250.928542591845,224.04 254.965684295519,224.04 254.965684295519,223.4 " style="fill:rgb(50,205,50);stroke:black;stroke-width:0;opacity:1"/> 
			</g>

			<g style="fill:none">
			<title>s3.s3.1.11.2010.3.tick0,s3,s3,1930,2010,1</title>
			<polygon points="250.928542591845,231.14 250.928542591845,231.78 254.965684295519,231.78 254.965684295519,231.14 " style="fill:rgb(50,205,50);stroke:black;stroke-width:0;opacity:1"/> 
			</g>

			<g style="fill:none">
			<title>s3.s3.1.11.2010.3.tick3,s3,s3,1930,2010,1</title>
			<polygon points="250.928542591845,207.92 250.928542591845,208.56 254.965684295519,208.56 254.965684295519,207.92 " style="fill:rgb(50,205,50);stroke:black;stroke-width:0;opacity:1"/> 
			</g>

			<g style="fill:none">
			<title>s3.s3.1.11.2010.3,s3,s3,1990,2010,1</title>
			<polygon points="250.928542591845,207.853 250.928542591845,231.073 251.937828017763,231.073 251.937828017763,207.853 " style="fill:rgb(50,205,50);stroke:black;stroke-width:0;opacity:1"/> 
			</g>

			<g style="fill:none">
			<title>gene_s303,s3,s3,2925,3119,1</title>
			<polygon points="301.695599515543,248.8 301.695599515543,264.8 308.548647557529,264.8 308.548647557529,272.8 311.485668146952,256.8 308.548647557529,240.8 308.548647557529,248.8" style="fill:rgb(50,205,50);stroke:black;stroke-width:0;opacity:1"/> 
			</g>

			<g style="fill:none">
			<title>gene_s304,s3,s3,3486,3857,1</title>
			<polygon points="330.006055712556,248.8 330.006055712556,264.8 343.111626968107,264.8 343.111626968107,272.8 348.728300363343,256.8 343.111626968107,240.8 343.111626968107,248.8" style="fill:rgb(50,205,50);stroke:black;stroke-width:0;opacity:1"/> 
			</g>

			<g style="fill:none">
			<title>gene_s305,s3,s3,4343,4780,1</title>
			<polygon points="373.253936213161,248.8 373.253936213161,264.8 388.690956802584,264.8 388.690956802584,272.8 395.306822769479,256.8 388.690956802584,240.8 388.690956802584,248.8" style="fill:rgb(50,205,50);stroke:black;stroke-width:0;opacity:1"/> 
			</g>

			<g style="fill:none">
			<title>s3.s3.2.2020.5000.4.tick4,s3,s3,4920,5000,1</title>
			<polygon points="406.408962454582,200.18 406.408962454582,200.82 410.446104158256,200.82 410.446104158256,200.18 " style="fill:rgb(50,205,50);stroke:black;stroke-width:0;opacity:1"/> 
			</g>

			<g style="fill:none">
			<title>s3.s3.2.2020.5000.4.tick2,s3,s3,4920,5000,1</title>
			<polygon points="406.408962454582,215.66 406.408962454582,216.3 410.446104158256,216.3 410.446104158256,215.66 " style="fill:rgb(50,205,50);stroke:black;stroke-width:0;opacity:1"/> 
			</g>

			<g style="fill:none">
			<title>s3.s3.2.2020.5000.4.tick1,s3,s3,4920,5000,1</title>
			<polygon points="406.408962454582,223.4 406.408962454582,224.04 410.446104158256,224.04 410.446104158256,223.4 " style="fill:rgb(50,205,50);stroke:black;stroke-width:0;opacity:1"/> 
			</g>

			<g style="fill:none">
			<title>s3.s3.2.2020.5000.4.tick6,s3,s3,4920,5000,1</title>
			<polygon points="406.408962454582,184.7 406.408962454582,185.34 410.446104158256,185.34 410.446104158256,184.7 " style="fill:rgb(50,205,50);stroke:black;stroke-width:0;opacity:1"/> 
			</g>

			<g style="fill:none">
			<title>s3.s3.2.2020.5000.4.tick3,s3,s3,4920,5000,1</title>
			<polygon points="406.408962454582,207.92 406.408962454582,208.56 410.446104158256,208.56 410.446104158256,207.92 " style="fill:rgb(50,205,50);stroke:black;stroke-width:0;opacity:1"/> 
			</g>

			<g style="fill:none">
			<title>s3.s3.2.2020.5000.4.tick7,s3,s3,4920,5000,1</title>
			<polygon points="406.408962454582,176.96 406.408962454582,177.6 410.446104158256,177.6 410.446104158256,176.96 " style="fill:rgb(50,205,50);stroke:black;stroke-width:0;opacity:1"/> 
			</g>

			<g style="fill:none">
			<title>s3.s3.2.2020.5000.4.tick5,s3,s3,4920,5000,1</title>
			<polygon points="406.408962454582,192.44 406.408962454582,193.08 410.446104158256,193.08 410.446104158256,192.44 " style="fill:rgb(50,205,50);stroke:black;stroke-width:0;opacity:1"/> 
			</g>

			<g style="fill:none">
			<title>s3.s3.2.2020.5000.4.tick0,s3,s3,4920,5000,1</title>
			<polygon points="406.408962454582,231.14 406.408962454582,231.78 410.446104158256,231.78 410.446104158256,231.14 " style="fill:rgb(50,205,50);stroke:black;stroke-width:0;opacity:1"/> 
			</g>

			<g style="fill:none">
			<title>s3.s3.2.2020.5000.4,s3,s3,4980,5000,1</title>
			<polygon points="406.408962454582,176.893 406.408962454582,231.073 407.418247880501,231.073 407.418247880501,176.893 " style="fill:rgb(50,205,50);stroke:black;stroke-width:0;opacity:1"/> 
			</g>

			<g style="fill:none">
			<title>gene_s307,s3,s3,6005,6421,1</title>
			<polygon points="457.17601937828,248.8 457.17601937828,264.8 471.871215179653,264.8 471.871215179653,272.8 478.169156237384,256.8 471.871215179653,240.8 471.871215179653,248.8" style="fill:rgb(50,205,50);stroke:black;stroke-width:0;opacity:1"/> 
			</g>

			<g style="fill:none">
			<title>gene_s308,s3,s3,6664,7602,1</title>
			<polygon points="490.431974162293,248.8 490.431974162293,264.8 523.566814695196,264.8 523.566814695196,272.8 537.767460637868,256.8 523.566814695196,240.8 523.566814695196,248.8" style="fill:rgb(50,205,50);stroke:black;stroke-width:0;opacity:1"/> 
			</g>

			<g style="fill:none">
			<title>gene_s309,s3,s3,7789,8088,0</title>
			<polygon points="547.204279370206,223.2 551.73092450545,239.2 551.73092450545,231.2 562.293096487687,231.2 562.293096487687,215.2 551.73092450545,215.2 551.73092450545,207.2" style="fill:rgb(50,205,50);stroke:black;stroke-width:0;opacity:1"/> 
			</g>

			<g style="fill:none">
			<title>gene_s310,s3,s3,8088,8360,0</title>
			<polygon points="562.293096487687,223.2 566.410981025434,239.2 566.410981025434,231.2 576.019378280178,231.2 576.019378280178,215.2 566.410981025434,215.2 566.410981025434,207.2" style="fill:rgb(50,205,50);stroke:black;stroke-width:0;opacity:1"/> 
			</g>

			<g style="fill:none">
			<title>s3.s3.3.5100.9609.5.tick3,s3,s3,9529,9609,1</title>
			<polygon points="639.049253128785,176.96 639.049253128785,177.6 643.086394832459,177.6 643.086394832459,176.96 " style="fill:rgb(50,205,50);stroke:black;stroke-width:0;opacity:1"/> 
			</g>

			<g style="fill:none">
			<title>s3.s3.3.5100.9609.5.tick2,s3,s3,9529,9609,1</title>
			<polygon points="639.049253128785,184.7 639.049253128785,185.34 643.086394832459,185.34 643.086394832459,184.7 " style="fill:rgb(50,205,50);stroke:black;stroke-width:0;opacity:1"/> 
			</g>

			<g style="fill:none">
			<title>s3.s3.3.5100.9609.5.tick1,s3,s3,9529,9609,1</title>
			<polygon points="639.049253128785,192.44 639.049253128785,193.08 643.086394832459,193.08 643.086394832459,192.44 " style="fill:rgb(50,205,50);stroke:black;stroke-width:0;opacity:1"/> 
			</g>

			<g style="fill:none">
			<title>s3.s3.3.5100.9609.5.tick0,s3,s3,9529,9609,1</title>
			<polygon points="639.049253128785,200.18 639.049253128785,200.82 643.086394832459,200.82 643.086394832459,200.18 " style="fill:rgb(50,205,50);stroke:black;stroke-width:0;opacity:1"/> 
			</g>

			<g style="fill:none">
			<title>s3.s3.3.5100.9609.5,s3,s3,9589,9609,1</title>
			<polygon points="639.049253128785,176.893 639.049253128785,200.113 640.058538554703,200.113 640.058538554703,176.893 " style="fill:rgb(50,205,50);stroke:black;stroke-width:0;opacity:1"/> 
			</g>

			<g style="fill:none">
			<title>gene_s303000,s3,s3000,2925,3119,1</title>
			<polygon points="690.825595478401,248.8 690.825595478401,264.8 697.678643520388,264.8 697.678643520388,272.8 700.61566410981,256.8 697.678643520388,240.8 697.678643520388,248.8" style="fill:rgb(50,205,50);stroke:black;stroke-width:0;opacity:1"/> 
			</g>

			<g style="fill:none">
			<title>gene_s304000,s3,s3000,3486,3857,1</title>
			<polygon points="719.136051675414,248.8 719.136051675414,264.8 732.241622930965,264.8 732.241622930965,272.8 737.858296326201,256.8 732.241622930965,240.8 732.241622930965,248.8" style="fill:rgb(50,205,50);stroke:black;stroke-width:0;opacity:1"/> 
			</g>

			<g style="fill:none">
			<title>gene_s305000,s3,s3000,4343,4780,1</title>
			<polygon points="762.383932176019,248.8 762.383932176019,264.8 777.820952765442,264.8 777.820952765442,272.8 784.436818732337,256.8 777.820952765442,240.8 777.820952765442,248.8" style="fill:rgb(50,205,50);stroke:black;stroke-width:0;opacity:1"/> 
			</g>

			<g style="fill:none">
			<title>gene_s306000,s3,s3000,4815,5888,0</title>
			<polygon points="786.203068227695,223.2 802.447517157852,239.2 802.447517157852,231.2 840.35123132822,231.2 840.35123132822,215.2 802.447517157852,215.2 802.447517157852,207.2" style="fill:rgb(50,205,50);stroke:black;stroke-width:0;opacity:1"/> 
			</g>

			<g style="fill:none">
			<title>gene_s3030000,s3,s30000,2925,3119,1</title>
			<polygon points="897.779572062979,248.8 897.779572062979,264.8 904.632620104966,264.8 904.632620104966,272.8 907.569640694388,256.8 904.632620104966,240.8 904.632620104966,248.8" style="fill:rgb(50,205,50);stroke:black;stroke-width:0;opacity:1"/> 
			</g>

			<g style="fill:none">
			<title>gene_s3040000,s3,s30000,3486,3857,1</title>
			<polygon points="926.090028259992,248.8 926.090028259992,264.8 939.195599515543,264.8 939.195599515543,272.8 944.812272910779,256.8 939.195599515543,240.8 939.195599515543,248.8" style="fill:rgb(50,205,50);stroke:black;stroke-width:0;opacity:1"/> 
			</g>

			<g style="fill:none">
			<title>gene_s3050000,s3,s30000,4343,4780,1</title>
			<polygon points="969.337908760597,248.8 969.337908760597,264.8 984.77492935002,264.8 984.77492935002,272.8 991.390795316916,256.8 984.77492935002,240.8 984.77492935002,248.8" style="fill:rgb(50,205,50);stroke:black;stroke-width:0;opacity:1"/> 
			</g>

			<g style="fill:none">
			<title>gene_s3060000,s3,s30000,4815,5888,0</title>
			<polygon points="993.157044812273,223.2 1009.40149374243,239.2 1009.40149374243,231.2 1047.3052079128,231.2 1047.3052079128,215.2 1009.40149374243,215.2 1009.40149374243,207.2" style="fill:rgb(50,205,50);stroke:black;stroke-width:0;opacity:1"/> 
			</g>

			<g style="fill:none">
			<title>gene_s403000,s4,s4000,2925,3119,1</title>
			<polygon points="196.729915220024,328.8 196.729915220024,344.8 203.582963262011,344.8 203.582963262011,352.8 206.519983851433,336.8 203.582963262011,320.8 203.582963262011,328.8" style="fill:rgb(50,205,50);stroke:black;stroke-width:0;opacity:1"/> 
			</g>

			<g style="fill:none">
			<title>gene_s404000,s4,s4000,3486,3857,1</title>
			<polygon points="225.040371417037,328.8 225.040371417037,344.8 238.145942672588,344.8 238.145942672588,352.8 243.762616067824,336.8 238.145942672588,320.8 238.145942672588,328.8" style="fill:rgb(50,205,50);stroke:black;stroke-width:0;opacity:1"/> 
			</g>

			<g style="fill:none">
			<title>gene_s405000,s4,s4000,4343,4780,1</title>
			<polygon points="268.288251917642,328.8 268.288251917642,344.8 283.725272507065,344.8 283.725272507065,352.8 290.34113847396,336.8 283.725272507065,320.8 283.725272507065,328.8" style="fill:rgb(50,205,50);stroke:black;stroke-width:0;opacity:1"/> 
			</g>

			<g style="fill:none">
			<title>gene_s406000,s4,s4000,4815,5888,0</title>
			<polygon points="292.107387969318,303.2 308.351836899475,319.2 308.351836899475,311.2 346.255551069843,311.2 346.255551069843,295.2 308.351836899475,295.2 308.351836899475,287.2" style="fill:rgb(50,205,50);stroke:black;stroke-width:0;opacity:1"/> 
			</g>

			<g style="fill:none">
			<title>gene_s4020000,s4,s40000,1106,1888,1</title>
			<polygon points="362.353653613242,328.8 362.353653613242,344.8 389.97779572063,344.8 389.97779572063,352.8 401.816713766653,336.8 389.97779572063,320.8 389.97779572063,328.8" style="fill:rgb(50,205,50);stroke:black;stroke-width:0;opacity:1"/> 
			</g>

			<g style="fill:none">
			<title>gene_s4030000,s4,s40000,2925,3119,1</title>
			<polygon points="454.148163100525,328.8 454.148163100525,344.8 461.001211142511,344.8 461.001211142511,352.8 463.938231731934,336.8 461.001211142511,320.8 461.001211142511,328.8" style="fill:rgb(50,205,50);stroke:black;stroke-width:0;opacity:1"/> 
			</g>

			<g style="fill:none">
			<title>gene_s4040000,s4,s40000,3486,3857,1</title>
			<polygon points="482.458619297537,328.8 482.458619297537,344.8 495.564190553088,344.8 495.564190553088,352.8 501.180863948325,336.8 495.564190553088,320.8 495.564190553088,328.8" style="fill:rgb(50,205,50);stroke:black;stroke-width:0;opacity:1"/> 
			</g>

			<g style="fill:none">
			<title>gene_s4050000,s4,s40000,4343,4780,1</title>
			<polygon points="525.706499798143,328.8 525.706499798143,344.8 541.143520387566,344.8 541.143520387566,352.8 547.759386354461,336.8 541.143520387566,320.8 541.143520387566,328.8" style="fill:rgb(50,205,50);stroke:black;stroke-width:0;opacity:1"/> 
			</g>

			<g style="fill:none">
			<title>gene_s4060000,s4,s40000,4815,5888,0</title>
			<polygon points="549.525635849818,303.2 565.770084779976,319.2 565.770084779976,311.2 603.673798950343,311.2 603.673798950343,295.2 565.770084779976,295.2 565.770084779976,287.2" style="fill:rgb(50,205,50);stroke:black;stroke-width:0;opacity:1"/> 
			</g>

			<g style="fill:none">
			<title>gene_s4070000,s4,s40000,6005,6421,1</title>
			<polygon points="609.578118691966,328.8 609.578118691966,344.8 624.273314493339,344.8 624.273314493339,352.8 630.57125555107,336.8 624.273314493339,320.8 624.273314493339,328.8" style="fill:rgb(50,205,50);stroke:black;stroke-width:0;opacity:1"/> 
			</g>

			<g style="fill:none">
			<title>gene_s4080000,s4,s40000,6664,7602,1</title>
			<polygon points="642.834073475979,328.8 642.834073475979,344.8 675.968914008882,344.8 675.968914008882,352.8 690.169559951554,336.8 675.968914008882,320.8 675.968914008882,328.8" style="fill:rgb(50,205,50);stroke:black;stroke-width:0;opacity:1"/> 
			</g>

			<g style="fill:none">
			<title>gene_s4100000,s4,s40000,8088,8360,0</title>
			<circle cx="741.794509487283" cy="327.663140896245" r="6.86314089624546" stroke="black" stroke-width="0" fill="black" style="opacity:1"/>

			</g>

			<g style="fill:none">
			<title>gene_s410000000,s4,s40000,8188,8260,1</title>
			<polygon points="724.838514331853,320.8 724.838514331853,328.8 728.471941865159,328.8 728.471941865159,320.8 " style="fill:red;stroke:black;stroke-width:0;opacity:1"/> 
			</g>


<text x="815.169559951554" y="106.82" font-size="6px" fill="black"  text-anchor='start'   transform="rotate(0 815.169559951554 106.82)" font-family="Times New Roman">70</text>
<text x="815.169559951554" y="114.56" font-size="6px" fill="black"  text-anchor='start'   transform="rotate(0 815.169559951554 114.56)" font-family="Times New Roman">60</text>
<text x="815.169559951554" y="99.08" font-size="6px" fill="black"  text-anchor='start'   transform="rotate(0 815.169559951554 99.08)" font-family="Times New Roman">80</text>
<text x="815.169559951554" y="91.34" font-size="6px" fill="black"  text-anchor='start'   transform="rotate(0 815.169559951554 91.34)" font-family="Times New Roman">90</text>
<text x="815.169559951554" y="161" font-size="6px" fill="black"  text-anchor='start'   transform="rotate(0 815.169559951554 161)" font-family="Times New Roman">0</text>
<text x="815.169559951554" y="122.3" font-size="6px" fill="black"  text-anchor='start'   transform="rotate(0 815.169559951554 122.3)" font-family="Times New Roman">50</text>
<text x="815.169559951554" y="137.78" font-size="6px" fill="black"  text-anchor='start'   transform="rotate(0 815.169559951554 137.78)" font-family="Times New Roman">30</text>
<text x="815.169559951554" y="153.26" font-size="6px" fill="black"  text-anchor='start'   transform="rotate(0 815.169559951554 153.26)" font-family="Times New Roman">10</text>
<text x="815.169559951554" y="145.52" font-size="6px" fill="black"  text-anchor='start'   transform="rotate(0 815.169559951554 145.52)" font-family="Times New Roman">20</text>
<text x="815.169559951554" y="130.04" font-size="6px" fill="black"  text-anchor='start'   transform="rotate(0 815.169559951554 130.04)" font-family="Times New Roman">40</text>
<text x="254.965684295519" y="217.78" font-size="6px" fill="black"  text-anchor='start'   transform="rotate(0 254.965684295519 217.78)" font-family="Times New Roman">30</text>
<text x="254.965684295519" y="225.52" font-size="6px" fill="black"  text-anchor='start'   transform="rotate(0 254.965684295519 225.52)" font-family="Times New Roman">20</text>
<text x="254.965684295519" y="233.26" font-size="6px" fill="black"  text-anchor='start'   transform="rotate(0 254.965684295519 233.26)" font-family="Times New Roman">10</text>
<text x="254.965684295519" y="210.04" font-size="6px" fill="black"  text-anchor='start'   transform="rotate(0 254.965684295519 210.04)" font-family="Times New Roman">40</text>
<text x="410.446104158256" y="202.3" font-size="6px" fill="black"  text-anchor='start'   transform="rotate(0 410.446104158256 202.3)" font-family="Times New Roman">50</text>
<text x="410.446104158256" y="217.78" font-size="6px" fill="black"  text-anchor='start'   transform="rotate(0 410.446104158256 217.78)" font-family="Times New Roman">30</text>
<text x="410.446104158256" y="225.52" font-size="6px" fill="black"  text-anchor='start'   transform="rotate(0 410.446104158256 225.52)" font-family="Times New Roman">20</text>
<text x="410.446104158256" y="186.82" font-size="6px" fill="black"  text-anchor='start'   transform="rotate(0 410.446104158256 186.82)" font-family="Times New Roman">70</text>
<text x="410.446104158256" y="210.04" font-size="6px" fill="black"  text-anchor='start'   transform="rotate(0 410.446104158256 210.04)" font-family="Times New Roman">40</text>
<text x="410.446104158256" y="179.08" font-size="6px" fill="black"  text-anchor='start'   transform="rotate(0 410.446104158256 179.08)" font-family="Times New Roman">80</text>
<text x="410.446104158256" y="194.56" font-size="6px" fill="black"  text-anchor='start'   transform="rotate(0 410.446104158256 194.56)" font-family="Times New Roman">60</text>
<text x="410.446104158256" y="233.26" font-size="6px" fill="black"  text-anchor='start'   transform="rotate(0 410.446104158256 233.26)" font-family="Times New Roman">10</text>
<text x="643.086394832459" y="179.08" font-size="6px" fill="black"  text-anchor='start'   transform="rotate(0 643.086394832459 179.08)" font-family="Times New Roman">80</text>
<text x="643.086394832459" y="186.82" font-size="6px" fill="black"  text-anchor='start'   transform="rotate(0 643.086394832459 186.82)" font-family="Times New Roman">70</text>
<text x="643.086394832459" y="194.56" font-size="6px" fill="black"  text-anchor='start'   transform="rotate(0 643.086394832459 194.56)" font-family="Times New Roman">60</text>
<text x="643.086394832459" y="202.3" font-size="6px" fill="black"  text-anchor='start'   transform="rotate(0 643.086394832459 202.3)" font-family="Times New Roman">50</text>

</svg>