<svg xmlns="http://www.w3.org/2000/svg" version="1.1" width="1300" height="500" style="background-color:white;">
<text x="117" y="150" font-size="15px" fill="black"  text-anchor='end' alignment-baseline="middle" >pO83_CORR</text>
<defs>    <clipPath id="cut-pO83_CORR-NC_017659.1-1"><path d="M130 50 L1105 50 L1105 250 L130 250 Z" />     </clipPath>  </defs>
<text x="117" y="350" font-size="15px" fill="black"  text-anchor='end' alignment-baseline="middle" >pO83_CORR.indel</text>
<defs>    <clipPath id="cut-pO83_CORR.indel-NC_017659.1.fake-1"><path d="M130 250 L723.976628895184 250 L723.976628895184 450 L130 450 Z" />     </clipPath>  </defs>
<defs>    <clipPath id="cut-pO83_CORR.indel-NC_017659.1.fake-1"><path d="M130 250 L723.976628895184 250 L723.976628895184 450 L130 450 Z" />     </clipPath>  </defs>

<line x1="130" y1="480" x2="1105" y2="480" style="stroke:green;stroke-width:0.5"/>
<line x1="130" y1="475" x2="130" y2="480" style="stroke:green;stroke-width:0.5;opacity:1"/>
<text x="130" y="490" font-size="6px" fill="green"  text-anchor='middle' font-family="Times New Roman">0bp</text>
<line x1="364.773371104816" y1="475" x2="364.773371104816" y2="480" style="stroke:green;stroke-width:0.5;opacity:1"/>
<text x="364.773371104816" y="490" font-size="6px" fill="green"  text-anchor='middle' font-family="Times New Roman">1,700</text>
<line x1="599.546742209632" y1="475" x2="599.546742209632" y2="480" style="stroke:green;stroke-width:0.5;opacity:1"/>
<text x="599.546742209632" y="490" font-size="6px" fill="green"  text-anchor='middle' font-family="Times New Roman">3,400</text>
<line x1="834.320113314448" y1="475" x2="834.320113314448" y2="480" style="stroke:green;stroke-width:0.5;opacity:1"/>
<text x="834.320113314448" y="490" font-size="6px" fill="green"  text-anchor='middle' font-family="Times New Roman">5,100</text>
<line x1="1105" y1="475" x2="1105" y2="480" style="stroke:green;stroke-width:0.5;opacity:1"/>
<text x="1105" y="490" font-size="6px" fill="green"  text-anchor='middle' font-family="Times New Roman">7,060bp</text>



<rect x="130" y="149" width="975" height="2" style="fill:blue;opacity:0.2"   />

<rect x="130" y="349" width="593.976628895184" height="2" style="fill:blue;opacity:0.2"   />


















 <defs>    <clipPath id="130-349-723.976628895184-349-1105-149-130-149"><path d="M130 349 L723.976628895184 349 L1105 149 L130 149 Z" /></clipPath>  </defs>
<path d="M884.036827195467 157 L20439.4157223796 157 L20204.7804532578 343 L649.401558073654 343 Z"  clip-path="url(#130-349-723.976628895184-349-1105-149-130-149)" style="stroke:black;stroke-width:0;fill:orange;opacity:0.5" />



















 <polygon points="420.152266288952,157 885.279745042493,157 621.504957507082,343 156.515580736544,343" style="stroke:black;stroke-width:0;fill:orange;opacity:0.4997"/>



















 <defs>    <clipPath id="130-349-723.976628895184-349-1105-149-130-149"><path d="M130 349 L723.976628895184 349 L1105 149 L130 149 Z" /></clipPath>  </defs>
<path d="M130.138101983003 157 L392.25566572238 157 L157.620396600567 343 L-104.49716713881 343 Z"  clip-path="url(#130-349-723.976628895184-349-1105-149-130-149)" style="stroke:black;stroke-width:0;fill:orange;opacity:0.49945" />



















 <polygon points="391.150849858357,157 420.152266288952,157 649.539660056657,343 620.538243626062,343" style="stroke:black;stroke-width:0;fill:orange;opacity:0.5"/>


</svg>