<svg xmlns="http://www.w3.org/2000/svg" version="1.1" width="1500" height="400" style="background-color:white;">
<text x="135" y="65.09" font-size="15px" fill="black"  text-anchor='end'>s1</text>
<g fill="none" stroke="black" stroke-width="2"><path stroke-dasharray="2,2" d="M291.775853517401,65 L314.792923865421,65" /></g><g fill="none" stroke="black" stroke-width="2"><path stroke-dasharray="2,2" d="M455.034306026287,65 L478.051376374308,65" /></g><g fill="none" stroke="black" stroke-width="2"><path stroke-dasharray="2,2" d="M1065.66090766306,65 L1088.67797801108,65" /></g><text x="135" y="155.09" font-size="15px" fill="black"  text-anchor='end'>s2</text>
<g fill="none" stroke="black" stroke-width="2"><path stroke-dasharray="2,2" d="M987.077374555675,155 L1010.0944449037,155" /></g><text x="135" y="245.09" font-size="15px" fill="black"  text-anchor='end'>s3</text>
<g fill="none" stroke="black" stroke-width="2"><path stroke-dasharray="2,2" d="M242.998264032405,245 L266.015334380425,245" /></g><g fill="none" stroke="black" stroke-width="2"><path stroke-dasharray="2,2" d="M404.861742580805,245 L427.878812928825,245" /></g><text x="135" y="335.09" font-size="15px" fill="black"  text-anchor='end'>s4</text>
<g fill="none" stroke="black" stroke-width="2"><path stroke-dasharray="2,2" d="M684.83301645036,335 L707.85008679838,335" /></g><rect x="1312.125" y="189.2" width="47.25" height="6.75" style="fill:black;stroke:black;stroke-width:0.5;fill-opacity:1;stroke-opacity:1" /><text x="1365.45" y="195.6125" font-size="15px" fill="black" text-anchor='start'>legend.s1i</text><rect x="1312.125" y="196.625" width="47.25" height="6.75" style="fill:red;stroke:black;stroke-width:0.5;fill-opacity:1;stroke-opacity:1" /><text x="1365.45" y="203.0375" font-size="15px" fill="black" text-anchor='start'>legend.s1</text><rect x="1312.125" y="204.05" width="47.25" height="6.75" style="fill:rgb(255,165,0);stroke:black;stroke-width:0.5;fill-opacity:1;stroke-opacity:1" /><text x="1365.45" y="210.4625" font-size="15px" fill="black" text-anchor='start'>legend.s2</text>
<line x1="150" y1="368" x2="1275" y2="368" style="stroke:green;stroke-width:0.5"/>
<line x1="150" y1="364" x2="150" y2="368" style="stroke:green;stroke-width:0.5;opacity:1"/>
<text x="150" y="383" font-size="13px" fill="green"  text-anchor='middle' font-family="Times New Roman">0</text>
<line x1="242.998264032405" y1="364" x2="242.998264032405" y2="368" style="stroke:green;stroke-width:0.5;opacity:1"/>
<text x="242.998264032405" y="383" font-size="13px" fill="green"  text-anchor='middle' font-family="Times New Roman">2,000</text>
<line x1="335.996528064809" y1="364" x2="335.996528064809" y2="368" style="stroke:green;stroke-width:0.5;opacity:1"/>
<text x="335.996528064809" y="383" font-size="13px" fill="green"  text-anchor='middle' font-family="Times New Roman">4,000</text>
<line x1="428.994792097214" y1="364" x2="428.994792097214" y2="368" style="stroke:green;stroke-width:0.5;opacity:1"/>
<text x="428.994792097214" y="383" font-size="13px" fill="green"  text-anchor='middle' font-family="Times New Roman">6,000</text>
<line x1="521.993056129619" y1="364" x2="521.993056129619" y2="368" style="stroke:green;stroke-width:0.5;opacity:1"/>
<text x="521.993056129619" y="383" font-size="13px" fill="green"  text-anchor='middle' font-family="Times New Roman">8,000</text>
<line x1="614.991320162024" y1="364" x2="614.991320162024" y2="368" style="stroke:green;stroke-width:0.5;opacity:1"/>
<text x="614.991320162024" y="383" font-size="13px" fill="green"  text-anchor='middle' font-family="Times New Roman">10,000</text>
<line x1="707.989584194428" y1="364" x2="707.989584194428" y2="368" style="stroke:green;stroke-width:0.5;opacity:1"/>
<text x="707.989584194428" y="383" font-size="13px" fill="green"  text-anchor='middle' font-family="Times New Roman">12,000</text>
<line x1="800.987848226833" y1="364" x2="800.987848226833" y2="368" style="stroke:green;stroke-width:0.5;opacity:1"/>
<text x="800.987848226833" y="383" font-size="13px" fill="green"  text-anchor='middle' font-family="Times New Roman">14,000</text>
<line x1="893.986112259238" y1="364" x2="893.986112259238" y2="368" style="stroke:green;stroke-width:0.5;opacity:1"/>
<text x="893.986112259238" y="383" font-size="13px" fill="green"  text-anchor='middle' font-family="Times New Roman">16,000</text>
<line x1="986.984376291643" y1="364" x2="986.984376291643" y2="368" style="stroke:green;stroke-width:0.5;opacity:1"/>
<text x="986.984376291643" y="383" font-size="13px" fill="green"  text-anchor='middle' font-family="Times New Roman">18,000</text>
<line x1="1079.98264032405" y1="364" x2="1079.98264032405" y2="368" style="stroke:green;stroke-width:0.5;opacity:1"/>
<text x="1079.98264032405" y="383" font-size="13px" fill="green"  text-anchor='middle' font-family="Times New Roman">20,000</text>
<line x1="1172.98090435645" y1="364" x2="1172.98090435645" y2="368" style="stroke:green;stroke-width:0.5;opacity:1"/>
<text x="1172.98090435645" y="383" font-size="13px" fill="green"  text-anchor='middle' font-family="Times New Roman">22,000</text>
<line x1="1275" y1="364" x2="1275" y2="368" style="stroke:green;stroke-width:0.5;opacity:1"/>
<text x="1275" y="383" font-size="13px" fill="green"  text-anchor='middle' font-family="Times New Roman">24,194bp</text>


<g><title>s1,2,3050</title><rect x="150" y="64.55" width="141.775853517401" height="0.9" style="fill:blue"   /></g>
<g><title>s1,3000,6010</title><rect x="315.025419525502" y="64.55" width="140.008886500785" height="0.9" style="fill:blue"   /></g>
<g><title>s1,5980,9609</title><rect x="478.283872034389" y="64.55" width="168.791849218815" height="0.9" style="fill:blue"   /></g>
<g><title>s1000,2000,6000</title><rect x="670.325287261304" y="64.55" width="186.043027196826" height="0.9" style="fill:blue"   /></g>

				<g style="fill:none">
				<title>gene_s103000,s1,s1000,2925,3119,1</title>
				<polygon points="713.383483508308,64.1 713.383483508308,65.9 722.404315119451,65.9 722.404315119451,64.1 " style="fill:black;stroke:black;stroke-width:0;opacity:1"/> 
				</g>
<g><title>s10000,6000,10000</title><rect x="1088.91047367116" y="64.55" width="186.043027196826" height="0.9" style="fill:blue"   /></g>
<g><title>s2,1,9000</title><rect x="150" y="154.55" width="418.492188145821" height="0.9" style="fill:blue"   /></g>
<g><title>s2000,2000,6000</title><rect x="591.741754153922" y="154.55" width="186.043027196826" height="0.9" style="fill:blue"   /></g>
<g><title>s20000,2000,6000</title><rect x="801.034347358849" y="154.55" width="186.043027196826" height="0.9" style="fill:blue"   /></g>
<g><title>s20000,6000,10000</title><rect x="1010.32694056378" y="154.55" width="186.043027196826" height="0.9" style="fill:blue"   /></g>
<g><title>s3,11,2010</title><rect x="150" y="244.55" width="92.9982640324047" height="0.9" style="fill:blue"   /></g>
<g><title>s3,2020,5000</title><rect x="266.247830040506" y="244.55" width="138.613912540299" height="0.9" style="fill:blue"   /></g>
<g><title>s3,5100,9609</title><rect x="428.111308588906" y="244.55" width="209.711085393073" height="0.9" style="fill:blue"   /></g>
<g><title>s3000,2000,6000</title><rect x="661.07195999008" y="244.55" width="186.043027196826" height="0.9" style="fill:blue"   /></g>
<g><title>s30000,2000,6000</title><rect x="870.364553195007" y="244.55" width="186.043027196826" height="0.9" style="fill:blue"   /></g>
<g><title>s4000,2000,6000</title><rect x="150" y="334.55" width="186.043027196826" height="0.9" style="fill:blue"   /></g>
<g><title>s40000,1000,8000</title><rect x="359.292593204927" y="334.55" width="325.540423245433" height="0.9" style="fill:blue"   /></g>
<g><title>s40000,8000,9609</title><rect x="708.082582458461" y="334.55" width="74.8636025460858" height="0.9" style="fill:blue"   /></g>



				<g style="fill:none">
				<title>gene_s101,s1,s1,87,1109,1</title>
				<polygon points="153.998925353393,62.75 153.998925353393,67.25 201.521038273952,67.25 201.521038273952,62.75 " style="fill:rgb(50,205,50);stroke:black;stroke-width:0;opacity:1"/> 
				</g>

				<g style="fill:none">
				<title>gene_s102,s1,s1,1106,1888,1</title>
				<polygon points="201.381540877904,62.75 201.381540877904,67.25 237.743862114574,67.25 237.743862114574,62.75 " style="fill:rgb(50,205,50);stroke:black;stroke-width:0;opacity:1"/> 
				</g>

				<g style="fill:none">
				<title>gene_s104,s1,s1,3486,3857,1</title>
				<polygon points="337.670496817393,62.75 337.670496817393,67.25 354.921674795404,67.25 354.921674795404,62.75 " style="fill:rgb(50,205,50);stroke:black;stroke-width:0;opacity:1"/> 
				</g>

				<g style="fill:none">
				<title>gene_s105,s1,s1,4343,4780,1</title>
				<polygon points="377.520252955278,62.75 377.520252955278,67.25 397.840373646359,67.25 397.840373646359,62.75 " style="fill:rgb(50,205,50);stroke:black;stroke-width:0;opacity:1"/> 
				</g>

				<g style="fill:none">
				<title>gene_s106,s1,s1,4815,5888,0</title>
				<polygon points="399.467843266926,62.75 399.467843266926,67.25 449.361411920311,67.25 449.361411920311,62.75 " style="fill:rgb(50,205,50);stroke:black;stroke-width:0;opacity:1"/> 
				</g>

				<g style="fill:none">
				<title>gene_s107,s1,s1,6005,6421,1</title>
				<polygon points="479.49284946681,62.75 479.49284946681,67.25 498.83648838555,67.25 498.83648838555,62.75 " style="fill:rgb(50,205,50);stroke:black;stroke-width:0;opacity:1"/> 
				</g>

				<g style="fill:none">
				<title>gene_s108,s1,s1,6664,7602,1</title>
				<polygon points="510.135777465487,62.75 510.135777465487,67.25 553.751963296685,67.25 553.751963296685,62.75 " style="fill:rgb(50,205,50);stroke:black;stroke-width:0;opacity:1"/> 
				</g>

				<g style="fill:none">
				<title>gene_s109,s1,s1,7789,8088,0</title>
				<polygon points="562.447300983715,62.75 562.447300983715,67.25 576.350541456559,67.25 576.350541456559,62.75 " style="fill:rgb(50,205,50);stroke:black;stroke-width:0;opacity:1"/> 
				</g>

				<g style="fill:none">
				<title>gene_s110,s1,s1,8088,8360,0</title>
				<polygon points="576.350541456559,62.75 576.350541456559,67.25 588.998305364966,67.25 588.998305364966,62.75 " style="fill:rgb(50,205,50);stroke:black;stroke-width:0;opacity:1"/> 
				</g>

				<g style="fill:none">
				<title>gene_s104000,s1,s1000,3486,3857,1</title>
				<polygon points="739.469496569397,62.75 739.469496569397,67.25 756.720674547408,67.25 756.720674547408,62.75 " style="fill:rgb(50,205,50);stroke:black;stroke-width:0;opacity:1"/> 
				</g>

				<g style="fill:none">
				<title>gene_s105000,s1,s1000,4343,4780,1</title>
				<polygon points="779.319252707283,62.75 779.319252707283,67.25 799.639373398363,67.25 799.639373398363,62.75 " style="fill:rgb(50,205,50);stroke:black;stroke-width:0;opacity:1"/> 
				</g>

				<g style="fill:none">
				<title>gene_s106000,s1,s1000,4815,5888,0</title>
				<polygon points="801.26684301893,62.75 801.26684301893,67.25 851.160411672315,67.25 851.160411672315,62.75 " style="fill:rgb(50,205,50);stroke:black;stroke-width:0;opacity:1"/> 
				</g>

				<g style="fill:none">
				<title>gene_s1040000,s1,s10000,3486,3857,1</title>
				<polygon points="948.762089774324,62.75 948.762089774324,67.25 966.013267752335,67.25 966.013267752335,62.75 " style="fill:rgb(50,205,50);stroke:black;stroke-width:0;opacity:1"/> 
				</g>

				<g style="fill:none">
				<title>gene_s1050000,s1,s10000,4343,4780,1</title>
				<polygon points="988.61184591221,62.75 988.61184591221,67.25 1008.93196660329,67.25 1008.93196660329,62.75 " style="fill:rgb(50,205,50);stroke:black;stroke-width:0;opacity:1"/> 
				</g>

				<g style="fill:none">
				<title>gene_s1060000,s1,s10000,4815,5888,0</title>
				<polygon points="1010.55943622386,62.75 1010.55943622386,67.25 1060.45300487724,67.25 1060.45300487724,62.75 " style="fill:rgb(50,205,50);stroke:black;stroke-width:0;opacity:1"/> 
				</g>

				<g style="fill:none">
				<title>gene_s1070000,s1,s10000,6005,6421,1</title>
				<polygon points="1089.18946846326,62.75 1089.18946846326,67.25 1108.533107382,67.25 1108.533107382,62.75 " style="fill:rgb(50,205,50);stroke:black;stroke-width:0;opacity:1"/> 
				</g>

				<g style="fill:none">
				<title>gene_s1080000,s1,s10000,6664,7602,1</title>
				<polygon points="1119.83239646193,62.75 1119.83239646193,67.25 1163.44858229313,67.25 1163.44858229313,62.75 " style="fill:rgb(50,205,50);stroke:black;stroke-width:0;opacity:1"/> 
				</g>

				<g style="fill:none">
				<title>gene_s1090000,s1,s10000,7789,8088,0</title>
				<polygon points="1172.14391998016,62.75 1172.14391998016,67.25 1186.047160453,67.25 1186.047160453,62.75 " style="fill:rgb(50,205,50);stroke:black;stroke-width:0;opacity:1"/> 
				</g>

				<g style="fill:none">
				<title>gene_s1100000,s1,s10000,8088,8360,0</title>
				<polygon points="1186.047160453,62.75 1186.047160453,67.25 1198.69492436141,67.25 1198.69492436141,62.75 " style="fill:rgb(50,205,50);stroke:black;stroke-width:0;opacity:1"/> 
				</g>

				<g style="fill:none">
				<title>gene_s11000001,s1,s10000,8361,8560,0</title>
				<polygon points="1198.74142349343,62.75 1198.74142349343,67.25 1207.99475076465,67.25 1207.99475076465,62.75 " style="fill:rgb(50,205,50);stroke:black;stroke-width:0;opacity:1"/> 
				</g>

				<g style="fill:none">
				<title>gene_s201,s2,s2,87,1109,1</title>
				<polygon points="154.04542448541,152.75 154.04542448541,157.25 201.567537405968,157.25 201.567537405968,152.75 " style="fill:rgb(50,205,50);stroke:black;stroke-width:0;opacity:1"/> 
				</g>

				<g style="fill:none">
				<title>gene_s202,s2,s2,1106,1888,1</title>
				<polygon points="201.42804000992,152.75 201.42804000992,157.25 237.79036124659,157.25 237.79036124659,152.75 " style="fill:rgb(50,205,50);stroke:black;stroke-width:0;opacity:1"/> 
				</g>

				<g style="fill:none">
				<title>gene_s203,s2,s2,2925,3119,1</title>
				<polygon points="286.009961147392,152.75 286.009961147392,157.25 295.030792758535,157.25 295.030792758535,152.75 " style="fill:rgb(50,205,50);stroke:black;stroke-width:0;opacity:1"/> 
				</g>

				<g style="fill:none">
				<title>gene_s204,s2,s2,3486,3857,1</title>
				<polygon points="312.095974208481,152.75 312.095974208481,157.25 329.347152186493,157.25 329.347152186493,152.75 " style="fill:rgb(50,205,50);stroke:black;stroke-width:0;opacity:1"/> 
				</g>

				<g style="fill:none">
				<title>gene_s205,s2,s2,4343,4780,1</title>
				<polygon points="351.945730346367,152.75 351.945730346367,157.25 372.265851037447,157.25 372.265851037447,152.75 " style="fill:rgb(50,205,50);stroke:black;stroke-width:0;opacity:1"/> 
				</g>

				<g style="fill:none">
				<title>gene_s206,s2,s2,4815,5888,0</title>
				<polygon points="373.893320658014,152.75 373.893320658014,157.25 423.7868893114,157.25 423.7868893114,152.75 " style="fill:rgb(50,205,50);stroke:black;stroke-width:0;opacity:1"/> 
				</g>

				<g style="fill:none">
				<title>gene_s207,s2,s2,6005,6421,1</title>
				<polygon points="429.227287757295,152.75 429.227287757295,157.25 448.570926676035,157.25 448.570926676035,152.75 " style="fill:rgb(255,165,0);stroke:black;stroke-width:0;opacity:1"/> 
				</g>

				<g style="fill:none">
				<title>gene_s208,s2,s2,6664,7602,1</title>
				<polygon points="459.870215755973,152.75 459.870215755973,157.25 503.48640158717,157.25 503.48640158717,152.75 " style="fill:rgb(50,205,50);stroke:black;stroke-width:0;opacity:1"/> 
				</g>

				<g style="fill:none">
				<title>gene_s209,s2,s2,7789,8088,0</title>
				<polygon points="512.1817392742,152.75 512.1817392742,157.25 526.084979747045,157.25 526.084979747045,152.75 " style="fill:rgb(50,205,50);stroke:black;stroke-width:0;opacity:1"/> 
				</g>

				<g style="fill:none">
				<title>gene_s210,s2,s2,8088,8360,0</title>
				<polygon points="526.084979747045,152.75 526.084979747045,157.25 538.732743655452,157.25 538.732743655452,152.75 " style="fill:rgb(50,205,50);stroke:black;stroke-width:0;opacity:1"/> 
				</g>

				<g style="fill:none">
				<title>gene_s203000,s2,s2000,2925,3119,1</title>
				<polygon points="634.799950400926,152.75 634.799950400926,157.25 643.820782012069,157.25 643.820782012069,152.75 " style="fill:rgb(50,205,50);stroke:black;stroke-width:0;opacity:1"/> 
				</g>

				<g style="fill:none">
				<title>gene_s204000,s2,s2000,3486,3857,1</title>
				<polygon points="660.885963462015,152.75 660.885963462015,157.25 678.137141440026,157.25 678.137141440026,152.75 " style="fill:rgb(50,205,50);stroke:black;stroke-width:0;opacity:1"/> 
				</g>

				<g style="fill:none">
				<title>gene_s205000,s2,s2000,4343,4780,1</title>
				<polygon points="700.735719599901,152.75 700.735719599901,157.25 721.055840290981,157.25 721.055840290981,152.75 " style="fill:rgb(50,205,50);stroke:black;stroke-width:0;opacity:1"/> 
				</g>

				<g style="fill:none">
				<title>gene_s206000,s2,s2000,4815,5888,0</title>
				<polygon points="722.683309911548,152.75 722.683309911548,157.25 772.576878564934,157.25 772.576878564934,152.75 " style="fill:rgb(255,165,0);stroke:black;stroke-width:0;opacity:0.5"/> 
				</g>

				<g style="fill:none">
				<title>gene_s2030000,s2,s20000,2925,3119,1</title>
				<polygon points="844.092543605853,152.75 844.092543605853,157.25 853.113375216996,157.25 853.113375216996,152.75 " style="fill:rgb(50,205,50);stroke:black;stroke-width:0;opacity:1"/> 
				</g>

				<g style="fill:none">
				<title>gene_s2040000,s2,s20000,3486,3857,1</title>
				<polygon points="870.178556666942,152.75 870.178556666942,157.25 887.429734644953,157.25 887.429734644953,152.75 " style="fill:rgb(50,205,50);stroke:black;stroke-width:0;opacity:1"/> 
				</g>

				<g style="fill:none">
				<title>gene_s2050000,s2,s20000,4343,4780,1</title>
				<polygon points="910.028312804828,152.75 910.028312804828,157.25 930.348433495908,157.25 930.348433495908,152.75 " style="fill:rgb(50,205,50);stroke:black;stroke-width:0;opacity:1"/> 
				</g>

				<g style="fill:none">
				<title>gene_s2060000,s2,s20000,4815,5888,0</title>
				<polygon points="931.975903116475,152.75 931.975903116475,157.25 981.86947176986,157.25 981.86947176986,152.75 " style="fill:rgb(50,205,50);stroke:black;stroke-width:0;opacity:1"/> 
				</g>

				<g style="fill:none">
				<title>gene_s2070000,s2,s20000,6005,6421,1</title>
				<polygon points="1010.60593535587,152.75 1010.60593535587,157.25 1029.94957427461,157.25 1029.94957427461,152.75 " style="fill:rgb(255,165,0);stroke:black;stroke-width:0;opacity:1"/> 
				</g>

				<g style="fill:none">
				<title>gene_s2080000,s2,s20000,6664,7602,1</title>
				<polygon points="1041.24886335455,152.75 1041.24886335455,157.25 1084.86504918575,157.25 1084.86504918575,152.75 " style="fill:rgb(50,205,50);stroke:black;stroke-width:0;opacity:1"/> 
				</g>

				<g style="fill:none">
				<title>gene_s2090000,s2,s20000,7789,8088,0</title>
				<polygon points="1093.56038687278,152.75 1093.56038687278,157.25 1107.46362734562,157.25 1107.46362734562,152.75 " style="fill:rgb(50,205,50);stroke:black;stroke-width:0;opacity:1"/> 
				</g>

				<g style="fill:none">
				<title>gene_s2100000,s2,s20000,8088,8360,0</title>
				<polygon points="1107.46362734562,152.75 1107.46362734562,157.25 1120.11139125403,157.25 1120.11139125403,152.75 " style="fill:rgb(50,205,50);stroke:black;stroke-width:0;opacity:1"/> 
				</g>

				<g style="fill:none">
				<title>gene_s301,s3,s3,87,1109,1</title>
				<polygon points="153.580433165248,242.75 153.580433165248,247.25 201.102546085806,247.25 201.102546085806,242.75 " style="fill:rgb(50,205,50);stroke:black;stroke-width:0;opacity:1"/> 
				</g>

				<g style="fill:none">
				<title>gene_s302,s3,s3,1106,1888,1</title>
				<polygon points="200.963048689758,242.75 200.963048689758,247.25 237.325369926428,247.25 237.325369926428,242.75 " style="fill:rgb(50,205,50);stroke:black;stroke-width:0;opacity:1"/> 
				</g>

				<g style="fill:none">
				<title>gene_s303,s3,s3,2925,3119,1</title>
				<polygon points="308.376043647185,242.75 308.376043647185,247.25 317.396875258329,247.25 317.396875258329,242.75 " style="fill:rgb(50,205,50);stroke:black;stroke-width:0;opacity:1"/> 
				</g>

				<g style="fill:none">
				<title>gene_s304,s3,s3,3486,3857,1</title>
				<polygon points="334.462056708275,242.75 334.462056708275,247.25 351.713234686286,247.25 351.713234686286,242.75 " style="fill:rgb(50,205,50);stroke:black;stroke-width:0;opacity:1"/> 
				</g>

				<g style="fill:none">
				<title>gene_s305,s3,s3,4343,4780,1</title>
				<polygon points="374.31181284616,242.75 374.31181284616,247.25 394.631933537241,247.25 394.631933537241,242.75 " style="fill:rgb(50,205,50);stroke:black;stroke-width:0;opacity:1"/> 
				</g>

				<g style="fill:none">
				<title>gene_s307,s3,s3,6005,6421,1</title>
				<polygon points="470.239522195586,242.75 470.239522195586,247.25 489.583161114326,247.25 489.583161114326,242.75 " style="fill:rgb(50,205,50);stroke:black;stroke-width:0;opacity:1"/> 
				</g>

				<g style="fill:none">
				<title>gene_s308,s3,s3,6664,7602,1</title>
				<polygon points="500.882450194263,242.75 500.882450194263,247.25 544.498636025461,247.25 544.498636025461,242.75 " style="fill:rgb(50,205,50);stroke:black;stroke-width:0;opacity:1"/> 
				</g>

				<g style="fill:none">
				<title>gene_s309,s3,s3,7789,8088,0</title>
				<polygon points="553.193973712491,242.75 553.193973712491,247.25 567.097214185335,247.25 567.097214185335,242.75 " style="fill:rgb(50,205,50);stroke:black;stroke-width:0;opacity:1"/> 
				</g>

				<g style="fill:none">
				<title>gene_s310,s3,s3,8088,8360,0</title>
				<polygon points="567.097214185335,242.75 567.097214185335,247.25 579.744978093742,247.25 579.744978093742,242.75 " style="fill:rgb(50,205,50);stroke:black;stroke-width:0;opacity:1"/> 
				</g>

				<g style="fill:none">
				<title>gene_s303000,s3,s3000,2925,3119,1</title>
				<polygon points="704.130156237083,242.75 704.130156237083,247.25 713.150987848227,247.25 713.150987848227,242.75 " style="fill:rgb(50,205,50);stroke:black;stroke-width:0;opacity:1"/> 
				</g>

				<g style="fill:none">
				<title>gene_s304000,s3,s3000,3486,3857,1</title>
				<polygon points="730.216169298173,242.75 730.216169298173,247.25 747.467347276184,247.25 747.467347276184,242.75 " style="fill:rgb(50,205,50);stroke:black;stroke-width:0;opacity:1"/> 
				</g>

				<g style="fill:none">
				<title>gene_s305000,s3,s3000,4343,4780,1</title>
				<polygon points="770.065925436058,242.75 770.065925436058,247.25 790.386046127139,247.25 790.386046127139,242.75 " style="fill:rgb(50,205,50);stroke:black;stroke-width:0;opacity:1"/> 
				</g>

				<g style="fill:none">
				<title>gene_s306000,s3,s3000,4815,5888,0</title>
				<polygon points="792.013515747706,242.75 792.013515747706,247.25 841.907084401091,247.25 841.907084401091,242.75 " style="fill:rgb(50,205,50);stroke:black;stroke-width:0;opacity:1"/> 
				</g>

				<g style="fill:none">
				<title>gene_s3030000,s3,s30000,2925,3119,1</title>
				<polygon points="913.42274944201,242.75 913.42274944201,247.25 922.443581053154,247.25 922.443581053154,242.75 " style="fill:rgb(50,205,50);stroke:black;stroke-width:0;opacity:1"/> 
				</g>

				<g style="fill:none">
				<title>gene_s3040000,s3,s30000,3486,3857,1</title>
				<polygon points="939.5087625031,242.75 939.5087625031,247.25 956.759940481111,247.25 956.759940481111,242.75 " style="fill:rgb(50,205,50);stroke:black;stroke-width:0;opacity:1"/> 
				</g>

				<g style="fill:none">
				<title>gene_s3050000,s3,s30000,4343,4780,1</title>
				<polygon points="979.358518640985,242.75 979.358518640985,247.25 999.678639332066,247.25 999.678639332066,242.75 " style="fill:rgb(50,205,50);stroke:black;stroke-width:0;opacity:1"/> 
				</g>

				<g style="fill:none">
				<title>gene_s3060000,s3,s30000,4815,5888,0</title>
				<polygon points="1001.30610895263,242.75 1001.30610895263,247.25 1051.19967760602,247.25 1051.19967760602,242.75 " style="fill:rgb(50,205,50);stroke:black;stroke-width:0;opacity:1"/> 
				</g>

				<g style="fill:none">
				<title>gene_s403000,s4,s4000,2925,3119,1</title>
				<polygon points="193.058196247003,332.75 193.058196247003,337.25 202.079027858147,337.25 202.079027858147,332.75 " style="fill:rgb(50,205,50);stroke:black;stroke-width:0;opacity:1"/> 
				</g>

				<g style="fill:none">
				<title>gene_s404000,s4,s4000,3486,3857,1</title>
				<polygon points="219.144209308093,332.75 219.144209308093,337.25 236.395387286104,337.25 236.395387286104,332.75 " style="fill:rgb(50,205,50);stroke:black;stroke-width:0;opacity:1"/> 
				</g>

				<g style="fill:none">
				<title>gene_s405000,s4,s4000,4343,4780,1</title>
				<polygon points="258.993965445978,332.75 258.993965445978,337.25 279.314086137059,337.25 279.314086137059,332.75 " style="fill:rgb(50,205,50);stroke:black;stroke-width:0;opacity:1"/> 
				</g>

				<g style="fill:none">
				<title>gene_s406000,s4,s4000,4815,5888,0</title>
				<polygon points="280.941555757626,332.75 280.941555757626,337.25 330.835124411011,337.25 330.835124411011,332.75 " style="fill:rgb(50,205,50);stroke:black;stroke-width:0;opacity:1"/> 
				</g>

				<g style="fill:none">
				<title>gene_s4020000,s4,s40000,1106,1888,1</title>
				<polygon points="364.26800033066,332.75 364.26800033066,337.25 400.630321567331,337.25 400.630321567331,332.75 " style="fill:rgb(50,205,50);stroke:black;stroke-width:0;opacity:1"/> 
				</g>

				<g style="fill:none">
				<title>gene_s4030000,s4,s40000,2925,3119,1</title>
				<polygon points="448.849921468133,332.75 448.849921468133,337.25 457.870753079276,337.25 457.870753079276,332.75 " style="fill:rgb(50,205,50);stroke:black;stroke-width:0;opacity:1"/> 
				</g>

				<g style="fill:none">
				<title>gene_s4040000,s4,s40000,3486,3857,1</title>
				<polygon points="474.935934529222,332.75 474.935934529222,337.25 492.187112507233,337.25 492.187112507233,332.75 " style="fill:rgb(50,205,50);stroke:black;stroke-width:0;opacity:1"/> 
				</g>

				<g style="fill:none">
				<title>gene_s4050000,s4,s40000,4343,4780,1</title>
				<polygon points="514.785690667108,332.75 514.785690667108,337.25 535.105811358188,337.25 535.105811358188,332.75 " style="fill:rgb(50,205,50);stroke:black;stroke-width:0;opacity:1"/> 
				</g>

				<g style="fill:none">
				<title>gene_s4060000,s4,s40000,4815,5888,0</title>
				<polygon points="536.733280978755,332.75 536.733280978755,337.25 586.62684963214,337.25 586.62684963214,332.75 " style="fill:rgb(50,205,50);stroke:black;stroke-width:0;opacity:1"/> 
				</g>

				<g style="fill:none">
				<title>gene_s4070000,s4,s40000,6005,6421,1</title>
				<polygon points="592.067248078036,332.75 592.067248078036,337.25 611.410886996776,337.25 611.410886996776,332.75 " style="fill:rgb(50,205,50);stroke:black;stroke-width:0;opacity:1"/> 
				</g>

				<g style="fill:none">
				<title>gene_s4080000,s4,s40000,6664,7602,1</title>
				<polygon points="622.710176076713,332.75 622.710176076713,337.25 666.326361907911,337.25 666.326361907911,332.75 " style="fill:rgb(50,205,50);stroke:black;stroke-width:0;opacity:1"/> 
				</g>

				<g style="fill:none">
				<title>gene_s4100000,s4,s40000,8088,8360,0</title>
				<polygon points="712.221005207903,332.75 712.221005207903,337.25 724.86876911631,337.25 724.86876911631,332.75 " style="fill:rgb(50,205,50);stroke:black;stroke-width:0;opacity:1"/> 
				</g>

				<g style="fill:none">
				<title>gene_s410000000,s4,s40000,8188,8260,1</title>
				<polygon points="716.870918409523,332.75 716.870918409523,337.25 720.21885591469,337.25 720.21885591469,332.75 " style="fill:rgb(50,205,50);stroke:black;stroke-width:0;opacity:1"/> 
				</g>


<g><title>s10000,2000,6000</title><rect x="879.617880466231" y="64.55" width="186.043027196826" height="0.9" style="fill:blue"   /></g>



				<g style="fill:none">
				<title>gene_s1030000,s1,s10000,2925,3119,1</title>
				<polygon points="922.676076713235,63.2 922.676076713235,66.8 931.696908324378,66.8 931.696908324378,63.2 " style="fill:red;stroke:black;stroke-width:0;opacity:1"/> 
				</g>

</svg>