<svg xmlns="http://www.w3.org/2000/svg" version="1.1" width="1500" height="400" >
<text x="150" y="69.5" font-size="15px" fill="black"  text-anchor='end'>s1</text>
<g fill="none" stroke="black" stroke-width="2"><path stroke-dasharray="2,2" d="M303.910824930142,65 L326.462762726279,65" /></g><g fill="none" stroke="black" stroke-width="2"><path stroke-dasharray="2,2" d="M463.870125136678,65 L486.422062932815,65" /></g><g fill="none" stroke="black" stroke-width="2"><path stroke-dasharray="2,2" d="M1062.15708905358,65 L1084.70902684971,65" /></g><text x="150" y="159.5" font-size="15px" fill="black"  text-anchor='end'>s2</text>
<g fill="none" stroke="black" stroke-width="2"><path stroke-dasharray="2,2" d="M985.161584254647,155 L1007.71352205078,155" /></g><text x="150" y="249.5" font-size="15px" fill="black"  text-anchor='end'>s3</text>
<g fill="none" stroke="black" stroke-width="2"><path stroke-dasharray="2,2" d="M396.897703802697,245 L419.449641598834,245" /></g><g fill="none" stroke="black" stroke-width="2"><path stroke-dasharray="2,2" d="M556.401409306281,245 L578.953347102418,245" /></g><text x="150" y="339.5" font-size="15px" fill="black"  text-anchor='end'>s4</text>
<g fill="none" stroke="black" stroke-width="2"><path stroke-dasharray="2,2" d="M689.025027335682,335 L711.576965131819,335" /></g><rect x="1312.125" y="179.84" width="47.25" height="12.6" style="fill:black;stroke:black;stroke-width:0.5;fill-opacity:1;stroke-opacity:1" /><text x="1365.45" y="191.81" font-size="20px" fill="black" text-anchor='start'>legend.s1i</text><rect x="1312.125" y="193.7" width="47.25" height="12.6" style="fill:red;stroke:black;stroke-width:0.5;fill-opacity:1;stroke-opacity:1" /><text x="1365.45" y="205.67" font-size="20px" fill="black" text-anchor='start'>legend.s1</text><rect x="1312.125" y="207.56" width="47.25" height="12.6" style="fill:rgb(255,165,0);stroke:black;stroke-width:0.5;fill-opacity:1;stroke-opacity:1" /><text x="1365.45" y="219.53" font-size="20px" fill="black" text-anchor='start'>legend.s2</text>
<line x1="165" y1="368" x2="1290" y2="368" style="stroke:green;stroke-width:0.5"/>
<line x1="165" y1="364" x2="165" y2="368" style="stroke:green;stroke-width:0.5;opacity:1"/>
<text x="165" y="383" font-size="13px" fill="green"  text-anchor='middle' font-family="Times New Roman">0</text>
<line x1="256.118940590451" y1="364" x2="256.118940590451" y2="368" style="stroke:green;stroke-width:0.5;opacity:1"/>
<text x="256.118940590451" y="383" font-size="13px" fill="green"  text-anchor='middle' font-family="Times New Roman">2000</text>
<line x1="347.237881180901" y1="364" x2="347.237881180901" y2="368" style="stroke:green;stroke-width:0.5;opacity:1"/>
<text x="347.237881180901" y="383" font-size="13px" fill="green"  text-anchor='middle' font-family="Times New Roman">4000</text>
<line x1="438.356821771352" y1="364" x2="438.356821771352" y2="368" style="stroke:green;stroke-width:0.5;opacity:1"/>
<text x="438.356821771352" y="383" font-size="13px" fill="green"  text-anchor='middle' font-family="Times New Roman">6000</text>
<line x1="529.475762361803" y1="364" x2="529.475762361803" y2="368" style="stroke:green;stroke-width:0.5;opacity:1"/>
<text x="529.475762361803" y="383" font-size="13px" fill="green"  text-anchor='middle' font-family="Times New Roman">8000</text>
<line x1="620.594702952254" y1="364" x2="620.594702952254" y2="368" style="stroke:green;stroke-width:0.5;opacity:1"/>
<text x="620.594702952254" y="383" font-size="13px" fill="green"  text-anchor='middle' font-family="Times New Roman">10000</text>
<line x1="711.713643542704" y1="364" x2="711.713643542704" y2="368" style="stroke:green;stroke-width:0.5;opacity:1"/>
<text x="711.713643542704" y="383" font-size="13px" fill="green"  text-anchor='middle' font-family="Times New Roman">12000</text>
<line x1="802.832584133155" y1="364" x2="802.832584133155" y2="368" style="stroke:green;stroke-width:0.5;opacity:1"/>
<text x="802.832584133155" y="383" font-size="13px" fill="green"  text-anchor='middle' font-family="Times New Roman">14000</text>
<line x1="893.951524723606" y1="364" x2="893.951524723606" y2="368" style="stroke:green;stroke-width:0.5;opacity:1"/>
<text x="893.951524723606" y="383" font-size="13px" fill="green"  text-anchor='middle' font-family="Times New Roman">16000</text>
<line x1="985.070465314057" y1="364" x2="985.070465314057" y2="368" style="stroke:green;stroke-width:0.5;opacity:1"/>
<text x="985.070465314057" y="383" font-size="13px" fill="green"  text-anchor='middle' font-family="Times New Roman">18000</text>
<line x1="1076.18940590451" y1="364" x2="1076.18940590451" y2="368" style="stroke:green;stroke-width:0.5;opacity:1"/>
<text x="1076.18940590451" y="383" font-size="13px" fill="green"  text-anchor='middle' font-family="Times New Roman">20000</text>
<line x1="1167.30834649496" y1="364" x2="1167.30834649496" y2="368" style="stroke:green;stroke-width:0.5;opacity:1"/>
<text x="1167.30834649496" y="383" font-size="13px" fill="green"  text-anchor='middle' font-family="Times New Roman">22000</text>
<line x1="1258.42728708541" y1="364" x2="1258.42728708541" y2="368" style="stroke:green;stroke-width:0.5;opacity:1"/>
<text x="1258.42728708541" y="383" font-size="13px" fill="green"  text-anchor='middle' font-family="Times New Roman">24000</text>
<line x1="1290" y1="364" x2="1290" y2="368" style="stroke:green;stroke-width:0.5;opacity:1"/>
<text x="1290" y="383" font-size="13px" fill="green"  text-anchor='middle' font-family="Times New Roman">24693</text>


<g><title>s1,2,3050</title><rect x="165" y="60.5" width="138.910824930142" height="9" style="fill:blue"   /></g>
<g><title>s1,3000,6010</title><rect x="326.690560077755" y="60.5" width="137.179565058924" height="9" style="fill:blue"   /></g>
<g><title>s1,5980,9609</title><rect x="486.649860284291" y="60.5" width="165.380877171668" height="9" style="fill:blue"   /></g>
<g><title>s1000,2000,6000</title><rect x="674.810472603572" y="60.5" width="182.283440651197" height="9" style="fill:blue"   /></g>

			<g style="fill:none">
			<title>gene_s103000,s1,s1000,2925,3119,1</title>
			<polygon points="716.998542096951,56 716.998542096951,74 725.837079334224,74 725.837079334224,56 " style="fill:black;stroke:black;stroke-width:0;opacity:1"/> 
			</g>
<g><title>s10000,6000,10000</title><rect x="1084.93682420119" y="60.5" width="182.283440651197" height="9" style="fill:blue"   /></g>
<g><title>s2,1,9000</title><rect x="165" y="150.5" width="410.035232657028" height="9" style="fill:blue"   /></g>
<g><title>s2000,2000,6000</title><rect x="597.814967804641" y="150.5" width="182.283440651197" height="9" style="fill:blue"   /></g>
<g><title>s20000,2000,6000</title><rect x="802.87814360345" y="150.5" width="182.283440651197" height="9" style="fill:blue"   /></g>
<g><title>s20000,6000,10000</title><rect x="1007.94131940226" y="150.5" width="182.283440651197" height="9" style="fill:blue"   /></g>
<g><title>s3,11,5100</title><rect x="165" y="240.5" width="231.897703802697" height="9" style="fill:blue"   /></g>
<g><title>s3,3000,6000</title><rect x="419.67743895031" y="240.5" width="136.723970355971" height="9" style="fill:blue"   /></g>
<g><title>s3,6000,9609</title><rect x="579.181144453894" y="240.5" width="164.469687765764" height="9" style="fill:blue"   /></g>
<g><title>s3000,2000,6000</title><rect x="766.43056736727" y="240.5" width="182.283440651197" height="9" style="fill:blue"   /></g>
<g><title>s30000,2000,6000</title><rect x="971.49374316608" y="240.5" width="182.283440651197" height="9" style="fill:blue"   /></g>
<g><title>s4000,2000,6000</title><rect x="165" y="330.5" width="182.283440651197" height="9" style="fill:blue"   /></g>
<g><title>s40000,1000,8000</title><rect x="370.063175798809" y="330.5" width="318.961851536873" height="9" style="fill:blue"   /></g>
<g><title>s40000,8000,9609</title><rect x="711.804762483295" y="330.5" width="73.3507471753128" height="9" style="fill:blue"   /></g>



			<g style="fill:none">
			<title>gene_s101,s1,s1,87,1109,1</title>
			<polygon points="168.918114445389,56 168.918114445389,74 215.47989308711,74 215.47989308711,56 " style="fill:rgb(50,205,50);stroke:black;stroke-width:0;opacity:1"/> 
			</g>

			<g style="fill:none">
			<title>gene_s102,s1,s1,1106,1888,1</title>
			<polygon points="215.343214676224,56 215.343214676224,74 250.97072044709,74 250.97072044709,56 " style="fill:rgb(50,205,50);stroke:black;stroke-width:0;opacity:1"/> 
			</g>

			<g style="fill:none">
			<title>gene_s104,s1,s1,3486,3857,1</title>
			<polygon points="348.87802211153,56 348.87802211153,74 365.780585591058,74 365.780585591058,56 " style="fill:rgb(50,205,50);stroke:black;stroke-width:0;opacity:1"/> 
			</g>

			<g style="fill:none">
			<title>gene_s105,s1,s1,4343,4780,1</title>
			<polygon points="387.922488154538,56 387.922488154538,74 407.831976673551,74 407.831976673551,56 " style="fill:rgb(50,205,50);stroke:black;stroke-width:0;opacity:1"/> 
			</g>

			<g style="fill:none">
			<title>gene_s106,s1,s1,4815,5888,0</title>
			<polygon points="409.426558133884,56 409.426558133884,74 458.311869760661,74 458.311869760661,56 " style="fill:rgb(50,205,50);stroke:black;stroke-width:0;opacity:1"/> 
			</g>

			<g style="fill:none">
			<title>gene_s107,s1,s1,6005,6421,1</title>
			<polygon points="487.834406511967,56 487.834406511967,74 506.787146154781,74 506.787146154781,56 " style="fill:rgb(50,205,50);stroke:black;stroke-width:0;opacity:1"/> 
			</g>

			<g style="fill:none">
			<title>gene_s108,s1,s1,6664,7602,1</title>
			<polygon points="517.858097436521,56 517.858097436521,74 560.592880573442,74 560.592880573442,56 " style="fill:rgb(50,205,50);stroke:black;stroke-width:0;opacity:1"/> 
			</g>

			<g style="fill:none">
			<title>gene_s109,s1,s1,7789,8088,0</title>
			<polygon points="569.112501518649,56 569.112501518649,74 582.734783136921,74 582.734783136921,56 " style="fill:rgb(50,205,50);stroke:black;stroke-width:0;opacity:1"/> 
			</g>

			<g style="fill:none">
			<title>gene_s110,s1,s1,8088,8360,0</title>
			<polygon points="582.734783136921,56 582.734783136921,74 595.126959057223,74 595.126959057223,56 " style="fill:rgb(50,205,50);stroke:black;stroke-width:0;opacity:1"/> 
			</g>

			<g style="fill:none">
			<title>gene_s104000,s1,s1000,3486,3857,1</title>
			<polygon points="742.557404932572,56 742.557404932572,74 759.459968412101,74 759.459968412101,56 " style="fill:rgb(50,205,50);stroke:black;stroke-width:0;opacity:1"/> 
			</g>

			<g style="fill:none">
			<title>gene_s105000,s1,s1000,4343,4780,1</title>
			<polygon points="781.60187097558,56 781.60187097558,74 801.511359494594,74 801.511359494594,56 " style="fill:rgb(50,205,50);stroke:black;stroke-width:0;opacity:1"/> 
			</g>

			<g style="fill:none">
			<title>gene_s106000,s1,s1000,4815,5888,0</title>
			<polygon points="803.105940954927,56 803.105940954927,74 851.991252581703,74 851.991252581703,56 " style="fill:rgb(50,205,50);stroke:black;stroke-width:0;opacity:1"/> 
			</g>

			<g style="fill:none">
			<title>gene_s1040000,s1,s10000,3486,3857,1</title>
			<polygon points="947.620580731382,56 947.620580731382,74 964.52314421091,74 964.52314421091,56 " style="fill:rgb(50,205,50);stroke:black;stroke-width:0;opacity:1"/> 
			</g>

			<g style="fill:none">
			<title>gene_s1050000,s1,s10000,4343,4780,1</title>
			<polygon points="986.66504677439,56 986.66504677439,74 1006.5745352934,74 1006.5745352934,56 " style="fill:rgb(50,205,50);stroke:black;stroke-width:0;opacity:1"/> 
			</g>

			<g style="fill:none">
			<title>gene_s1060000,s1,s10000,4815,5888,0</title>
			<polygon points="1008.16911675374,56 1008.16911675374,74 1057.05442838051,74 1057.05442838051,56 " style="fill:rgb(50,205,50);stroke:black;stroke-width:0;opacity:1"/> 
			</g>

			<g style="fill:none">
			<title>gene_s1070000,s1,s10000,6005,6421,1</title>
			<polygon points="1085.21018102296,56 1085.21018102296,74 1104.16292066578,74 1104.16292066578,56 " style="fill:rgb(50,205,50);stroke:black;stroke-width:0;opacity:1"/> 
			</g>

			<g style="fill:none">
			<title>gene_s1080000,s1,s10000,6664,7602,1</title>
			<polygon points="1115.23387194752,56 1115.23387194752,74 1157.96865508444,74 1157.96865508444,56 " style="fill:rgb(50,205,50);stroke:black;stroke-width:0;opacity:1"/> 
			</g>

			<g style="fill:none">
			<title>gene_s1090000,s1,s10000,7789,8088,0</title>
			<polygon points="1166.48827602964,56 1166.48827602964,74 1180.11055764792,74 1180.11055764792,56 " style="fill:rgb(50,205,50);stroke:black;stroke-width:0;opacity:1"/> 
			</g>

			<g style="fill:none">
			<title>gene_s1100000,s1,s10000,8088,8360,0</title>
			<polygon points="1180.11055764792,56 1180.11055764792,74 1192.50273356822,74 1192.50273356822,56 " style="fill:rgb(50,205,50);stroke:black;stroke-width:0;opacity:1"/> 
			</g>

			<g style="fill:none">
			<title>gene_s11000001,s1,s10000,8361,8560,0</title>
			<polygon points="1192.54829303851,56 1192.54829303851,74 1201.61462762726,74 1201.61462762726,56 " style="fill:rgb(50,205,50);stroke:black;stroke-width:0;opacity:1"/> 
			</g>

			<g style="fill:none">
			<title>gene_s201,s2,s2,87,1109,1</title>
			<polygon points="168.963673915685,146 168.963673915685,164 215.525452557405,164 215.525452557405,146 " style="fill:rgb(50,205,50);stroke:black;stroke-width:0;opacity:1"/> 
			</g>

			<g style="fill:none">
			<title>gene_s202,s2,s2,1106,1888,1</title>
			<polygon points="215.388774146519,146 215.388774146519,164 251.016279917386,164 251.016279917386,146 " style="fill:rgb(50,205,50);stroke:black;stroke-width:0;opacity:1"/> 
			</g>

			<g style="fill:none">
			<title>gene_s203,s2,s2,2925,3119,1</title>
			<polygon points="298.261450613534,146 298.261450613534,164 307.099987850808,164 307.099987850808,146 " style="fill:rgb(50,205,50);stroke:black;stroke-width:0;opacity:1"/> 
			</g>

			<g style="fill:none">
			<title>gene_s204,s2,s2,3486,3857,1</title>
			<polygon points="323.820313449156,146 323.820313449156,164 340.722876928684,164 340.722876928684,146 " style="fill:rgb(50,205,50);stroke:black;stroke-width:0;opacity:1"/> 
			</g>

			<g style="fill:none">
			<title>gene_s205,s2,s2,4343,4780,1</title>
			<polygon points="362.864779492164,146 362.864779492164,164 382.774268011177,164 382.774268011177,146 " style="fill:rgb(50,205,50);stroke:black;stroke-width:0;opacity:1"/> 
			</g>

			<g style="fill:none">
			<title>gene_s206,s2,s2,4815,5888,0</title>
			<polygon points="384.36884947151,146 384.36884947151,164 433.254161098287,164 433.254161098287,146 " style="fill:rgb(50,205,50);stroke:black;stroke-width:0;opacity:1"/> 
			</g>

			<g style="fill:none">
			<title>gene_s207,s2,s2,6005,6421,1</title>
			<polygon points="438.584619122828,146 438.584619122828,164 457.537358765642,164 457.537358765642,146 " style="fill:rgb(255,165,0);stroke:black;stroke-width:0;opacity:1"/> 
			</g>

			<g style="fill:none">
			<title>gene_s208,s2,s2,6664,7602,1</title>
			<polygon points="468.608310047382,146 468.608310047382,164 511.343093184303,164 511.343093184303,146 " style="fill:rgb(50,205,50);stroke:black;stroke-width:0;opacity:1"/> 
			</g>

			<g style="fill:none">
			<title>gene_s209,s2,s2,7789,8088,0</title>
			<polygon points="519.86271412951,146 519.86271412951,164 533.484995747783,164 533.484995747783,146 " style="fill:rgb(50,205,50);stroke:black;stroke-width:0;opacity:1"/> 
			</g>

			<g style="fill:none">
			<title>gene_s210,s2,s2,8088,8360,0</title>
			<polygon points="533.484995747783,146 533.484995747783,164 545.877171668084,164 545.877171668084,146 " style="fill:rgb(50,205,50);stroke:black;stroke-width:0;opacity:1"/> 
			</g>

			<g style="fill:none">
			<title>gene_s203000,s2,s2000,2925,3119,1</title>
			<polygon points="640.00303729802,146 640.00303729802,164 648.841574535293,164 648.841574535293,146 " style="fill:rgb(50,205,50);stroke:black;stroke-width:0;opacity:1"/> 
			</g>

			<g style="fill:none">
			<title>gene_s204000,s2,s2000,3486,3857,1</title>
			<polygon points="665.561900133641,146 665.561900133641,164 682.46446361317,164 682.46446361317,146 " style="fill:rgb(50,205,50);stroke:black;stroke-width:0;opacity:1"/> 
			</g>

			<g style="fill:none">
			<title>gene_s205000,s2,s2000,4343,4780,1</title>
			<polygon points="704.606366176649,146 704.606366176649,164 724.515854695663,164 724.515854695663,146 " style="fill:rgb(50,205,50);stroke:black;stroke-width:0;opacity:1"/> 
			</g>

			<g style="fill:none">
			<title>gene_s206000,s2,s2000,4815,5888,0</title>
			<polygon points="726.110436155996,146 726.110436155996,164 774.995747782772,164 774.995747782772,146 " style="fill:rgb(255,165,0);stroke:black;stroke-width:0;opacity:0.5"/> 
			</g>

			<g style="fill:none">
			<title>gene_s2030000,s2,s20000,2925,3119,1</title>
			<polygon points="845.066213096829,146 845.066213096829,164 853.904750334103,164 853.904750334103,146 " style="fill:rgb(50,205,50);stroke:black;stroke-width:0;opacity:1"/> 
			</g>

			<g style="fill:none">
			<title>gene_s2040000,s2,s20000,3486,3857,1</title>
			<polygon points="870.625075932451,146 870.625075932451,164 887.527639411979,164 887.527639411979,146 " style="fill:rgb(50,205,50);stroke:black;stroke-width:0;opacity:1"/> 
			</g>

			<g style="fill:none">
			<title>gene_s2050000,s2,s20000,4343,4780,1</title>
			<polygon points="909.669541975459,146 909.669541975459,164 929.579030494472,164 929.579030494472,146 " style="fill:rgb(50,205,50);stroke:black;stroke-width:0;opacity:1"/> 
			</g>

			<g style="fill:none">
			<title>gene_s2060000,s2,s20000,4815,5888,0</title>
			<polygon points="931.173611954805,146 931.173611954805,164 980.058923581582,164 980.058923581582,146 " style="fill:rgb(50,205,50);stroke:black;stroke-width:0;opacity:1"/> 
			</g>

			<g style="fill:none">
			<title>gene_s2070000,s2,s20000,6005,6421,1</title>
			<polygon points="1008.21467622403,146 1008.21467622403,164 1027.16741586684,164 1027.16741586684,146 " style="fill:rgb(255,165,0);stroke:black;stroke-width:0;opacity:1"/> 
			</g>

			<g style="fill:none">
			<title>gene_s2080000,s2,s20000,6664,7602,1</title>
			<polygon points="1038.23836714858,146 1038.23836714858,164 1080.97315028551,164 1080.97315028551,146 " style="fill:rgb(50,205,50);stroke:black;stroke-width:0;opacity:1"/> 
			</g>

			<g style="fill:none">
			<title>gene_s2090000,s2,s20000,7789,8088,0</title>
			<polygon points="1089.49277123071,146 1089.49277123071,164 1103.11505284899,164 1103.11505284899,146 " style="fill:rgb(50,205,50);stroke:black;stroke-width:0;opacity:1"/> 
			</g>

			<g style="fill:none">
			<title>gene_s2100000,s2,s20000,8088,8360,0</title>
			<polygon points="1103.11505284899,146 1103.11505284899,164 1115.50722876929,164 1115.50722876929,146 " style="fill:rgb(50,205,50);stroke:black;stroke-width:0;opacity:1"/> 
			</g>

			<g style="fill:none">
			<title>gene_s301,s3,s3,87,1109,1</title>
			<polygon points="168.508079212732,236 168.508079212732,254 215.069857854453,254 215.069857854453,236 " style="fill:rgb(50,205,50);stroke:black;stroke-width:0;opacity:1"/> 
			</g>

			<g style="fill:none">
			<title>gene_s302,s3,s3,1106,1888,1</title>
			<polygon points="214.933179443567,236 214.933179443567,254 250.560685214433,254 250.560685214433,236 " style="fill:rgb(50,205,50);stroke:black;stroke-width:0;opacity:1"/> 
			</g>

			<g style="fill:none">
			<title>gene_s303,s3,s3,2925,3119,1</title>
			<polygon points="297.805855910582,236 297.805855910582,254 306.644393147856,254 306.644393147856,236 " style="fill:rgb(50,205,50);stroke:black;stroke-width:0;opacity:1"/> 
			</g>

			<g style="fill:none">
			<title>gene_s304,s3,s3,3486,3857,1</title>
			<polygon points="441.409306281132,236 441.409306281132,254 458.311869760661,254 458.311869760661,236 " style="fill:rgb(50,205,50);stroke:black;stroke-width:0;opacity:1"/> 
			</g>

			<g style="fill:none">
			<title>gene_s305,s3,s3,4343,4780,1</title>
			<polygon points="480.45377232414,236 480.45377232414,254 500.363260843154,254 500.363260843154,236 " style="fill:rgb(50,205,50);stroke:black;stroke-width:0;opacity:1"/> 
			</g>

			<g style="fill:none">
			<title>gene_s306,s3,s3,4815,5888,0</title>
			<polygon points="502.413437006439,236 502.413437006439,254 551.298748633216,254 551.298748633216,236 " style="fill:rgb(50,205,50);stroke:black;stroke-width:0;opacity:1"/> 
			</g>

			<g style="fill:none">
			<title>gene_s307,s3,s3,6005,6421,1</title>
			<polygon points="579.454501275665,236 579.454501275665,254 598.407240918479,254 598.407240918479,236 " style="fill:rgb(50,205,50);stroke:black;stroke-width:0;opacity:1"/> 
			</g>

			<g style="fill:none">
			<title>gene_s308,s3,s3,6664,7602,1</title>
			<polygon points="609.478192200219,236 609.478192200219,254 652.21297533714,254 652.21297533714,236 " style="fill:rgb(50,205,50);stroke:black;stroke-width:0;opacity:1"/> 
			</g>

			<g style="fill:none">
			<title>gene_s309,s3,s3,7789,8088,0</title>
			<polygon points="660.732596282347,236 660.732596282347,254 674.35487790062,254 674.35487790062,236 " style="fill:rgb(50,205,50);stroke:black;stroke-width:0;opacity:1"/> 
			</g>

			<g style="fill:none">
			<title>gene_s310,s3,s3,8088,8360,0</title>
			<polygon points="674.35487790062,236 674.35487790062,254 686.747053820921,254 686.747053820921,236 " style="fill:rgb(50,205,50);stroke:black;stroke-width:0;opacity:1"/> 
			</g>

			<g style="fill:none">
			<title>gene_s303000,s3,s3000,2925,3119,1</title>
			<polygon points="808.618636860649,236 808.618636860649,254 817.457174097923,254 817.457174097923,236 " style="fill:rgb(50,205,50);stroke:black;stroke-width:0;opacity:1"/> 
			</g>

			<g style="fill:none">
			<title>gene_s304000,s3,s3000,3486,3857,1</title>
			<polygon points="834.17749969627,236 834.17749969627,254 851.080063175799,254 851.080063175799,236 " style="fill:rgb(50,205,50);stroke:black;stroke-width:0;opacity:1"/> 
			</g>

			<g style="fill:none">
			<title>gene_s305000,s3,s3000,4343,4780,1</title>
			<polygon points="873.221965739278,236 873.221965739278,254 893.131454258292,254 893.131454258292,236 " style="fill:rgb(50,205,50);stroke:black;stroke-width:0;opacity:1"/> 
			</g>

			<g style="fill:none">
			<title>gene_s306000,s3,s3000,4815,5888,0</title>
			<polygon points="894.726035718625,236 894.726035718625,254 943.611347345402,254 943.611347345402,236 " style="fill:rgb(50,205,50);stroke:black;stroke-width:0;opacity:1"/> 
			</g>

			<g style="fill:none">
			<title>gene_s3030000,s3,s30000,2925,3119,1</title>
			<polygon points="1013.68181265946,236 1013.68181265946,254 1022.52034989673,254 1022.52034989673,236 " style="fill:rgb(50,205,50);stroke:black;stroke-width:0;opacity:1"/> 
			</g>

			<g style="fill:none">
			<title>gene_s3040000,s3,s30000,3486,3857,1</title>
			<polygon points="1039.24067549508,236 1039.24067549508,254 1056.14323897461,254 1056.14323897461,236 " style="fill:rgb(50,205,50);stroke:black;stroke-width:0;opacity:1"/> 
			</g>

			<g style="fill:none">
			<title>gene_s3050000,s3,s30000,4343,4780,1</title>
			<polygon points="1078.28514153809,236 1078.28514153809,254 1098.1946300571,254 1098.1946300571,236 " style="fill:rgb(50,205,50);stroke:black;stroke-width:0;opacity:1"/> 
			</g>

			<g style="fill:none">
			<title>gene_s3060000,s3,s30000,4815,5888,0</title>
			<polygon points="1099.78921151743,236 1099.78921151743,254 1148.67452314421,254 1148.67452314421,236 " style="fill:rgb(50,205,50);stroke:black;stroke-width:0;opacity:1"/> 
			</g>

			<g style="fill:none">
			<title>gene_s403000,s4,s4000,2925,3119,1</title>
			<polygon points="207.188069493379,326 207.188069493379,344 216.026606730652,344 216.026606730652,326 " style="fill:rgb(50,205,50);stroke:black;stroke-width:0;opacity:1"/> 
			</g>

			<g style="fill:none">
			<title>gene_s404000,s4,s4000,3486,3857,1</title>
			<polygon points="232.746932329,326 232.746932329,344 249.649495808529,344 249.649495808529,326 " style="fill:rgb(50,205,50);stroke:black;stroke-width:0;opacity:1"/> 
			</g>

			<g style="fill:none">
			<title>gene_s405000,s4,s4000,4343,4780,1</title>
			<polygon points="271.791398372008,326 271.791398372008,344 291.700886891022,344 291.700886891022,326 " style="fill:rgb(50,205,50);stroke:black;stroke-width:0;opacity:1"/> 
			</g>

			<g style="fill:none">
			<title>gene_s406000,s4,s4000,4815,5888,0</title>
			<polygon points="293.295468351355,326 293.295468351355,344 342.180779978131,344 342.180779978131,326 " style="fill:rgb(50,205,50);stroke:black;stroke-width:0;opacity:1"/> 
			</g>

			<g style="fill:none">
			<title>gene_s4020000,s4,s40000,1106,1888,1</title>
			<polygon points="374.938039120399,326 374.938039120399,344 410.565544891265,344 410.565544891265,326 " style="fill:rgb(50,205,50);stroke:black;stroke-width:0;opacity:1"/> 
			</g>

			<g style="fill:none">
			<title>gene_s4030000,s4,s40000,2925,3119,1</title>
			<polygon points="457.810715587413,326 457.810715587413,344 466.649252824687,344 466.649252824687,326 " style="fill:rgb(50,205,50);stroke:black;stroke-width:0;opacity:1"/> 
			</g>

			<g style="fill:none">
			<title>gene_s4040000,s4,s40000,3486,3857,1</title>
			<polygon points="483.369578423035,326 483.369578423035,344 500.272141902564,344 500.272141902564,326 " style="fill:rgb(50,205,50);stroke:black;stroke-width:0;opacity:1"/> 
			</g>

			<g style="fill:none">
			<title>gene_s4050000,s4,s40000,4343,4780,1</title>
			<polygon points="522.414044466043,326 522.414044466043,344 542.323532985057,344 542.323532985057,326 " style="fill:rgb(50,205,50);stroke:black;stroke-width:0;opacity:1"/> 
			</g>

			<g style="fill:none">
			<title>gene_s4060000,s4,s40000,4815,5888,0</title>
			<polygon points="543.918114445389,326 543.918114445389,344 592.803426072166,344 592.803426072166,326 " style="fill:rgb(50,205,50);stroke:black;stroke-width:0;opacity:1"/> 
			</g>

			<g style="fill:none">
			<title>gene_s4070000,s4,s40000,6005,6421,1</title>
			<polygon points="598.133884096708,326 598.133884096708,344 617.086623739521,344 617.086623739521,326 " style="fill:rgb(50,205,50);stroke:black;stroke-width:0;opacity:1"/> 
			</g>

			<g style="fill:none">
			<title>gene_s4080000,s4,s40000,6664,7602,1</title>
			<polygon points="628.157575021261,326 628.157575021261,344 670.892358158183,344 670.892358158183,326 " style="fill:rgb(50,205,50);stroke:black;stroke-width:0;opacity:1"/> 
			</g>

			<g style="fill:none">
			<title>gene_s4100000,s4,s40000,8088,8360,0</title>
			<polygon points="715.85955533957,326 715.85955533957,344 728.251731259871,344 728.251731259871,326 " style="fill:rgb(50,205,50);stroke:black;stroke-width:0;opacity:1"/> 
			</g>

			<g style="fill:none">
			<title>gene_s410000000,s4,s40000,8188,8260,1</title>
			<polygon points="720.415502369092,326 720.415502369092,344 723.695784230349,344 723.695784230349,326 " style="fill:rgb(50,205,50);stroke:black;stroke-width:0;opacity:1"/> 
			</g>


<g><title>s10000,2000,6000</title><rect x="879.873648402381" y="60.5" width="182.283440651197" height="9" style="fill:blue"   /></g>



			<g style="fill:none">
			<title>gene_s1030000,s1,s10000,2925,3119,1</title>
			<polygon points="922.06171789576,47 922.06171789576,83 930.900255133034,83 930.900255133034,47 " style="fill:red;stroke:black;stroke-width:0;opacity:1"/> 
			</g>

</svg>