<svg xmlns="http://www.w3.org/2000/svg" version="1.1" width="1500" height="400" style="background-color:white;">
<text x="135" y="80.08" font-size="15px" fill="black"  text-anchor='end'>s1</text>
<text x="135" y="160.08" font-size="15px" fill="black"  text-anchor='end'>s2</text>
<text x="135" y="240.08" font-size="15px" fill="black"  text-anchor='end'>s3</text>
<text x="135" y="320.08" font-size="15px" fill="black"  text-anchor='end'>s4</text>

<line x1="150" y1="352" x2="1275" y2="352" style="stroke:green;stroke-width:0.5"/>
<line x1="150" y1="348" x2="150" y2="352" style="stroke:green;stroke-width:0.5;opacity:1"/>
<text x="150" y="367" font-size="13px" fill="green"  text-anchor='middle' font-family="Times New Roman">0</text>
<line x1="241.118940590451" y1="348" x2="241.118940590451" y2="352" style="stroke:green;stroke-width:0.5;opacity:1"/>
<text x="241.118940590451" y="367" font-size="13px" fill="green"  text-anchor='middle' font-family="Times New Roman">2,000</text>
<line x1="332.237881180901" y1="348" x2="332.237881180901" y2="352" style="stroke:green;stroke-width:0.5;opacity:1"/>
<text x="332.237881180901" y="367" font-size="13px" fill="green"  text-anchor='middle' font-family="Times New Roman">4,000</text>
<line x1="423.356821771352" y1="348" x2="423.356821771352" y2="352" style="stroke:green;stroke-width:0.5;opacity:1"/>
<text x="423.356821771352" y="367" font-size="13px" fill="green"  text-anchor='middle' font-family="Times New Roman">6,000</text>
<line x1="514.475762361803" y1="348" x2="514.475762361803" y2="352" style="stroke:green;stroke-width:0.5;opacity:1"/>
<text x="514.475762361803" y="367" font-size="13px" fill="green"  text-anchor='middle' font-family="Times New Roman">8,000</text>
<line x1="605.594702952254" y1="348" x2="605.594702952254" y2="352" style="stroke:green;stroke-width:0.5;opacity:1"/>
<text x="605.594702952254" y="367" font-size="13px" fill="green"  text-anchor='middle' font-family="Times New Roman">10,000</text>
<line x1="696.713643542704" y1="348" x2="696.713643542704" y2="352" style="stroke:green;stroke-width:0.5;opacity:1"/>
<text x="696.713643542704" y="367" font-size="13px" fill="green"  text-anchor='middle' font-family="Times New Roman">12,000</text>
<line x1="787.832584133155" y1="348" x2="787.832584133155" y2="352" style="stroke:green;stroke-width:0.5;opacity:1"/>
<text x="787.832584133155" y="367" font-size="13px" fill="green"  text-anchor='middle' font-family="Times New Roman">14,000</text>
<line x1="878.951524723606" y1="348" x2="878.951524723606" y2="352" style="stroke:green;stroke-width:0.5;opacity:1"/>
<text x="878.951524723606" y="367" font-size="13px" fill="green"  text-anchor='middle' font-family="Times New Roman">16,000</text>
<line x1="970.070465314057" y1="348" x2="970.070465314057" y2="352" style="stroke:green;stroke-width:0.5;opacity:1"/>
<text x="970.070465314057" y="367" font-size="13px" fill="green"  text-anchor='middle' font-family="Times New Roman">18,000</text>
<line x1="1061.18940590451" y1="348" x2="1061.18940590451" y2="352" style="stroke:green;stroke-width:0.5;opacity:1"/>
<text x="1061.18940590451" y="367" font-size="13px" fill="green"  text-anchor='middle' font-family="Times New Roman">20,000</text>
<line x1="1152.30834649496" y1="348" x2="1152.30834649496" y2="352" style="stroke:green;stroke-width:0.5;opacity:1"/>
<text x="1152.30834649496" y="367" font-size="13px" fill="green"  text-anchor='middle' font-family="Times New Roman">22,000</text>
<line x1="1275" y1="348" x2="1275" y2="352" style="stroke:green;stroke-width:0.5;opacity:1"/>
<text x="1275" y="367" font-size="13px" fill="green"  text-anchor='middle' font-family="Times New Roman">24,693bp</text>


<g><title>s1,2,3050</title><rect x="150" y="78" width="138.910824930142" height="4" style="fill:blue"   /></g>
<g><title>s1,3000,6010</title><rect x="311.690560077755" y="78" width="137.179565058924" height="4" style="fill:blue"   /></g>
<g><title>s1,5980,9609</title><rect x="471.649860284291" y="78" width="165.380877171668" height="4" style="fill:blue"   /></g>
<g><title>s1000,2000,6000</title><rect x="659.810472603572" y="78" width="182.283440651197" height="4" style="fill:blue"   /></g>
<g><title>s10000,2000,6000</title><rect x="864.873648402381" y="78" width="182.283440651197" height="4" style="fill:blue"   /></g>
<g><title>s10000,6000,10000</title><rect x="1069.93682420119" y="78" width="182.283440651197" height="4" style="fill:blue"   /></g>
<g><title>s2,1,9000</title><rect x="150" y="158" width="410.035232657028" height="4" style="fill:blue"   /></g>
<g><title>s2000,2000,6000</title><rect x="582.814967804641" y="158" width="182.283440651197" height="4" style="fill:blue"   /></g>
<g><title>s20000,2000,6000</title><rect x="787.87814360345" y="158" width="182.283440651197" height="4" style="fill:blue"   /></g>
<g><title>s20000,6000,10000</title><rect x="992.94131940226" y="158" width="182.283440651197" height="4" style="fill:blue"   /></g>
<g><title>s3,11,2010</title><rect x="150" y="238" width="91.1189405904507" height="4" style="fill:blue"   /></g>
<g><title>s3,2020,5000</title><rect x="263.898675738063" y="238" width="135.812780950067" height="4" style="fill:blue"   /></g>
<g><title>s3,5100,9609</title><rect x="422.491191835743" y="238" width="205.473211031466" height="4" style="fill:blue"   /></g>
<g><title>s3000,2000,6000</title><rect x="650.744138014822" y="238" width="182.283440651197" height="4" style="fill:blue"   /></g>
<g><title>s30000,2000,6000</title><rect x="855.807313813631" y="238" width="182.283440651197" height="4" style="fill:blue"   /></g>
<g><title>s4000,2000,6000</title><rect x="150" y="318" width="182.283440651197" height="4" style="fill:blue"   /></g>
<g><title>s40000,1000,8000</title><rect x="355.063175798809" y="318" width="318.961851536873" height="4" style="fill:blue"   /></g>
<g><title>s40000,8000,9609</title><rect x="696.804762483295" y="318" width="73.3507471753128" height="4" style="fill:blue"   /></g>



				<g style="fill:none">
				<title>gene_s101,s1,s1,87,1109,1</title>
				<polygon points="153.918114445389,78.125 153.918114445389,81.875 200.47989308711,81.875 200.47989308711,78.125 " style="fill:rgb(50,205,50);stroke:black;stroke-width:0;opacity:1"/> 
				</g>

				<g style="fill:none">
				<title>gene_s102,s1,s1,1106,1888,1</title>
				<polygon points="200.343214676224,78.125 200.343214676224,81.875 235.97072044709,81.875 235.97072044709,78.125 " style="fill:rgb(50,205,50);stroke:black;stroke-width:0;opacity:1"/> 
				</g>

				<g style="fill:none">
				<title>gene_s104,s1,s1,3486,3857,1</title>
				<polygon points="333.87802211153,78.125 333.87802211153,81.875 350.780585591058,81.875 350.780585591058,78.125 " style="fill:rgb(50,205,50);stroke:black;stroke-width:0;opacity:1"/> 
				</g>

				<g style="fill:none">
				<title>gene_s105,s1,s1,4343,4780,1</title>
				<polygon points="372.922488154538,78.125 372.922488154538,81.875 392.831976673551,81.875 392.831976673551,78.125 " style="fill:rgb(50,205,50);stroke:black;stroke-width:0;opacity:1"/> 
				</g>

				<g style="fill:none">
				<title>gene_s106,s1,s1,4815,5888,0</title>
				<polygon points="394.426558133884,78.125 394.426558133884,81.875 443.311869760661,81.875 443.311869760661,78.125 " style="fill:rgb(50,205,50);stroke:black;stroke-width:0;opacity:1"/> 
				</g>

				<g style="fill:none">
				<title>gene_s107,s1,s1,6005,6421,1</title>
				<polygon points="472.834406511967,78.125 472.834406511967,81.875 491.787146154781,81.875 491.787146154781,78.125 " style="fill:rgb(50,205,50);stroke:black;stroke-width:0;opacity:1"/> 
				</g>

				<g style="fill:none">
				<title>gene_s108,s1,s1,6664,7602,1</title>
				<polygon points="502.858097436521,78.125 502.858097436521,81.875 545.592880573442,81.875 545.592880573442,78.125 " style="fill:rgb(50,205,50);stroke:black;stroke-width:0;opacity:1"/> 
				</g>

				<g style="fill:none">
				<title>gene_s109,s1,s1,7789,8088,0</title>
				<polygon points="554.112501518649,78.125 554.112501518649,81.875 567.734783136921,81.875 567.734783136921,78.125 " style="fill:rgb(50,205,50);stroke:black;stroke-width:0;opacity:1"/> 
				</g>

				<g style="fill:none">
				<title>gene_s110,s1,s1,8088,8360,0</title>
				<polygon points="567.734783136921,78.125 567.734783136921,81.875 580.126959057223,81.875 580.126959057223,78.125 " style="fill:rgb(50,205,50);stroke:black;stroke-width:0;opacity:1"/> 
				</g>

				<g style="fill:none">
				<title>gene_s103000,s1,s1000,2925,3119,1</title>
				<polygon points="701.998542096951,78.125 701.998542096951,81.875 710.837079334224,81.875 710.837079334224,78.125 " style="fill:rgb(50,205,50);stroke:black;stroke-width:0;opacity:1"/> 
				</g>

				<g style="fill:none">
				<title>gene_s104000,s1,s1000,3486,3857,1</title>
				<polygon points="727.557404932572,78.125 727.557404932572,81.875 744.459968412101,81.875 744.459968412101,78.125 " style="fill:rgb(50,205,50);stroke:black;stroke-width:0;opacity:1"/> 
				</g>

				<g style="fill:none">
				<title>gene_s105000,s1,s1000,4343,4780,1</title>
				<polygon points="766.60187097558,78.125 766.60187097558,81.875 786.511359494594,81.875 786.511359494594,78.125 " style="fill:rgb(50,205,50);stroke:black;stroke-width:0;opacity:1"/> 
				</g>

				<g style="fill:none">
				<title>gene_s106000,s1,s1000,4815,5888,0</title>
				<polygon points="788.105940954927,78.125 788.105940954927,81.875 836.991252581703,81.875 836.991252581703,78.125 " style="fill:rgb(50,205,50);stroke:black;stroke-width:0;opacity:1"/> 
				</g>

				<g style="fill:none">
				<title>gene_s1030000,s1,s10000,2925,3119,1</title>
				<polygon points="907.06171789576,78.125 907.06171789576,81.875 915.900255133034,81.875 915.900255133034,78.125 " style="fill:rgb(50,205,50);stroke:black;stroke-width:0;opacity:1"/> 
				</g>

				<g style="fill:none">
				<title>gene_s1040000,s1,s10000,3486,3857,1</title>
				<polygon points="932.620580731382,78.125 932.620580731382,81.875 949.52314421091,81.875 949.52314421091,78.125 " style="fill:rgb(50,205,50);stroke:black;stroke-width:0;opacity:1"/> 
				</g>

				<g style="fill:none">
				<title>gene_s1050000,s1,s10000,4343,4780,1</title>
				<polygon points="971.66504677439,78.125 971.66504677439,81.875 991.574535293403,81.875 991.574535293403,78.125 " style="fill:rgb(50,205,50);stroke:black;stroke-width:0;opacity:1"/> 
				</g>

				<g style="fill:none">
				<title>gene_s1060000,s1,s10000,4815,5888,0</title>
				<polygon points="993.169116753736,78.125 993.169116753736,81.875 1042.05442838051,81.875 1042.05442838051,78.125 " style="fill:rgb(50,205,50);stroke:black;stroke-width:0;opacity:1"/> 
				</g>

				<g style="fill:none">
				<title>gene_s1070000,s1,s10000,6005,6421,1</title>
				<polygon points="1070.21018102296,78.125 1070.21018102296,81.875 1089.16292066578,81.875 1089.16292066578,78.125 " style="fill:rgb(50,205,50);stroke:black;stroke-width:0;opacity:1"/> 
				</g>

				<g style="fill:none">
				<title>gene_s1080000,s1,s10000,6664,7602,1</title>
				<polygon points="1100.23387194752,78.125 1100.23387194752,81.875 1142.96865508444,81.875 1142.96865508444,78.125 " style="fill:rgb(50,205,50);stroke:black;stroke-width:0;opacity:1"/> 
				</g>

				<g style="fill:none">
				<title>gene_s1090000,s1,s10000,7789,8088,0</title>
				<polygon points="1151.48827602964,78.125 1151.48827602964,81.875 1165.11055764792,81.875 1165.11055764792,78.125 " style="fill:rgb(50,205,50);stroke:black;stroke-width:0;opacity:1"/> 
				</g>

				<g style="fill:none">
				<title>gene_s1100000,s1,s10000,8088,8360,0</title>
				<polygon points="1165.11055764792,78.125 1165.11055764792,81.875 1177.50273356822,81.875 1177.50273356822,78.125 " style="fill:rgb(50,205,50);stroke:black;stroke-width:0;opacity:1"/> 
				</g>

				<g style="fill:none">
				<title>gene_s11000001,s1,s10000,8361,8560,0</title>
				<polygon points="1177.54829303851,78.125 1177.54829303851,81.875 1186.61462762726,81.875 1186.61462762726,78.125 " style="fill:rgb(50,205,50);stroke:black;stroke-width:0;opacity:1"/> 
				</g>

				<g style="fill:none">
				<title>gene_s201,s2,s2,87,1109,1</title>
				<polygon points="153.963673915685,158.125 153.963673915685,161.875 200.525452557405,161.875 200.525452557405,158.125 " style="fill:rgb(50,205,50);stroke:black;stroke-width:0;opacity:1"/> 
				</g>

				<g style="fill:none">
				<title>gene_s202,s2,s2,1106,1888,1</title>
				<polygon points="200.388774146519,158.125 200.388774146519,161.875 236.016279917386,161.875 236.016279917386,158.125 " style="fill:rgb(50,205,50);stroke:black;stroke-width:0;opacity:1"/> 
				</g>

				<g style="fill:none">
				<title>gene_s203,s2,s2,2925,3119,1</title>
				<polygon points="283.261450613534,158.125 283.261450613534,161.875 292.099987850808,161.875 292.099987850808,158.125 " style="fill:rgb(50,205,50);stroke:black;stroke-width:0;opacity:1"/> 
				</g>

				<g style="fill:none">
				<title>gene_s204,s2,s2,3486,3857,1</title>
				<polygon points="308.820313449156,158.125 308.820313449156,161.875 325.722876928684,161.875 325.722876928684,158.125 " style="fill:rgb(50,205,50);stroke:black;stroke-width:0;opacity:1"/> 
				</g>

				<g style="fill:none">
				<title>gene_s205,s2,s2,4343,4780,1</title>
				<polygon points="347.864779492164,158.125 347.864779492164,161.875 367.774268011177,161.875 367.774268011177,158.125 " style="fill:rgb(50,205,50);stroke:black;stroke-width:0;opacity:1"/> 
				</g>

				<g style="fill:none">
				<title>gene_s206,s2,s2,4815,5888,0</title>
				<polygon points="369.36884947151,158.125 369.36884947151,161.875 418.254161098287,161.875 418.254161098287,158.125 " style="fill:rgb(50,205,50);stroke:black;stroke-width:0;opacity:1"/> 
				</g>

				<g style="fill:none">
				<title>gene_s207,s2,s2,6005,6421,1</title>
				<polygon points="423.584619122828,158.125 423.584619122828,161.875 442.537358765642,161.875 442.537358765642,158.125 " style="fill:rgb(50,205,50);stroke:black;stroke-width:0;opacity:1"/> 
				</g>

				<g style="fill:none">
				<title>gene_s208,s2,s2,6664,7602,1</title>
				<polygon points="453.608310047382,158.125 453.608310047382,161.875 496.343093184303,161.875 496.343093184303,158.125 " style="fill:rgb(50,205,50);stroke:black;stroke-width:0;opacity:1"/> 
				</g>

				<g style="fill:none">
				<title>gene_s209,s2,s2,7789,8088,0</title>
				<polygon points="504.86271412951,158.125 504.86271412951,161.875 518.484995747783,161.875 518.484995747783,158.125 " style="fill:rgb(50,205,50);stroke:black;stroke-width:0;opacity:1"/> 
				</g>

				<g style="fill:none">
				<title>gene_s210,s2,s2,8088,8360,0</title>
				<polygon points="518.484995747783,158.125 518.484995747783,161.875 530.877171668084,161.875 530.877171668084,158.125 " style="fill:rgb(50,205,50);stroke:black;stroke-width:0;opacity:1"/> 
				</g>

				<g style="fill:none">
				<title>gene_s203000,s2,s2000,2925,3119,1</title>
				<polygon points="625.00303729802,158.125 625.00303729802,161.875 633.841574535293,161.875 633.841574535293,158.125 " style="fill:rgb(50,205,50);stroke:black;stroke-width:0;opacity:1"/> 
				</g>

				<g style="fill:none">
				<title>gene_s204000,s2,s2000,3486,3857,1</title>
				<polygon points="650.561900133641,158.125 650.561900133641,161.875 667.46446361317,161.875 667.46446361317,158.125 " style="fill:rgb(50,205,50);stroke:black;stroke-width:0;opacity:1"/> 
				</g>

				<g style="fill:none">
				<title>gene_s205000,s2,s2000,4343,4780,1</title>
				<polygon points="689.606366176649,158.125 689.606366176649,161.875 709.515854695663,161.875 709.515854695663,158.125 " style="fill:rgb(50,205,50);stroke:black;stroke-width:0;opacity:1"/> 
				</g>

				<g style="fill:none">
				<title>gene_s206000,s2,s2000,4815,5888,0</title>
				<polygon points="711.110436155996,158.125 711.110436155996,161.875 759.995747782772,161.875 759.995747782772,158.125 " style="fill:rgb(50,205,50);stroke:black;stroke-width:0;opacity:1"/> 
				</g>

				<g style="fill:none">
				<title>gene_s2030000,s2,s20000,2925,3119,1</title>
				<polygon points="830.066213096829,158.125 830.066213096829,161.875 838.904750334103,161.875 838.904750334103,158.125 " style="fill:rgb(50,205,50);stroke:black;stroke-width:0;opacity:1"/> 
				</g>

				<g style="fill:none">
				<title>gene_s2040000,s2,s20000,3486,3857,1</title>
				<polygon points="855.625075932451,158.125 855.625075932451,161.875 872.527639411979,161.875 872.527639411979,158.125 " style="fill:rgb(50,205,50);stroke:black;stroke-width:0;opacity:1"/> 
				</g>

				<g style="fill:none">
				<title>gene_s2050000,s2,s20000,4343,4780,1</title>
				<polygon points="894.669541975459,158.125 894.669541975459,161.875 914.579030494472,161.875 914.579030494472,158.125 " style="fill:rgb(50,205,50);stroke:black;stroke-width:0;opacity:1"/> 
				</g>

				<g style="fill:none">
				<title>gene_s2060000,s2,s20000,4815,5888,0</title>
				<polygon points="916.173611954805,158.125 916.173611954805,161.875 965.058923581582,161.875 965.058923581582,158.125 " style="fill:rgb(50,205,50);stroke:black;stroke-width:0;opacity:1"/> 
				</g>

				<g style="fill:none">
				<title>gene_s2070000,s2,s20000,6005,6421,1</title>
				<polygon points="993.214676224031,158.125 993.214676224031,161.875 1012.16741586684,161.875 1012.16741586684,158.125 " style="fill:rgb(50,205,50);stroke:black;stroke-width:0;opacity:1"/> 
				</g>

				<g style="fill:none">
				<title>gene_s2080000,s2,s20000,6664,7602,1</title>
				<polygon points="1023.23836714858,158.125 1023.23836714858,161.875 1065.97315028551,161.875 1065.97315028551,158.125 " style="fill:rgb(50,205,50);stroke:black;stroke-width:0;opacity:1"/> 
				</g>

				<g style="fill:none">
				<title>gene_s2090000,s2,s20000,7789,8088,0</title>
				<polygon points="1074.49277123071,158.125 1074.49277123071,161.875 1088.11505284899,161.875 1088.11505284899,158.125 " style="fill:rgb(50,205,50);stroke:black;stroke-width:0;opacity:1"/> 
				</g>

				<g style="fill:none">
				<title>gene_s2100000,s2,s20000,8088,8360,0</title>
				<polygon points="1088.11505284899,158.125 1088.11505284899,161.875 1100.50722876929,161.875 1100.50722876929,158.125 " style="fill:rgb(50,205,50);stroke:black;stroke-width:0;opacity:1"/> 
				</g>

				<g style="fill:none">
				<title>gene_s301,s3,s3,87,1109,1</title>
				<polygon points="153.508079212732,238.125 153.508079212732,241.875 200.069857854453,241.875 200.069857854453,238.125 " style="fill:rgb(50,205,50);stroke:black;stroke-width:0;opacity:1"/> 
				</g>

				<g style="fill:none">
				<title>gene_s302,s3,s3,1106,1888,1</title>
				<polygon points="199.933179443567,238.125 199.933179443567,241.875 235.560685214433,241.875 235.560685214433,238.125 " style="fill:rgb(50,205,50);stroke:black;stroke-width:0;opacity:1"/> 
				</g>

				<g style="fill:none">
				<title>gene_s303,s3,s3,2925,3119,1</title>
				<polygon points="305.175555825538,238.125 305.175555825538,241.875 314.014093062811,241.875 314.014093062811,238.125 " style="fill:rgb(50,205,50);stroke:black;stroke-width:0;opacity:1"/> 
				</g>

				<g style="fill:none">
				<title>gene_s304,s3,s3,3486,3857,1</title>
				<polygon points="330.734418661159,238.125 330.734418661159,241.875 347.636982140688,241.875 347.636982140688,238.125 " style="fill:rgb(50,205,50);stroke:black;stroke-width:0;opacity:1"/> 
				</g>

				<g style="fill:none">
				<title>gene_s305,s3,s3,4343,4780,1</title>
				<polygon points="369.778884704167,238.125 369.778884704167,241.875 389.688373223181,241.875 389.688373223181,238.125 " style="fill:rgb(50,205,50);stroke:black;stroke-width:0;opacity:1"/> 
				</g>

				<g style="fill:none">
				<title>gene_s307,s3,s3,6005,6421,1</title>
				<polygon points="463.768071923217,238.125 463.768071923217,241.875 482.720811566031,241.875 482.720811566031,238.125 " style="fill:rgb(50,205,50);stroke:black;stroke-width:0;opacity:1"/> 
				</g>

				<g style="fill:none">
				<title>gene_s308,s3,s3,6664,7602,1</title>
				<polygon points="493.791762847771,238.125 493.791762847771,241.875 536.526545984692,241.875 536.526545984692,238.125 " style="fill:rgb(50,205,50);stroke:black;stroke-width:0;opacity:1"/> 
				</g>

				<g style="fill:none">
				<title>gene_s309,s3,s3,7789,8088,0</title>
				<polygon points="545.046166929899,238.125 545.046166929899,241.875 558.668448548172,241.875 558.668448548172,238.125 " style="fill:rgb(50,205,50);stroke:black;stroke-width:0;opacity:1"/> 
				</g>

				<g style="fill:none">
				<title>gene_s310,s3,s3,8088,8360,0</title>
				<polygon points="558.668448548172,238.125 558.668448548172,241.875 571.060624468473,241.875 571.060624468473,238.125 " style="fill:rgb(50,205,50);stroke:black;stroke-width:0;opacity:1"/> 
				</g>

				<g style="fill:none">
				<title>gene_s303000,s3,s3000,2925,3119,1</title>
				<polygon points="692.932207508201,238.125 692.932207508201,241.875 701.770744745474,241.875 701.770744745474,238.125 " style="fill:rgb(50,205,50);stroke:black;stroke-width:0;opacity:1"/> 
				</g>

				<g style="fill:none">
				<title>gene_s304000,s3,s3000,3486,3857,1</title>
				<polygon points="718.491070343822,238.125 718.491070343822,241.875 735.393633823351,241.875 735.393633823351,238.125 " style="fill:rgb(50,205,50);stroke:black;stroke-width:0;opacity:1"/> 
				</g>

				<g style="fill:none">
				<title>gene_s305000,s3,s3000,4343,4780,1</title>
				<polygon points="757.53553638683,238.125 757.53553638683,241.875 777.445024905844,241.875 777.445024905844,238.125 " style="fill:rgb(50,205,50);stroke:black;stroke-width:0;opacity:1"/> 
				</g>

				<g style="fill:none">
				<title>gene_s306000,s3,s3000,4815,5888,0</title>
				<polygon points="779.039606366177,238.125 779.039606366177,241.875 827.924917992954,241.875 827.924917992954,238.125 " style="fill:rgb(50,205,50);stroke:black;stroke-width:0;opacity:1"/> 
				</g>

				<g style="fill:none">
				<title>gene_s3030000,s3,s30000,2925,3119,1</title>
				<polygon points="897.99538330701,238.125 897.99538330701,241.875 906.833920544284,241.875 906.833920544284,238.125 " style="fill:rgb(50,205,50);stroke:black;stroke-width:0;opacity:1"/> 
				</g>

				<g style="fill:none">
				<title>gene_s3040000,s3,s30000,3486,3857,1</title>
				<polygon points="923.554246142632,238.125 923.554246142632,241.875 940.45680962216,241.875 940.45680962216,238.125 " style="fill:rgb(50,205,50);stroke:black;stroke-width:0;opacity:1"/> 
				</g>

				<g style="fill:none">
				<title>gene_s3050000,s3,s30000,4343,4780,1</title>
				<polygon points="962.59871218564,238.125 962.59871218564,241.875 982.508200704653,241.875 982.508200704653,238.125 " style="fill:rgb(50,205,50);stroke:black;stroke-width:0;opacity:1"/> 
				</g>

				<g style="fill:none">
				<title>gene_s3060000,s3,s30000,4815,5888,0</title>
				<polygon points="984.102782164986,238.125 984.102782164986,241.875 1032.98809379176,241.875 1032.98809379176,238.125 " style="fill:rgb(50,205,50);stroke:black;stroke-width:0;opacity:1"/> 
				</g>

				<g style="fill:none">
				<title>gene_s403000,s4,s4000,2925,3119,1</title>
				<polygon points="192.188069493379,318.125 192.188069493379,321.875 201.026606730652,321.875 201.026606730652,318.125 " style="fill:rgb(50,205,50);stroke:black;stroke-width:0;opacity:1"/> 
				</g>

				<g style="fill:none">
				<title>gene_s404000,s4,s4000,3486,3857,1</title>
				<polygon points="217.746932329,318.125 217.746932329,321.875 234.649495808529,321.875 234.649495808529,318.125 " style="fill:rgb(50,205,50);stroke:black;stroke-width:0;opacity:1"/> 
				</g>

				<g style="fill:none">
				<title>gene_s405000,s4,s4000,4343,4780,1</title>
				<polygon points="256.791398372008,318.125 256.791398372008,321.875 276.700886891022,321.875 276.700886891022,318.125 " style="fill:rgb(50,205,50);stroke:black;stroke-width:0;opacity:1"/> 
				</g>

				<g style="fill:none">
				<title>gene_s406000,s4,s4000,4815,5888,0</title>
				<polygon points="278.295468351355,318.125 278.295468351355,321.875 327.180779978131,321.875 327.180779978131,318.125 " style="fill:rgb(50,205,50);stroke:black;stroke-width:0;opacity:1"/> 
				</g>

				<g style="fill:none">
				<title>gene_s4020000,s4,s40000,1106,1888,1</title>
				<polygon points="359.938039120399,318.125 359.938039120399,321.875 395.565544891265,321.875 395.565544891265,318.125 " style="fill:rgb(50,205,50);stroke:black;stroke-width:0;opacity:1"/> 
				</g>

				<g style="fill:none">
				<title>gene_s4030000,s4,s40000,2925,3119,1</title>
				<polygon points="442.810715587413,318.125 442.810715587413,321.875 451.649252824687,321.875 451.649252824687,318.125 " style="fill:rgb(50,205,50);stroke:black;stroke-width:0;opacity:1"/> 
				</g>

				<g style="fill:none">
				<title>gene_s4040000,s4,s40000,3486,3857,1</title>
				<polygon points="468.369578423035,318.125 468.369578423035,321.875 485.272141902564,321.875 485.272141902564,318.125 " style="fill:rgb(50,205,50);stroke:black;stroke-width:0;opacity:1"/> 
				</g>

				<g style="fill:none">
				<title>gene_s4050000,s4,s40000,4343,4780,1</title>
				<polygon points="507.414044466043,318.125 507.414044466043,321.875 527.323532985057,321.875 527.323532985057,318.125 " style="fill:rgb(50,205,50);stroke:black;stroke-width:0;opacity:1"/> 
				</g>

				<g style="fill:none">
				<title>gene_s4060000,s4,s40000,4815,5888,0</title>
				<polygon points="528.918114445389,318.125 528.918114445389,321.875 577.803426072166,321.875 577.803426072166,318.125 " style="fill:rgb(50,205,50);stroke:black;stroke-width:0;opacity:1"/> 
				</g>

				<g style="fill:none">
				<title>gene_s4070000,s4,s40000,6005,6421,1</title>
				<polygon points="583.133884096708,318.125 583.133884096708,321.875 602.086623739521,321.875 602.086623739521,318.125 " style="fill:rgb(50,205,50);stroke:black;stroke-width:0;opacity:1"/> 
				</g>

				<g style="fill:none">
				<title>gene_s4080000,s4,s40000,6664,7602,1</title>
				<polygon points="613.157575021261,318.125 613.157575021261,321.875 655.892358158183,321.875 655.892358158183,318.125 " style="fill:rgb(50,205,50);stroke:black;stroke-width:0;opacity:1"/> 
				</g>

				<g style="fill:none">
				<title>gene_s4100000,s4,s40000,8088,8360,0</title>
				<polygon points="700.85955533957,318.125 700.85955533957,321.875 713.251731259871,321.875 713.251731259871,318.125 " style="fill:rgb(50,205,50);stroke:black;stroke-width:0;opacity:1"/> 
				</g>

				<g style="fill:none">
				<title>gene_s410000000,s4,s40000,8188,8260,1</title>
				<polygon points="705.415502369092,328.4 705.415502369092,329.9 708.695784230349,329.9 708.695784230349,328.4 " style="fill:black;stroke:black;stroke-width:0;opacity:1"/> 
				</g>

</svg>