<svg xmlns="http://www.w3.org/2000/svg" version="1.1" width="1500" height="400" style="background-color:white;">
<text x="135" y="80.08" font-size="15px" fill="black"  text-anchor='end'>s1</text>
<text x="135" y="160.08" font-size="15px" fill="black"  text-anchor='end'>s2</text>
<text x="135" y="240.08" font-size="15px" fill="black"  text-anchor='end'>s3</text>
<text x="135" y="320.08" font-size="15px" fill="black"  text-anchor='end'>s4</text>

<line x1="150" y1="352" x2="1275" y2="352" style="stroke:green;stroke-width:0.5"/>
<line x1="150" y1="348" x2="150" y2="352" style="stroke:green;stroke-width:0.5;opacity:1"/>
<text x="150" y="367" font-size="13px" fill="green"  text-anchor='middle' font-family="Times New Roman">0</text>
<line x1="242.998264032405" y1="348" x2="242.998264032405" y2="352" style="stroke:green;stroke-width:0.5;opacity:1"/>
<text x="242.998264032405" y="367" font-size="13px" fill="green"  text-anchor='middle' font-family="Times New Roman">2,000</text>
<line x1="335.996528064809" y1="348" x2="335.996528064809" y2="352" style="stroke:green;stroke-width:0.5;opacity:1"/>
<text x="335.996528064809" y="367" font-size="13px" fill="green"  text-anchor='middle' font-family="Times New Roman">4,000</text>
<line x1="428.994792097214" y1="348" x2="428.994792097214" y2="352" style="stroke:green;stroke-width:0.5;opacity:1"/>
<text x="428.994792097214" y="367" font-size="13px" fill="green"  text-anchor='middle' font-family="Times New Roman">6,000</text>
<line x1="521.993056129619" y1="348" x2="521.993056129619" y2="352" style="stroke:green;stroke-width:0.5;opacity:1"/>
<text x="521.993056129619" y="367" font-size="13px" fill="green"  text-anchor='middle' font-family="Times New Roman">8,000</text>
<line x1="614.991320162024" y1="348" x2="614.991320162024" y2="352" style="stroke:green;stroke-width:0.5;opacity:1"/>
<text x="614.991320162024" y="367" font-size="13px" fill="green"  text-anchor='middle' font-family="Times New Roman">10,000</text>
<line x1="707.989584194428" y1="348" x2="707.989584194428" y2="352" style="stroke:green;stroke-width:0.5;opacity:1"/>
<text x="707.989584194428" y="367" font-size="13px" fill="green"  text-anchor='middle' font-family="Times New Roman">12,000</text>
<line x1="800.987848226833" y1="348" x2="800.987848226833" y2="352" style="stroke:green;stroke-width:0.5;opacity:1"/>
<text x="800.987848226833" y="367" font-size="13px" fill="green"  text-anchor='middle' font-family="Times New Roman">14,000</text>
<line x1="893.986112259238" y1="348" x2="893.986112259238" y2="352" style="stroke:green;stroke-width:0.5;opacity:1"/>
<text x="893.986112259238" y="367" font-size="13px" fill="green"  text-anchor='middle' font-family="Times New Roman">16,000</text>
<line x1="986.984376291643" y1="348" x2="986.984376291643" y2="352" style="stroke:green;stroke-width:0.5;opacity:1"/>
<text x="986.984376291643" y="367" font-size="13px" fill="green"  text-anchor='middle' font-family="Times New Roman">18,000</text>
<line x1="1079.98264032405" y1="348" x2="1079.98264032405" y2="352" style="stroke:green;stroke-width:0.5;opacity:1"/>
<text x="1079.98264032405" y="367" font-size="13px" fill="green"  text-anchor='middle' font-family="Times New Roman">20,000</text>
<line x1="1172.98090435645" y1="348" x2="1172.98090435645" y2="352" style="stroke:green;stroke-width:0.5;opacity:1"/>
<text x="1172.98090435645" y="367" font-size="13px" fill="green"  text-anchor='middle' font-family="Times New Roman">22,000</text>
<line x1="1275" y1="348" x2="1275" y2="352" style="stroke:green;stroke-width:0.5;opacity:1"/>
<text x="1275" y="367" font-size="13px" fill="green"  text-anchor='middle' font-family="Times New Roman">24,194bp</text>


<g><title>s1,2,3050</title><rect x="150" y="78" width="141.775853517401" height="4" style="fill:blue"   /></g>
<g><title>s1,3000,6010</title><rect x="315.025419525502" y="78" width="140.008886500785" height="4" style="fill:blue"   /></g>
<g><title>s1,5980,9609</title><rect x="478.283872034389" y="78" width="168.791849218815" height="4" style="fill:blue"   /></g>
<g><title>s1000,2000,6000</title><rect x="670.325287261304" y="78" width="186.043027196826" height="4" style="fill:blue"   /></g>
<g><title>s10000,2000,6000</title><rect x="879.617880466231" y="78" width="186.043027196826" height="4" style="fill:blue"   /></g>
<g><title>s10000,6000,10000</title><rect x="1088.91047367116" y="78" width="186.043027196826" height="4" style="fill:blue"   /></g>
<g><title>s2,1,9000</title><rect x="150" y="158" width="418.492188145821" height="4" style="fill:blue"   /></g>
<g><title>s2000,2000,6000</title><rect x="591.741754153922" y="158" width="186.043027196826" height="4" style="fill:blue"   /></g>
<g><title>s20000,2000,6000</title><rect x="801.034347358849" y="158" width="186.043027196826" height="4" style="fill:blue"   /></g>
<g><title>s20000,6000,10000</title><rect x="1010.32694056378" y="158" width="186.043027196826" height="4" style="fill:blue"   /></g>
<g><title>s3,11,2010</title><rect x="150" y="238" width="92.9982640324047" height="4" style="fill:blue"   /></g>
<g><title>s3,2020,5000</title><rect x="266.247830040506" y="238" width="138.613912540299" height="4" style="fill:blue"   /></g>
<g><title>s3,5100,9609</title><rect x="428.111308588906" y="238" width="209.711085393073" height="4" style="fill:blue"   /></g>
<g><title>s3000,2000,6000</title><rect x="661.07195999008" y="238" width="186.043027196826" height="4" style="fill:blue"   /></g>
<g><title>s30000,2000,6000</title><rect x="870.364553195007" y="238" width="186.043027196826" height="4" style="fill:blue"   /></g>
<g><title>s4000,2000,6000</title><rect x="150" y="318" width="186.043027196826" height="4" style="fill:blue"   /></g>
<g><title>s40000,1000,8000</title><rect x="359.292593204927" y="318" width="325.540423245433" height="4" style="fill:blue"   /></g>
<g><title>s40000,8000,9609</title><rect x="708.082582458461" y="318" width="74.8636025460858" height="4" style="fill:blue"   /></g>



				<g style="fill:none">
				<title>gene_s101,s1,s1,87,1109,1</title>
				<polygon points="153.998925353393,74 153.998925353393,86 201.521038273952,86 201.521038273952,74 " style="fill:rgb(50,205,50);stroke:black;stroke-width:0;opacity:1"/> 
				</g>

				<g style="fill:none">
				<title>gene_s102,s1,s1,1106,1888,1</title>
				<polygon points="201.381540877904,74 201.381540877904,86 237.743862114574,86 237.743862114574,74 " style="fill:rgb(50,205,50);stroke:black;stroke-width:0;opacity:1"/> 
				</g>

				<g style="fill:none">
				<title>gene_s104,s1,s1,3486,3857,1</title>
				<polygon points="337.670496817393,74 337.670496817393,86 354.921674795404,86 354.921674795404,74 " style="fill:rgb(50,205,50);stroke:black;stroke-width:0;opacity:1"/> 
				</g>

				<g style="fill:none">
				<title>gene_s105,s1,s1,4343,4780,1</title>
				<polygon points="377.520252955278,74 377.520252955278,86 397.840373646359,86 397.840373646359,74 " style="fill:rgb(50,205,50);stroke:black;stroke-width:0;opacity:1"/> 
				</g>

				<g style="fill:none">
				<title>gene_s106,s1,s1,4815,5888,0</title>
				<polygon points="399.467843266926,74 399.467843266926,86 449.361411920311,86 449.361411920311,74 " style="fill:rgb(50,205,50);stroke:black;stroke-width:0;opacity:1"/> 
				</g>

				<g style="fill:none">
				<title>gene_s107,s1,s1,6005,6421,1</title>
				<polygon points="479.49284946681,74 479.49284946681,86 498.83648838555,86 498.83648838555,74 " style="fill:rgb(50,205,50);stroke:black;stroke-width:0;opacity:1"/> 
				</g>

				<g style="fill:none">
				<title>gene_s108,s1,s1,6664,7602,1</title>
				<polygon points="510.135777465487,74 510.135777465487,86 553.751963296685,86 553.751963296685,74 " style="fill:rgb(50,205,50);stroke:black;stroke-width:0;opacity:1"/> 
				</g>

				<g style="fill:none">
				<title>gene_s109,s1,s1,7789,8088,0</title>
				<polygon points="562.447300983715,74 562.447300983715,86 576.350541456559,86 576.350541456559,74 " style="fill:rgb(50,205,50);stroke:black;stroke-width:0;opacity:1"/> 
				</g>

				<g style="fill:none">
				<title>gene_s110,s1,s1,8088,8360,0</title>
				<polygon points="576.350541456559,74 576.350541456559,86 588.998305364966,86 588.998305364966,74 " style="fill:rgb(50,205,50);stroke:black;stroke-width:0;opacity:1"/> 
				</g>

				<g style="fill:none">
				<title>gene_s103000,s1,s1000,2925,3119,1</title>
				<polygon points="713.383483508308,74 713.383483508308,86 722.404315119451,86 722.404315119451,74 " style="fill:rgb(50,205,50);stroke:black;stroke-width:0;opacity:1"/> 
				</g>

				<g style="fill:none">
				<title>gene_s104000,s1,s1000,3486,3857,1</title>
				<polygon points="739.469496569397,74 739.469496569397,86 756.720674547408,86 756.720674547408,74 " style="fill:rgb(50,205,50);stroke:black;stroke-width:0;opacity:1"/> 
				</g>

				<g style="fill:none">
				<title>gene_s105000,s1,s1000,4343,4780,1</title>
				<polygon points="779.319252707283,74 779.319252707283,86 799.639373398363,86 799.639373398363,74 " style="fill:rgb(50,205,50);stroke:black;stroke-width:0;opacity:1"/> 
				</g>

				<g style="fill:none">
				<title>gene_s106000,s1,s1000,4815,5888,0</title>
				<polygon points="801.26684301893,74 801.26684301893,86 851.160411672315,86 851.160411672315,74 " style="fill:rgb(50,205,50);stroke:black;stroke-width:0;opacity:1"/> 
				</g>

				<g style="fill:none">
				<title>gene_s1030000,s1,s10000,2925,3119,1</title>
				<polygon points="922.676076713235,74 922.676076713235,86 931.696908324378,86 931.696908324378,74 " style="fill:rgb(50,205,50);stroke:black;stroke-width:0;opacity:1"/> 
				</g>

				<g style="fill:none">
				<title>gene_s1040000,s1,s10000,3486,3857,1</title>
				<polygon points="948.762089774324,74 948.762089774324,86 966.013267752335,86 966.013267752335,74 " style="fill:rgb(50,205,50);stroke:black;stroke-width:0;opacity:1"/> 
				</g>

				<g style="fill:none">
				<title>gene_s1050000,s1,s10000,4343,4780,1</title>
				<polygon points="988.61184591221,74 988.61184591221,86 1008.93196660329,86 1008.93196660329,74 " style="fill:rgb(50,205,50);stroke:black;stroke-width:0;opacity:1"/> 
				</g>

				<g style="fill:none">
				<title>gene_s1060000,s1,s10000,4815,5888,0</title>
				<polygon points="1010.55943622386,74 1010.55943622386,86 1060.45300487724,86 1060.45300487724,74 " style="fill:rgb(50,205,50);stroke:black;stroke-width:0;opacity:1"/> 
				</g>

				<g style="fill:none">
				<title>gene_s1070000,s1,s10000,6005,6421,1</title>
				<polygon points="1089.18946846326,74 1089.18946846326,86 1108.533107382,86 1108.533107382,74 " style="fill:rgb(50,205,50);stroke:black;stroke-width:0;opacity:1"/> 
				</g>

				<g style="fill:none">
				<title>gene_s1080000,s1,s10000,6664,7602,1</title>
				<polygon points="1119.83239646193,74 1119.83239646193,86 1163.44858229313,86 1163.44858229313,74 " style="fill:rgb(50,205,50);stroke:black;stroke-width:0;opacity:1"/> 
				</g>

				<g style="fill:none">
				<title>gene_s1090000,s1,s10000,7789,8088,0</title>
				<polygon points="1172.14391998016,74 1172.14391998016,86 1186.047160453,86 1186.047160453,74 " style="fill:rgb(50,205,50);stroke:black;stroke-width:0;opacity:1"/> 
				</g>

				<g style="fill:none">
				<title>gene_s1100000,s1,s10000,8088,8360,0</title>
				<polygon points="1186.047160453,74 1186.047160453,86 1198.69492436141,86 1198.69492436141,74 " style="fill:rgb(50,205,50);stroke:black;stroke-width:0;opacity:1"/> 
				</g>

				<g style="fill:none">
				<title>gene_s11000001,s1,s10000,8361,8560,0</title>
				<polygon points="1198.74142349343,74 1198.74142349343,86 1207.99475076465,86 1207.99475076465,74 " style="fill:rgb(50,205,50);stroke:black;stroke-width:0;opacity:1"/> 
				</g>

				<g style="fill:none">
				<title>gene_s201,s2,s2,87,1109,1</title>
				<polygon points="154.04542448541,154 154.04542448541,166 201.567537405968,166 201.567537405968,154 " style="fill:rgb(50,205,50);stroke:black;stroke-width:0;opacity:1"/> 
				</g>

				<g style="fill:none">
				<title>gene_s202,s2,s2,1106,1888,1</title>
				<polygon points="201.42804000992,154 201.42804000992,166 237.79036124659,166 237.79036124659,154 " style="fill:rgb(50,205,50);stroke:black;stroke-width:0;opacity:1"/> 
				</g>

				<g style="fill:none">
				<title>gene_s203,s2,s2,2925,3119,1</title>
				<polygon points="286.009961147392,154 286.009961147392,166 295.030792758535,166 295.030792758535,154 " style="fill:rgb(50,205,50);stroke:black;stroke-width:0;opacity:1"/> 
				</g>

				<g style="fill:none">
				<title>gene_s204,s2,s2,3486,3857,1</title>
				<polygon points="312.095974208481,154 312.095974208481,166 329.347152186493,166 329.347152186493,154 " style="fill:rgb(50,205,50);stroke:black;stroke-width:0;opacity:1"/> 
				</g>

				<g style="fill:none">
				<title>gene_s205,s2,s2,4343,4780,1</title>
				<polygon points="351.945730346367,154 351.945730346367,166 372.265851037447,166 372.265851037447,154 " style="fill:rgb(50,205,50);stroke:black;stroke-width:0;opacity:1"/> 
				</g>

				<g style="fill:none">
				<title>gene_s206,s2,s2,4815,5888,0</title>
				<polygon points="373.893320658014,154 373.893320658014,166 423.7868893114,166 423.7868893114,154 " style="fill:rgb(50,205,50);stroke:black;stroke-width:0;opacity:1"/> 
				</g>

				<g style="fill:none">
				<title>gene_s207,s2,s2,6005,6421,1</title>
				<polygon points="429.227287757295,154 429.227287757295,166 448.570926676035,166 448.570926676035,154 " style="fill:rgb(50,205,50);stroke:black;stroke-width:0;opacity:1"/> 
				</g>

				<g style="fill:none">
				<title>gene_s208,s2,s2,6664,7602,1</title>
				<polygon points="459.870215755973,154 459.870215755973,166 503.48640158717,166 503.48640158717,154 " style="fill:rgb(50,205,50);stroke:black;stroke-width:0;opacity:1"/> 
				</g>

				<g style="fill:none">
				<title>gene_s209,s2,s2,7789,8088,0</title>
				<polygon points="512.1817392742,154 512.1817392742,166 526.084979747045,166 526.084979747045,154 " style="fill:rgb(50,205,50);stroke:black;stroke-width:0;opacity:1"/> 
				</g>

				<g style="fill:none">
				<title>gene_s210,s2,s2,8088,8360,0</title>
				<polygon points="526.084979747045,154 526.084979747045,166 538.732743655452,166 538.732743655452,154 " style="fill:rgb(50,205,50);stroke:black;stroke-width:0;opacity:1"/> 
				</g>

				<g style="fill:none">
				<title>gene_s203000,s2,s2000,2925,3119,1</title>
				<polygon points="634.799950400926,154 634.799950400926,166 643.820782012069,166 643.820782012069,154 " style="fill:rgb(50,205,50);stroke:black;stroke-width:0;opacity:1"/> 
				</g>

				<g style="fill:none">
				<title>gene_s204000,s2,s2000,3486,3857,1</title>
				<polygon points="660.885963462015,154 660.885963462015,166 678.137141440026,166 678.137141440026,154 " style="fill:rgb(50,205,50);stroke:black;stroke-width:0;opacity:1"/> 
				</g>

				<g style="fill:none">
				<title>gene_s205000,s2,s2000,4343,4780,1</title>
				<polygon points="700.735719599901,154 700.735719599901,166 721.055840290981,166 721.055840290981,154 " style="fill:rgb(50,205,50);stroke:black;stroke-width:0;opacity:1"/> 
				</g>

				<g style="fill:none">
				<title>gene_s206000,s2,s2000,4815,5888,0</title>
				<polygon points="722.683309911548,154 722.683309911548,166 772.576878564934,166 772.576878564934,154 " style="fill:rgb(50,205,50);stroke:black;stroke-width:0;opacity:1"/> 
				</g>

				<g style="fill:none">
				<title>gene_s2030000,s2,s20000,2925,3119,1</title>
				<polygon points="844.092543605853,154 844.092543605853,166 853.113375216996,166 853.113375216996,154 " style="fill:rgb(50,205,50);stroke:black;stroke-width:0;opacity:1"/> 
				</g>

				<g style="fill:none">
				<title>gene_s2040000,s2,s20000,3486,3857,1</title>
				<polygon points="870.178556666942,154 870.178556666942,166 887.429734644953,166 887.429734644953,154 " style="fill:rgb(50,205,50);stroke:black;stroke-width:0;opacity:1"/> 
				</g>

				<g style="fill:none">
				<title>gene_s2050000,s2,s20000,4343,4780,1</title>
				<polygon points="910.028312804828,154 910.028312804828,166 930.348433495908,166 930.348433495908,154 " style="fill:rgb(50,205,50);stroke:black;stroke-width:0;opacity:1"/> 
				</g>

				<g style="fill:none">
				<title>gene_s2060000,s2,s20000,4815,5888,0</title>
				<polygon points="931.975903116475,154 931.975903116475,166 981.86947176986,166 981.86947176986,154 " style="fill:rgb(50,205,50);stroke:black;stroke-width:0;opacity:1"/> 
				</g>

				<g style="fill:none">
				<title>gene_s2070000,s2,s20000,6005,6421,1</title>
				<polygon points="1010.60593535587,154 1010.60593535587,166 1029.94957427461,166 1029.94957427461,154 " style="fill:rgb(50,205,50);stroke:black;stroke-width:0;opacity:1"/> 
				</g>

				<g style="fill:none">
				<title>gene_s2080000,s2,s20000,6664,7602,1</title>
				<polygon points="1041.24886335455,154 1041.24886335455,166 1084.86504918575,166 1084.86504918575,154 " style="fill:rgb(50,205,50);stroke:black;stroke-width:0;opacity:1"/> 
				</g>

				<g style="fill:none">
				<title>gene_s2090000,s2,s20000,7789,8088,0</title>
				<polygon points="1093.56038687278,154 1093.56038687278,166 1107.46362734562,166 1107.46362734562,154 " style="fill:rgb(50,205,50);stroke:black;stroke-width:0;opacity:1"/> 
				</g>

				<g style="fill:none">
				<title>gene_s2100000,s2,s20000,8088,8360,0</title>
				<polygon points="1107.46362734562,154 1107.46362734562,166 1120.11139125403,166 1120.11139125403,154 " style="fill:rgb(50,205,50);stroke:black;stroke-width:0;opacity:1"/> 
				</g>

				<g style="fill:none">
				<title>gene_s301,s3,s3,87,1109,1</title>
				<polygon points="153.580433165248,234 153.580433165248,246 201.102546085806,246 201.102546085806,234 " style="fill:rgb(50,205,50);stroke:black;stroke-width:0;opacity:1"/> 
				</g>

				<g style="fill:none">
				<title>gene_s302,s3,s3,1106,1888,1</title>
				<polygon points="200.963048689758,234 200.963048689758,246 237.325369926428,246 237.325369926428,234 " style="fill:rgb(50,205,50);stroke:black;stroke-width:0;opacity:1"/> 
				</g>

				<g style="fill:none">
				<title>gene_s303,s3,s3,2925,3119,1</title>
				<polygon points="308.376043647185,234 308.376043647185,246 317.396875258329,246 317.396875258329,234 " style="fill:rgb(50,205,50);stroke:black;stroke-width:0;opacity:1"/> 
				</g>

				<g style="fill:none">
				<title>gene_s304,s3,s3,3486,3857,1</title>
				<polygon points="334.462056708275,234 334.462056708275,246 351.713234686286,246 351.713234686286,234 " style="fill:rgb(50,205,50);stroke:black;stroke-width:0;opacity:1"/> 
				</g>

				<g style="fill:none">
				<title>gene_s305,s3,s3,4343,4780,1</title>
				<polygon points="374.31181284616,234 374.31181284616,246 394.631933537241,246 394.631933537241,234 " style="fill:rgb(50,205,50);stroke:black;stroke-width:0;opacity:1"/> 
				</g>

				<g style="fill:none">
				<title>gene_s307,s3,s3,6005,6421,1</title>
				<polygon points="470.239522195586,234 470.239522195586,246 489.583161114326,246 489.583161114326,234 " style="fill:rgb(50,205,50);stroke:black;stroke-width:0;opacity:1"/> 
				</g>

				<g style="fill:none">
				<title>gene_s308,s3,s3,6664,7602,1</title>
				<polygon points="500.882450194263,234 500.882450194263,246 544.498636025461,246 544.498636025461,234 " style="fill:rgb(50,205,50);stroke:black;stroke-width:0;opacity:1"/> 
				</g>

				<g style="fill:none">
				<title>gene_s309,s3,s3,7789,8088,0</title>
				<polygon points="553.193973712491,234 553.193973712491,246 567.097214185335,246 567.097214185335,234 " style="fill:rgb(50,205,50);stroke:black;stroke-width:0;opacity:1"/> 
				</g>

				<g style="fill:none">
				<title>gene_s310,s3,s3,8088,8360,0</title>
				<polygon points="567.097214185335,234 567.097214185335,246 579.744978093742,246 579.744978093742,234 " style="fill:rgb(50,205,50);stroke:black;stroke-width:0;opacity:1"/> 
				</g>

				<g style="fill:none">
				<title>gene_s303000,s3,s3000,2925,3119,1</title>
				<polygon points="704.130156237083,234 704.130156237083,246 713.150987848227,246 713.150987848227,234 " style="fill:rgb(50,205,50);stroke:black;stroke-width:0;opacity:1"/> 
				</g>

				<g style="fill:none">
				<title>gene_s304000,s3,s3000,3486,3857,1</title>
				<polygon points="730.216169298173,234 730.216169298173,246 747.467347276184,246 747.467347276184,234 " style="fill:rgb(50,205,50);stroke:black;stroke-width:0;opacity:1"/> 
				</g>

				<g style="fill:none">
				<title>gene_s305000,s3,s3000,4343,4780,1</title>
				<polygon points="770.065925436058,234 770.065925436058,246 790.386046127139,246 790.386046127139,234 " style="fill:rgb(50,205,50);stroke:black;stroke-width:0;opacity:1"/> 
				</g>

				<g style="fill:none">
				<title>gene_s306000,s3,s3000,4815,5888,0</title>
				<polygon points="792.013515747706,234 792.013515747706,246 841.907084401091,246 841.907084401091,234 " style="fill:rgb(50,205,50);stroke:black;stroke-width:0;opacity:1"/> 
				</g>

				<g style="fill:none">
				<title>gene_s3030000,s3,s30000,2925,3119,1</title>
				<polygon points="913.42274944201,234 913.42274944201,246 922.443581053154,246 922.443581053154,234 " style="fill:rgb(50,205,50);stroke:black;stroke-width:0;opacity:1"/> 
				</g>

				<g style="fill:none">
				<title>gene_s3040000,s3,s30000,3486,3857,1</title>
				<polygon points="939.5087625031,234 939.5087625031,246 956.759940481111,246 956.759940481111,234 " style="fill:rgb(50,205,50);stroke:black;stroke-width:0;opacity:1"/> 
				</g>

				<g style="fill:none">
				<title>gene_s3050000,s3,s30000,4343,4780,1</title>
				<polygon points="979.358518640985,234 979.358518640985,246 999.678639332066,246 999.678639332066,234 " style="fill:rgb(50,205,50);stroke:black;stroke-width:0;opacity:1"/> 
				</g>

				<g style="fill:none">
				<title>gene_s3060000,s3,s30000,4815,5888,0</title>
				<polygon points="1001.30610895263,234 1001.30610895263,246 1051.19967760602,246 1051.19967760602,234 " style="fill:rgb(50,205,50);stroke:black;stroke-width:0;opacity:1"/> 
				</g>

				<g style="fill:none">
				<title>gene_s403000,s4,s4000,2925,3119,1</title>
				<polygon points="193.058196247003,314 193.058196247003,326 202.079027858147,326 202.079027858147,314 " style="fill:rgb(50,205,50);stroke:black;stroke-width:0;opacity:1"/> 
				</g>

				<g style="fill:none">
				<title>gene_s404000,s4,s4000,3486,3857,1</title>
				<polygon points="219.144209308093,314 219.144209308093,326 236.395387286104,326 236.395387286104,314 " style="fill:rgb(50,205,50);stroke:black;stroke-width:0;opacity:1"/> 
				</g>

				<g style="fill:none">
				<title>gene_s405000,s4,s4000,4343,4780,1</title>
				<polygon points="258.993965445978,314 258.993965445978,326 279.314086137059,326 279.314086137059,314 " style="fill:rgb(50,205,50);stroke:black;stroke-width:0;opacity:1"/> 
				</g>

				<g style="fill:none">
				<title>gene_s406000,s4,s4000,4815,5888,0</title>
				<polygon points="280.941555757626,314 280.941555757626,326 330.835124411011,326 330.835124411011,314 " style="fill:rgb(50,205,50);stroke:black;stroke-width:0;opacity:1"/> 
				</g>

				<g style="fill:none">
				<title>gene_s4020000,s4,s40000,1106,1888,1</title>
				<polygon points="364.26800033066,314 364.26800033066,326 400.630321567331,326 400.630321567331,314 " style="fill:rgb(50,205,50);stroke:black;stroke-width:0;opacity:1"/> 
				</g>

				<g style="fill:none">
				<title>gene_s4030000,s4,s40000,2925,3119,1</title>
				<polygon points="448.849921468133,314 448.849921468133,326 457.870753079276,326 457.870753079276,314 " style="fill:rgb(50,205,50);stroke:black;stroke-width:0;opacity:1"/> 
				</g>

				<g style="fill:none">
				<title>gene_s4040000,s4,s40000,3486,3857,1</title>
				<polygon points="474.935934529222,314 474.935934529222,326 492.187112507233,326 492.187112507233,314 " style="fill:rgb(50,205,50);stroke:black;stroke-width:0;opacity:1"/> 
				</g>

				<g style="fill:none">
				<title>gene_s4050000,s4,s40000,4343,4780,1</title>
				<polygon points="514.785690667108,314 514.785690667108,326 535.105811358188,326 535.105811358188,314 " style="fill:rgb(50,205,50);stroke:black;stroke-width:0;opacity:1"/> 
				</g>

				<g style="fill:none">
				<title>gene_s4060000,s4,s40000,4815,5888,0</title>
				<polygon points="536.733280978755,314 536.733280978755,326 586.62684963214,326 586.62684963214,314 " style="fill:rgb(50,205,50);stroke:black;stroke-width:0;opacity:1"/> 
				</g>

				<g style="fill:none">
				<title>gene_s4070000,s4,s40000,6005,6421,1</title>
				<polygon points="592.067248078036,314 592.067248078036,326 611.410886996776,326 611.410886996776,314 " style="fill:rgb(50,205,50);stroke:black;stroke-width:0;opacity:1"/> 
				</g>

				<g style="fill:none">
				<title>gene_s4080000,s4,s40000,6664,7602,1</title>
				<polygon points="622.710176076713,314 622.710176076713,326 666.326361907911,326 666.326361907911,314 " style="fill:rgb(50,205,50);stroke:black;stroke-width:0;opacity:1"/> 
				</g>

				<g style="fill:none">
				<title>gene_s4100000,s4,s40000,8088,8360,0</title>
				<polygon points="712.221005207903,314 712.221005207903,326 724.86876911631,326 724.86876911631,314 " style="fill:rgb(50,205,50);stroke:black;stroke-width:0;opacity:1"/> 
				</g>

				<g style="fill:none">
				<title>gene_s410000000,s4,s40000,8188,8260,1</title>
				<polygon points="716.870918409523,328.4 716.870918409523,336.4 720.21885591469,336.4 720.21885591469,328.4 " style="fill:black;stroke:black;stroke-width:0;opacity:1"/> 
				</g>

</svg>