<svg height="500" width="1300" xmlns="http://www.w3.org/2000/svg" xmlns:xlink="http://www.w3.org/1999/xlink"><clipPath id="a"><path d="m130 50h975v200h-975z"/></clipPath><clipPath id="b"><path d="m130 250h975v200h-975z"/></clipPath><clipPath id="c"><path d="m130 149h975v200h-975z"/></clipPath><text alignment-baseline="middle" font-size="15" text-anchor="end" x="110.5" y="150">pO83_CORR</text><text alignment-baseline="middle" font-size="15" text-anchor="end" x="110.5" y="350">pO83_CORR.indel</text><path d="m130 480h975" stroke="#008000" stroke-width=".5"/><path d="m130 475v5" stroke="#008000" stroke-width=".5"/><text fill="#008000" font-family="Times New Roman" font-size="6" text-anchor="middle" x="130" y="490">1bp</text><path d="m366.785714 475v5" stroke="#008000" stroke-width=".5"/><text fill="#008000" font-family="Times New Roman" font-size="6" text-anchor="middle" x="366.785714" y="490">1,700</text><path d="m603.571429 475v5" stroke="#008000" stroke-width=".5"/><text fill="#008000" font-family="Times New Roman" font-size="6" text-anchor="middle" x="603.571429" y="490">3,400</text><path d="m840.357143 475v5" stroke="#008000" stroke-width=".5"/><text fill="#008000" font-family="Times New Roman" font-size="6" text-anchor="middle" x="840.357143" y="490">5,100</text><path d="m1105 475v5" stroke="#008000" stroke-width=".5"/><text fill="#008000" font-family="Times New Roman" font-size="6" text-anchor="middle" x="1105" y="490">7,000bp</text><path d="m130 149h975v2h-975z" fill="#00f" opacity=".2"/><text alignment-baseline="middle" font-family="Times New Roman" font-size="10" text-anchor="end" x="129" y="150">5'</text><text alignment-baseline="middle" font-family="Times New Roman" font-size="10" x="1106" y="150">3'</text><path d="m130 349h975v2h-975z" fill="#00f" opacity=".2"/><text alignment-baseline="middle" font-family="Times New Roman" font-size="10" text-anchor="end" x="129" y="350">5'</text><text alignment-baseline="middle" font-family="Times New Roman" font-size="10" x="1106" y="350">3'</text><g fill="#ffa500"><path clip-path="url(#a)" d="m890.36071429 149v2h19722.99642857v-2z" opacity=".5"/><path clip-path="url(#b)" d="m890.36071429 349v2h19722.99642857v-2z" opacity=".5"/><path clip-path="url(#c)" d="m890.36071429 157h19722.99642857v186h-19722.99642857z" opacity=".5" stroke="#000"/><path d="m422.5 149v2h469.11428571v-2z" opacity=".5"/><path d="m393.25 349v2h468.975v-2z" opacity=".5"/><path d="m422.5 157h469.11428571l-29.38928571 186h-468.975z" opacity=".4997"/><path d="m130 149v2h264.36428571v-2z" opacity=".5"/><path d="m130 349v2h264.36428571v-2z" opacity=".5"/><path d="m130 157h264.36428571v186h-264.36428571z" opacity=".49945"/><path d="m393.25 149v2h29.25v-2z" opacity=".5"/><path d="m861.25 349v2h29.25v-2z" opacity=".5"/><path d="m393.25 157h29.25l468 186h-29.25z" opacity=".5"/></g></svg>