<svg xmlns="http://www.w3.org/2000/svg" version="1.1" width="1300" height="500" style="background-color:white;">
<text class='myth' x="110.5" y="150" style="font-size:15px;fill:black;text-anchor:end;alignment-baseline:middle" >pO83_CORR</text>
<defs>    <clipPath id="cut-pO83_CORR-NC_017659.1-1"><path d="M130 50 L1105 50 L1105 250 L130 250 Z" />     </clipPath>  </defs>
<text class='myth' x="110.5" y="350" style="font-size:15px;fill:black;text-anchor:end;alignment-baseline:middle" >pO83_CORR.indel</text>
<defs>    <clipPath id="cut-pO83_CORR.indel-NC_017659.1.fake-1"><path d="M130 250 L1105 250 L1105 450 L130 450 Z" />     </clipPath>  </defs>

<line x1="130" y1="480" x2="1105" y2="480" style="stroke:green;stroke-width:0.5"/>
<line x1="130" y1="475" x2="130" y2="480" style="stroke:green;stroke-width:0.5;opacity:1"/>
<text class='myth' x="130" y="490" style="font-size:6px;fill:green;text-anchor:middle;font-family:Times New Roman;">1bp</text>
<line x1="366.785714285714" y1="475" x2="366.785714285714" y2="480" style="stroke:green;stroke-width:0.5;opacity:1"/>
<text class='myth' x="366.785714285714" y="490" style="font-size:6px;fill:green;text-anchor:middle;font-family:Times New Roman;">1,700</text>
<line x1="603.571428571429" y1="475" x2="603.571428571429" y2="480" style="stroke:green;stroke-width:0.5;opacity:1"/>
<text class='myth' x="603.571428571429" y="490" style="font-size:6px;fill:green;text-anchor:middle;font-family:Times New Roman;">3,400</text>
<line x1="840.357142857143" y1="475" x2="840.357142857143" y2="480" style="stroke:green;stroke-width:0.5;opacity:1"/>
<text class='myth' x="840.357142857143" y="490" style="font-size:6px;fill:green;text-anchor:middle;font-family:Times New Roman;">5,100</text>
<line x1="1105" y1="475" x2="1105" y2="480" style="stroke:green;stroke-width:0.5;opacity:1"/>
<text class='myth'  x="1105" y="490" style="font-size:6px;fill:green;text-anchor:middle;font-family:Times New Roman">7,000bp</text>



<rect x="130" y="149" width="975" height="2" style="fill:blue;opacity:0.2"   />
<text class='myth'  x="129" y="150" style="font-family:Times New Roman;font-size:10px;fill:black;text-anchor:end;alignment-baseline:middle" >5'</text>
 <text class='myth'  x="1106" y="150" style="font-family:Times New Roman;font-size:10px;fill:black;text-anchor:start;alignment-baseline:middle" >3'</text>

<rect x="130" y="349" width="975" height="2" style="fill:blue;opacity:0.2"   />
<text class='myth'  x="129" y="350" style="font-family:Times New Roman;font-size:10px;fill:black;text-anchor:end;alignment-baseline:middle" >5'</text>
 <text class='myth'  x="1106" y="350" style="font-family:Times New Roman;font-size:10px;fill:black;text-anchor:start;alignment-baseline:middle" >3'</text>






<path id="pO83_CORR.NC_017659.1.5460.147060.1.+.t.q_block_index=1.t_block_index=1"  d="M890.360714285714 149 L890.360714285714 151 L20613.3571428571 151 L20613.3571428571 149 Z" clip-path="url(#cut-pO83_CORR-NC_017659.1-1)" style="fill:orange;stroke:black;stroke-width:0;opacity:0.5"/>




<path id="pO83_CORR.indel.NC_017659.1.fake.5460.147060.1.+.q.q_block_index=1.t_block_index=1"  d="M890.360714285714 349 L890.360714285714 351 L20613.3571428571 351 L20613.3571428571 349 Z" clip-path="url(#cut-pO83_CORR.indel-NC_017659.1.fake-1)" style="fill:orange;stroke:black;stroke-width:0;opacity:0.5"/>







 <defs>    <clipPath id="clip_130-149-1105-149-130-349-1105-349"><path d="M130 149 L1105 149 L1105 349 L130 349 Z" /></clipPath>  </defs>
<path d="M890.360714285714 157 L20613.3571428571 157 L20613.3571428571 343 L890.360714285714 343 Z"  clip-path="url(#clip_130-149-1105-149-130-349-1105-349)" style="stroke:black;stroke-width: 1;fill:orange;opacity:0.5" />







<polygon id="pO83_CORR.NC_017659.1.2101.5468.1.+.t.q_block_index=1.t_block_index=1" points="422.5,149 422.5,151 891.614285714286,151 891.614285714286,149 " style="fill:orange;stroke:black;stroke-width:0;opacity:0.5"/>




<polygon id="pO83_CORR.indel.NC_017659.1.fake.1891.5257.1.+.q.q_block_index=1.t_block_index=1" points="393.25,349 393.25,351 862.225,351 862.225,349 " style="fill:orange;stroke:black;stroke-width:0;opacity:0.5"/>







 <polygon points="422.5,157 891.614285714286,157 862.225,343 393.25,343" style="stroke:black;stroke-width:0;fill:orange;opacity:0.4997"/>







<polygon id="pO83_CORR.NC_017659.1.1.1898.1.+.t.q_block_index=1.t_block_index=1" points="130,149 130,151 394.364285714286,151 394.364285714286,149 " style="fill:orange;stroke:black;stroke-width:0;opacity:0.5"/>




<polygon id="pO83_CORR.indel.NC_017659.1.fake.1.1898.1.+.q.q_block_index=1.t_block_index=1" points="130,349 130,351 394.364285714286,351 394.364285714286,349 " style="fill:orange;stroke:black;stroke-width:0;opacity:0.5"/>







 <polygon points="130,157 394.364285714286,157 394.364285714286,343 130,343" style="stroke:black;stroke-width:0;fill:orange;opacity:0.49945"/>







<polygon id="pO83_CORR.NC_017659.1.1891.2100.1.+.t.q_block_index=1.t_block_index=1" points="393.25,149 393.25,151 422.5,151 422.5,149 " style="fill:orange;stroke:black;stroke-width:0;opacity:0.5"/>




<polygon id="pO83_CORR.indel.NC_017659.1.fake.5251.5460.1.+.q.q_block_index=1.t_block_index=1" points="861.25,349 861.25,351 890.5,351 890.5,349 " style="fill:orange;stroke:black;stroke-width:0;opacity:0.5"/>







 <polygon points="393.25,157 422.5,157 890.5,343 861.25,343" style="stroke:black;stroke-width:0;fill:orange;opacity:0.5"/>


</svg>