<svg height="500" width="1300" xmlns="http://www.w3.org/2000/svg" xmlns:xlink="http://www.w3.org/1999/xlink"><clipPath id="a"><path d="m130 50h975v200h-975z"/></clipPath><clipPath id="b"><path d="m130 250h975v200h-975z"/></clipPath><clipPath id="c"><path d="m130 149h975v200h-975z"/></clipPath><text alignment-baseline="middle" font-size="15" text-anchor="end" x="110.5" y="150">pO83_CORR</text><text alignment-baseline="middle" font-size="15" text-anchor="end" x="110.5" y="350">pO83_CORR.indel</text><path d="m130 480h975" stroke="#008000" stroke-width=".5"/><path d="m130 475v5" stroke="#008000" stroke-width=".5"/><text fill="#008000" font-family="Times New Roman" font-size="6" text-anchor="middle" x="130" y="490">1bp</text><path d="m366.785714 475v5" stroke="#008000" stroke-width=".5"/><text fill="#008000" font-family="Times New Roman" font-size="6" text-anchor="middle" x="366.785714" y="490">1,700</text><path d="m603.571429 475v5" stroke="#008000" stroke-width=".5"/><text fill="#008000" font-family="Times New Roman" font-size="6" text-anchor="middle" x="603.571429" y="490">3,400</text><path d="m840.357143 475v5" stroke="#008000" stroke-width=".5"/><text fill="#008000" font-family="Times New Roman" font-size="6" text-anchor="middle" x="840.357143" y="490">5,100</text><path d="m1105 475v5" stroke="#008000" stroke-width=".5"/><text fill="#008000" font-family="Times New Roman" font-size="6" text-anchor="middle" x="1105" y="490">7,000bp</text><path d="m130 149h975v2h-975z" fill="#00f" opacity=".2"/><text alignment-baseline="middle" font-family="Times New Roman" font-size="10" text-anchor="end" x="129" y="150">5'</text><text alignment-baseline="middle" font-family="Times New Roman" font-size="10" x="1106" y="150">3'</text><path d="m130 349h975v2h-975z" fill="#00f" opacity=".2"/><text alignment-baseline="middle" font-family="Times New Roman" font-size="10" text-anchor="end" x="129" y="350">5'</text><text alignment-baseline="middle" font-family="Times New Roman" font-size="10" x="1106" y="350">3'</text><path d="m452.02857143 148v4h108.81l46.63285714-2-46.63285714-2z" fill="#32cd32"/><path d="m135.98928571 348v4h28.3725l12.15964286-2-12.15964286-2z" fill="#32cd32"/><path d="m201.73214286 348v4h54.6975l23.44178571-2-23.44178571-2z" fill="#32cd32"/><path d="m274.57857143 348v4h11.7l5.01428571-2-5.01428571-2z" fill="#32cd32"/><path d="m333.63571429 350 5.64107142 2h13.1625v-4h-13.1625z" fill="#32cd32"/><path d="m358.70714286 350 5.39035714 2h12.5775v-4h-12.5775z" fill="#32cd32"/><path d="m394.64285714 350 6.26785715 2h14.625v-4h-14.625z" fill="#32cd32"/><path d="m416.09285714 348v4h113.49l48.63857143-2-48.63857143-2z" fill="#32cd32"/><path d="m586.71785714 348v4h200.3625l85.86964286-2-85.86964286-2z" fill="#32cd32"/><g fill="#ffa500"><path clip-path="url(#a)" d="m890.36071429 149v2h19722.99642857v-2z" opacity=".5"/><path clip-path="url(#b)" d="m890.36071429 349v2h19722.99642857v-2z" opacity=".5"/><path clip-path="url(#c)" d="m890.36071429 157h19722.99642857v186h-19722.99642857z" opacity=".5" stroke="#000"/><path d="m422.5 149v2h469.11428571v-2z" opacity=".5"/><path d="m393.25 349v2h468.975v-2z" opacity=".5"/><path d="m422.5 157h469.11428571l-29.38928571 186h-468.975z" opacity=".4997"/><path d="m130 149v2h264.36428571v-2z" opacity=".5"/><path d="m130 349v2h264.36428571v-2z" opacity=".5"/><path d="m130 157h264.36428571v186h-264.36428571z" opacity=".49945"/><path d="m393.25 149v2h29.25v-2z" opacity=".5"/><path d="m861.25 349v2h29.25v-2z" opacity=".5"/><path d="m393.25 157h29.25l468 186h-29.25z" opacity=".5"/></g></svg>