<svg xmlns="http://www.w3.org/2000/svg" version="1.1" width="1500" height="800" >
<text x="150" y="106" font-size="15px" fill="black"  text-anchor='end'>s1.s1000</text>
<text x="150" y="226" font-size="15px" fill="black"  text-anchor='end'>s1.s10000.0-2k</text>
<text x="150" y="346" font-size="15px" fill="black"  text-anchor='end'>s1</text>
<g fill="none" stroke="black" stroke-width="2"><path stroke-dasharray="2,2" d="M303.910824930142,340 L326.462762726279,340" /></g><g fill="none" stroke="black" stroke-width="2"><path stroke-dasharray="2,2" d="M463.870125136678,340 L486.422062932815,340" /></g><g fill="none" stroke="black" stroke-width="2"><path stroke-dasharray="2,2" d="M1062.15708905358,340 L1084.70902684971,340" /></g><text x="150" y="466" font-size="15px" fill="black"  text-anchor='end'>s2</text>
<g fill="none" stroke="black" stroke-width="2"><path stroke-dasharray="2,2" d="M985.161584254647,460 L1007.71352205078,460" /></g><text x="150" y="586" font-size="15px" fill="black"  text-anchor='end'>s3</text>
<g fill="none" stroke="black" stroke-width="2"><path stroke-dasharray="2,2" d="M396.897703802697,580 L419.449641598834,580" /></g><g fill="none" stroke="black" stroke-width="2"><path stroke-dasharray="2,2" d="M556.401409306281,580 L578.953347102418,580" /></g><text x="150" y="706" font-size="15px" fill="black"  text-anchor='end'>s4</text>
<g fill="none" stroke="black" stroke-width="2"><path stroke-dasharray="2,2" d="M689.025027335682,700 L711.576965131819,700" /></g><rect x="1312.125" y="359.2" width="47.25" height="24" style="fill:black;stroke:black;stroke-width:0.5;fill-opacity:1;stroke-opacity:1" /><text x="1365.45" y="382" font-size="20px" fill="black" text-anchor='start'>legend.s1i</text><rect x="1312.125" y="388" width="47.25" height="24" style="fill:red;stroke:black;stroke-width:0.5;fill-opacity:1;stroke-opacity:1" /><text x="1365.45" y="410.8" font-size="20px" fill="black" text-anchor='start'>legend.s1</text><rect x="1312.125" y="416.8" width="47.25" height="24" style="fill:rgb(255,165,0);stroke:black;stroke-width:0.5;fill-opacity:1;stroke-opacity:1" /><text x="1365.45" y="439.6" font-size="20px" fill="black" text-anchor='start'>legend.s2</text>
<line x1="165" y1="752" x2="1290" y2="752" style="stroke:green;stroke-width:0.5"/>
<line x1="165" y1="744" x2="165" y2="752" style="stroke:green;stroke-width:0.5;opacity:1"/>
<text x="165" y="767" font-size="13px" fill="green"  text-anchor='middle' font-family="Times New Roman">0</text>
<line x1="256.118940590451" y1="744" x2="256.118940590451" y2="752" style="stroke:green;stroke-width:0.5;opacity:1"/>
<text x="256.118940590451" y="767" font-size="13px" fill="green"  text-anchor='middle' font-family="Times New Roman">2000</text>
<line x1="347.237881180901" y1="744" x2="347.237881180901" y2="752" style="stroke:green;stroke-width:0.5;opacity:1"/>
<text x="347.237881180901" y="767" font-size="13px" fill="green"  text-anchor='middle' font-family="Times New Roman">4000</text>
<line x1="438.356821771352" y1="744" x2="438.356821771352" y2="752" style="stroke:green;stroke-width:0.5;opacity:1"/>
<text x="438.356821771352" y="767" font-size="13px" fill="green"  text-anchor='middle' font-family="Times New Roman">6000</text>
<line x1="529.475762361803" y1="744" x2="529.475762361803" y2="752" style="stroke:green;stroke-width:0.5;opacity:1"/>
<text x="529.475762361803" y="767" font-size="13px" fill="green"  text-anchor='middle' font-family="Times New Roman">8000</text>
<line x1="620.594702952254" y1="744" x2="620.594702952254" y2="752" style="stroke:green;stroke-width:0.5;opacity:1"/>
<text x="620.594702952254" y="767" font-size="13px" fill="green"  text-anchor='middle' font-family="Times New Roman">10000</text>
<line x1="711.713643542704" y1="744" x2="711.713643542704" y2="752" style="stroke:green;stroke-width:0.5;opacity:1"/>
<text x="711.713643542704" y="767" font-size="13px" fill="green"  text-anchor='middle' font-family="Times New Roman">12000</text>
<line x1="802.832584133155" y1="744" x2="802.832584133155" y2="752" style="stroke:green;stroke-width:0.5;opacity:1"/>
<text x="802.832584133155" y="767" font-size="13px" fill="green"  text-anchor='middle' font-family="Times New Roman">14000</text>
<line x1="893.951524723606" y1="744" x2="893.951524723606" y2="752" style="stroke:green;stroke-width:0.5;opacity:1"/>
<text x="893.951524723606" y="767" font-size="13px" fill="green"  text-anchor='middle' font-family="Times New Roman">16000</text>
<line x1="985.070465314057" y1="744" x2="985.070465314057" y2="752" style="stroke:green;stroke-width:0.5;opacity:1"/>
<text x="985.070465314057" y="767" font-size="13px" fill="green"  text-anchor='middle' font-family="Times New Roman">18000</text>
<line x1="1076.18940590451" y1="744" x2="1076.18940590451" y2="752" style="stroke:green;stroke-width:0.5;opacity:1"/>
<text x="1076.18940590451" y="767" font-size="13px" fill="green"  text-anchor='middle' font-family="Times New Roman">20000</text>
<line x1="1167.30834649496" y1="744" x2="1167.30834649496" y2="752" style="stroke:green;stroke-width:0.5;opacity:1"/>
<text x="1167.30834649496" y="767" font-size="13px" fill="green"  text-anchor='middle' font-family="Times New Roman">22000</text>
<line x1="1258.42728708541" y1="744" x2="1258.42728708541" y2="752" style="stroke:green;stroke-width:0.5;opacity:1"/>
<text x="1258.42728708541" y="767" font-size="13px" fill="green"  text-anchor='middle' font-family="Times New Roman">24000</text>
<line x1="1290" y1="744" x2="1290" y2="752" style="stroke:green;stroke-width:0.5;opacity:1"/>
<text x="1290" y="767" font-size="13px" fill="green"  text-anchor='middle' font-family="Times New Roman">24693</text>
<line x1="165" y1="24" x2="1290" y2="24" style="stroke:green;stroke-width:0.5"/>
<line x1="165" y1="32" x2="165" y2="24" style="stroke:green;stroke-width:0.5;opacity:1"/>
<text x="165" y="21" font-size="13px" fill="green"  text-anchor='middle' font-family="Times New Roman">0</text>
<line x1="256.118940590451" y1="32" x2="256.118940590451" y2="24" style="stroke:green;stroke-width:0.5;opacity:1"/>
<text x="256.118940590451" y="21" font-size="13px" fill="green"  text-anchor='middle' font-family="Times New Roman">2000</text>
<line x1="347.237881180901" y1="32" x2="347.237881180901" y2="24" style="stroke:green;stroke-width:0.5;opacity:1"/>
<text x="347.237881180901" y="21" font-size="13px" fill="green"  text-anchor='middle' font-family="Times New Roman">4000</text>
<line x1="438.356821771352" y1="32" x2="438.356821771352" y2="24" style="stroke:green;stroke-width:0.5;opacity:1"/>
<text x="438.356821771352" y="21" font-size="13px" fill="green"  text-anchor='middle' font-family="Times New Roman">6000</text>
<line x1="529.475762361803" y1="32" x2="529.475762361803" y2="24" style="stroke:green;stroke-width:0.5;opacity:1"/>
<text x="529.475762361803" y="21" font-size="13px" fill="green"  text-anchor='middle' font-family="Times New Roman">8000</text>
<line x1="620.594702952254" y1="32" x2="620.594702952254" y2="24" style="stroke:green;stroke-width:0.5;opacity:1"/>
<text x="620.594702952254" y="21" font-size="13px" fill="green"  text-anchor='middle' font-family="Times New Roman">10000</text>
<line x1="711.713643542704" y1="32" x2="711.713643542704" y2="24" style="stroke:green;stroke-width:0.5;opacity:1"/>
<text x="711.713643542704" y="21" font-size="13px" fill="green"  text-anchor='middle' font-family="Times New Roman">12000</text>
<line x1="802.832584133155" y1="32" x2="802.832584133155" y2="24" style="stroke:green;stroke-width:0.5;opacity:1"/>
<text x="802.832584133155" y="21" font-size="13px" fill="green"  text-anchor='middle' font-family="Times New Roman">14000</text>
<line x1="893.951524723606" y1="32" x2="893.951524723606" y2="24" style="stroke:green;stroke-width:0.5;opacity:1"/>
<text x="893.951524723606" y="21" font-size="13px" fill="green"  text-anchor='middle' font-family="Times New Roman">16000</text>
<line x1="985.070465314057" y1="32" x2="985.070465314057" y2="24" style="stroke:green;stroke-width:0.5;opacity:1"/>
<text x="985.070465314057" y="21" font-size="13px" fill="green"  text-anchor='middle' font-family="Times New Roman">18000</text>
<line x1="1076.18940590451" y1="32" x2="1076.18940590451" y2="24" style="stroke:green;stroke-width:0.5;opacity:1"/>
<text x="1076.18940590451" y="21" font-size="13px" fill="green"  text-anchor='middle' font-family="Times New Roman">20000</text>
<line x1="1167.30834649496" y1="32" x2="1167.30834649496" y2="24" style="stroke:green;stroke-width:0.5;opacity:1"/>
<text x="1167.30834649496" y="21" font-size="13px" fill="green"  text-anchor='middle' font-family="Times New Roman">22000</text>
<line x1="1258.42728708541" y1="32" x2="1258.42728708541" y2="24" style="stroke:green;stroke-width:0.5;opacity:1"/>
<text x="1258.42728708541" y="21" font-size="13px" fill="green"  text-anchor='middle' font-family="Times New Roman">24000</text>
<line x1="1290" y1="32" x2="1290" y2="24" style="stroke:green;stroke-width:0.5;opacity:1"/>
<text x="1290" y="21" font-size="13px" fill="green"  text-anchor='middle' font-family="Times New Roman">24693</text>


<polygon points="297.805855910582,600.4 306.644393147856,600.4 216.026606730652,679.6 207.188069493379,679.6" style="fill:#FF8C00;stroke:#000000;stroke-width:0;opacity:1"/>
<polygon points="1103.11505284899,480.4 1115.50722876929,480.4 728.251731259871,679.6 715.85955533957,679.6" style="fill:#FF8C00;stroke:#000000;stroke-width:0;opacity:0.3"/>
<polygon points="487.834406511967,360.4 506.787146154781,360.4 438.584619122828,439.6 457.537358765642,439.6" style="fill:#3CB371;stroke:#000000;stroke-width:0;opacity:1"/>
<polygon points="582.734783136921,360.4 595.126959057223,360.4 545.877171668084,439.6 533.484995747783,439.6" style="fill:#00BFFF;stroke:#000000;stroke-width:0;opacity:0.8"/>
<polygon points="298.261450613534,480.4 307.099987850808,480.4 458.311869760661,559.6 441.409306281132,559.6" style="fill:#FF8C00;stroke:#000000;stroke-width:0;opacity:1"/>
<polygon points="674.35487790062,600.4 686.747053820921,600.4 542.323532985057,679.6 522.414044466043,679.6" style="fill:#FF8C00;stroke:#000000;stroke-width:0;opacity:1"/>
<polygon points="1008.16911675374,360.4 1057.05442838051,360.4 1115.50722876929,439.6 1103.11505284899,439.6" style="fill:#FF8C00;stroke:#000000;stroke-width:0;opacity:1"/>
<polygon points="533.484995747783,480.4 545.877171668084,480.4 686.747053820921,559.6 674.35487790062,559.6" style="fill:#FF8C00;stroke:#000000;stroke-width:0;opacity:1"/>
<polygon points="438.584619122828,480.4 457.537358765642,480.4 598.407240918479,559.6 579.454501275665,559.6" style="fill:#FF8C00;stroke:#000000;stroke-width:0;opacity:1"/>
<polygon points="609.478192200219,600.4 652.21297533714,600.4 598.133884096708,679.6 617.086623739521,679.6" style="fill:#3CB371;stroke:#000000;stroke-width:0;opacity:1"/>
<polygon points="298.261450613534,460 307.099987850808,460 297.805855910582,580 306.644393147856,580" style="fill:#3CB371;stroke:#000000;stroke-width:0;opacity:0.5"/>


<g><title>s1000,1,2000</title><rect x="165" y="94" width="91.1189405904507" height="12" style="fill:blue"   /></g>
<g><title>s10000,1,2000</title><rect x="165" y="214" width="91.1189405904507" height="12" style="fill:blue"   /></g>
<g><title>s1,2,3050</title><rect x="165" y="334" width="138.910824930142" height="12" style="fill:blue"   /></g>
<g><title>s1,3000,6010</title><rect x="326.690560077755" y="334" width="137.179565058924" height="12" style="fill:blue"   /></g>
<g><title>s1,5980,9609</title><rect x="486.649860284291" y="334" width="165.380877171668" height="12" style="fill:blue"   /></g>
<g><title>s1000,2000,6000</title><rect x="674.810472603572" y="334" width="182.283440651197" height="12" style="fill:blue"   /></g>

			<g style="fill:none">
			<title>gene_s103000,s1,s1000,2925,3119,1</title>
			<polygon points="716.998542096951,328 716.998542096951,352 723.185518163042,352 723.185518163042,360.4 725.837079334224,340 723.185518163042,319.6 723.185518163042,328" style="fill:black;stroke:black;stroke-width:0;opacity:1"/> 
			</g>
<g><title>s10000,6000,10000</title><rect x="1084.93682420119" y="334" width="182.283440651197" height="12" style="fill:blue"   /></g>
<g><title>s2,1,9000</title><rect x="165" y="454" width="410.035232657028" height="12" style="fill:blue"   /></g>
<g><title>s2000,2000,6000</title><rect x="597.814967804641" y="454" width="182.283440651197" height="12" style="fill:blue"   /></g>
<g><title>s20000,2000,6000</title><rect x="802.87814360345" y="454" width="182.283440651197" height="12" style="fill:blue"   /></g>
<g><title>s20000,6000,10000</title><rect x="1007.94131940226" y="454" width="182.283440651197" height="12" style="fill:blue"   /></g>
<g><title>s3,11,5100</title><rect x="165" y="574" width="231.897703802697" height="12" style="fill:blue"   /></g>
<g><title>s3,3000,6000</title><rect x="419.67743895031" y="574" width="136.723970355971" height="12" style="fill:blue"   /></g>
<g><title>s3,6000,9609</title><rect x="579.181144453894" y="574" width="164.469687765764" height="12" style="fill:blue"   /></g>
<g><title>s3000,2000,6000</title><rect x="766.43056736727" y="574" width="182.283440651197" height="12" style="fill:blue"   /></g>
<g><title>s30000,2000,6000</title><rect x="971.49374316608" y="574" width="182.283440651197" height="12" style="fill:blue"   /></g>
<g><title>s4000,2000,6000</title><rect x="165" y="694" width="182.283440651197" height="12" style="fill:blue"   /></g>
<g><title>s40000,1000,8000</title><rect x="370.063175798809" y="694" width="318.961851536873" height="12" style="fill:blue"   /></g>
<g><title>s40000,8000,9609</title><rect x="711.804762483295" y="694" width="73.3507471753128" height="12" style="fill:blue"   /></g>



			<g style="fill:none">
			<title>gene_s101000,s1.s1000,s1000,87,1109,1</title>
			<polygon points="168.963673915685,88 168.963673915685,112 201.556918964889,112 201.556918964889,120.4 215.525452557405,100 201.556918964889,79.6 201.556918964889,88" style="fill:rgb(50,205,50);stroke:black;stroke-width:0;opacity:1"/> 
			</g>

			<g style="fill:none">
			<title>gene_s102000,s1.s1000,s1000,1106,1888,1</title>
			<polygon points="215.388774146519,88 215.388774146519,112 240.328028186126,112 240.328028186126,120.4 251.016279917386,100 240.328028186126,79.6 240.328028186126,88" style="fill:rgb(50,205,50);stroke:black;stroke-width:0;opacity:1"/> 
			</g>

			<g style="fill:none">
			<title>gene_s1010000,s1.s10000.0-2k,s10000,87,1109,1</title>
			<polygon points="168.963673915685,208 168.963673915685,232 201.556918964889,232 201.556918964889,240.4 215.525452557405,220 201.556918964889,199.6 201.556918964889,208" style="fill:rgb(50,205,50);stroke:black;stroke-width:0;opacity:1"/> 
			</g>

			<g style="fill:none">
			<title>gene_s1020000,s1.s10000.0-2k,s10000,1106,1888,1</title>
			<polygon points="215.388774146519,208 215.388774146519,232 240.328028186126,232 240.328028186126,240.4 251.016279917386,220 240.328028186126,199.6 240.328028186126,208" style="fill:rgb(50,205,50);stroke:black;stroke-width:0;opacity:1"/> 
			</g>

			<g style="fill:none">
			<title>gene_s101,s1,s1,87,1109,1</title>
			<polygon points="168.918114445389,328 168.918114445389,352 201.511359494594,352 201.511359494594,360.4 215.47989308711,340 201.511359494594,319.6 201.511359494594,328" style="fill:rgb(50,205,50);stroke:black;stroke-width:0;opacity:1"/> 
			</g>

			<g style="fill:none">
			<title>gene_s102,s1,s1,1106,1888,1</title>
			<polygon points="215.343214676224,328 215.343214676224,352 240.28246871583,352 240.28246871583,360.4 250.97072044709,340 240.28246871583,319.6 240.28246871583,328" style="fill:rgb(50,205,50);stroke:black;stroke-width:0;opacity:1"/> 
			</g>

			<g style="fill:none">
			<title>gene_s104,s1,s1,3486,3857,1</title>
			<polygon points="348.87802211153,328 348.87802211153,352 360.7098165472,352 360.7098165472,360.4 365.780585591058,340 360.7098165472,319.6 360.7098165472,328" style="fill:rgb(50,205,50);stroke:black;stroke-width:0;opacity:1"/> 
			</g>

			<g style="fill:none">
			<title>gene_s105,s1,s1,4343,4780,1</title>
			<polygon points="387.922488154538,328 387.922488154538,352 401.859130117847,352 401.859130117847,360.4 407.831976673551,340 401.859130117847,319.6 401.859130117847,328" style="fill:rgb(50,205,50);stroke:black;stroke-width:0;opacity:1"/> 
			</g>

			<g style="fill:none">
			<title>gene_s106,s1,s1,4815,5888,0</title>
			<polygon points="409.426558133884,340 424.092151621917,360.4 424.092151621917,352 458.311869760661,352 458.311869760661,328 424.092151621917,328 424.092151621917,319.6" style="fill:rgb(50,205,50);stroke:black;stroke-width:0;opacity:1"/> 
			</g>

			<g style="fill:none">
			<title>gene_s107,s1,s1,6005,6421,1</title>
			<polygon points="487.834406511967,328 487.834406511967,352 501.101324261937,352 501.101324261937,360.4 506.787146154781,340 501.101324261937,319.6 501.101324261937,328" style="fill:rgb(50,205,50);stroke:black;stroke-width:0;opacity:1"/> 
			</g>

			<g style="fill:none">
			<title>gene_s108,s1,s1,6664,7602,1</title>
			<polygon points="517.858097436521,328 517.858097436521,352 547.772445632365,352 547.772445632365,360.4 560.592880573442,340 547.772445632365,319.6 547.772445632365,328" style="fill:rgb(50,205,50);stroke:black;stroke-width:0;opacity:1"/> 
			</g>

			<g style="fill:none">
			<title>gene_s109,s1,s1,7789,8088,0</title>
			<polygon points="569.112501518649,340 573.199186004131,360.4 573.199186004131,352 582.734783136921,352 582.734783136921,328 573.199186004131,328 573.199186004131,319.6" style="fill:rgb(50,205,50);stroke:black;stroke-width:0;opacity:1"/> 
			</g>

			<g style="fill:none">
			<title>gene_s110,s1,s1,8088,8360,0</title>
			<polygon points="582.734783136921,340 586.452435913012,360.4 586.452435913012,352 595.126959057223,352 595.126959057223,328 586.452435913012,328 586.452435913012,319.6" style="fill:rgb(50,205,50);stroke:black;stroke-width:0;opacity:1"/> 
			</g>

			<g style="fill:none">
			<title>gene_s104000,s1,s1000,3486,3857,1</title>
			<polygon points="742.557404932572,328 742.557404932572,352 754.389199368242,352 754.389199368242,360.4 759.459968412101,340 754.389199368242,319.6 754.389199368242,328" style="fill:rgb(50,205,50);stroke:black;stroke-width:0;opacity:1"/> 
			</g>

			<g style="fill:none">
			<title>gene_s105000,s1,s1000,4343,4780,1</title>
			<polygon points="781.60187097558,328 781.60187097558,352 795.53851293889,352 795.53851293889,360.4 801.511359494594,340 795.53851293889,319.6 795.53851293889,328" style="fill:rgb(50,205,50);stroke:black;stroke-width:0;opacity:1"/> 
			</g>

			<g style="fill:none">
			<title>gene_s106000,s1,s1000,4815,5888,0</title>
			<polygon points="803.105940954927,340 817.77153444296,360.4 817.77153444296,352 851.991252581704,352 851.991252581704,328 817.77153444296,328 817.77153444296,319.6" style="fill:rgb(50,205,50);stroke:black;stroke-width:0;opacity:1"/> 
			</g>

			<g style="fill:none">
			<title>gene_s1040000,s1,s10000,3486,3857,1</title>
			<polygon points="947.620580731382,328 947.620580731382,352 959.452375167052,352 959.452375167052,360.4 964.52314421091,340 959.452375167052,319.6 959.452375167052,328" style="fill:rgb(50,205,50);stroke:black;stroke-width:0;opacity:1"/> 
			</g>

			<g style="fill:none">
			<title>gene_s1050000,s1,s10000,4343,4780,1</title>
			<polygon points="986.66504677439,328 986.66504677439,352 1000.6016887377,352 1000.6016887377,360.4 1006.5745352934,340 1000.6016887377,319.6 1000.6016887377,328" style="fill:rgb(50,205,50);stroke:black;stroke-width:0;opacity:1"/> 
			</g>

			<g style="fill:none">
			<title>gene_s1060000,s1,s10000,4815,5888,0</title>
			<polygon points="1008.16911675374,340 1022.83471024177,360.4 1022.83471024177,352 1057.05442838051,352 1057.05442838051,328 1022.83471024177,328 1022.83471024177,319.6" style="fill:rgb(50,205,50);stroke:black;stroke-width:0;opacity:1"/> 
			</g>

			<g style="fill:none">
			<title>gene_s1070000,s1,s10000,6005,6421,1</title>
			<polygon points="1085.21018102296,328 1085.21018102296,352 1098.47709877293,352 1098.47709877293,360.4 1104.16292066578,340 1098.47709877293,319.6 1098.47709877293,328" style="fill:rgb(50,205,50);stroke:black;stroke-width:0;opacity:1"/> 
			</g>

			<g style="fill:none">
			<title>gene_s1080000,s1,s10000,6664,7602,1</title>
			<polygon points="1115.23387194752,328 1115.23387194752,352 1145.14822014336,352 1145.14822014336,360.4 1157.96865508444,340 1145.14822014336,319.6 1145.14822014336,328" style="fill:rgb(50,205,50);stroke:black;stroke-width:0;opacity:1"/> 
			</g>

			<g style="fill:none">
			<title>gene_s1090000,s1,s10000,7789,8088,0</title>
			<polygon points="1166.48827602964,340 1170.57496051513,360.4 1170.57496051513,352 1180.11055764792,352 1180.11055764792,328 1170.57496051513,328 1170.57496051513,319.6" style="fill:rgb(50,205,50);stroke:black;stroke-width:0;opacity:1"/> 
			</g>

			<g style="fill:none">
			<title>gene_s1100000,s1,s10000,8088,8360,0</title>
			<polygon points="1180.11055764792,340 1183.82821042401,360.4 1183.82821042401,352 1192.50273356822,352 1192.50273356822,328 1183.82821042401,328 1183.82821042401,319.6" style="fill:rgb(50,205,50);stroke:black;stroke-width:0;opacity:1"/> 
			</g>

			<g style="fill:none">
			<title>gene_s11000001,s1,s10000,8361,8560,0</title>
			<polygon points="1192.54829303851,340 1195.26819341514,360.4 1195.26819341514,352 1201.61462762726,352 1201.61462762726,328 1195.26819341514,328 1195.26819341514,319.6" style="fill:rgb(50,205,50);stroke:black;stroke-width:0;opacity:1"/> 
			</g>

			<g style="fill:none">
			<title>gene_s201,s2,s2,87,1109,1</title>
			<polygon points="168.963673915685,448 168.963673915685,472 201.556918964889,472 201.556918964889,480.4 215.525452557405,460 201.556918964889,439.6 201.556918964889,448" style="fill:rgb(50,205,50);stroke:black;stroke-width:0;opacity:1"/> 
			</g>

			<g style="fill:none">
			<title>gene_s202,s2,s2,1106,1888,1</title>
			<polygon points="215.388774146519,448 215.388774146519,472 240.328028186126,472 240.328028186126,480.4 251.016279917386,460 240.328028186126,439.6 240.328028186126,448" style="fill:rgb(50,205,50);stroke:black;stroke-width:0;opacity:1"/> 
			</g>

			<g style="fill:none">
			<title>gene_s203,s2,s2,2925,3119,1</title>
			<polygon points="298.261450613534,448 298.261450613534,472 304.448426679626,472 304.448426679626,480.4 307.099987850808,460 304.448426679626,439.6 304.448426679626,448" style="fill:rgb(50,205,50);stroke:black;stroke-width:0;opacity:1"/> 
			</g>

			<g style="fill:none">
			<title>gene_s204,s2,s2,3486,3857,1</title>
			<polygon points="323.820313449156,448 323.820313449156,472 335.652107884826,472 335.652107884826,480.4 340.722876928684,460 335.652107884826,439.6 335.652107884826,448" style="fill:rgb(50,205,50);stroke:black;stroke-width:0;opacity:1"/> 
			</g>

			<g style="fill:none">
			<title>gene_s205,s2,s2,4343,4780,1</title>
			<polygon points="362.864779492164,448 362.864779492164,472 376.801421455473,472 376.801421455473,480.4 382.774268011177,460 376.801421455473,439.6 376.801421455473,448" style="fill:rgb(50,205,50);stroke:black;stroke-width:0;opacity:1"/> 
			</g>

			<g style="fill:none">
			<title>gene_s206,s2,s2,4815,5888,0</title>
			<polygon points="384.36884947151,460 399.034442959543,480.4 399.034442959543,472 433.254161098287,472 433.254161098287,448 399.034442959543,448 399.034442959543,439.6" style="fill:rgb(50,205,50);stroke:black;stroke-width:0;opacity:1"/> 
			</g>

			<g style="fill:none">
			<title>gene_s207,s2,s2,6005,6421,1</title>
			<polygon points="438.584619122828,448 438.584619122828,472 438.584619122828,472 438.584619122828,480.4 457.537358765642,460 438.584619122828,439.6 438.584619122828,448" style="fill:rgb(255,165,0);stroke:black;stroke-width:0;opacity:1"/> 
			</g>

			<g style="fill:none">
			<title>gene_s208,s2,s2,6664,7602,1</title>
			<polygon points="468.608310047382,448 468.608310047382,472 498.522658243227,472 498.522658243227,480.4 511.343093184303,460 498.522658243227,439.6 498.522658243227,448" style="fill:rgb(50,205,50);stroke:black;stroke-width:0;opacity:1"/> 
			</g>

			<g style="fill:none">
			<title>gene_s209,s2,s2,7789,8088,0</title>
			<polygon points="519.86271412951,460 523.949398614992,480.4 523.949398614992,472 533.484995747783,472 533.484995747783,448 523.949398614992,448 523.949398614992,439.6" style="fill:rgb(50,205,50);stroke:black;stroke-width:0;opacity:1"/> 
			</g>

			<g style="fill:none">
			<title>gene_s210,s2,s2,8088,8360,0</title>
			<polygon points="533.484995747783,460 537.202648523873,480.4 537.202648523873,472 545.877171668084,472 545.877171668084,448 537.202648523873,448 537.202648523873,439.6" style="fill:rgb(50,205,50);stroke:black;stroke-width:0;opacity:1"/> 
			</g>

			<g style="fill:none">
			<title>gene_s203000,s2,s2000,2925,3119,1</title>
			<polygon points="640.00303729802,448 640.00303729802,472 646.190013364111,472 646.190013364111,480.4 648.841574535293,460 646.190013364111,439.6 646.190013364111,448" style="fill:rgb(50,205,50);stroke:black;stroke-width:0;opacity:1"/> 
			</g>

			<g style="fill:none">
			<title>gene_s204000,s2,s2000,3486,3857,1</title>
			<polygon points="665.561900133641,448 665.561900133641,472 677.393694569311,472 677.393694569311,480.4 682.46446361317,460 677.393694569311,439.6 677.393694569311,448" style="fill:rgb(50,205,50);stroke:black;stroke-width:0;opacity:1"/> 
			</g>

			<g style="fill:none">
			<title>gene_s205000,s2,s2000,4343,4780,1</title>
			<polygon points="704.606366176649,448 704.606366176649,472 718.543008139959,472 718.543008139959,480.4 724.515854695663,460 718.543008139959,439.6 718.543008139959,448" style="fill:rgb(50,205,50);stroke:black;stroke-width:0;opacity:1"/> 
			</g>

			<g style="fill:none">
			<title>gene_s206000,s2,s2000,4815,5888,0</title>
			<polygon points="726.110436155996,448 726.110436155996,472 774.995747782772,472 774.995747782772,448 " style="fill:rgb(255,165,0);stroke:black;stroke-width:0;opacity:0.5"/> 
			</g>

			<g style="fill:none">
			<title>gene_s2030000,s2,s20000,2925,3119,1</title>
			<polygon points="845.066213096829,448 845.066213096829,472 851.253189162921,472 851.253189162921,480.4 853.904750334103,460 851.253189162921,439.6 851.253189162921,448" style="fill:rgb(50,205,50);stroke:black;stroke-width:0;opacity:1"/> 
			</g>

			<g style="fill:none">
			<title>gene_s2040000,s2,s20000,3486,3857,1</title>
			<polygon points="870.625075932451,448 870.625075932451,472 882.456870368121,472 882.456870368121,480.4 887.527639411979,460 882.456870368121,439.6 882.456870368121,448" style="fill:rgb(50,205,50);stroke:black;stroke-width:0;opacity:1"/> 
			</g>

			<g style="fill:none">
			<title>gene_s2050000,s2,s20000,4343,4780,1</title>
			<polygon points="909.669541975459,448 909.669541975459,472 923.606183938768,472 923.606183938768,480.4 929.579030494472,460 923.606183938768,439.6 923.606183938768,448" style="fill:rgb(50,205,50);stroke:black;stroke-width:0;opacity:1"/> 
			</g>

			<g style="fill:none">
			<title>gene_s2060000,s2,s20000,4815,5888,0</title>
			<polygon points="931.173611954805,460 945.839205442838,480.4 945.839205442838,472 980.058923581582,472 980.058923581582,448 945.839205442838,448 945.839205442838,439.6" style="fill:rgb(50,205,50);stroke:black;stroke-width:0;opacity:1"/> 
			</g>

			<g style="fill:none">
			<title>gene_s2070000,s2,s20000,6005,6421,1</title>
			<polygon points="1008.21467622403,448 1008.21467622403,472 1019.58632000972,472 1019.58632000972,472 1027.16741586684,460 1019.58632000972,448 1019.58632000972,448" style="fill:rgb(255,165,0);stroke:black;stroke-width:0;opacity:1"/> 
			</g>

			<g style="fill:none">
			<title>gene_s2080000,s2,s20000,6664,7602,1</title>
			<polygon points="1038.23836714858,448 1038.23836714858,472 1068.15271534443,472 1068.15271534443,480.4 1080.97315028551,460 1068.15271534443,439.6 1068.15271534443,448" style="fill:rgb(50,205,50);stroke:black;stroke-width:0;opacity:1"/> 
			</g>

			<g style="fill:none">
			<title>gene_s2090000,s2,s20000,7789,8088,0</title>
			<polygon points="1089.49277123071,460 1093.5794557162,480.4 1093.5794557162,472 1103.11505284899,472 1103.11505284899,448 1093.5794557162,448 1093.5794557162,439.6" style="fill:rgb(50,205,50);stroke:black;stroke-width:0;opacity:1"/> 
			</g>

			<g style="fill:none">
			<title>gene_s2100000,s2,s20000,8088,8360,0</title>
			<polygon points="1103.11505284899,460 1106.83270562508,480.4 1106.83270562508,472 1115.50722876929,472 1115.50722876929,448 1106.83270562508,448 1106.83270562508,439.6" style="fill:rgb(50,205,50);stroke:black;stroke-width:0;opacity:1"/> 
			</g>

			<g style="fill:none">
			<title>gene_s301,s3,s3,87,1109,1</title>
			<polygon points="168.508079212732,568 168.508079212732,592 201.101324261937,592 201.101324261937,600.4 215.069857854453,580 201.101324261937,559.6 201.101324261937,568" style="fill:rgb(50,205,50);stroke:black;stroke-width:0;opacity:1"/> 
			</g>

			<g style="fill:none">
			<title>gene_s302,s3,s3,1106,1888,1</title>
			<polygon points="214.933179443567,568 214.933179443567,592 239.872433483173,592 239.872433483173,600.4 250.560685214433,580 239.872433483173,559.6 239.872433483173,568" style="fill:rgb(50,205,50);stroke:black;stroke-width:0;opacity:1"/> 
			</g>

			<g style="fill:none">
			<title>gene_s303,s3,s3,2925,3119,1</title>
			<polygon points="297.805855910582,568 297.805855910582,592 303.992831976674,592 303.992831976674,600.4 306.644393147856,580 303.992831976674,559.6 303.992831976674,568" style="fill:rgb(50,205,50);stroke:black;stroke-width:0;opacity:1"/> 
			</g>

			<g style="fill:none">
			<title>gene_s304,s3,s3,3486,3857,1</title>
			<polygon points="441.409306281132,568 441.409306281132,592 453.241100716802,592 453.241100716802,600.4 458.311869760661,580 453.241100716802,559.6 453.241100716802,568" style="fill:rgb(50,205,50);stroke:black;stroke-width:0;opacity:1"/> 
			</g>

			<g style="fill:none">
			<title>gene_s305,s3,s3,4343,4780,1</title>
			<polygon points="480.45377232414,568 480.45377232414,592 494.39041428745,592 494.39041428745,600.4 500.363260843154,580 494.39041428745,559.6 494.39041428745,568" style="fill:rgb(50,205,50);stroke:black;stroke-width:0;opacity:1"/> 
			</g>

			<g style="fill:none">
			<title>gene_s306,s3,s3,4815,5888,0</title>
			<polygon points="502.413437006439,580 517.079030494472,600.4 517.079030494472,592 551.298748633216,592 551.298748633216,568 517.079030494472,568 517.079030494472,559.6" style="fill:rgb(50,205,50);stroke:black;stroke-width:0;opacity:1"/> 
			</g>

			<g style="fill:none">
			<title>gene_s307,s3,s3,6005,6421,1</title>
			<polygon points="579.454501275665,568 579.454501275665,592 592.721419025635,592 592.721419025635,600.4 598.407240918479,580 592.721419025635,559.6 592.721419025635,568" style="fill:rgb(50,205,50);stroke:black;stroke-width:0;opacity:1"/> 
			</g>

			<g style="fill:none">
			<title>gene_s308,s3,s3,6664,7602,1</title>
			<polygon points="609.478192200219,568 609.478192200219,592 639.392540396064,592 639.392540396064,600.4 652.21297533714,580 639.392540396064,559.6 639.392540396064,568" style="fill:rgb(50,205,50);stroke:black;stroke-width:0;opacity:1"/> 
			</g>

			<g style="fill:none">
			<title>gene_s309,s3,s3,7789,8088,0</title>
			<polygon points="660.732596282347,580 664.819280767829,600.4 664.819280767829,592 674.35487790062,592 674.35487790062,568 664.819280767829,568 664.819280767829,559.6" style="fill:rgb(50,205,50);stroke:black;stroke-width:0;opacity:1"/> 
			</g>

			<g style="fill:none">
			<title>gene_s310,s3,s3,8088,8360,0</title>
			<polygon points="674.35487790062,580 678.07253067671,600.4 678.07253067671,592 686.747053820921,592 686.747053820921,568 678.07253067671,568 678.07253067671,559.6" style="fill:rgb(50,205,50);stroke:black;stroke-width:0;opacity:1"/> 
			</g>

			<g style="fill:none">
			<title>gene_s303000,s3,s3000,2925,3119,1</title>
			<polygon points="808.618636860649,568 808.618636860649,592 814.80561292674,592 814.80561292674,600.4 817.457174097923,580 814.80561292674,559.6 814.80561292674,568" style="fill:rgb(50,205,50);stroke:black;stroke-width:0;opacity:1"/> 
			</g>

			<g style="fill:none">
			<title>gene_s304000,s3,s3000,3486,3857,1</title>
			<polygon points="834.17749969627,568 834.17749969627,592 846.00929413194,592 846.00929413194,600.4 851.080063175799,580 846.00929413194,559.6 846.00929413194,568" style="fill:rgb(50,205,50);stroke:black;stroke-width:0;opacity:1"/> 
			</g>

			<g style="fill:none">
			<title>gene_s305000,s3,s3000,4343,4780,1</title>
			<polygon points="873.221965739278,568 873.221965739278,592 887.158607702588,592 887.158607702588,600.4 893.131454258292,580 887.158607702588,559.6 887.158607702588,568" style="fill:rgb(50,205,50);stroke:black;stroke-width:0;opacity:1"/> 
			</g>

			<g style="fill:none">
			<title>gene_s306000,s3,s3000,4815,5888,0</title>
			<polygon points="894.726035718625,580 909.391629206658,600.4 909.391629206658,592 943.611347345402,592 943.611347345402,568 909.391629206658,568 909.391629206658,559.6" style="fill:rgb(50,205,50);stroke:black;stroke-width:0;opacity:1"/> 
			</g>

			<g style="fill:none">
			<title>gene_s3030000,s3,s30000,2925,3119,1</title>
			<polygon points="1013.68181265946,568 1013.68181265946,592 1019.86878872555,592 1019.86878872555,600.4 1022.52034989673,580 1019.86878872555,559.6 1019.86878872555,568" style="fill:rgb(50,205,50);stroke:black;stroke-width:0;opacity:1"/> 
			</g>

			<g style="fill:none">
			<title>gene_s3040000,s3,s30000,3486,3857,1</title>
			<polygon points="1039.24067549508,568 1039.24067549508,592 1051.07246993075,592 1051.07246993075,600.4 1056.14323897461,580 1051.07246993075,559.6 1051.07246993075,568" style="fill:rgb(50,205,50);stroke:black;stroke-width:0;opacity:1"/> 
			</g>

			<g style="fill:none">
			<title>gene_s3050000,s3,s30000,4343,4780,1</title>
			<polygon points="1078.28514153809,568 1078.28514153809,592 1092.2217835014,592 1092.2217835014,600.4 1098.1946300571,580 1092.2217835014,559.6 1092.2217835014,568" style="fill:rgb(50,205,50);stroke:black;stroke-width:0;opacity:1"/> 
			</g>

			<g style="fill:none">
			<title>gene_s3060000,s3,s30000,4815,5888,0</title>
			<polygon points="1099.78921151743,580 1114.45480500547,600.4 1114.45480500547,592 1148.67452314421,592 1148.67452314421,568 1114.45480500547,568 1114.45480500547,559.6" style="fill:rgb(50,205,50);stroke:black;stroke-width:0;opacity:1"/> 
			</g>

			<g style="fill:none">
			<title>gene_s403000,s4,s4000,2925,3119,1</title>
			<polygon points="207.188069493379,688 207.188069493379,712 213.37504555947,712 213.37504555947,720.4 216.026606730652,700 213.37504555947,679.6 213.37504555947,688" style="fill:rgb(50,205,50);stroke:black;stroke-width:0;opacity:1"/> 
			</g>

			<g style="fill:none">
			<title>gene_s404000,s4,s4000,3486,3857,1</title>
			<polygon points="232.746932329,688 232.746932329,712 244.57872676467,712 244.57872676467,720.4 249.649495808529,700 244.57872676467,679.6 244.57872676467,688" style="fill:rgb(50,205,50);stroke:black;stroke-width:0;opacity:1"/> 
			</g>

			<g style="fill:none">
			<title>gene_s405000,s4,s4000,4343,4780,1</title>
			<polygon points="271.791398372008,688 271.791398372008,712 285.728040335318,712 285.728040335318,720.4 291.700886891022,700 285.728040335318,679.6 285.728040335318,688" style="fill:rgb(50,205,50);stroke:black;stroke-width:0;opacity:1"/> 
			</g>

			<g style="fill:none">
			<title>gene_s406000,s4,s4000,4815,5888,0</title>
			<polygon points="293.295468351355,700 307.961061839388,720.4 307.961061839388,712 342.180779978131,712 342.180779978131,688 307.961061839388,688 307.961061839388,679.6" style="fill:rgb(50,205,50);stroke:black;stroke-width:0;opacity:1"/> 
			</g>

			<g style="fill:none">
			<title>gene_s4020000,s4,s40000,1106,1888,1</title>
			<polygon points="374.938039120399,688 374.938039120399,712 399.877293160005,712 399.877293160005,720.4 410.565544891265,700 399.877293160005,679.6 399.877293160005,688" style="fill:rgb(50,205,50);stroke:black;stroke-width:0;opacity:1"/> 
			</g>

			<g style="fill:none">
			<title>gene_s4030000,s4,s40000,2925,3119,1</title>
			<polygon points="457.810715587413,688 457.810715587413,712 463.997691653505,712 463.997691653505,720.4 466.649252824687,700 463.997691653505,679.6 463.997691653505,688" style="fill:rgb(50,205,50);stroke:black;stroke-width:0;opacity:1"/> 
			</g>

			<g style="fill:none">
			<title>gene_s4040000,s4,s40000,3486,3857,1</title>
			<polygon points="483.369578423035,688 483.369578423035,712 495.201372858705,712 495.201372858705,720.4 500.272141902564,700 495.201372858705,679.6 495.201372858705,688" style="fill:rgb(50,205,50);stroke:black;stroke-width:0;opacity:1"/> 
			</g>

			<g style="fill:none">
			<title>gene_s4050000,s4,s40000,4343,4780,1</title>
			<polygon points="522.414044466043,688 522.414044466043,712 536.350686429352,712 536.350686429352,720.4 542.323532985057,700 536.350686429352,679.6 536.350686429352,688" style="fill:rgb(50,205,50);stroke:black;stroke-width:0;opacity:1"/> 
			</g>

			<g style="fill:none">
			<title>gene_s4060000,s4,s40000,4815,5888,0</title>
			<polygon points="543.918114445389,700 558.583707933422,720.4 558.583707933422,712 592.803426072166,712 592.803426072166,688 558.583707933422,688 558.583707933422,679.6" style="fill:rgb(50,205,50);stroke:black;stroke-width:0;opacity:1"/> 
			</g>

			<g style="fill:none">
			<title>gene_s4070000,s4,s40000,6005,6421,1</title>
			<polygon points="598.133884096708,688 598.133884096708,712 611.400801846677,712 611.400801846677,720.4 617.086623739521,700 611.400801846677,679.6 611.400801846677,688" style="fill:rgb(50,205,50);stroke:black;stroke-width:0;opacity:1"/> 
			</g>

			<g style="fill:none">
			<title>gene_s4080000,s4,s40000,6664,7602,1</title>
			<polygon points="628.157575021261,688 628.157575021261,712 658.071923217106,712 658.071923217106,720.4 670.892358158183,700 658.071923217106,679.6 658.071923217106,688" style="fill:rgb(50,205,50);stroke:black;stroke-width:0;opacity:1"/> 
			</g>

			<g style="fill:none">
			<title>gene_s4100000,s4,s40000,8088,8360,0</title>
			<polygon points="715.85955533957,700 719.57720811566,720.4 719.57720811566,712 728.251731259871,712 728.251731259871,688 719.57720811566,688 719.57720811566,679.6" style="fill:rgb(50,205,50);stroke:black;stroke-width:0;opacity:1"/> 
			</g>

			<g style="fill:none">
			<title>gene_s410000000,s4,s40000,8188,8260,1</title>
			<polygon points="720.415502369092,688 720.415502369092,712 722.711699671972,712 722.711699671972,720.4 723.695784230349,700 722.711699671972,679.6 722.711699671972,688" style="fill:rgb(50,205,50);stroke:black;stroke-width:0;opacity:1"/> 
			</g>


<g><title>s10000,2000,6000</title><rect x="879.873648402381" y="334" width="182.283440651197" height="12" style="fill:blue"   /></g>



			<g style="fill:none">
			<title>gene_s1030000,s1,s10000,2925,3119,1</title>
			<polygon points="922.06171789576,316 922.06171789576,364 922.06171789576,364 922.06171789576,371.2 930.900255133034,340 922.06171789576,308.8 922.06171789576,316" style="fill:red;stroke:black;stroke-width:0;opacity:1"/> 
			</g>

</svg>