<svg xmlns="http://www.w3.org/2000/svg" version="1.1" width="1200" height="600" style="background-color:white;">
<text x="108" y="63.75" font-size="15px" fill="green"  text-anchor='end' alignment-baseline="middle" >s1</text>
<text x="108" y="131.25" font-size="15px" fill="blue"  text-anchor='end' alignment-baseline="middle" >s2</text>
<text x="108" y="198.75" font-size="15px" fill="red"  text-anchor='end' alignment-baseline="middle" >s4</text>
<text x="108" y="536.25" font-size="15px" fill="black"  text-anchor='end' alignment-baseline="middle" >s3</text>

<line x1="120" y1="564" x2="1020" y2="564" style="stroke:green;stroke-width:0.5"/>
<line x1="120" y1="324" x2="120" y2="564" style="stroke:green;stroke-width:0.5;opacity:1"/>
<text x="120" y="579" font-size="13px" fill="green"  text-anchor='middle' font-family="Times New Roman">0</text>
<line x1="177.485947879407" y1="324" x2="177.485947879407" y2="564" style="stroke:green;stroke-width:0.5;opacity:1"/>
<text x="177.485947879407" y="579" font-size="13px" fill="green"  text-anchor='middle' font-family="Times New Roman">2,000</text>
<line x1="234.971895758815" y1="324" x2="234.971895758815" y2="564" style="stroke:green;stroke-width:0.5;opacity:1"/>
<text x="234.971895758815" y="579" font-size="13px" fill="green"  text-anchor='middle' font-family="Times New Roman">4,000</text>
<line x1="292.457843638222" y1="324" x2="292.457843638222" y2="564" style="stroke:green;stroke-width:0.5;opacity:1"/>
<text x="292.457843638222" y="579" font-size="13px" fill="green"  text-anchor='middle' font-family="Times New Roman">6,000</text>
<line x1="349.943791517629" y1="324" x2="349.943791517629" y2="564" style="stroke:green;stroke-width:0.5;opacity:1"/>
<text x="349.943791517629" y="579" font-size="13px" fill="green"  text-anchor='middle' font-family="Times New Roman">8,000</text>
<line x1="407.429739397036" y1="324" x2="407.429739397036" y2="564" style="stroke:green;stroke-width:0.5;opacity:1"/>
<text x="407.429739397036" y="579" font-size="13px" fill="green"  text-anchor='middle' font-family="Times New Roman">10,000</text>
<line x1="464.915687276444" y1="324" x2="464.915687276444" y2="564" style="stroke:green;stroke-width:0.5;opacity:1"/>
<text x="464.915687276444" y="579" font-size="13px" fill="green"  text-anchor='middle' font-family="Times New Roman">12,000</text>
<line x1="522.401635155851" y1="324" x2="522.401635155851" y2="564" style="stroke:green;stroke-width:0.5;opacity:1"/>
<text x="522.401635155851" y="579" font-size="13px" fill="green"  text-anchor='middle' font-family="Times New Roman">14,000</text>
<line x1="579.887583035258" y1="324" x2="579.887583035258" y2="564" style="stroke:green;stroke-width:0.5;opacity:1"/>
<text x="579.887583035258" y="579" font-size="13px" fill="green"  text-anchor='middle' font-family="Times New Roman">16,000</text>
<line x1="637.373530914665" y1="324" x2="637.373530914665" y2="564" style="stroke:green;stroke-width:0.5;opacity:1"/>
<text x="637.373530914665" y="579" font-size="13px" fill="green"  text-anchor='middle' font-family="Times New Roman">18,000</text>
<line x1="694.859478794073" y1="324" x2="694.859478794073" y2="564" style="stroke:green;stroke-width:0.5;opacity:1"/>
<text x="694.859478794073" y="579" font-size="13px" fill="green"  text-anchor='middle' font-family="Times New Roman">20,000</text>
<line x1="752.34542667348" y1="324" x2="752.34542667348" y2="564" style="stroke:green;stroke-width:0.5;opacity:1"/>
<text x="752.34542667348" y="579" font-size="13px" fill="green"  text-anchor='middle' font-family="Times New Roman">22,000</text>
<line x1="809.831374552887" y1="324" x2="809.831374552887" y2="564" style="stroke:green;stroke-width:0.5;opacity:1"/>
<text x="809.831374552887" y="579" font-size="13px" fill="green"  text-anchor='middle' font-family="Times New Roman">24,000</text>
<line x1="867.317322432294" y1="324" x2="867.317322432294" y2="564" style="stroke:green;stroke-width:0.5;opacity:1"/>
<text x="867.317322432294" y="579" font-size="13px" fill="green"  text-anchor='middle' font-family="Times New Roman">26,000</text>
<line x1="924.803270311702" y1="324" x2="924.803270311702" y2="564" style="stroke:green;stroke-width:0.5;opacity:1"/>
<text x="924.803270311702" y="579" font-size="13px" fill="green"  text-anchor='middle' font-family="Times New Roman">28,000</text>
<line x1="1020" y1="324" x2="1020" y2="564" style="stroke:green;stroke-width:0.5;opacity:1"/>
<text x="1020" y="579" font-size="13px" fill="green"  text-anchor='middle' font-family="Times New Roman">31,312bp</text>
<line x1="120" y1="18" x2="1020" y2="18" style="stroke:green;stroke-width:0.5"/>
<line x1="120" y1="258" x2="120" y2="18" style="stroke:green;stroke-width:0.5;opacity:1"/>
<text x="120" y="15" font-size="13px" fill="green"  text-anchor='middle' font-family="Times New Roman">0</text>
<line x1="177.485947879407" y1="258" x2="177.485947879407" y2="18" style="stroke:green;stroke-width:0.5;opacity:1"/>
<text x="177.485947879407" y="15" font-size="13px" fill="green"  text-anchor='middle' font-family="Times New Roman">2,000</text>
<line x1="234.971895758815" y1="258" x2="234.971895758815" y2="18" style="stroke:green;stroke-width:0.5;opacity:1"/>
<text x="234.971895758815" y="15" font-size="13px" fill="green"  text-anchor='middle' font-family="Times New Roman">4,000</text>
<line x1="292.457843638222" y1="258" x2="292.457843638222" y2="18" style="stroke:green;stroke-width:0.5;opacity:1"/>
<text x="292.457843638222" y="15" font-size="13px" fill="green"  text-anchor='middle' font-family="Times New Roman">6,000</text>
<line x1="349.943791517629" y1="258" x2="349.943791517629" y2="18" style="stroke:green;stroke-width:0.5;opacity:1"/>
<text x="349.943791517629" y="15" font-size="13px" fill="green"  text-anchor='middle' font-family="Times New Roman">8,000</text>
<line x1="407.429739397036" y1="258" x2="407.429739397036" y2="18" style="stroke:green;stroke-width:0.5;opacity:1"/>
<text x="407.429739397036" y="15" font-size="13px" fill="green"  text-anchor='middle' font-family="Times New Roman">10,000</text>
<line x1="464.915687276444" y1="258" x2="464.915687276444" y2="18" style="stroke:green;stroke-width:0.5;opacity:1"/>
<text x="464.915687276444" y="15" font-size="13px" fill="green"  text-anchor='middle' font-family="Times New Roman">12,000</text>
<line x1="522.401635155851" y1="258" x2="522.401635155851" y2="18" style="stroke:green;stroke-width:0.5;opacity:1"/>
<text x="522.401635155851" y="15" font-size="13px" fill="green"  text-anchor='middle' font-family="Times New Roman">14,000</text>
<line x1="579.887583035258" y1="258" x2="579.887583035258" y2="18" style="stroke:green;stroke-width:0.5;opacity:1"/>
<text x="579.887583035258" y="15" font-size="13px" fill="green"  text-anchor='middle' font-family="Times New Roman">16,000</text>
<line x1="637.373530914665" y1="258" x2="637.373530914665" y2="18" style="stroke:green;stroke-width:0.5;opacity:1"/>
<text x="637.373530914665" y="15" font-size="13px" fill="green"  text-anchor='middle' font-family="Times New Roman">18,000</text>
<line x1="694.859478794073" y1="258" x2="694.859478794073" y2="18" style="stroke:green;stroke-width:0.5;opacity:1"/>
<text x="694.859478794073" y="15" font-size="13px" fill="green"  text-anchor='middle' font-family="Times New Roman">20,000</text>
<line x1="752.34542667348" y1="258" x2="752.34542667348" y2="18" style="stroke:green;stroke-width:0.5;opacity:1"/>
<text x="752.34542667348" y="15" font-size="13px" fill="green"  text-anchor='middle' font-family="Times New Roman">22,000</text>
<line x1="809.831374552887" y1="258" x2="809.831374552887" y2="18" style="stroke:green;stroke-width:0.5;opacity:1"/>
<text x="809.831374552887" y="15" font-size="13px" fill="green"  text-anchor='middle' font-family="Times New Roman">24,000</text>
<line x1="867.317322432294" y1="258" x2="867.317322432294" y2="18" style="stroke:green;stroke-width:0.5;opacity:1"/>
<text x="867.317322432294" y="15" font-size="13px" fill="green"  text-anchor='middle' font-family="Times New Roman">26,000</text>
<line x1="924.803270311702" y1="258" x2="924.803270311702" y2="18" style="stroke:green;stroke-width:0.5;opacity:1"/>
<text x="924.803270311702" y="15" font-size="13px" fill="green"  text-anchor='middle' font-family="Times New Roman">28,000</text>
<line x1="1020" y1="258" x2="1020" y2="18" style="stroke:green;stroke-width:0.5;opacity:1"/>
<text x="1020" y="15" font-size="13px" fill="green"  text-anchor='middle' font-family="Times New Roman">31,312bp</text>






				<polygon points="120.02874297394,130.9125 120.02874297394,131.5875 420.364077669903,131.5875 420.364077669903,130.9125 " style="fill:rgb(50,205,50);stroke:black;stroke-width:0;opacity:0"/>




				<polygon points="420.335334695963,130.9125 420.335334695963,131.5875 430.711548288196,131.5875 430.711548288196,130.9125 " style="fill:rgb(50,205,50);stroke:black;stroke-width:0;opacity:0"/>




				<polygon points="445.083035258048,130.9125 445.083035258048,131.5875 721.27427184466,131.5875 721.27427184466,130.9125 " style="fill:rgb(50,205,50);stroke:black;stroke-width:0;opacity:0"/>




				<polygon points="735.645758814512,130.9125 735.645758814512,131.5875 1011.83699540112,131.5875 1011.83699540112,130.9125 " style="fill:rgb(50,205,50);stroke:black;stroke-width:0;opacity:0"/>




				<polygon points="120.02874297394,198.4125 120.02874297394,199.0875 396.219979560552,199.0875 396.219979560552,198.4125 " style="fill:rgb(50,205,50);stroke:black;stroke-width:0;opacity:0"/>




				<polygon points="120.02874297394,198.4125 120.02874297394,199.0875 396.219979560552,199.0875 396.219979560552,198.4125 " style="fill:rgb(50,205,50);stroke:black;stroke-width:0;opacity:0"/>




				<polygon points="120.02874297394,198.4125 120.02874297394,199.0875 396.219979560552,199.0875 396.219979560552,198.4125 " style="fill:rgb(50,205,50);stroke:black;stroke-width:0;opacity:0"/>




				<polygon points="125.173735309147,198.4125 125.173735309147,199.0875 135.54994890138,199.0875 135.54994890138,198.4125 " style="fill:rgb(50,205,50);stroke:black;stroke-width:0;opacity:0"/>




				<polygon points="410.591466530404,198.4125 410.591466530404,199.0875 686.782703117016,199.0875 686.782703117016,198.4125 " style="fill:rgb(50,205,50);stroke:black;stroke-width:0;opacity:0"/>




				<polygon points="410.591466530404,198.4125 410.591466530404,199.0875 686.782703117016,199.0875 686.782703117016,198.4125 " style="fill:rgb(50,205,50);stroke:black;stroke-width:0;opacity:0"/>




				<polygon points="410.591466530404,198.4125 410.591466530404,199.0875 686.782703117016,199.0875 686.782703117016,198.4125 " style="fill:rgb(50,205,50);stroke:black;stroke-width:0;opacity:0"/>




				<polygon points="415.736458865611,198.4125 415.736458865611,199.0875 426.112672457844,199.0875 426.112672457844,198.4125 " style="fill:rgb(50,205,50);stroke:black;stroke-width:0;opacity:0"/>




				<polygon points="701.154190086868,198.4125 701.154190086868,199.0875 977.34542667348,199.0875 977.34542667348,198.4125 " style="fill:rgb(50,205,50);stroke:black;stroke-width:0;opacity:0"/>




				<polygon points="701.154190086868,198.4125 701.154190086868,199.0875 977.34542667348,199.0875 977.34542667348,198.4125 " style="fill:rgb(50,205,50);stroke:black;stroke-width:0;opacity:0"/>




				<polygon points="701.154190086868,198.4125 701.154190086868,199.0875 977.34542667348,199.0875 977.34542667348,198.4125 " style="fill:rgb(50,205,50);stroke:black;stroke-width:0;opacity:0"/>




				<polygon points="706.299182422075,198.4125 706.299182422075,199.0875 716.675396014308,199.0875 716.675396014308,198.4125 " style="fill:rgb(50,205,50);stroke:black;stroke-width:0;opacity:0"/>








<polygon points="560.169902912621,66.1125 729.466019417476,66.1125 420.364077669903,128.8875 226.923863055697,128.8875" style="stroke:black;stroke-width:0.2;fill:orange;opacity:0.437583593401694"/>








<polygon points="735.645758814512,133.6125 1011.83699540112,133.6125 977.34542667348,196.3875 701.154190086868,196.3875" style="stroke:black;stroke-width:0.2;fill:orange;opacity:0.5"/>








<polygon points="743.837506387328,66.1125 1020.02874297394,66.1125 420.364077669903,128.8875 120.02874297394,128.8875" style="stroke:black;stroke-width:0.2;fill:orange;opacity:0.459804766006316"/>








<polygon points="426.112672457844,66.1125 533.036535513541,66.1125 552.006898313746,128.8875 445.083035258048,128.8875" style="stroke:black;stroke-width:0.2;fill:orange;opacity:0.5"/>








<polygon points="445.083035258048,133.6125 721.27427184466,133.6125 686.782703117016,196.3875 410.591466530404,196.3875" style="stroke:black;stroke-width:0.2;fill:orange;opacity:0.5"/>








<polygon points="420.335334695963,133.6125 430.711548288196,133.6125 135.54994890138,196.3875 125.173735309147,196.3875" style="stroke:black;stroke-width:0.2;fill:orange;opacity:0.5"/>








<polygon points="445.083035258048,133.6125 721.27427184466,133.6125 977.34542667348,196.3875 701.154190086868,196.3875" style="stroke:black;stroke-width:0.2;fill:orange;opacity:0.5"/>








<polygon points="120.02874297394,133.6125 420.364077669903,133.6125 396.219979560552,196.3875 120.02874297394,196.3875" style="stroke:black;stroke-width:0.2;fill:orange;opacity:0.459804766006316"/>








<polygon points="120.02874297394,66.1125 411.741185487992,66.1125 721.27427184466,128.8875 450.228027593255,128.8875" style="stroke:black;stroke-width:0.2;fill:orange;opacity:0.45325737657026"/>








<polygon points="735.645758814512,133.6125 1011.83699540112,133.6125 396.219979560552,196.3875 120.02874297394,196.3875" style="stroke:black;stroke-width:0.2;fill:orange;opacity:0.5"/>








<polygon points="120.02874297394,66.1125 411.741185487992,66.1125 1011.83699540112,128.8875 740.790751149719,128.8875" style="stroke:black;stroke-width:0.2;fill:orange;opacity:0.45325737657026"/>








<polygon points="426.112672457844,66.1125 533.036535513541,66.1125 226.952606029637,128.8875 120.02874297394,128.8875" style="stroke:black;stroke-width:0.2;fill:orange;opacity:0.5"/>








<polygon points="445.083035258048,133.6125 721.27427184466,133.6125 396.219979560552,196.3875 120.02874297394,196.3875" style="stroke:black;stroke-width:0.2;fill:orange;opacity:0.5"/>








<polygon points="560.169902912621,66.1125 729.466019417476,66.1125 1011.83699540112,128.8875 842.54087889627,128.8875" style="stroke:black;stroke-width:0.2;fill:orange;opacity:0.5"/>








<polygon points="743.837506387328,66.1125 1020.02874297394,66.1125 721.27427184466,128.8875 445.083035258048,128.8875" style="stroke:black;stroke-width:0.2;fill:orange;opacity:0.5"/>








<polygon points="420.335334695963,133.6125 430.711548288196,133.6125 716.675396014308,196.3875 706.299182422075,196.3875" style="stroke:black;stroke-width:0.2;fill:orange;opacity:0.5"/>








<polygon points="560.169902912621,66.1125 729.466019417476,66.1125 721.27427184466,128.8875 551.978155339806,128.8875" style="stroke:black;stroke-width:0.2;fill:orange;opacity:0.5"/>








<polygon points="426.112672457844,66.1125 533.036535513541,66.1125 842.56962187021,128.8875 735.645758814512,128.8875" style="stroke:black;stroke-width:0.2;fill:orange;opacity:0.5"/>








<polygon points="120.02874297394,133.6125 420.364077669903,133.6125 686.782703117016,196.3875 410.591466530404,196.3875" style="stroke:black;stroke-width:0.2;fill:orange;opacity:0.459804766006316"/>








<polygon points="735.645758814512,133.6125 1011.83699540112,133.6125 686.782703117016,196.3875 410.591466530404,196.3875" style="stroke:black;stroke-width:0.2;fill:orange;opacity:0.5"/>








<polygon points="420.335334695963,133.6125 430.711548288196,133.6125 426.112672457844,196.3875 415.736458865611,196.3875" style="stroke:black;stroke-width:0.2;fill:orange;opacity:0.5"/>








<polygon points="743.837506387328,66.1125 1020.02874297394,66.1125 1011.83699540112,128.8875 735.645758814512,128.8875" style="stroke:black;stroke-width:0.2;fill:orange;opacity:0.5"/>








<polygon points="120.02874297394,66.1125 411.741185487992,66.1125 420.364077669903,128.8875 125.173735309147,128.8875" style="stroke:black;stroke-width:0.2;fill:orange;opacity:0.418984607075344"/>








<polygon points="120.02874297394,133.6125 420.364077669903,133.6125 977.34542667348,196.3875 701.154190086868,196.3875" style="stroke:black;stroke-width:0.2;fill:orange;opacity:0.459804766006316"/>



<rect x="120" y="63.4125" width="291.712442514052" height="0.675" style="fill:blue"   />




				<polygon points="120.02874297394,63.4125 120.02874297394,64.0875 411.741185487992,64.0875 411.741185487992,63.4125 " style="fill:rgb(50,205,50);stroke:black;stroke-width:0;opacity:0"/>

<rect x="426.083929483904" y="63.4125" width="303.353346959632" height="0.675" style="fill:blue"   />




				<polygon points="426.112672457844,63.4125 426.112672457844,64.0875 533.036535513541,64.0875 533.036535513541,63.4125 " style="fill:rgb(50,205,50);stroke:black;stroke-width:0;opacity:0"/>




				<polygon points="560.169902912621,63.4125 560.169902912621,64.0875 729.466019417476,64.0875 729.466019417476,63.4125 " style="fill:rgb(50,205,50);stroke:black;stroke-width:0;opacity:0"/>

<rect x="743.808763413388" y="63.4125" width="276.191236586612" height="0.675" style="fill:blue"   />




				<polygon points="743.837506387328,63.4125 743.837506387328,64.0875 1020.02874297394,64.0875 1020.02874297394,63.4125 " style="fill:rgb(50,205,50);stroke:black;stroke-width:0;opacity:0"/>

<rect x="120" y="130.9125" width="310.682805314257" height="0.675" style="fill:blue"   />




				<polygon points="120.02874297394,130.9125 120.02874297394,131.5875 420.364077669903,131.5875 420.364077669903,130.9125 " style="fill:rgb(50,205,50);stroke:black;stroke-width:0;opacity:0"/>




				<polygon points="120.02874297394,130.9125 120.02874297394,131.5875 226.952606029637,131.5875 226.952606029637,130.9125 " style="fill:rgb(50,205,50);stroke:black;stroke-width:0;opacity:0"/>




				<polygon points="125.173735309147,130.9125 125.173735309147,131.5875 420.364077669903,131.5875 420.364077669903,130.9125 " style="fill:rgb(50,205,50);stroke:black;stroke-width:0;opacity:0"/>




				<polygon points="226.923863055697,130.9125 226.923863055697,131.5875 420.364077669903,131.5875 420.364077669903,130.9125 " style="fill:rgb(50,205,50);stroke:black;stroke-width:0;opacity:0"/>

<rect x="445.054292284108" y="130.9125" width="276.191236586612" height="0.675" style="fill:blue"   />




				<polygon points="445.083035258048,130.9125 445.083035258048,131.5875 721.27427184466,131.5875 721.27427184466,130.9125 " style="fill:rgb(50,205,50);stroke:black;stroke-width:0;opacity:0"/>




				<polygon points="445.083035258048,130.9125 445.083035258048,131.5875 552.006898313746,131.5875 552.006898313746,130.9125 " style="fill:rgb(50,205,50);stroke:black;stroke-width:0;opacity:0"/>




				<polygon points="450.228027593255,130.9125 450.228027593255,131.5875 721.27427184466,131.5875 721.27427184466,130.9125 " style="fill:rgb(50,205,50);stroke:black;stroke-width:0;opacity:0"/>




				<polygon points="551.978155339806,130.9125 551.978155339806,131.5875 721.27427184466,131.5875 721.27427184466,130.9125 " style="fill:rgb(50,205,50);stroke:black;stroke-width:0;opacity:0"/>

<rect x="735.617015840572" y="130.9125" width="276.191236586612" height="0.675" style="fill:blue"   />




				<polygon points="735.645758814512,130.9125 735.645758814512,131.5875 842.56962187021,131.5875 842.56962187021,130.9125 " style="fill:rgb(50,205,50);stroke:black;stroke-width:0;opacity:0"/>




				<polygon points="735.645758814512,130.9125 735.645758814512,131.5875 1011.83699540112,131.5875 1011.83699540112,130.9125 " style="fill:rgb(50,205,50);stroke:black;stroke-width:0;opacity:0"/>




				<polygon points="740.790751149719,130.9125 740.790751149719,131.5875 1011.83699540112,131.5875 1011.83699540112,130.9125 " style="fill:rgb(50,205,50);stroke:black;stroke-width:0;opacity:0"/>




				<polygon points="842.54087889627,130.9125 842.54087889627,131.5875 1011.83699540112,131.5875 1011.83699540112,130.9125 " style="fill:rgb(50,205,50);stroke:black;stroke-width:0;opacity:0"/>

<rect x="120" y="198.4125" width="276.191236586612" height="0.675" style="fill:blue"   />

<rect x="410.562723556464" y="198.4125" width="276.191236586612" height="0.675" style="fill:blue"   />

<rect x="701.125447112928" y="198.4125" width="276.191236586612" height="0.675" style="fill:blue"   />

<rect x="120" y="535.9125" width="286.538707204905" height="0.675" style="fill:blue"   />




				<polygon points="120.02874297394,535.9125 120.02874297394,536.5875 406.567450178845,536.5875 406.567450178845,535.9125 " style="fill:rgb(50,205,50);stroke:black;stroke-width:0;opacity:0"/>




				<polygon points="120.02874297394,535.9125 120.02874297394,536.5875 406.567450178845,536.5875 406.567450178845,535.9125 " style="fill:rgb(50,205,50);stroke:black;stroke-width:0;opacity:0"/>




				<polygon points="120.02874297394,535.9125 120.02874297394,536.5875 406.567450178845,536.5875 406.567450178845,535.9125 " style="fill:rgb(50,205,50);stroke:black;stroke-width:0;opacity:0"/>




				<polygon points="125.173735309147,535.9125 125.173735309147,536.5875 135.54994890138,536.5875 135.54994890138,535.9125 " style="fill:rgb(50,205,50);stroke:black;stroke-width:0;opacity:0"/>

<rect x="420.910194174757" y="535.9125" width="276.191236586612" height="0.675" style="fill:blue"   />




				<polygon points="420.938937148697,535.9125 420.938937148697,536.5875 697.130173735309,536.5875 697.130173735309,535.9125 " style="fill:rgb(50,205,50);stroke:black;stroke-width:0;opacity:0"/>




				<polygon points="420.938937148697,535.9125 420.938937148697,536.5875 697.130173735309,536.5875 697.130173735309,535.9125 " style="fill:rgb(50,205,50);stroke:black;stroke-width:0;opacity:0"/>




				<polygon points="420.938937148697,535.9125 420.938937148697,536.5875 697.130173735309,536.5875 697.130173735309,535.9125 " style="fill:rgb(50,205,50);stroke:black;stroke-width:0;opacity:0"/>




				<polygon points="426.083929483904,535.9125 426.083929483904,536.5875 436.460143076137,536.5875 436.460143076137,535.9125 " style="fill:rgb(50,205,50);stroke:black;stroke-width:0;opacity:0"/>

<rect x="711.472917731221" y="535.9125" width="276.191236586612" height="0.675" style="fill:blue"   />




				<polygon points="711.501660705161,535.9125 711.501660705161,536.5875 987.692897291773,536.5875 987.692897291773,535.9125 " style="fill:rgb(50,205,50);stroke:black;stroke-width:0;opacity:0"/>




				<polygon points="711.501660705161,535.9125 711.501660705161,536.5875 987.692897291773,536.5875 987.692897291773,535.9125 " style="fill:rgb(50,205,50);stroke:black;stroke-width:0;opacity:0"/>




				<polygon points="711.501660705161,535.9125 711.501660705161,536.5875 987.692897291773,536.5875 987.692897291773,535.9125 " style="fill:rgb(50,205,50);stroke:black;stroke-width:0;opacity:0"/>




				<polygon points="716.646653040368,535.9125 716.646653040368,536.5875 727.022866632601,536.5875 727.022866632601,535.9125 " style="fill:rgb(50,205,50);stroke:black;stroke-width:0;opacity:0"/>






				<polygon points="122.500638732754,62.4 122.500638732754,65.1 143.083482370976,65.1 143.083482370976,65.775 151.904701073071,63.75 143.083482370976,61.725 143.083482370976,62.4" style="fill:rgb(50,205,50);stroke:black;stroke-width:0;opacity:0.8"/>




				<polygon points="151.789729177312,62.4 151.789729177312,65.1 167.543753193664,65.1 167.543753193664,65.775 174.2954777721,63.75 167.543753193664,61.725 167.543753193664,62.4" style="fill:rgb(50,205,50);stroke:black;stroke-width:0;opacity:0.8"/>




				<polygon points="204.073198773633,62.4 204.073198773633,65.1 207.996614716403,65.1 207.996614716403,65.775 209.678078691875,63.75 207.996614716403,61.725 207.996614716403,62.4" style="fill:rgb(50,205,50);stroke:black;stroke-width:0;opacity:0.8"/>




				<polygon points="220.198007153807,62.4 220.198007153807,65.1 227.682677567706,65.1 227.682677567706,65.775 230.890393459377,63.75 227.682677567706,61.725 227.682677567706,62.4" style="fill:rgb(50,205,50);stroke:black;stroke-width:0;opacity:0.8"/>




				<polygon points="244.830735820133,62.4 244.830735820133,65.1 253.643331630046,65.1 253.643331630046,65.775 257.420158405723,63.75 253.643331630046,61.725 253.643331630046,62.4" style="fill:rgb(50,205,50);stroke:black;stroke-width:0;opacity:0.8"/>




				<polygon points="258.397419519673,63.75 267.658405723046,65.775 267.658405723046,65.1 289.267373530915,65.1 289.267373530915,62.4 267.658405723046,62.4 267.658405723046,61.725" style="fill:rgb(50,205,50);stroke:black;stroke-width:0;opacity:0.8"/>




				<polygon points="292.60155850792,62.4 292.60155850792,65.1 300.99163260092,65.1 300.99163260092,65.775 304.587378640777,63.75 300.99163260092,61.725 300.99163260092,62.4" style="fill:rgb(50,205,50);stroke:black;stroke-width:0;opacity:0.8"/>




				<polygon points="311.543178334185,62.4 311.543178334185,65.1 330.435935104752,65.1 330.435935104752,65.775 338.532830863567,63.75 330.435935104752,61.725 330.435935104752,62.4" style="fill:rgb(50,205,50);stroke:black;stroke-width:0;opacity:0.8"/>




				<polygon points="343.879024016352,63.75 346.465891670925,65.775 346.465891670925,65.1 352.501916198263,65.1 352.501916198263,62.4 346.465891670925,62.4 346.465891670925,61.725" style="fill:rgb(50,205,50);stroke:black;stroke-width:0;opacity:0.8"/>




				<polygon points="352.473173224323,63.75 354.827222789985,65.775 354.827222789985,65.1 360.320005109862,65.1 360.320005109862,62.4 354.827222789985,62.4 354.827222789985,61.725" style="fill:rgb(50,205,50);stroke:black;stroke-width:0;opacity:0.8"/>




				<polygon points="360.320005109862,63.75 362.044583546244,65.775 362.044583546244,65.1 366.068599897803,65.1 366.068599897803,62.4 362.044583546244,62.4 362.044583546244,61.725" style="fill:rgb(50,205,50);stroke:black;stroke-width:0;opacity:0.8"/>




				<polygon points="428.584568216658,62.4 428.584568216658,65.1 449.16741185488,65.1 449.16741185488,65.775 457.988630556975,63.75 449.16741185488,61.725 449.16741185488,62.4" style="fill:rgb(50,205,50);stroke:black;stroke-width:0;opacity:0.8"/>




				<polygon points="457.873658661216,62.4 457.873658661216,65.1 473.627682677568,65.1 473.627682677568,65.775 480.379407256004,63.75 473.627682677568,61.725 473.627682677568,62.4" style="fill:rgb(50,205,50);stroke:black;stroke-width:0;opacity:0.8"/>




				<polygon points="510.157128257537,62.4 510.157128257537,65.1 514.080544200307,65.1 514.080544200307,65.775 515.762008175779,63.75 514.080544200307,61.725 514.080544200307,62.4" style="fill:rgb(50,205,50);stroke:black;stroke-width:0;opacity:0.8"/>




				<polygon points="526.281936637711,62.4 526.281936637711,65.1 533.76660705161,65.1 533.76660705161,65.775 536.974322943281,63.75 533.76660705161,61.725 533.76660705161,62.4" style="fill:rgb(50,205,50);stroke:black;stroke-width:0;opacity:0.8"/>




				<polygon points="550.914665304037,62.4 550.914665304037,65.1 559.72726111395,65.1 559.72726111395,65.775 563.504087889627,63.75 559.72726111395,61.725 559.72726111395,62.4" style="fill:rgb(50,205,50);stroke:black;stroke-width:0;opacity:0.8"/>




				<polygon points="564.481349003577,63.75 573.742335206949,65.775 573.742335206949,65.1 595.351303014819,65.1 595.351303014819,62.4 573.742335206949,62.4 573.742335206949,61.725" style="fill:rgb(50,205,50);stroke:black;stroke-width:0;opacity:0.8"/>




				<polygon points="598.685487991824,62.4 598.685487991824,65.1 607.075562084824,65.1 607.075562084824,65.775 610.671308124681,63.75 607.075562084824,61.725 607.075562084824,62.4" style="fill:rgb(50,205,50);stroke:black;stroke-width:0;opacity:0.8"/>




				<polygon points="617.627107818089,62.4 617.627107818089,65.1 636.519864588656,65.1 636.519864588656,65.775 644.616760347471,63.75 636.519864588656,61.725 636.519864588656,62.4" style="fill:rgb(50,205,50);stroke:black;stroke-width:0;opacity:0.8"/>




				<polygon points="649.962953500255,63.75 652.549821154829,65.775 652.549821154829,65.1 658.585845682167,65.1 658.585845682167,62.4 652.549821154829,62.4 652.549821154829,61.725" style="fill:rgb(50,205,50);stroke:black;stroke-width:0;opacity:0.8"/>




				<polygon points="658.557102708227,63.75 660.911152273889,65.775 660.911152273889,65.1 666.403934593766,65.1 666.403934593766,62.4 660.911152273889,62.4 660.911152273889,61.725" style="fill:rgb(50,205,50);stroke:black;stroke-width:0;opacity:0.8"/>




				<polygon points="746.309402146142,62.4 746.309402146142,65.1 766.892245784364,65.1 766.892245784364,65.775 775.713464486459,63.75 766.892245784364,61.725 766.892245784364,62.4" style="fill:rgb(50,205,50);stroke:black;stroke-width:0;opacity:0.8"/>




				<polygon points="775.5984925907,62.4 775.5984925907,65.1 791.352516607052,65.1 791.352516607052,65.775 798.104241185488,63.75 791.352516607052,61.725 791.352516607052,62.4" style="fill:rgb(50,205,50);stroke:black;stroke-width:0;opacity:0.8"/>




				<polygon points="827.881962187021,62.4 827.881962187021,65.1 831.80537812979,65.1 831.80537812979,65.775 833.486842105263,63.75 831.80537812979,61.725 831.80537812979,62.4" style="fill:rgb(50,205,50);stroke:black;stroke-width:0;opacity:0.8"/>




				<polygon points="844.006770567195,62.4 844.006770567195,65.1 851.491440981094,65.1 851.491440981094,65.775 854.699156872764,63.75 851.491440981094,61.725 851.491440981094,62.4" style="fill:rgb(50,205,50);stroke:black;stroke-width:0;opacity:0.8"/>




				<polygon points="868.639499233521,62.4 868.639499233521,65.1 877.452095043434,65.1 877.452095043434,65.775 881.228921819111,63.75 877.452095043434,61.725 877.452095043434,62.4" style="fill:rgb(50,205,50);stroke:black;stroke-width:0;opacity:0.8"/>




				<polygon points="882.206182933061,63.75 891.467169136433,65.775 891.467169136433,65.1 913.076136944302,65.1 913.076136944302,62.4 891.467169136433,62.4 891.467169136433,61.725" style="fill:rgb(50,205,50);stroke:black;stroke-width:0;opacity:0.8"/>




				<polygon points="916.410321921308,62.4 916.410321921308,65.1 924.800396014308,65.1 924.800396014308,65.775 928.396142054165,63.75 924.800396014308,61.725 924.800396014308,62.4" style="fill:rgb(50,205,50);stroke:black;stroke-width:0;opacity:0.8"/>




				<polygon points="935.351941747573,62.4 935.351941747573,65.1 954.24469851814,65.1 954.24469851814,65.775 962.341594276955,63.75 954.24469851814,61.725 954.24469851814,62.4" style="fill:rgb(50,205,50);stroke:black;stroke-width:0;opacity:0.8"/>




				<polygon points="967.687787429739,63.75 970.274655084313,65.775 970.274655084313,65.1 976.31067961165,65.1 976.31067961165,62.4 970.274655084313,62.4 970.274655084313,61.725" style="fill:rgb(50,205,50);stroke:black;stroke-width:0;opacity:0.8"/>




				<polygon points="976.281936637711,63.75 978.635986203373,65.775 978.635986203373,65.1 984.12876852325,65.1 984.12876852325,62.4 978.635986203373,62.4 978.635986203373,61.725" style="fill:rgb(50,205,50);stroke:black;stroke-width:0;opacity:0.8"/>




				<polygon points="122.500638732754,129.9 122.500638732754,132.6 143.083482370976,132.6 143.083482370976,133.275 151.904701073071,131.25 143.083482370976,129.225 143.083482370976,129.9" style="fill:rgb(50,205,50);stroke:black;stroke-width:0;opacity:0.8"/>




				<polygon points="151.789729177312,129.9 151.789729177312,132.6 167.543753193664,132.6 167.543753193664,133.275 174.2954777721,131.25 167.543753193664,129.225 167.543753193664,129.9" style="fill:rgb(50,205,50);stroke:black;stroke-width:0;opacity:0.8"/>




				<polygon points="204.073198773633,129.9 204.073198773633,132.6 207.996614716403,132.6 207.996614716403,133.275 209.678078691875,131.25 207.996614716403,129.225 207.996614716403,129.9" style="fill:rgb(50,205,50);stroke:black;stroke-width:0;opacity:0.8"/>




				<polygon points="220.198007153807,129.9 220.198007153807,132.6 227.682677567706,132.6 227.682677567706,133.275 230.890393459377,131.25 227.682677567706,129.225 227.682677567706,129.9" style="fill:rgb(50,205,50);stroke:black;stroke-width:0;opacity:0.8"/>




				<polygon points="244.830735820133,129.9 244.830735820133,132.6 253.643331630046,132.6 253.643331630046,133.275 257.420158405723,131.25 253.643331630046,129.225 253.643331630046,129.9" style="fill:rgb(50,205,50);stroke:black;stroke-width:0;opacity:0.8"/>




				<polygon points="258.397419519673,131.25 267.658405723046,133.275 267.658405723046,132.6 289.267373530915,132.6 289.267373530915,129.9 267.658405723046,129.9 267.658405723046,129.225" style="fill:rgb(50,205,50);stroke:black;stroke-width:0;opacity:0.8"/>




				<polygon points="292.60155850792,129.9 292.60155850792,132.6 300.99163260092,132.6 300.99163260092,133.275 304.587378640777,131.25 300.99163260092,129.225 300.99163260092,129.9" style="fill:rgb(50,205,50);stroke:black;stroke-width:0;opacity:0.8"/>




				<polygon points="311.543178334185,129.9 311.543178334185,132.6 330.435935104752,132.6 330.435935104752,133.275 338.532830863567,131.25 330.435935104752,129.225 330.435935104752,129.9" style="fill:rgb(50,205,50);stroke:black;stroke-width:0;opacity:0.8"/>




				<polygon points="343.879024016352,131.25 346.465891670925,133.275 346.465891670925,132.6 352.501916198263,132.6 352.501916198263,129.9 346.465891670925,129.9 346.465891670925,129.225" style="fill:rgb(50,205,50);stroke:black;stroke-width:0;opacity:0.8"/>




				<polygon points="352.473173224323,131.25 354.827222789985,133.275 354.827222789985,132.6 360.320005109862,132.6 360.320005109862,129.9 354.827222789985,129.9 354.827222789985,129.225" style="fill:rgb(50,205,50);stroke:black;stroke-width:0;opacity:0.8"/>




				<polygon points="447.554931016863,129.9 447.554931016863,132.6 468.137774655084,132.6 468.137774655084,133.275 476.958993357179,131.25 468.137774655084,129.225 468.137774655084,129.9" style="fill:rgb(50,205,50);stroke:black;stroke-width:0;opacity:0.8"/>




				<polygon points="476.844021461421,129.9 476.844021461421,132.6 492.598045477772,132.6 492.598045477772,133.275 499.349770056208,131.25 492.598045477772,129.225 492.598045477772,129.9" style="fill:rgb(50,205,50);stroke:black;stroke-width:0;opacity:0.8"/>




				<polygon points="529.127491057741,129.9 529.127491057741,132.6 533.050907000511,132.6 533.050907000511,133.275 534.732370975984,131.25 533.050907000511,129.225 533.050907000511,129.9" style="fill:rgb(50,205,50);stroke:black;stroke-width:0;opacity:0.8"/>




				<polygon points="545.252299437915,129.9 545.252299437915,132.6 552.736969851814,132.6 552.736969851814,133.275 555.944685743485,131.25 552.736969851814,129.225 552.736969851814,129.9" style="fill:rgb(50,205,50);stroke:black;stroke-width:0;opacity:0.8"/>




				<polygon points="569.885028104241,129.9 569.885028104241,132.6 578.697623914154,132.6 578.697623914154,133.275 582.474450689831,131.25 578.697623914154,129.225 578.697623914154,129.9" style="fill:rgb(50,205,50);stroke:black;stroke-width:0;opacity:0.8"/>




				<polygon points="583.451711803781,131.25 592.712698007154,133.275 592.712698007154,132.6 614.321665815023,132.6 614.321665815023,129.9 592.712698007154,129.9 592.712698007154,129.225" style="fill:rgb(50,205,50);stroke:black;stroke-width:0;opacity:0.8"/>




				<polygon points="617.655850792029,129.9 617.655850792029,132.6 626.045924885028,132.6 626.045924885028,133.275 629.641670924885,131.25 626.045924885028,129.225 626.045924885028,129.9" style="fill:rgb(50,205,50);stroke:black;stroke-width:0;opacity:0.8"/>




				<polygon points="636.597470618293,129.9 636.597470618293,132.6 655.49022738886,132.6 655.49022738886,133.275 663.587123147675,131.25 655.49022738886,129.225 655.49022738886,129.9" style="fill:rgb(50,205,50);stroke:black;stroke-width:0;opacity:0.8"/>




				<polygon points="668.93331630046,131.25 671.520183955033,133.275 671.520183955033,132.6 677.556208482371,132.6 677.556208482371,129.9 671.520183955033,129.9 671.520183955033,129.225" style="fill:rgb(50,205,50);stroke:black;stroke-width:0;opacity:0.8"/>




				<polygon points="677.527465508431,131.25 679.881515074093,133.275 679.881515074093,132.6 685.37429739397,132.6 685.37429739397,129.9 679.881515074093,129.9 679.881515074093,129.225" style="fill:rgb(50,205,50);stroke:black;stroke-width:0;opacity:0.8"/>




				<polygon points="738.117654573326,129.9 738.117654573326,132.6 758.700498211548,132.6 758.700498211548,133.275 767.521716913643,131.25 758.700498211548,129.225 758.700498211548,129.9" style="fill:rgb(50,205,50);stroke:black;stroke-width:0;opacity:0.8"/>




				<polygon points="767.406745017885,129.9 767.406745017885,132.6 783.160769034236,132.6 783.160769034236,133.275 789.912493612673,131.25 783.160769034236,129.225 783.160769034236,129.9" style="fill:rgb(50,205,50);stroke:black;stroke-width:0;opacity:0.8"/>




				<polygon points="819.690214614205,129.9 819.690214614205,132.6 823.613630556975,132.6 823.613630556975,133.275 825.295094532448,131.25 823.613630556975,129.225 823.613630556975,129.9" style="fill:rgb(50,205,50);stroke:black;stroke-width:0;opacity:0.8"/>




				<polygon points="835.815022994379,129.9 835.815022994379,132.6 843.299693408278,132.6 843.299693408278,133.275 846.507409299949,131.25 843.299693408278,129.225 843.299693408278,129.9" style="fill:rgb(50,205,50);stroke:black;stroke-width:0;opacity:0.8"/>




				<polygon points="860.447751660705,129.9 860.447751660705,132.6 869.260347470618,132.6 869.260347470618,133.275 873.037174246295,131.25 869.260347470618,129.225 869.260347470618,129.9" style="fill:rgb(50,205,50);stroke:black;stroke-width:0;opacity:0.8"/>




				<polygon points="874.014435360245,131.25 883.275421563618,133.275 883.275421563618,132.6 904.884389371487,132.6 904.884389371487,129.9 883.275421563618,129.9 883.275421563618,129.225" style="fill:rgb(50,205,50);stroke:black;stroke-width:0;opacity:0.8"/>




				<polygon points="908.218574348493,129.9 908.218574348493,132.6 916.608648441492,132.6 916.608648441492,133.275 920.204394481349,131.25 916.608648441492,129.225 916.608648441492,129.9" style="fill:rgb(50,205,50);stroke:black;stroke-width:0;opacity:0.8"/>




				<polygon points="927.160194174757,129.9 927.160194174757,132.6 946.052950945324,132.6 946.052950945324,133.275 954.149846704139,131.25 946.052950945324,129.225 946.052950945324,129.9" style="fill:rgb(50,205,50);stroke:black;stroke-width:0;opacity:0.8"/>




				<polygon points="959.496039856924,131.25 962.082907511497,133.275 962.082907511497,132.6 968.118932038835,132.6 968.118932038835,129.9 962.082907511497,129.9 962.082907511497,129.225" style="fill:rgb(50,205,50);stroke:black;stroke-width:0;opacity:0.8"/>




				<polygon points="968.090189064895,131.25 970.444238630557,133.275 970.444238630557,132.6 975.937020950434,132.6 975.937020950434,129.9 970.444238630557,129.9 970.444238630557,129.225" style="fill:rgb(50,205,50);stroke:black;stroke-width:0;opacity:0.8"/>




				<polygon points="122.500638732754,197.4 122.500638732754,200.1 143.083482370976,200.1 143.083482370976,200.775 151.904701073071,198.75 143.083482370976,196.725 143.083482370976,197.4" style="fill:rgb(50,205,50);stroke:black;stroke-width:0;opacity:0.8"/>




				<polygon points="151.789729177312,197.4 151.789729177312,200.1 167.543753193664,200.1 167.543753193664,200.775 174.2954777721,198.75 167.543753193664,196.725 167.543753193664,197.4" style="fill:rgb(50,205,50);stroke:black;stroke-width:0;opacity:0.8"/>




				<polygon points="204.073198773633,197.4 204.073198773633,200.1 207.996614716403,200.1 207.996614716403,200.775 209.678078691875,198.75 207.996614716403,196.725 207.996614716403,197.4" style="fill:rgb(50,205,50);stroke:black;stroke-width:0;opacity:0.8"/>




				<polygon points="220.198007153807,197.4 220.198007153807,200.1 227.682677567706,200.1 227.682677567706,200.775 230.890393459377,198.75 227.682677567706,196.725 227.682677567706,197.4" style="fill:rgb(50,205,50);stroke:black;stroke-width:0;opacity:0.8"/>




				<polygon points="244.830735820133,197.4 244.830735820133,200.1 253.643331630046,200.1 253.643331630046,200.775 257.420158405723,198.75 253.643331630046,196.725 253.643331630046,197.4" style="fill:rgb(50,205,50);stroke:black;stroke-width:0;opacity:0.8"/>




				<polygon points="258.397419519673,198.75 267.658405723046,200.775 267.658405723046,200.1 289.267373530915,200.1 289.267373530915,197.4 267.658405723046,197.4 267.658405723046,196.725" style="fill:rgb(50,205,50);stroke:black;stroke-width:0;opacity:0.8"/>




				<polygon points="292.60155850792,197.4 292.60155850792,200.1 300.99163260092,200.1 300.99163260092,200.775 304.587378640777,198.75 300.99163260092,196.725 300.99163260092,197.4" style="fill:rgb(50,205,50);stroke:black;stroke-width:0;opacity:0.8"/>




				<polygon points="311.543178334185,197.4 311.543178334185,200.1 330.435935104752,200.1 330.435935104752,200.775 338.532830863567,198.75 330.435935104752,196.725 330.435935104752,197.4" style="fill:rgb(50,205,50);stroke:black;stroke-width:0;opacity:0.8"/>




				<polygon points="343.879024016352,198.75 346.465891670925,200.775 346.465891670925,200.1 352.501916198263,200.1 352.501916198263,197.4 346.465891670925,197.4 346.465891670925,196.725" style="fill:rgb(50,205,50);stroke:black;stroke-width:0;opacity:0.8"/>




				<polygon points="352.473173224323,198.75 354.827222789985,200.775 354.827222789985,200.1 360.320005109862,200.1 360.320005109862,197.4 354.827222789985,197.4 354.827222789985,196.725" style="fill:rgb(50,205,50);stroke:black;stroke-width:0;opacity:0.8"/>




				<polygon points="355.347470618293,197.4 355.347470618293,200.1 356.816236586612,200.1 356.816236586612,200.775 357.445707715892,198.75 356.816236586612,196.725 356.816236586612,197.4" style="fill:rgb(50,205,50);stroke:black;stroke-width:0;opacity:0.8"/>




				<polygon points="413.063362289218,197.4 413.063362289218,200.1 433.64620592744,200.1 433.64620592744,200.775 442.467424629535,198.75 433.64620592744,196.725 433.64620592744,197.4" style="fill:rgb(50,205,50);stroke:black;stroke-width:0;opacity:0.8"/>




				<polygon points="442.352452733776,197.4 442.352452733776,200.1 458.106476750128,200.1 458.106476750128,200.775 464.858201328564,198.75 458.106476750128,196.725 458.106476750128,197.4" style="fill:rgb(50,205,50);stroke:black;stroke-width:0;opacity:0.8"/>




				<polygon points="494.635922330097,197.4 494.635922330097,200.1 498.559338272867,200.1 498.559338272867,200.775 500.240802248339,198.75 498.559338272867,196.725 498.559338272867,197.4" style="fill:rgb(50,205,50);stroke:black;stroke-width:0;opacity:0.8"/>




				<polygon points="510.760730710271,197.4 510.760730710271,200.1 518.24540112417,200.1 518.24540112417,200.775 521.45311701584,198.75 518.24540112417,196.725 518.24540112417,197.4" style="fill:rgb(50,205,50);stroke:black;stroke-width:0;opacity:0.8"/>




				<polygon points="535.393459376597,197.4 535.393459376597,200.1 544.20605518651,200.1 544.20605518651,200.775 547.982881962187,198.75 544.20605518651,196.725 544.20605518651,197.4" style="fill:rgb(50,205,50);stroke:black;stroke-width:0;opacity:0.8"/>




				<polygon points="548.960143076137,198.75 558.221129279509,200.775 558.221129279509,200.1 579.830097087378,200.1 579.830097087378,197.4 558.221129279509,197.4 558.221129279509,196.725" style="fill:rgb(50,205,50);stroke:black;stroke-width:0;opacity:0.8"/>




				<polygon points="583.164282064384,197.4 583.164282064384,200.1 591.554356157384,200.1 591.554356157384,200.775 595.150102197241,198.75 591.554356157384,196.725 591.554356157384,197.4" style="fill:rgb(50,205,50);stroke:black;stroke-width:0;opacity:0.8"/>




				<polygon points="602.105901890649,197.4 602.105901890649,200.1 620.998658661216,200.1 620.998658661216,200.775 629.095554420031,198.75 620.998658661216,196.725 620.998658661216,197.4" style="fill:rgb(50,205,50);stroke:black;stroke-width:0;opacity:0.8"/>




				<polygon points="634.441747572816,198.75 637.028615227389,200.775 637.028615227389,200.1 643.064639754727,200.1 643.064639754727,197.4 637.028615227389,197.4 637.028615227389,196.725" style="fill:rgb(50,205,50);stroke:black;stroke-width:0;opacity:0.8"/>




				<polygon points="643.035896780787,198.75 645.389946346449,200.775 645.389946346449,200.1 650.882728666326,200.1 650.882728666326,197.4 645.389946346449,197.4 645.389946346449,196.725" style="fill:rgb(50,205,50);stroke:black;stroke-width:0;opacity:0.8"/>




				<polygon points="703.626085845682,197.4 703.626085845682,200.1 724.208929483904,200.1 724.208929483904,200.775 733.030148185999,198.75 724.208929483904,196.725 724.208929483904,197.4" style="fill:rgb(50,205,50);stroke:black;stroke-width:0;opacity:0.8"/>




				<polygon points="732.91517629024,197.4 732.91517629024,200.1 748.669200306592,200.1 748.669200306592,200.775 755.420924885028,198.75 748.669200306592,196.725 748.669200306592,197.4" style="fill:rgb(50,205,50);stroke:black;stroke-width:0;opacity:0.8"/>




				<polygon points="785.198645886561,197.4 785.198645886561,200.1 789.122061829331,200.1 789.122061829331,200.775 790.803525804803,198.75 789.122061829331,196.725 789.122061829331,197.4" style="fill:rgb(50,205,50);stroke:black;stroke-width:0;opacity:0.8"/>




				<polygon points="801.323454266735,197.4 801.323454266735,200.1 808.808124680634,200.1 808.808124680634,200.775 812.015840572304,198.75 808.808124680634,196.725 808.808124680634,197.4" style="fill:rgb(50,205,50);stroke:black;stroke-width:0;opacity:0.8"/>




				<polygon points="825.956182933061,197.4 825.956182933061,200.1 834.768778742974,200.1 834.768778742974,200.775 838.545605518651,198.75 834.768778742974,196.725 834.768778742974,197.4" style="fill:rgb(50,205,50);stroke:black;stroke-width:0;opacity:0.8"/>




				<polygon points="839.522866632601,198.75 848.783852835973,200.775 848.783852835973,200.1 870.392820643842,200.1 870.392820643842,197.4 848.783852835973,197.4 848.783852835973,196.725" style="fill:rgb(50,205,50);stroke:black;stroke-width:0;opacity:0.8"/>




				<polygon points="873.727005620848,197.4 873.727005620848,200.1 882.117079713848,200.1 882.117079713848,200.775 885.712825753704,198.75 882.117079713848,196.725 882.117079713848,197.4" style="fill:rgb(50,205,50);stroke:black;stroke-width:0;opacity:0.8"/>




				<polygon points="892.668625447113,197.4 892.668625447113,200.1 911.56138221768,200.1 911.56138221768,200.775 919.658277976495,198.75 911.56138221768,196.725 911.56138221768,197.4" style="fill:rgb(50,205,50);stroke:black;stroke-width:0;opacity:0.8"/>




				<polygon points="925.004471129279,198.75 927.591338783853,200.775 927.591338783853,200.1 933.62736331119,200.1 933.62736331119,197.4 927.591338783853,197.4 927.591338783853,196.725" style="fill:rgb(50,205,50);stroke:black;stroke-width:0;opacity:0.8"/>




				<polygon points="933.598620337251,198.75 935.952669902913,200.775 935.952669902913,200.1 941.44545222279,200.1 941.44545222279,197.4 935.952669902913,197.4 935.952669902913,196.725" style="fill:rgb(50,205,50);stroke:black;stroke-width:0;opacity:0.8"/>




				<polygon points="122.500638732754,534.9 122.500638732754,537.6 143.083482370976,537.6 143.083482370976,538.275 151.904701073071,536.25 143.083482370976,534.225 143.083482370976,534.9" style="fill:rgb(50,205,50);stroke:black;stroke-width:0;opacity:0.8"/>




				<polygon points="151.789729177312,534.9 151.789729177312,537.6 167.543753193664,537.6 167.543753193664,538.275 174.2954777721,536.25 167.543753193664,534.225 167.543753193664,534.9" style="fill:rgb(50,205,50);stroke:black;stroke-width:0;opacity:0.8"/>




				<polygon points="204.073198773633,534.9 204.073198773633,537.6 207.996614716403,537.6 207.996614716403,538.275 209.678078691875,536.25 207.996614716403,534.225 207.996614716403,534.9" style="fill:rgb(50,205,50);stroke:black;stroke-width:0;opacity:0.8"/>




				<polygon points="220.198007153807,534.9 220.198007153807,537.6 227.682677567706,537.6 227.682677567706,538.275 230.890393459377,536.25 227.682677567706,534.225 227.682677567706,534.9" style="fill:rgb(50,205,50);stroke:black;stroke-width:0;opacity:0.8"/>




				<polygon points="244.830735820133,534.9 244.830735820133,537.6 253.643331630046,537.6 253.643331630046,538.275 257.420158405723,536.25 253.643331630046,534.225 253.643331630046,534.9" style="fill:rgb(50,205,50);stroke:black;stroke-width:0;opacity:0.8"/>




				<polygon points="258.397419519673,536.25 267.658405723046,538.275 267.658405723046,537.6 289.267373530915,537.6 289.267373530915,534.9 267.658405723046,534.9 267.658405723046,534.225" style="fill:rgb(50,205,50);stroke:black;stroke-width:0;opacity:0.8"/>




				<polygon points="292.60155850792,534.9 292.60155850792,537.6 300.99163260092,537.6 300.99163260092,538.275 304.587378640777,536.25 300.99163260092,534.225 300.99163260092,534.9" style="fill:rgb(50,205,50);stroke:black;stroke-width:0;opacity:0.8"/>




				<polygon points="311.543178334185,534.9 311.543178334185,537.6 330.435935104752,537.6 330.435935104752,538.275 338.532830863567,536.25 330.435935104752,534.225 330.435935104752,534.9" style="fill:rgb(50,205,50);stroke:black;stroke-width:0;opacity:0.8"/>




				<polygon points="343.879024016352,536.25 346.465891670925,538.275 346.465891670925,537.6 352.501916198263,537.6 352.501916198263,534.9 346.465891670925,534.9 346.465891670925,534.225" style="fill:rgb(50,205,50);stroke:black;stroke-width:0;opacity:0.8"/>




				<polygon points="352.473173224323,536.25 354.827222789985,538.275 354.827222789985,537.6 360.320005109862,537.6 360.320005109862,534.9 354.827222789985,534.9 354.827222789985,534.225" style="fill:rgb(50,205,50);stroke:black;stroke-width:0;opacity:0.8"/>




				<polygon points="423.410832907511,534.9 423.410832907511,537.6 443.993676545733,537.6 443.993676545733,538.275 452.814895247828,536.25 443.993676545733,534.225 443.993676545733,534.9" style="fill:rgb(50,205,50);stroke:black;stroke-width:0;opacity:0.8"/>




				<polygon points="452.699923352069,534.9 452.699923352069,537.6 468.453947368421,537.6 468.453947368421,538.275 475.205671946857,536.25 468.453947368421,534.225 468.453947368421,534.9" style="fill:rgb(50,205,50);stroke:black;stroke-width:0;opacity:0.8"/>




				<polygon points="504.98339294839,534.9 504.98339294839,537.6 508.90680889116,537.6 508.90680889116,538.275 510.588272866633,536.25 508.90680889116,534.225 508.90680889116,534.9" style="fill:rgb(50,205,50);stroke:black;stroke-width:0;opacity:0.8"/>




				<polygon points="521.108201328564,534.9 521.108201328564,537.6 528.592871742463,537.6 528.592871742463,538.275 531.800587634134,536.25 528.592871742463,534.225 528.592871742463,534.9" style="fill:rgb(50,205,50);stroke:black;stroke-width:0;opacity:0.8"/>




				<polygon points="545.74092999489,534.9 545.74092999489,537.6 554.553525804803,537.6 554.553525804803,538.275 558.33035258048,536.25 554.553525804803,534.225 554.553525804803,534.9" style="fill:rgb(50,205,50);stroke:black;stroke-width:0;opacity:0.8"/>




				<polygon points="559.30761369443,536.25 568.568599897803,538.275 568.568599897803,537.6 590.177567705672,537.6 590.177567705672,534.9 568.568599897803,534.9 568.568599897803,534.225" style="fill:rgb(50,205,50);stroke:black;stroke-width:0;opacity:0.8"/>




				<polygon points="593.511752682678,534.9 593.511752682678,537.6 601.901826775677,537.6 601.901826775677,538.275 605.497572815534,536.25 601.901826775677,534.225 601.901826775677,534.9" style="fill:rgb(50,205,50);stroke:black;stroke-width:0;opacity:0.8"/>




				<polygon points="612.453372508942,534.9 612.453372508942,537.6 631.346129279509,537.6 631.346129279509,538.275 639.443025038324,536.25 631.346129279509,534.225 631.346129279509,534.9" style="fill:rgb(50,205,50);stroke:black;stroke-width:0;opacity:0.8"/>




				<polygon points="644.789218191109,536.25 647.376085845682,538.275 647.376085845682,537.6 653.41211037302,537.6 653.41211037302,534.9 647.376085845682,534.9 647.376085845682,534.225" style="fill:rgb(50,205,50);stroke:black;stroke-width:0;opacity:0.8"/>




				<polygon points="653.38336739908,536.25 655.737416964742,538.275 655.737416964742,537.6 661.230199284619,537.6 661.230199284619,534.9 655.737416964742,534.9 655.737416964742,534.225" style="fill:rgb(50,205,50);stroke:black;stroke-width:0;opacity:0.8"/>




				<polygon points="713.973556463975,534.9 713.973556463975,537.6 734.556400102197,537.6 734.556400102197,538.275 743.377618804292,536.25 734.556400102197,534.225 734.556400102197,534.9" style="fill:rgb(50,205,50);stroke:black;stroke-width:0;opacity:0.8"/>




				<polygon points="743.262646908533,534.9 743.262646908533,537.6 759.016670924885,537.6 759.016670924885,538.275 765.768395503321,536.25 759.016670924885,534.225 759.016670924885,534.9" style="fill:rgb(50,205,50);stroke:black;stroke-width:0;opacity:0.8"/>




				<polygon points="795.546116504854,534.9 795.546116504854,537.6 799.469532447624,537.6 799.469532447624,538.275 801.150996423096,536.25 799.469532447624,534.225 799.469532447624,534.9" style="fill:rgb(50,205,50);stroke:black;stroke-width:0;opacity:0.8"/>




				<polygon points="811.670924885028,534.9 811.670924885028,537.6 819.155595298927,537.6 819.155595298927,538.275 822.363311190598,536.25 819.155595298927,534.225 819.155595298927,534.9" style="fill:rgb(50,205,50);stroke:black;stroke-width:0;opacity:0.8"/>




				<polygon points="836.303653551354,534.9 836.303653551354,537.6 845.116249361267,537.6 845.116249361267,538.275 848.893076136944,536.25 845.116249361267,534.225 845.116249361267,534.9" style="fill:rgb(50,205,50);stroke:black;stroke-width:0;opacity:0.8"/>




				<polygon points="849.870337250894,536.25 859.131323454267,538.275 859.131323454267,537.6 880.740291262136,537.6 880.740291262136,534.9 859.131323454267,534.9 859.131323454267,534.225" style="fill:rgb(50,205,50);stroke:black;stroke-width:0;opacity:0.8"/>




				<polygon points="884.074476239141,534.9 884.074476239141,537.6 892.464550332141,537.6 892.464550332141,538.275 896.060296371998,536.25 892.464550332141,534.225 892.464550332141,534.9" style="fill:rgb(50,205,50);stroke:black;stroke-width:0;opacity:0.8"/>




				<polygon points="903.016096065406,534.9 903.016096065406,537.6 921.908852835973,537.6 921.908852835973,538.275 930.005748594788,536.25 921.908852835973,534.225 921.908852835973,534.9" style="fill:rgb(50,205,50);stroke:black;stroke-width:0;opacity:0.8"/>




				<polygon points="935.351941747573,536.25 937.938809402146,538.275 937.938809402146,537.6 943.974833929484,537.6 943.974833929484,534.9 937.938809402146,534.9 937.938809402146,534.225" style="fill:rgb(50,205,50);stroke:black;stroke-width:0;opacity:0.8"/>




				<polygon points="943.946090955544,536.25 946.300140521206,538.275 946.300140521206,537.6 951.792922841083,537.6 951.792922841083,534.9 946.300140521206,534.9 946.300140521206,534.225" style="fill:rgb(50,205,50);stroke:black;stroke-width:0;opacity:0.8"/>


<text x="264.856221257026" y="65.1" font-size="10px" fill="black"  text-anchor='middle' alignment-baseline="hanging" >s10000</text>
<text x="576.76060296372" y="65.1" font-size="10px" fill="black"  text-anchor='middle' alignment-baseline="hanging" >s1000</text>
<text x="880.904381706694" y="65.1" font-size="10px" fill="black"  text-anchor='middle' alignment-baseline="hanging" >s1</text>
<text x="274.341402657128" y="132.6" font-size="10px" fill="black"  text-anchor='middle' alignment-baseline="hanging" >s20000</text>
<text x="582.149910577414" y="132.6" font-size="10px" fill="black"  text-anchor='middle' alignment-baseline="hanging" >s2000</text>
<text x="872.712634133878" y="132.6" font-size="10px" fill="black"  text-anchor='middle' alignment-baseline="hanging" >s2</text>
<text x="257.095618293306" y="200.1" font-size="10px" fill="black"  text-anchor='middle' alignment-baseline="hanging" >s40000</text>
<text x="547.65834184977" y="200.1" font-size="10px" fill="black"  text-anchor='middle' alignment-baseline="hanging" >s4000</text>
<text x="838.221065406234" y="200.1" font-size="10px" fill="black"  text-anchor='middle' alignment-baseline="hanging" >s4</text>
<text x="262.269353602453" y="537.6" font-size="10px" fill="black"  text-anchor='middle' alignment-baseline="hanging" >s30000</text>
<text x="558.005812468063" y="537.6" font-size="10px" fill="black"  text-anchor='middle' alignment-baseline="hanging" >s3000</text>
<text x="848.568536024527" y="537.6" font-size="10px" fill="black"  text-anchor='middle' alignment-baseline="hanging" >s3</text>

</svg>