<svg xmlns="http://www.w3.org/2000/svg" version="1.1" width="1000" height="500" style="background-color:white;">
<text class='myth' x="85" y="90" style="font-size:12px;fill:black;text-anchor:end;alignment-baseline:middle" >pO83_CORR1</text>
<text class='myth' x="85" y="170" style="font-size:12px;fill:black;text-anchor:end;alignment-baseline:middle" >pO83_CORR2</text>
<text class='myth' x="85" y="250" style="font-size:12px;fill:black;text-anchor:end;alignment-baseline:middle" >pO83_CORR3</text>
<text class='myth' x="85" y="330" style="font-size:12px;fill:black;text-anchor:end;alignment-baseline:middle" >pO83_CORR4</text>
<text class='myth' x="85" y="410" style="font-size:12px;fill:black;text-anchor:end;alignment-baseline:middle" >pO83_CORR5</text>

<line x1="100" y1="480" x2="850" y2="480" style="stroke:green;stroke-width:0.5"/>
<line x1="100" y1="475" x2="100" y2="480" style="stroke:green;stroke-width:0.5;opacity:1"/>
<text class='myth' x="100" y="490" style="font-size:6px;fill:green;text-anchor:middle;font-family:Times New Roman;">0bp</text>
<line x1="280.594900849858" y1="475" x2="280.594900849858" y2="480" style="stroke:green;stroke-width:0.5;opacity:1"/>
<text class='myth' x="280.594900849858" y="490" style="font-size:6px;fill:green;text-anchor:middle;font-family:Times New Roman;">1,700</text>
<line x1="461.189801699717" y1="475" x2="461.189801699717" y2="480" style="stroke:green;stroke-width:0.5;opacity:1"/>
<text class='myth' x="461.189801699717" y="490" style="font-size:6px;fill:green;text-anchor:middle;font-family:Times New Roman;">3,400</text>
<line x1="641.784702549575" y1="475" x2="641.784702549575" y2="480" style="stroke:green;stroke-width:0.5;opacity:1"/>
<text class='myth' x="641.784702549575" y="490" style="font-size:6px;fill:green;text-anchor:middle;font-family:Times New Roman;">5,100</text>
<line x1="850" y1="475" x2="850" y2="480" style="stroke:green;stroke-width:0.5;opacity:1"/>
<text class='myth'  x="850" y="490" style="font-size:6px;fill:green;text-anchor:middle;font-family:Times New Roman">7,060bp</text>


<g class='myth'><title>NC_017659.1:1-7060</title>
<rect x="100" y="89.6" width="750" height="0.8" style="fill:blue;opacity:0.2"   /></g>
<text class='myth'  x="99" y="90" style="font-family:Times New Roman;font-size:10px;fill:black;text-anchor:end;alignment-baseline:middle" >5'</text>
 <text class='myth'  x="851" y="90" style="font-family:Times New Roman;font-size:10px;fill:black;text-anchor:start;alignment-baseline:middle" >3'</text>
<g class='myth'><title>NC_017659.1:7060-14060</title>
<rect x="100" y="169.6" width="743.732294617564" height="0.8" style="fill:blue;opacity:0.2"   /></g>
<text class='myth'  x="99" y="170" style="font-family:Times New Roman;font-size:10px;fill:black;text-anchor:end;alignment-baseline:middle" >5'</text>
 <text class='myth'  x="844.732294617564" y="170" style="font-family:Times New Roman;font-size:10px;fill:black;text-anchor:start;alignment-baseline:middle" >3'</text>
<g class='myth'><title>NC_017659.1:14060-21000</title>
<rect x="100" y="249.6" width="737.35835694051" height="0.8" style="fill:blue;opacity:0.2"   /></g>
<text class='myth'  x="99" y="250" style="font-family:Times New Roman;font-size:10px;fill:black;text-anchor:end;alignment-baseline:middle" >5'</text>
 <text class='myth'  x="838.35835694051" y="250" style="font-family:Times New Roman;font-size:10px;fill:black;text-anchor:start;alignment-baseline:middle" >3'</text>
<g class='myth'><title>NC_017659.1:21000-28000</title>
<rect x="100" y="329.6" width="743.732294617564" height="0.8" style="fill:blue;opacity:0.2"   /></g>
<text class='myth'  x="99" y="330" style="font-family:Times New Roman;font-size:10px;fill:black;text-anchor:end;alignment-baseline:middle" >5'</text>
 <text class='myth'  x="844.732294617564" y="330" style="font-family:Times New Roman;font-size:10px;fill:black;text-anchor:start;alignment-baseline:middle" >3'</text>
<g class='myth'><title>NC_017659.1:reverse:112061-119061(28000-35000)</title>
<rect x="100" y="409.6" width="743.732294617564" height="0.8" style="fill:blue;opacity:0.2"   /></g>
<text class='myth'  x="99" y="410" style="font-family:Times New Roman;font-size:10px;fill:black;text-anchor:end;alignment-baseline:middle" >3'</text>
 <text class='myth'  x="844.732294617564" y="410" style="font-family:Times New Roman;font-size:10px;fill:black;text-anchor:start;alignment-baseline:middle" >5'</text>



					<g class='myth'><title><tspan>feature_id -> gene4538.blue.ellipse.1</tspan>
<tspan>track name -> pO83_CORR1</tspan>
<tspan>ref start-end -> NC_017659.1:1-151.613333333333</tspan></title>
					<ellipse id="gene4538.blue.ellipse.1" cx="887.5" cy="247.6" rx="8.00000000000004" ry="4.00000000000002"  stroke="black" stroke-width="0" fill="blue" style="opacity:1"/></g>

				<g class='myth'><title><tspan>feature_id -> gene4532.black.arrow.1</tspan>
<tspan>track name -> pO83_CORR1</tspan>
<tspan>ref start-end -> NC_017659.1:1-226.92</tspan></title>
				<polygon id="gene4532.black.arrow.1" points="871.5,198 871.5,214 890.700849858357,214 890.700849858357,214 895.501062322946,206 890.700849858357,198 890.700849858357,198" style="fill:black;stroke:black;stroke-width:0;opacity:1"/></g>

				<g class='myth'><title><tspan>feature_id -> gene4559.lengend.black.arrow.0.6</tspan>
<tspan>track name -> pO83_CORR1</tspan>
<tspan>ref start-end -> NC_017659.1:1-226.92</tspan></title>
				<polygon id="gene4559.lengend.black.arrow.0.6" points="496.75,450 496.75,466 515.950849858357,466 515.950849858357,466 520.751062322946,458 515.950849858357,450 515.950849858357,450" style="fill:black;stroke:black;stroke-width:0;opacity:0.6"/></g>

				<g class='myth'><title><tspan>feature_id -> gene4549.lenged.red.arrow.1</tspan>
<tspan>track name -> pO83_CORR1</tspan>
<tspan>ref start-end -> NC_017659.1:1-226.92</tspan></title>
				<polygon id="gene4549.lenged.red.arrow.1" points="341.65,450 341.65,466 360.850849858357,466 360.850849858357,466 365.651062322946,458 360.850849858357,450 360.850849858357,450" style="fill:red;stroke:black;stroke-width:0;opacity:1"/></g>

					<g class='myth'><title><tspan>feature_id -> gene4537.yellow.circle_point.1</tspan>
<tspan>track name -> pO83_CORR1</tspan>
<tspan>ref start-end -> NC_017659.1:1-151.613333333333</tspan></title>
					<circle id="gene4537.yellow.circle_point.1" cx="883.5" cy="226.8" r="8.00000000000004" stroke="black" stroke-width="0" fill="yellow" style="opacity:1"/></g>

				<g class='myth'><title><tspan>feature_id -> gene4532</tspan>
<tspan>track name -> pO83_CORR1</tspan>
<tspan>ref start-end -> NC_017659.1:2313-3428</tspan></title>
				<polygon id="gene4532" points="345.609065155807,86.8 345.609065155807,93.2 460.977337110482,93.2 460.977337110482,93.2 464.164305949009,90 460.977337110482,86.8 460.977337110482,86.8" style="fill:black;stroke:black;stroke-width:0;opacity:1"/></g>

				<g class='myth'><title><tspan>feature_id -> gene4534</tspan>
<tspan>track name -> pO83_CORR2</tspan>
<tspan>ref start-end -> NC_017659.1:7331-8560</tspan></title>
				<polygon id="gene4534" points="128.78895184136,166.8 128.78895184136,173.2 256.267705382436,173.2 256.267705382436,173.2 259.454674220963,170 256.267705382436,166.8 256.267705382436,166.8" style="fill:rgb(50,205,50);stroke:black;stroke-width:0;opacity:1"/></g>

				<g class='myth'><title><tspan>feature_id -> gene4535</tspan>
<tspan>track name -> pO83_CORR2</tspan>
<tspan>ref start-end -> NC_017659.1:8645-9601</tspan></title>
				<polygon id="gene4535" points="268.378186968839,166.8 268.378186968839,173.2 366.85552407932,173.2 366.85552407932,173.2 370.042492917847,170 366.85552407932,166.8 366.85552407932,166.8" style="fill:rgb(50,205,50);stroke:black;stroke-width:0;opacity:1"/></g>

				<g class='myth'><title><tspan>feature_id -> gene4536</tspan>
<tspan>track name -> pO83_CORR2</tspan>
<tspan>ref start-end -> NC_017659.1:9646-11823</tspan></title>
				<polygon id="gene4536" points="374.71671388102,170 377.903682719547,173.2 377.903682719547,173.2 606.090651558074,173.2 606.090651558074,166.8 377.903682719547,166.8 377.903682719547,166.8" style="fill:rgb(50,205,50);stroke:black;stroke-width:0;opacity:1"/></g>

					<g class='myth'><title><tspan>feature_id -> gene4537</tspan>
<tspan>track name -> pO83_CORR2</tspan>
<tspan>ref start-end -> NC_017659.1:12121-12348</tspan></title>
					<circle id="gene4537" cx="649.752124645892" cy="170" r="12.1104815864023" stroke="black" stroke-width="0" fill="yellow" style="opacity:1"/></g>

					<g class='myth'><title><tspan>feature_id -> gene4538</tspan>
<tspan>track name -> pO83_CORR2</tspan>
<tspan>ref start-end -> NC_017659.1:12678-13514</tspan></title>
					<ellipse id="gene4538" cx="741.271246458924" cy="170" rx="44.4582152974504" ry="3.2"  stroke="black" stroke-width="0" fill="blue" style="opacity:1"/></g>

				<g class='myth'><title><tspan>feature_id -> gene4540</tspan>
<tspan>track name -> pO83_CORR3</tspan>
<tspan>ref start-end -> NC_017659.1:15017-15328</tspan></title>
				<polygon id="gene4540" points="201.664305949009,250 204.851274787535,253.2 204.851274787535,253.2 234.808781869688,253.2 234.808781869688,246.8 204.851274787535,246.8 204.851274787535,246.8" style="fill:rgb(50,205,50);stroke:black;stroke-width:0;opacity:1"/></g>

				<g class='myth'><title><tspan>feature_id -> gene4541</tspan>
<tspan>track name -> pO83_CORR3</tspan>
<tspan>ref start-end -> NC_017659.1:15306-15542</tspan></title>
				<polygon id="gene4541" points="232.365439093484,250 235.552407932011,253.2 235.552407932011,253.2 257.542492917847,253.2 257.542492917847,246.8 235.552407932011,246.8 235.552407932011,246.8" style="fill:rgb(50,205,50);stroke:black;stroke-width:0;opacity:1"/></g>

				<g class='myth'><title><tspan>feature_id -> gene4542</tspan>
<tspan>track name -> pO83_CORR3</tspan>
<tspan>ref start-end -> NC_017659.1:15682-15858</tspan></title>
				<polygon id="gene4542" points="272.308781869688,250 275.495750708215,253.2 275.495750708215,253.2 291.111898016997,253.2 291.111898016997,246.8 275.495750708215,246.8 275.495750708215,246.8" style="fill:rgb(50,205,50);stroke:black;stroke-width:0;opacity:1"/></g>

				<g class='myth'><title><tspan>feature_id -> gene4543</tspan>
<tspan>track name -> pO83_CORR3</tspan>
<tspan>ref start-end -> NC_017659.1:16006-16287</tspan></title>
				<polygon id="gene4543" points="306.728045325779,250 309.915014164306,253.2 309.915014164306,253.2 336.685552407932,253.2 336.685552407932,246.8 309.915014164306,246.8 309.915014164306,246.8" style="fill:rgb(50,205,50);stroke:black;stroke-width:0;opacity:1"/></g>

				<g class='myth'><title><tspan>feature_id -> gene4544</tspan>
<tspan>track name -> pO83_CORR3</tspan>
<tspan>ref start-end -> NC_017659.1:17416-18231</tspan></title>
				<polygon id="gene4544" points="456.515580736544,246.8 456.515580736544,253.2 540.014164305949,253.2 540.014164305949,253.2 543.201133144476,250 540.014164305949,246.8 540.014164305949,246.8" style="fill:rgb(50,205,50);stroke:black;stroke-width:0;opacity:1"/></g>

				<g class='myth'><title><tspan>feature_id -> gene4545</tspan>
<tspan>track name -> pO83_CORR3</tspan>
<tspan>ref start-end -> NC_017659.1:18281-18634</tspan></title>
				<polygon id="gene4545" points="548.406515580737,250 551.593484419264,253.2 551.593484419264,253.2 586.012747875354,253.2 586.012747875354,246.8 551.593484419264,246.8 551.593484419264,246.8" style="fill:rgb(50,205,50);stroke:black;stroke-width:0;opacity:1"/></g>

				<g class='myth'><title><tspan>feature_id -> gene4546</tspan>
<tspan>track name -> pO83_CORR3</tspan>
<tspan>ref start-end -> NC_017659.1:18812-19588</tspan></title>
				<polygon id="gene4546" points="604.815864022663,250 608.00283286119,253.2 608.00283286119,253.2 687.35835694051,253.2 687.35835694051,246.8 608.00283286119,246.8 608.00283286119,246.8" style="fill:rgb(50,205,50);stroke:black;stroke-width:0;opacity:1"/></g>

				<g class='myth'><title><tspan>feature_id -> gene4547</tspan>
<tspan>track name -> pO83_CORR3</tspan>
<tspan>ref start-end -> NC_017659.1:19600-20289</tspan></title>
				<polygon id="gene4547" points="688.526912181303,250 691.71388101983,253.2 691.71388101983,253.2 761.827195467422,253.2 761.827195467422,246.8 691.71388101983,246.8 691.71388101983,246.8" style="fill:rgb(50,205,50);stroke:black;stroke-width:0;opacity:1"/></g>

				<g class='myth'><title><tspan>feature_id -> gene4548</tspan>
<tspan>track name -> pO83_CORR3</tspan>
<tspan>ref start-end -> NC_017659.1:20333-20683</tspan></title>
				<polygon id="gene4548" points="766.395184135977,250 769.582152974504,253.2 769.582152974504,253.2 803.682719546742,253.2 803.682719546742,246.8 769.582152974504,246.8 769.582152974504,246.8" style="fill:rgb(50,205,50);stroke:black;stroke-width:0;opacity:1"/></g>

				<g class='myth'><title><tspan>feature_id -> gene4549</tspan>
<tspan>track name -> pO83_CORR4</tspan>
<tspan>ref start-end -> NC_017659.1:21224-22315</tspan></title>
				<polygon id="gene4549" points="123.796033994334,326.8 123.796033994334,333.2 236.614730878187,333.2 236.614730878187,333.2 239.801699716714,330 236.614730878187,326.8 236.614730878187,326.8" style="fill:red;stroke:black;stroke-width:0;opacity:1"/></g>

				<g class='myth'><title><tspan>feature_id -> gene4550</tspan>
<tspan>track name -> pO83_CORR4</tspan>
<tspan>ref start-end -> NC_017659.1:22317-24542</tspan></title>
				<polygon id="gene4550" points="239.907932011331,326.8 239.907932011331,333.2 473.194050991501,333.2 473.194050991501,333.2 476.381019830028,330 473.194050991501,326.8 473.194050991501,326.8" style="fill:rgb(50,205,50);stroke:black;stroke-width:0;opacity:1"/></g>

				<g class='myth'><title><tspan>feature_id -> gene4551</tspan>
<tspan>track name -> pO83_CORR4</tspan>
<tspan>ref start-end -> NC_017659.1:24592-25491</tspan></title>
				<polygon id="gene4551" points="481.586402266289,330 484.773371104816,333.2 484.773371104816,333.2 577.195467422096,333.2 577.195467422096,326.8 484.773371104816,326.8 484.773371104816,326.8" style="fill:rgb(50,205,50);stroke:black;stroke-width:0;opacity:1"/></g>

				<g class='myth'><title><tspan>feature_id -> gene4552</tspan>
<tspan>track name -> pO83_CORR4</tspan>
<tspan>ref start-end -> NC_017659.1:25481-25771</tspan></title>
				<polygon id="gene4552" points="576.026912181303,330 579.21388101983,333.2 579.21388101983,333.2 606.940509915014,333.2 606.940509915014,326.8 579.21388101983,326.8 579.21388101983,326.8" style="fill:rgb(50,205,50);stroke:black;stroke-width:0;opacity:1"/></g>

				<g class='myth'><title><tspan>feature_id -> gene4553</tspan>
<tspan>track name -> pO83_CORR4</tspan>
<tspan>ref start-end -> NC_017659.1:26067-26297</tspan></title>
				<polygon id="gene4553" points="638.279036827195,326.8 638.279036827195,333.2 659.631728045326,333.2 659.631728045326,333.2 662.818696883853,330 659.631728045326,326.8 659.631728045326,326.8" style="fill:rgb(50,205,50);stroke:black;stroke-width:0;opacity:1"/></g>

				<g class='myth'><title><tspan>feature_id -> gene4554</tspan>
<tspan>track name -> pO83_CORR4</tspan>
<tspan>ref start-end -> NC_017659.1:26294-26710</tspan></title>
				<polygon id="gene4554" points="662.393767705382,326.8 662.393767705382,333.2 703.50566572238,333.2 703.50566572238,333.2 706.692634560907,330 703.50566572238,326.8 703.50566572238,326.8" style="fill:rgb(50,205,50);stroke:black;stroke-width:0;opacity:1"/></g>

				<g class='myth'><title><tspan>feature_id -> gene4556</tspan>
<tspan>track name -> pO83_CORR5</tspan>
<tspan>ref start-end -> NC_017659.1:29364-29621</tspan></title>
				<polygon id="gene4556" points="671.423512747875,410 674.610481586402,413.2 674.610481586402,413.2 698.831444759207,413.2 698.831444759207,406.8 674.610481586402,406.8 674.610481586402,406.8" style="fill:rgb(50,205,50);stroke:black;stroke-width:0;opacity:1"/></g>

				<g class='myth'><title><tspan>feature_id -> gene4557</tspan>
<tspan>track name -> pO83_CORR5</tspan>
<tspan>ref start-end -> NC_017659.1:29621-30211</tspan></title>
				<polygon id="gene4557" points="608.746458923513,410 611.93342776204,413.2 611.93342776204,413.2 671.529745042493,413.2 671.529745042493,406.8 611.93342776204,406.8 611.93342776204,406.8" style="fill:rgb(50,205,50);stroke:black;stroke-width:0;opacity:1"/></g>

				<g class='myth'><title><tspan>feature_id -> gene4558</tspan>
<tspan>track name -> pO83_CORR5</tspan>
<tspan>ref start-end -> NC_017659.1:30474-32030</tspan></title>
				<polygon id="gene4558" points="415.509915014164,410 418.696883852691,413.2 418.696883852691,413.2 580.913597733711,413.2 580.913597733711,406.8 418.696883852691,406.8 418.696883852691,406.8" style="fill:rgb(50,205,50);stroke:black;stroke-width:0;opacity:1"/></g>

				<g class='myth'><title><tspan>feature_id -> gene4559</tspan>
<tspan>track name -> pO83_CORR5</tspan>
<tspan>ref start-end -> NC_017659.1:32221-32838</tspan></title>
				<polygon id="gene4559" points="329.674220963173,410 332.8611898017,413.2 332.8611898017,413.2 395.325779036827,413.2 395.325779036827,406.8 332.8611898017,406.8 332.8611898017,406.8" style="fill:black;stroke:black;stroke-width:0;opacity:0.6"/></g>

				<g class='myth'><title><tspan>feature_id -> gene4560</tspan>
<tspan>track name -> pO83_CORR5</tspan>
<tspan>ref start-end -> NC_017659.1:33131-34264</tspan></title>
				<polygon id="gene4560" points="178.186968838527,406.8 178.186968838527,413.2 295.467422096317,413.2 295.467422096317,413.2 298.654390934844,410 295.467422096317,406.8 295.467422096317,406.8" style="fill:rgb(50,205,50);stroke:black;stroke-width:0;opacity:1"/></g>

				<g class='myth'><title><tspan>feature_id -> gene4561</tspan>
<tspan>track name -> pO83_CORR5</tspan>
<tspan>ref start-end -> NC_017659.1:34369-34692</tspan></title>
				<polygon id="gene4561" points="132.71954674221,410 135.906515580737,413.2 135.906515580737,413.2 167.1388101983,413.2 167.1388101983,406.8 135.906515580737,406.8 135.906515580737,406.8" style="fill:rgb(50,205,50);stroke:black;stroke-width:0;opacity:1"/></g>


<text class='myth'  x="897.1" y="247.6" style="font-family:Times New Roman;font-size:15px;fill:black;text-anchor:start; alignment-baseline:middle;" transform="rotate(0 897.1 247.6)" >gene4538</text>
<text class='myth'  x="897.101062322946" y="206" style="font-family:Times New Roman;font-size:15px;fill:black;text-anchor:start; alignment-baseline:middle;" transform="rotate(0 897.101062322946 206)" >gene4532</text>
<text class='myth'  x="522.351062322946" y="458" style="font-family:Times New Roman;font-size:15px;fill:black;text-anchor:start; alignment-baseline:middle;" transform="rotate(0 522.351062322946 458)" >gene4559.lengend</text>
<text class='myth'  x="367.251062322946" y="458" style="font-family:Times New Roman;font-size:15px;fill:black;text-anchor:start; alignment-baseline:middle;" transform="rotate(0 367.251062322946 458)" >gene4549.lenged</text>
<text class='myth'  x="893.1" y="226.8" style="font-family:Times New Roman;font-size:15px;fill:black;text-anchor:start; alignment-baseline:middle;" transform="rotate(0 893.1 226.8)" >gene4537</text>
<text class='myth'  x="404.950685552408" y="86.8" style="font-family:Times New Roman;font-size:10px;fill:black;text-anchor:middle;" transform="rotate(0 404.950685552408 86.8)" >gene4532</text>
<text class='myth'  x="194.185813031161" y="161.04" style="font-family:Times New Roman;font-size:10px;fill:black;text-anchor:middle;" transform="rotate(0 194.185813031161 161.04)" >gene4534</text>
<text class='myth'  x="319.274339943343" y="161.04" style="font-family:Times New Roman;font-size:10px;fill:black;text-anchor:middle;" transform="rotate(0 319.274339943343 161.04)" >gene4535</text>
<text class='myth'  x="490.467682719547" y="161.04" style="font-family:Times New Roman;font-size:10px;fill:black;text-anchor:middle;" transform="rotate(0 490.467682719547 161.04)" >gene4536</text>
<text class='myth'  x="649.99433427762" y="170" style="font-family:Times New Roman;font-size:10px;fill:black;text-anchor:middle;" transform="rotate(0 649.99433427762 170)" >gene4537</text>
<text class='myth'  x="742.160410764872" y="170" style="font-family:Times New Roman;font-size:10px;fill:black;text-anchor:middle;" transform="rotate(0 742.160410764872 170)" >gene4538</text>
<text class='myth'  x="218.300543909348" y="241.04" style="font-family:Times New Roman;font-size:10px;fill:black;text-anchor:middle;" transform="rotate(0 218.300543909348 241.04)" >gene4540</text>
<text class='myth'  x="245.017966005666" y="241.04" style="font-family:Times New Roman;font-size:10px;fill:black;text-anchor:middle;" transform="rotate(0 245.017966005666 241.04)" >gene4541</text>
<text class='myth'  x="281.774339943343" y="241.04" style="font-family:Times New Roman;font-size:10px;fill:black;text-anchor:middle;" transform="rotate(0 281.774339943343 241.04)" >gene4542</text>
<text class='myth'  x="321.770798866856" y="241.04" style="font-family:Times New Roman;font-size:10px;fill:black;text-anchor:middle;" transform="rotate(0 321.770798866856 241.04)" >gene4543</text>
<text class='myth'  x="499.92235694051" y="241.04" style="font-family:Times New Roman;font-size:10px;fill:black;text-anchor:middle;" transform="rotate(0 499.92235694051 241.04)" >gene4544</text>
<text class='myth'  x="567.273631728045" y="241.04" style="font-family:Times New Roman;font-size:10px;fill:black;text-anchor:middle;" transform="rotate(0 567.273631728045 241.04)" >gene4545</text>
<text class='myth'  x="646.151110481586" y="241.04" style="font-family:Times New Roman;font-size:10px;fill:black;text-anchor:middle;" transform="rotate(0 646.151110481586 241.04)" >gene4546</text>
<text class='myth'  x="725.241053824363" y="241.04" style="font-family:Times New Roman;font-size:10px;fill:black;text-anchor:middle;" transform="rotate(0 725.241053824363 241.04)" >gene4547</text>
<text class='myth'  x="785.10295184136" y="241.04" style="font-family:Times New Roman;font-size:10px;fill:black;text-anchor:middle;" transform="rotate(0 785.10295184136 241.04)" >gene4548</text>
<text class='myth'  x="181.862866855524" y="321.04" style="font-family:Times New Roman;font-size:10px;fill:black;text-anchor:middle;" transform="rotate(0 181.862866855524 321.04)" >gene4549</text>
<text class='myth'  x="358.20847592068" y="321.04" style="font-family:Times New Roman;font-size:10px;fill:black;text-anchor:middle;" transform="rotate(0 358.20847592068 321.04)" >gene4550</text>
<text class='myth'  x="529.454934844193" y="321.04" style="font-family:Times New Roman;font-size:10px;fill:black;text-anchor:middle;" transform="rotate(0 529.454934844193 321.04)" >gene4551</text>
<text class='myth'  x="591.547711048159" y="321.04" style="font-family:Times New Roman;font-size:10px;fill:black;text-anchor:middle;" transform="rotate(0 591.547711048159 321.04)" >gene4552</text>
<text class='myth'  x="650.612866855524" y="321.04" style="font-family:Times New Roman;font-size:10px;fill:black;text-anchor:middle;" transform="rotate(0 650.612866855524 321.04)" >gene4553</text>
<text class='myth'  x="684.607201133144" y="321.04" style="font-family:Times New Roman;font-size:10px;fill:black;text-anchor:middle;" transform="rotate(0 684.607201133144 321.04)" >gene4554</text>
<text class='myth'  x="685.191478753541" y="401.04" style="font-family:Times New Roman;font-size:10px;fill:black;text-anchor:middle;" transform="rotate(0 685.191478753541 401.04)" >gene4556</text>
<text class='myth'  x="640.202101983003" y="401.04" style="font-family:Times New Roman;font-size:10px;fill:black;text-anchor:middle;" transform="rotate(0 640.202101983003 401.04)" >gene4557</text>
<text class='myth'  x="498.275756373938" y="401.04" style="font-family:Times New Roman;font-size:10px;fill:black;text-anchor:middle;" transform="rotate(0 498.275756373938 401.04)" >gene4558</text>
<text class='myth'  x="362.564" y="401.04" style="font-family:Times New Roman;font-size:10px;fill:black;text-anchor:middle;" transform="rotate(0 362.564 401.04)" >gene4559</text>
<text class='myth'  x="238.484679886686" y="401.04" style="font-family:Times New Roman;font-size:10px;fill:black;text-anchor:middle;" transform="rotate(0 238.484679886686 401.04)" >gene4560</text>
<text class='myth'  x="149.993178470255" y="401.04" style="font-family:Times New Roman;font-size:10px;fill:black;text-anchor:middle;" transform="rotate(0 149.993178470255 401.04)" >gene4561</text>


<text class='myth' x="474" y="98.6" style="font-size:6px;fill:black;text-anchor:middle;alignment-baseline:baseline;" transform="rotate(0 474 98.6)" >NC_017659.1:1-7060bp</text>
<text class='myth' x="470.866147308782" y="178.6" style="font-size:6px;fill:black;text-anchor:middle;alignment-baseline:baseline;" transform="rotate(0 470.866147308782 178.6)" >NC_017659.1:7060-14060bp</text>
<text class='myth' x="467.679178470255" y="258.6" style="font-size:6px;fill:black;text-anchor:middle;alignment-baseline:baseline;" transform="rotate(0 467.679178470255 258.6)" >NC_017659.1:14060-21000bp</text>
<text class='myth' x="470.866147308782" y="338.6" style="font-size:6px;fill:black;text-anchor:middle;alignment-baseline:baseline;" transform="rotate(0 470.866147308782 338.6)" >NC_017659.1:21000-28000bp</text>
<text class='myth' x="470.866147308782" y="419.1" style="font-size:6px;fill:black;text-anchor:middle;alignment-baseline:baseline;" transform="rotate(0 470.866147308782 419.1)" >NC_017659.1:reverse:112061-119061(28000-35000)bp</text>

</svg>