<svg xmlns="http://www.w3.org/2000/svg" version="1.1" width="1000" height="500" style="background-color:white;">
<text class='myth' x="85" y="88.8888888888889" style="font-size:12px;fill:black;text-anchor:end;alignment-baseline:middle" >pO83_CORR1</text>
<text class='myth' x="85" y="166.666666666667" style="font-size:12px;fill:black;text-anchor:end;alignment-baseline:middle" >pO83_CORR2</text>
<text class='myth' x="85" y="244.444444444444" style="font-size:12px;fill:black;text-anchor:end;alignment-baseline:middle" >pO83_CORR3</text>
<text class='myth' x="85" y="322.222222222222" style="font-size:12px;fill:black;text-anchor:end;alignment-baseline:middle" >pO83_CORR4</text>
<text class='myth' x="85" y="400" style="font-size:12px;fill:black;text-anchor:end;alignment-baseline:middle" >pO83_CORR5</text>

<line x1="100" y1="460" x2="850" y2="460" style="stroke:green;stroke-width:0.5"/>
<line x1="100" y1="455" x2="100" y2="460" style="stroke:green;stroke-width:0.5;opacity:1"/>
<text class='myth' x="100" y="470" style="font-size:6px;fill:green;text-anchor:middle;font-family:Times New Roman;">1bp</text>
<line x1="280.594900849858" y1="455" x2="280.594900849858" y2="460" style="stroke:green;stroke-width:0.5;opacity:1"/>
<text class='myth' x="280.594900849858" y="470" style="font-size:6px;fill:green;text-anchor:middle;font-family:Times New Roman;">1,700</text>
<line x1="461.189801699717" y1="455" x2="461.189801699717" y2="460" style="stroke:green;stroke-width:0.5;opacity:1"/>
<text class='myth' x="461.189801699717" y="470" style="font-size:6px;fill:green;text-anchor:middle;font-family:Times New Roman;">3,400</text>
<line x1="641.784702549575" y1="455" x2="641.784702549575" y2="460" style="stroke:green;stroke-width:0.5;opacity:1"/>
<text class='myth' x="641.784702549575" y="470" style="font-size:6px;fill:green;text-anchor:middle;font-family:Times New Roman;">5,100</text>
<line x1="850" y1="455" x2="850" y2="460" style="stroke:green;stroke-width:0.5;opacity:1"/>
<text class='myth'  x="850" y="470" style="font-size:6px;fill:green;text-anchor:middle;font-family:Times New Roman">7,060bp</text>



<rect x="100" y="88.5" width="750" height="0.777777777777778" style="fill:blue;opacity:0.2"   />
<text class='myth'  x="99" y="88.8888888888889" style="font-family:Times New Roman;font-size:10px;fill:black;text-anchor:end;alignment-baseline:middle" >5'</text>
 <text class='myth'  x="851" y="88.8888888888889" style="font-family:Times New Roman;font-size:10px;fill:black;text-anchor:start;alignment-baseline:middle" >3'</text>

<rect x="100" y="166.277777777778" width="743.732294617564" height="0.777777777777778" style="fill:blue;opacity:0.2"   />
<text class='myth'  x="99" y="166.666666666667" style="font-family:Times New Roman;font-size:10px;fill:black;text-anchor:end;alignment-baseline:middle" >5'</text>
 <text class='myth'  x="844.732294617564" y="166.666666666667" style="font-family:Times New Roman;font-size:10px;fill:black;text-anchor:start;alignment-baseline:middle" >3'</text>

<rect x="100" y="244.055555555556" width="737.35835694051" height="0.777777777777778" style="fill:blue;opacity:0.2"   />
<text class='myth'  x="99" y="244.444444444444" style="font-family:Times New Roman;font-size:10px;fill:black;text-anchor:end;alignment-baseline:middle" >5'</text>
 <text class='myth'  x="838.35835694051" y="244.444444444444" style="font-family:Times New Roman;font-size:10px;fill:black;text-anchor:start;alignment-baseline:middle" >3'</text>

<rect x="100" y="321.833333333333" width="743.732294617564" height="0.777777777777778" style="fill:blue;opacity:0.2"   />
<text class='myth'  x="99" y="322.222222222222" style="font-family:Times New Roman;font-size:10px;fill:black;text-anchor:end;alignment-baseline:middle" >5'</text>
 <text class='myth'  x="844.732294617564" y="322.222222222222" style="font-family:Times New Roman;font-size:10px;fill:black;text-anchor:start;alignment-baseline:middle" >3'</text>

<rect x="100" y="399.611111111111" width="743.732294617564" height="0.777777777777778" style="fill:blue;opacity:0.2"   />
<text class='myth'  x="99" y="400" style="font-family:Times New Roman;font-size:10px;fill:black;text-anchor:end;alignment-baseline:middle" >3'</text>
 <text class='myth'  x="844.732294617564" y="400" style="font-family:Times New Roman;font-size:10px;fill:black;text-anchor:start;alignment-baseline:middle" >5'</text>







				<polygon id="gene4532" points="345.609065155807,85.7777777777778 345.609065155807,92 460.977337110482,92 460.977337110482,92 464.164305949009,88.8888888888889 460.977337110482,85.7777777777778 460.977337110482,85.7777777777778" style="fill:black;stroke:black;stroke-width:0;opacity:1"/>




				<polygon id="gene4549.lenged.red.arrow.1" points="187.75,489 187.75,499 199.758498583569,499 199.758498583569,499 202.760623229462,494 199.758498583569,489 199.758498583569,489" style="fill:red;stroke:black;stroke-width:0;opacity:1"/>




				<polygon id="gene4559.lengend.black.arrow.0.6" points="490.25,489 490.25,499 502.258498583569,499 502.258498583569,499 505.260623229462,494 502.258498583569,489 502.258498583569,489" style="fill:black;stroke:black;stroke-width:0;opacity:0.6"/>




				<polygon id="gene4532.black.arrow.1" points="871.5,217.5 871.5,227.5 883.508498583569,227.5 883.508498583569,227.5 886.510623229462,222.5 883.508498583569,217.5 883.508498583569,217.5" style="fill:black;stroke:black;stroke-width:0;opacity:1"/>




					<circle id="gene4537.yellow.circle_point.1" cx="879" cy="235.5" r="5" stroke="black" stroke-width="0" fill="yellow" style="opacity:1"/>




					<ellipse id="gene4538.blue.ellipse.1" cx="881.5" cy="248.5" rx="5" ry="2.5"  stroke="black" stroke-width="0" fill="blue" style="opacity:1"/>





				<polygon id="gene4534" points="128.78895184136,163.555555555556 128.78895184136,169.777777777778 256.267705382436,169.777777777778 256.267705382436,169.777777777778 259.454674220963,166.666666666667 256.267705382436,163.555555555556 256.267705382436,163.555555555556" style="fill:rgb(50,205,50);stroke:black;stroke-width:0;opacity:1"/>





				<polygon id="gene4535" points="268.378186968839,163.555555555556 268.378186968839,169.777777777778 366.85552407932,169.777777777778 366.85552407932,169.777777777778 370.042492917847,166.666666666667 366.85552407932,163.555555555556 366.85552407932,163.555555555556" style="fill:rgb(50,205,50);stroke:black;stroke-width:0;opacity:1"/>





				<polygon id="gene4536" points="374.71671388102,166.666666666667 377.903682719547,169.777777777778 377.903682719547,169.777777777778 606.090651558074,169.777777777778 606.090651558074,163.555555555556 377.903682719547,163.555555555556 377.903682719547,163.555555555556" style="fill:rgb(50,205,50);stroke:black;stroke-width:0;opacity:1"/>





					<circle id="gene4537" cx="649.752124645892" cy="166.666666666667" r="12.1104815864023" stroke="black" stroke-width="0" fill="yellow" style="opacity:1"/>





					<ellipse id="gene4538" cx="741.271246458924" cy="166.666666666667" rx="44.4582152974504" ry="3.11111111111111"  stroke="black" stroke-width="0" fill="blue" style="opacity:1"/>





				<polygon id="gene4540" points="201.664305949009,244.444444444444 204.851274787535,247.555555555556 204.851274787535,247.555555555556 234.808781869688,247.555555555556 234.808781869688,241.333333333333 204.851274787535,241.333333333333 204.851274787535,241.333333333333" style="fill:rgb(50,205,50);stroke:black;stroke-width:0;opacity:1"/>





				<polygon id="gene4541" points="232.365439093484,244.444444444444 235.552407932011,247.555555555556 235.552407932011,247.555555555556 257.542492917847,247.555555555556 257.542492917847,241.333333333333 235.552407932011,241.333333333333 235.552407932011,241.333333333333" style="fill:rgb(50,205,50);stroke:black;stroke-width:0;opacity:1"/>





				<polygon id="gene4542" points="272.308781869688,244.444444444444 275.495750708215,247.555555555556 275.495750708215,247.555555555556 291.111898016997,247.555555555556 291.111898016997,241.333333333333 275.495750708215,241.333333333333 275.495750708215,241.333333333333" style="fill:rgb(50,205,50);stroke:black;stroke-width:0;opacity:1"/>





				<polygon id="gene4543" points="306.728045325779,244.444444444444 309.915014164306,247.555555555556 309.915014164306,247.555555555556 336.685552407932,247.555555555556 336.685552407932,241.333333333333 309.915014164306,241.333333333333 309.915014164306,241.333333333333" style="fill:rgb(50,205,50);stroke:black;stroke-width:0;opacity:1"/>





				<polygon id="gene4544" points="456.515580736544,241.333333333333 456.515580736544,247.555555555556 540.014164305949,247.555555555556 540.014164305949,247.555555555556 543.201133144476,244.444444444444 540.014164305949,241.333333333333 540.014164305949,241.333333333333" style="fill:rgb(50,205,50);stroke:black;stroke-width:0;opacity:1"/>





				<polygon id="gene4545" points="548.406515580737,244.444444444444 551.593484419264,247.555555555556 551.593484419264,247.555555555556 586.012747875354,247.555555555556 586.012747875354,241.333333333333 551.593484419264,241.333333333333 551.593484419264,241.333333333333" style="fill:rgb(50,205,50);stroke:black;stroke-width:0;opacity:1"/>





				<polygon id="gene4546" points="604.815864022663,244.444444444444 608.00283286119,247.555555555556 608.00283286119,247.555555555556 687.35835694051,247.555555555556 687.35835694051,241.333333333333 608.00283286119,241.333333333333 608.00283286119,241.333333333333" style="fill:rgb(50,205,50);stroke:black;stroke-width:0;opacity:1"/>





				<polygon id="gene4547" points="688.526912181303,244.444444444444 691.71388101983,247.555555555556 691.71388101983,247.555555555556 761.827195467422,247.555555555556 761.827195467422,241.333333333333 691.71388101983,241.333333333333 691.71388101983,241.333333333333" style="fill:rgb(50,205,50);stroke:black;stroke-width:0;opacity:1"/>





				<polygon id="gene4548" points="766.395184135977,244.444444444444 769.582152974504,247.555555555556 769.582152974504,247.555555555556 803.682719546742,247.555555555556 803.682719546742,241.333333333333 769.582152974504,241.333333333333 769.582152974504,241.333333333333" style="fill:rgb(50,205,50);stroke:black;stroke-width:0;opacity:1"/>





				<polygon id="gene4549" points="123.796033994334,319.111111111111 123.796033994334,325.333333333333 236.614730878187,325.333333333333 236.614730878187,325.333333333333 239.801699716714,322.222222222222 236.614730878187,319.111111111111 236.614730878187,319.111111111111" style="fill:red;stroke:black;stroke-width:0;opacity:1"/>





				<polygon id="gene4550" points="239.907932011331,319.111111111111 239.907932011331,325.333333333333 473.194050991501,325.333333333333 473.194050991501,325.333333333333 476.381019830028,322.222222222222 473.194050991501,319.111111111111 473.194050991501,319.111111111111" style="fill:rgb(50,205,50);stroke:black;stroke-width:0;opacity:1"/>





				<polygon id="gene4551" points="481.586402266289,322.222222222222 484.773371104816,325.333333333333 484.773371104816,325.333333333333 577.195467422096,325.333333333333 577.195467422096,319.111111111111 484.773371104816,319.111111111111 484.773371104816,319.111111111111" style="fill:rgb(50,205,50);stroke:black;stroke-width:0;opacity:1"/>





				<polygon id="gene4552" points="576.026912181303,322.222222222222 579.21388101983,325.333333333333 579.21388101983,325.333333333333 606.940509915014,325.333333333333 606.940509915014,319.111111111111 579.21388101983,319.111111111111 579.21388101983,319.111111111111" style="fill:rgb(50,205,50);stroke:black;stroke-width:0;opacity:1"/>





				<polygon id="gene4553" points="638.279036827195,319.111111111111 638.279036827195,325.333333333333 659.631728045326,325.333333333333 659.631728045326,325.333333333333 662.818696883853,322.222222222222 659.631728045326,319.111111111111 659.631728045326,319.111111111111" style="fill:rgb(50,205,50);stroke:black;stroke-width:0;opacity:1"/>





				<polygon id="gene4554" points="662.393767705382,319.111111111111 662.393767705382,325.333333333333 703.50566572238,325.333333333333 703.50566572238,325.333333333333 706.692634560907,322.222222222222 703.50566572238,319.111111111111 703.50566572238,319.111111111111" style="fill:rgb(50,205,50);stroke:black;stroke-width:0;opacity:1"/>





				<polygon id="gene4556" points="671.423512747875,400 674.610481586402,403.111111111111 674.610481586402,403.111111111111 698.831444759207,403.111111111111 698.831444759207,396.888888888889 674.610481586402,396.888888888889 674.610481586402,396.888888888889" style="fill:rgb(50,205,50);stroke:black;stroke-width:0;opacity:1"/>





				<polygon id="gene4557" points="608.746458923513,400 611.93342776204,403.111111111111 611.93342776204,403.111111111111 671.529745042493,403.111111111111 671.529745042493,396.888888888889 611.93342776204,396.888888888889 611.93342776204,396.888888888889" style="fill:rgb(50,205,50);stroke:black;stroke-width:0;opacity:1"/>





				<polygon id="gene4558" points="415.509915014164,400 418.696883852691,403.111111111111 418.696883852691,403.111111111111 580.913597733711,403.111111111111 580.913597733711,396.888888888889 418.696883852691,396.888888888889 418.696883852691,396.888888888889" style="fill:rgb(50,205,50);stroke:black;stroke-width:0;opacity:1"/>





				<polygon id="gene4559" points="329.674220963173,400 332.8611898017,403.111111111111 332.8611898017,403.111111111111 395.325779036827,403.111111111111 395.325779036827,396.888888888889 332.8611898017,396.888888888889 332.8611898017,396.888888888889" style="fill:black;stroke:black;stroke-width:0;opacity:0.6"/>





				<polygon id="gene4560" points="178.186968838527,396.888888888889 178.186968838527,403.111111111111 295.467422096317,403.111111111111 295.467422096317,403.111111111111 298.654390934844,400 295.467422096317,396.888888888889 295.467422096317,396.888888888889" style="fill:rgb(50,205,50);stroke:black;stroke-width:0;opacity:1"/>





				<polygon id="gene4561" points="132.71954674221,400 135.906515580737,403.111111111111 135.906515580737,403.111111111111 167.1388101983,403.111111111111 167.1388101983,396.888888888889 135.906515580737,396.888888888889 135.906515580737,396.888888888889" style="fill:rgb(50,205,50);stroke:black;stroke-width:0;opacity:1"/>


<text class='myth'  x="404.94890777463" y="85.7777777777778" style="font-family:Times New Roman;font-size:10px;fill:black;text-anchor:middle;" transform="rotate(0 404.94890777463 85.7777777777778)" >gene4532</text>
<text class='myth'  x="203.760623229462" y="494" style="font-family:Times New Roman;font-size:15px;fill:black;text-anchor:start; alignment-baseline:middle;" transform="rotate(0 203.760623229462 494)" >gene4549.lenged.red.arrow.1</text>
<text class='myth'  x="506.260623229462" y="494" style="font-family:Times New Roman;font-size:15px;fill:black;text-anchor:start; alignment-baseline:middle;" transform="rotate(0 506.260623229462 494)" >gene4559.lengend</text>
<text class='myth'  x="887.510623229462" y="222.5" style="font-family:Times New Roman;font-size:15px;fill:black;text-anchor:start; alignment-baseline:middle;" transform="rotate(0 887.510623229462 222.5)" >gene4532</text>
<text class='myth'  x="885" y="235.5" style="font-family:Times New Roman;font-size:15px;fill:black;text-anchor:start; alignment-baseline:middle;" transform="rotate(0 885 235.5)" >gene4537</text>
<text class='myth'  x="887.5" y="248.5" style="font-family:Times New Roman;font-size:15px;fill:black;text-anchor:start; alignment-baseline:middle;" transform="rotate(0 887.5 248.5)" >gene4538</text>
<text class='myth'  x="194.184035253384" y="157.955555555556" style="font-family:Times New Roman;font-size:10px;fill:black;text-anchor:middle;" transform="rotate(0 194.184035253384 157.955555555556)" >gene4534</text>
<text class='myth'  x="319.272562165565" y="157.955555555556" style="font-family:Times New Roman;font-size:10px;fill:black;text-anchor:middle;" transform="rotate(0 319.272562165565 157.955555555556)" >gene4535</text>
<text class='myth'  x="490.465904941769" y="157.955555555556" style="font-family:Times New Roman;font-size:10px;fill:black;text-anchor:middle;" transform="rotate(0 490.465904941769 157.955555555556)" >gene4536</text>
<text class='myth'  x="649.99433427762" y="166.666666666667" style="font-family:Times New Roman;font-size:10px;fill:black;text-anchor:middle;" transform="rotate(0 649.99433427762 166.666666666667)" >gene4537</text>
<text class='myth'  x="742.160410764872" y="166.666666666667" style="font-family:Times New Roman;font-size:10px;fill:black;text-anchor:middle;" transform="rotate(0 742.160410764872 166.666666666667)" >gene4538</text>
<text class='myth'  x="218.298766131571" y="235.733333333333" style="font-family:Times New Roman;font-size:10px;fill:black;text-anchor:middle;" transform="rotate(0 218.298766131571 235.733333333333)" >gene4540</text>
<text class='myth'  x="245.016188227888" y="235.733333333333" style="font-family:Times New Roman;font-size:10px;fill:black;text-anchor:middle;" transform="rotate(0 245.016188227888 235.733333333333)" >gene4541</text>
<text class='myth'  x="281.772562165565" y="235.733333333333" style="font-family:Times New Roman;font-size:10px;fill:black;text-anchor:middle;" transform="rotate(0 281.772562165565 235.733333333333)" >gene4542</text>
<text class='myth'  x="321.769021089078" y="235.733333333333" style="font-family:Times New Roman;font-size:10px;fill:black;text-anchor:middle;" transform="rotate(0 321.769021089078 235.733333333333)" >gene4543</text>
<text class='myth'  x="499.920579162732" y="235.733333333333" style="font-family:Times New Roman;font-size:10px;fill:black;text-anchor:middle;" transform="rotate(0 499.920579162732 235.733333333333)" >gene4544</text>
<text class='myth'  x="567.271853950268" y="235.733333333333" style="font-family:Times New Roman;font-size:10px;fill:black;text-anchor:middle;" transform="rotate(0 567.271853950268 235.733333333333)" >gene4545</text>
<text class='myth'  x="646.149332703809" y="235.733333333333" style="font-family:Times New Roman;font-size:10px;fill:black;text-anchor:middle;" transform="rotate(0 646.149332703809 235.733333333333)" >gene4546</text>
<text class='myth'  x="725.239276046585" y="235.733333333333" style="font-family:Times New Roman;font-size:10px;fill:black;text-anchor:middle;" transform="rotate(0 725.239276046585 235.733333333333)" >gene4547</text>
<text class='myth'  x="785.101174063582" y="235.733333333333" style="font-family:Times New Roman;font-size:10px;fill:black;text-anchor:middle;" transform="rotate(0 785.101174063582 235.733333333333)" >gene4548</text>
<text class='myth'  x="181.861089077746" y="313.511111111111" style="font-family:Times New Roman;font-size:10px;fill:black;text-anchor:middle;" transform="rotate(0 181.861089077746 313.511111111111)" >gene4549</text>
<text class='myth'  x="358.206698142902" y="313.511111111111" style="font-family:Times New Roman;font-size:10px;fill:black;text-anchor:middle;" transform="rotate(0 358.206698142902 313.511111111111)" >gene4550</text>
<text class='myth'  x="529.453157066415" y="313.511111111111" style="font-family:Times New Roman;font-size:10px;fill:black;text-anchor:middle;" transform="rotate(0 529.453157066415 313.511111111111)" >gene4551</text>
<text class='myth'  x="591.545933270381" y="313.511111111111" style="font-family:Times New Roman;font-size:10px;fill:black;text-anchor:middle;" transform="rotate(0 591.545933270381 313.511111111111)" >gene4552</text>
<text class='myth'  x="650.611089077746" y="313.511111111111" style="font-family:Times New Roman;font-size:10px;fill:black;text-anchor:middle;" transform="rotate(0 650.611089077746 313.511111111111)" >gene4553</text>
<text class='myth'  x="684.605423355367" y="313.511111111111" style="font-family:Times New Roman;font-size:10px;fill:black;text-anchor:middle;" transform="rotate(0 684.605423355367 313.511111111111)" >gene4554</text>
<text class='myth'  x="685.189700975763" y="391.288888888889" style="font-family:Times New Roman;font-size:10px;fill:black;text-anchor:middle;" transform="rotate(0 685.189700975763 391.288888888889)" >gene4556</text>
<text class='myth'  x="640.200324205225" y="391.288888888889" style="font-family:Times New Roman;font-size:10px;fill:black;text-anchor:middle;" transform="rotate(0 640.200324205225 391.288888888889)" >gene4557</text>
<text class='myth'  x="498.27397859616" y="391.288888888889" style="font-family:Times New Roman;font-size:10px;fill:black;text-anchor:middle;" transform="rotate(0 498.27397859616 391.288888888889)" >gene4558</text>
<text class='myth'  x="362.562222222222" y="391.288888888889" style="font-family:Times New Roman;font-size:10px;fill:black;text-anchor:middle;" transform="rotate(0 362.562222222222 391.288888888889)" >gene4559</text>
<text class='myth'  x="238.482902108908" y="391.288888888889" style="font-family:Times New Roman;font-size:10px;fill:black;text-anchor:middle;" transform="rotate(0 238.482902108908 391.288888888889)" >gene4560</text>
<text class='myth'  x="149.991400692477" y="391.288888888889" style="font-family:Times New Roman;font-size:10px;fill:black;text-anchor:middle;" transform="rotate(0 149.991400692477 391.288888888889)" >gene4561</text>


<text class='myth' x="474" y="96.9444444444444" style="font-size:6px;fill:black;text-anchor:middle;alignment-baseline:baseline;" transform="rotate(0 474 96.9444444444444)" >NC_017659.1:1-7060bp</text>
<text class='myth' x="470.866147308782" y="174.722222222222" style="font-size:6px;fill:black;text-anchor:middle;alignment-baseline:baseline;" transform="rotate(0 470.866147308782 174.722222222222)" >NC_017659.1:7060-14060bp</text>
<text class='myth' x="467.679178470255" y="252.5" style="font-size:6px;fill:black;text-anchor:middle;alignment-baseline:baseline;" transform="rotate(0 467.679178470255 252.5)" >NC_017659.1:14060-21000bp</text>
<text class='myth' x="470.866147308782" y="330.277777777778" style="font-size:6px;fill:black;text-anchor:middle;alignment-baseline:baseline;" transform="rotate(0 470.866147308782 330.277777777778)" >NC_017659.1:21000-28000bp</text>
<text class='myth' x="470.866147308782" y="408.055555555556" style="font-size:6px;fill:black;text-anchor:middle;alignment-baseline:baseline;" transform="rotate(0 470.866147308782 408.055555555556)" >NC_017659.1:reverse:[35000 -> 28000]bp</text>

</svg>