<svg height="500" width="1000" xmlns="http://www.w3.org/2000/svg"><text alignment-baseline="middle" font-size="12" text-anchor="end" x="85" y="88.888889">pO83_CORR1</text><text alignment-baseline="middle" font-size="12" text-anchor="end" x="85" y="166.666667">pO83_CORR2</text><text alignment-baseline="middle" font-size="12" text-anchor="end" x="85" y="244.444444">pO83_CORR3</text><text alignment-baseline="middle" font-size="12" text-anchor="end" x="85" y="322.222222">pO83_CORR4</text><text alignment-baseline="middle" font-size="12" text-anchor="end" x="85" y="400">pO83_CORR5</text><path d="m100 460h750" stroke="#008000" stroke-width=".5"/><path d="m100 455v5" stroke="#008000" stroke-width=".5"/><text fill="#008000" font-family="Times New Roman" font-size="6" text-anchor="middle" x="100" y="470">1bp</text><path d="m280.594901 455v5" stroke="#008000" stroke-width=".5"/><text fill="#008000" font-family="Times New Roman" font-size="6" text-anchor="middle" x="280.594901" y="470">1,700</text><path d="m461.189802 455v5" stroke="#008000" stroke-width=".5"/><text fill="#008000" font-family="Times New Roman" font-size="6" text-anchor="middle" x="461.189802" y="470">3,400</text><path d="m641.784703 455v5" stroke="#008000" stroke-width=".5"/><text fill="#008000" font-family="Times New Roman" font-size="6" text-anchor="middle" x="641.784703" y="470">5,100</text><path d="m850 455v5" stroke="#008000" stroke-width=".5"/><text fill="#008000" font-family="Times New Roman" font-size="6" text-anchor="middle" x="850" y="470">7,060bp</text><path d="m100 88.5h750v.777778h-750z" fill="#00f" opacity=".2"/><text alignment-baseline="middle" font-family="Times New Roman" font-size="10" text-anchor="end" x="99" y="88.888889">5'</text><text alignment-baseline="middle" font-family="Times New Roman" font-size="10" x="851" y="88.888889">3'</text><path d="m100 166.277778h743.732295v.777778h-743.732295z" fill="#00f" opacity=".2"/><text alignment-baseline="middle" font-family="Times New Roman" font-size="10" text-anchor="end" x="99" y="166.666667">5'</text><text alignment-baseline="middle" font-family="Times New Roman" font-size="10" x="844.732295" y="166.666667">3'</text><path d="m100 244.055556h737.358357v.777778h-737.358357z" fill="#00f" opacity=".2"/><text alignment-baseline="middle" font-family="Times New Roman" font-size="10" text-anchor="end" x="99" y="244.444444">5'</text><text alignment-baseline="middle" font-family="Times New Roman" font-size="10" x="838.358357" y="244.444444">3'</text><path d="m100 321.833333h743.732295v.777778h-743.732295z" fill="#00f" opacity=".2"/><text alignment-baseline="middle" font-family="Times New Roman" font-size="10" text-anchor="end" x="99" y="322.222222">5'</text><text alignment-baseline="middle" font-family="Times New Roman" font-size="10" x="844.732295" y="322.222222">3'</text><path d="m100 399.611111h743.732295v.777778h-743.732295z" fill="#00f" opacity=".2"/><text alignment-baseline="middle" font-family="Times New Roman" font-size="10" text-anchor="end" x="99" y="400">3'</text><text alignment-baseline="middle" font-family="Times New Roman" font-size="10" x="844.732295" y="400">5'</text><path d="m345.60906516 85.77777778v6.22222222h115.36827195l3.18696884-3.11111111-3.18696884-3.11111111z"/><path d="m340.4 484.6v14h16.80084986l4.20021246-7-4.20021246-7z" fill="#f00"/><path d="m494.8 484.6v14h16.80084986l4.20021246-7-4.20021246-7z" opacity=".6"/><path d="m871.5 204.5v14h16.80084986l4.20021246-7-4.20021246-7z"/><circle cx="882" cy="229.7" fill="#ff0" r="7"/><ellipse cx="885.5" cy="247.9" fill="#00f" rx="7" ry="3.5"/><path d="m128.78895184 163.55555556v6.22222222h127.47875354l3.18696884-3.11111111-3.18696884-3.11111111z" fill="#32cd32"/><path d="m268.37818697 163.55555556v6.22222222h98.47733711l3.18696884-3.11111111-3.18696884-3.11111111z" fill="#32cd32"/><path d="m374.71671388 166.66666667 3.18696884 3.11111111h228.18696884v-6.22222222h-228.18696884z" fill="#32cd32"/><circle cx="649.752125" cy="166.666667" fill="#ff0" r="12.110482"/><ellipse cx="741.271246" cy="166.666667" fill="#00f" rx="44.458215" ry="3.111111"/><path d="m201.66430595 244.44444444 3.18696884 3.11111112h29.95750708v-6.22222223h-29.95750708z" fill="#32cd32"/><path d="m232.36543909 244.44444444 3.18696884 3.11111112h21.99008499v-6.22222223h-21.99008499z" fill="#32cd32"/><path d="m272.30878187 244.44444444 3.18696884 3.11111112h15.61614731v-6.22222223h-15.61614731z" fill="#32cd32"/><path d="m306.72804533 244.44444444 3.18696883 3.11111112h26.77053825v-6.22222223h-26.77053825z" fill="#32cd32"/><path d="m456.51558074 241.33333333v6.22222223h83.49858357l3.18696883-3.11111112-3.18696883-3.11111111z" fill="#32cd32"/><path d="m548.40651558 244.44444444 3.18696884 3.11111112h34.41926346v-6.22222223h-34.41926346z" fill="#32cd32"/><path d="m604.81586402 244.44444444 3.18696884 3.11111112h79.35552408v-6.22222223h-79.35552408z" fill="#32cd32"/><path d="m688.52691218 244.44444444 3.18696884 3.11111112h70.11331445v-6.22222223h-70.11331445z" fill="#32cd32"/><path d="m766.39518414 244.44444444 3.18696883 3.11111112h34.10056658v-6.22222223h-34.10056658z" fill="#32cd32"/><path d="m123.79603399 319.11111111v6.22222222h112.81869689l3.18696884-3.11111111-3.18696884-3.11111111z" fill="#f00"/><path d="m239.90793201 319.11111111v6.22222222h233.28611898l3.18696884-3.11111111-3.18696884-3.11111111z" fill="#32cd32"/><path d="m481.58640227 322.22222222 3.18696883 3.11111111h92.42209632v-6.22222222h-92.42209632z" fill="#32cd32"/><path d="m576.02691218 322.22222222 3.18696884 3.11111111h27.7266289v-6.22222222h-27.7266289z" fill="#32cd32"/><path d="m638.27903683 319.11111111v6.22222222h21.35269122l3.18696883-3.11111111-3.18696883-3.11111111z" fill="#32cd32"/><path d="m662.39376771 319.11111111v6.22222222h41.11189801l3.18696884-3.11111111-3.18696884-3.11111111z" fill="#32cd32"/><path d="m671.42351275 400 3.18696884 3.11111111h24.22096317v-6.22222222h-24.22096317z" fill="#32cd32"/><path d="m608.74645892 400 3.18696884 3.11111111h59.59631728v-6.22222222h-59.59631728z" fill="#32cd32"/><path d="m415.50991501 400 3.18696884 3.11111111h162.21671388v-6.22222222h-162.21671388z" fill="#32cd32"/><path d="m329.67422096 400 3.18696884 3.11111111h62.46458924v-6.22222222h-62.46458924z" opacity=".6"/><path d="m178.18696884 396.88888889v6.22222222h117.28045326l3.18696883-3.11111111-3.18696883-3.11111111z" fill="#32cd32"/><path d="m132.71954674 400 3.18696884 3.11111111h31.23229462v-6.22222222h-31.23229462z" fill="#32cd32"/><g font-family="Times New Roman"><text font-size="10" text-anchor="middle" x="404.948908" y="85.777778">gene4532</text><text alignment-baseline="middle" font-size="15" x="362.801062" y="491.6">gene4549.lenged.red.arrow.1</text><text alignment-baseline="middle" font-size="15" x="517.201062" y="491.6">gene4559.lengend</text><text alignment-baseline="middle" font-size="15" x="893.901062" y="211.5">gene4532</text><text alignment-baseline="middle" font-size="15" x="890.4" y="229.7">gene4537</text><text alignment-baseline="middle" font-size="15" x="893.9" y="247.9">gene4538</text><text font-size="10" text-anchor="middle" x="194.184035" y="157.955556">gene4534</text><text font-size="10" text-anchor="middle" x="319.272562" y="157.955556">gene4535</text><text font-size="10" text-anchor="middle" x="490.465905" y="157.955556">gene4536</text><text font-size="10" text-anchor="middle" x="649.994334" y="166.666667">gene4537</text><text font-size="10" text-anchor="middle" x="742.160411" y="166.666667">gene4538</text><text font-size="10" text-anchor="middle" x="218.298766" y="235.733333">gene4540</text><text font-size="10" text-anchor="middle" x="245.016188" y="235.733333">gene4541</text><text font-size="10" text-anchor="middle" x="281.772562" y="235.733333">gene4542</text><text font-size="10" text-anchor="middle" x="321.769021" y="235.733333">gene4543</text><text font-size="10" text-anchor="middle" x="499.920579" y="235.733333">gene4544</text><text font-size="10" text-anchor="middle" x="567.271854" y="235.733333">gene4545</text><text font-size="10" text-anchor="middle" x="646.149333" y="235.733333">gene4546</text><text font-size="10" text-anchor="middle" x="725.239276" y="235.733333">gene4547</text><text font-size="10" text-anchor="middle" x="785.101174" y="235.733333">gene4548</text><text font-size="10" text-anchor="middle" x="181.861089" y="313.511111">gene4549</text><text font-size="10" text-anchor="middle" x="358.206698" y="313.511111">gene4550</text><text font-size="10" text-anchor="middle" x="529.453157" y="313.511111">gene4551</text><text font-size="10" text-anchor="middle" x="591.545933" y="313.511111">gene4552</text><text font-size="10" text-anchor="middle" x="650.611089" y="313.511111">gene4553</text><text font-size="10" text-anchor="middle" x="684.605423" y="313.511111">gene4554</text><text font-size="10" text-anchor="middle" x="685.189701" y="391.288889">gene4556</text><text font-size="10" text-anchor="middle" x="640.200324" y="391.288889">gene4557</text><text font-size="10" text-anchor="middle" x="498.273979" y="391.288889">gene4558</text><text font-size="10" text-anchor="middle" x="362.562222" y="391.288889">gene4559</text><text font-size="10" text-anchor="middle" x="238.482902" y="391.288889">gene4560</text><text font-size="10" text-anchor="middle" x="149.991401" y="391.288889">gene4561</text></g><text alignment-baseline="baseline" font-size="6" text-anchor="middle" x="474" y="97.944444">NC_017659.1:1-7060bp</text><text alignment-baseline="baseline" font-size="6" text-anchor="middle" x="470.866147" y="175.722222">NC_017659.1:7060-14060bp</text><text alignment-baseline="baseline" font-size="6" text-anchor="middle" x="467.679178" y="253.5">NC_017659.1:14060-21000bp</text><text alignment-baseline="baseline" font-size="6" text-anchor="middle" x="470.866147" y="331.277778">NC_017659.1:21000-28000bp</text><text alignment-baseline="baseline" font-size="6" text-anchor="middle" x="470.866147" y="409.055556">NC_017659.1:reverse:[35000 -&gt; 28000]bp</text></svg>