<svg height="500" width="1300" xmlns="http://www.w3.org/2000/svg"><text alignment-baseline="middle" font-size="15" text-anchor="end" x="110.5" y="116.666667">pO83_CORR</text><text alignment-baseline="middle" font-size="15" text-anchor="end" x="110.5" y="250">pO83_CORR.indel.blast</text><text alignment-baseline="middle" font-size="15" text-anchor="end" x="110.5" y="383.333333">pO83_CORR.twin.minimap</text><path d="m130 480h975" stroke="#008000" stroke-width=".5"/><path d="m130 475v5" stroke="#008000" stroke-width=".5"/><text fill="#008000" font-family="Times New Roman" font-size="6" text-anchor="middle" x="130" y="490">1bp</text><path d="m141.27091 475v5" stroke="#008000" stroke-width=".5"/><text fill="#008000" font-family="Times New Roman" font-size="6" text-anchor="middle" x="141.27091" y="490">1,700</text><path d="m152.54182 475v5" stroke="#008000" stroke-width=".5"/><text fill="#008000" font-family="Times New Roman" font-size="6" text-anchor="middle" x="152.54182" y="490">3,400</text><path d="m163.812729 475v5" stroke="#008000" stroke-width=".5"/><text fill="#008000" font-family="Times New Roman" font-size="6" text-anchor="middle" x="163.812729" y="490">5,100</text><path d="m175.083639 475v5" stroke="#008000" stroke-width=".5"/><text fill="#008000" font-family="Times New Roman" font-size="6" text-anchor="middle" x="175.083639" y="490">6,800</text><path d="m186.354549 475v5" stroke="#008000" stroke-width=".5"/><text fill="#008000" font-family="Times New Roman" font-size="6" text-anchor="middle" x="186.354549" y="490">8,500</text><path d="m197.625459 475v5" stroke="#008000" stroke-width=".5"/><text fill="#008000" font-family="Times New Roman" font-size="6" text-anchor="middle" x="197.625459" y="490">10,200</text><path d="m208.896369 475v5" stroke="#008000" stroke-width=".5"/><text fill="#008000" font-family="Times New Roman" font-size="6" text-anchor="middle" x="208.896369" y="490">11,900</text><path d="m220.167279 475v5" stroke="#008000" stroke-width=".5"/><text fill="#008000" font-family="Times New Roman" font-size="6" text-anchor="middle" x="220.167279" y="490">13,600</text><path d="m231.438188 475v5" stroke="#008000" stroke-width=".5"/><text fill="#008000" font-family="Times New Roman" font-size="6" text-anchor="middle" x="231.438188" y="490">15,300</text><path d="m242.709098 475v5" stroke="#008000" stroke-width=".5"/><text fill="#008000" font-family="Times New Roman" font-size="6" text-anchor="middle" x="242.709098" y="490">17,000</text><path d="m253.980008 475v5" stroke="#008000" stroke-width=".5"/><text fill="#008000" font-family="Times New Roman" font-size="6" text-anchor="middle" x="253.980008" y="490">18,700</text><path d="m265.250918 475v5" stroke="#008000" stroke-width=".5"/><text fill="#008000" font-family="Times New Roman" font-size="6" text-anchor="middle" x="265.250918" y="490">20,400</text><path d="m276.521828 475v5" stroke="#008000" stroke-width=".5"/><text fill="#008000" font-family="Times New Roman" font-size="6" text-anchor="middle" x="276.521828" y="490">22,100</text><path d="m287.792738 475v5" stroke="#008000" stroke-width=".5"/><text fill="#008000" font-family="Times New Roman" font-size="6" text-anchor="middle" x="287.792738" y="490">23,800</text><path d="m299.063647 475v5" stroke="#008000" stroke-width=".5"/><text fill="#008000" font-family="Times New Roman" font-size="6" text-anchor="middle" x="299.063647" y="490">25,500</text><path d="m310.334557 475v5" stroke="#008000" stroke-width=".5"/><text fill="#008000" font-family="Times New Roman" font-size="6" text-anchor="middle" x="310.334557" y="490">27,200</text><path d="m321.605467 475v5" stroke="#008000" stroke-width=".5"/><text fill="#008000" font-family="Times New Roman" font-size="6" text-anchor="middle" x="321.605467" y="490">28,900</text><path d="m332.876377 475v5" stroke="#008000" stroke-width=".5"/><text fill="#008000" font-family="Times New Roman" font-size="6" text-anchor="middle" x="332.876377" y="490">30,600</text><path d="m344.147287 475v5" stroke="#008000" stroke-width=".5"/><text fill="#008000" font-family="Times New Roman" font-size="6" text-anchor="middle" x="344.147287" y="490">32,300</text><path d="m355.418197 475v5" stroke="#008000" stroke-width=".5"/><text fill="#008000" font-family="Times New Roman" font-size="6" text-anchor="middle" x="355.418197" y="490">34,000</text><path d="m366.689106 475v5" stroke="#008000" stroke-width=".5"/><text fill="#008000" font-family="Times New Roman" font-size="6" text-anchor="middle" x="366.689106" y="490">35,700</text><path d="m377.960016 475v5" stroke="#008000" stroke-width=".5"/><text fill="#008000" font-family="Times New Roman" font-size="6" text-anchor="middle" x="377.960016" y="490">37,400</text><path d="m389.230926 475v5" stroke="#008000" stroke-width=".5"/><text fill="#008000" font-family="Times New Roman" font-size="6" text-anchor="middle" x="389.230926" y="490">39,100</text><path d="m400.501836 475v5" stroke="#008000" stroke-width=".5"/><text fill="#008000" font-family="Times New Roman" font-size="6" text-anchor="middle" x="400.501836" y="490">40,800</text><path d="m411.772746 475v5" stroke="#008000" stroke-width=".5"/><text fill="#008000" font-family="Times New Roman" font-size="6" text-anchor="middle" x="411.772746" y="490">42,500</text><path d="m423.043656 475v5" stroke="#008000" stroke-width=".5"/><text fill="#008000" font-family="Times New Roman" font-size="6" text-anchor="middle" x="423.043656" y="490">44,200</text><path d="m434.314565 475v5" stroke="#008000" stroke-width=".5"/><text fill="#008000" font-family="Times New Roman" font-size="6" text-anchor="middle" x="434.314565" y="490">45,900</text><path d="m445.585475 475v5" stroke="#008000" stroke-width=".5"/><text fill="#008000" font-family="Times New Roman" font-size="6" text-anchor="middle" x="445.585475" y="490">47,600</text><path d="m456.856385 475v5" stroke="#008000" stroke-width=".5"/><text fill="#008000" font-family="Times New Roman" font-size="6" text-anchor="middle" x="456.856385" y="490">49,300</text><path d="m468.127295 475v5" stroke="#008000" stroke-width=".5"/><text fill="#008000" font-family="Times New Roman" font-size="6" text-anchor="middle" x="468.127295" y="490">51,000</text><path d="m479.398205 475v5" stroke="#008000" stroke-width=".5"/><text fill="#008000" font-family="Times New Roman" font-size="6" text-anchor="middle" x="479.398205" y="490">52,700</text><path d="m490.669115 475v5" stroke="#008000" stroke-width=".5"/><text fill="#008000" font-family="Times New Roman" font-size="6" text-anchor="middle" x="490.669115" y="490">54,400</text><path d="m501.940024 475v5" stroke="#008000" stroke-width=".5"/><text fill="#008000" font-family="Times New Roman" font-size="6" text-anchor="middle" x="501.940024" y="490">56,100</text><path d="m513.210934 475v5" stroke="#008000" stroke-width=".5"/><text fill="#008000" font-family="Times New Roman" font-size="6" text-anchor="middle" x="513.210934" y="490">57,800</text><path d="m524.481844 475v5" stroke="#008000" stroke-width=".5"/><text fill="#008000" font-family="Times New Roman" font-size="6" text-anchor="middle" x="524.481844" y="490">59,500</text><path d="m535.752754 475v5" stroke="#008000" stroke-width=".5"/><text fill="#008000" font-family="Times New Roman" font-size="6" text-anchor="middle" x="535.752754" y="490">61,200</text><path d="m547.023664 475v5" stroke="#008000" stroke-width=".5"/><text fill="#008000" font-family="Times New Roman" font-size="6" text-anchor="middle" x="547.023664" y="490">62,900</text><path d="m558.294574 475v5" stroke="#008000" stroke-width=".5"/><text fill="#008000" font-family="Times New Roman" font-size="6" text-anchor="middle" x="558.294574" y="490">64,600</text><path d="m569.565483 475v5" stroke="#008000" stroke-width=".5"/><text fill="#008000" font-family="Times New Roman" font-size="6" text-anchor="middle" x="569.565483" y="490">66,300</text><path d="m580.836393 475v5" stroke="#008000" stroke-width=".5"/><text fill="#008000" font-family="Times New Roman" font-size="6" text-anchor="middle" x="580.836393" y="490">68,000</text><path d="m592.107303 475v5" stroke="#008000" stroke-width=".5"/><text fill="#008000" font-family="Times New Roman" font-size="6" text-anchor="middle" x="592.107303" y="490">69,700</text><path d="m603.378213 475v5" stroke="#008000" stroke-width=".5"/><text fill="#008000" font-family="Times New Roman" font-size="6" text-anchor="middle" x="603.378213" y="490">71,400</text><path d="m614.649123 475v5" stroke="#008000" stroke-width=".5"/><text fill="#008000" font-family="Times New Roman" font-size="6" text-anchor="middle" x="614.649123" y="490">73,100</text><path d="m625.920033 475v5" stroke="#008000" stroke-width=".5"/><text fill="#008000" font-family="Times New Roman" font-size="6" text-anchor="middle" x="625.920033" y="490">74,800</text><path d="m637.190942 475v5" stroke="#008000" stroke-width=".5"/><text fill="#008000" font-family="Times New Roman" font-size="6" text-anchor="middle" x="637.190942" y="490">76,500</text><path d="m648.461852 475v5" stroke="#008000" stroke-width=".5"/><text fill="#008000" font-family="Times New Roman" font-size="6" text-anchor="middle" x="648.461852" y="490">78,200</text><path d="m659.732762 475v5" stroke="#008000" stroke-width=".5"/><text fill="#008000" font-family="Times New Roman" font-size="6" text-anchor="middle" x="659.732762" y="490">79,900</text><path d="m671.003672 475v5" stroke="#008000" stroke-width=".5"/><text fill="#008000" font-family="Times New Roman" font-size="6" text-anchor="middle" x="671.003672" y="490">81,600</text><path d="m682.274582 475v5" stroke="#008000" stroke-width=".5"/><text fill="#008000" font-family="Times New Roman" font-size="6" text-anchor="middle" x="682.274582" y="490">83,300</text><path d="m693.545492 475v5" stroke="#008000" stroke-width=".5"/><text fill="#008000" font-family="Times New Roman" font-size="6" text-anchor="middle" x="693.545492" y="490">85,000</text><path d="m704.816401 475v5" stroke="#008000" stroke-width=".5"/><text fill="#008000" font-family="Times New Roman" font-size="6" text-anchor="middle" x="704.816401" y="490">86,700</text><path d="m716.087311 475v5" stroke="#008000" stroke-width=".5"/><text fill="#008000" font-family="Times New Roman" font-size="6" text-anchor="middle" x="716.087311" y="490">88,400</text><path d="m727.358221 475v5" stroke="#008000" stroke-width=".5"/><text fill="#008000" font-family="Times New Roman" font-size="6" text-anchor="middle" x="727.358221" y="490">90,100</text><path d="m738.629131 475v5" stroke="#008000" stroke-width=".5"/><text fill="#008000" font-family="Times New Roman" font-size="6" text-anchor="middle" x="738.629131" y="490">91,800</text><path d="m749.900041 475v5" stroke="#008000" stroke-width=".5"/><text fill="#008000" font-family="Times New Roman" font-size="6" text-anchor="middle" x="749.900041" y="490">93,500</text><path d="m761.170951 475v5" stroke="#008000" stroke-width=".5"/><text fill="#008000" font-family="Times New Roman" font-size="6" text-anchor="middle" x="761.170951" y="490">95,200</text><path d="m772.44186 475v5" stroke="#008000" stroke-width=".5"/><text fill="#008000" font-family="Times New Roman" font-size="6" text-anchor="middle" x="772.44186" y="490">96,900</text><path d="m783.71277 475v5" stroke="#008000" stroke-width=".5"/><text fill="#008000" font-family="Times New Roman" font-size="6" text-anchor="middle" x="783.71277" y="490">98,600</text><path d="m794.98368 475v5" stroke="#008000" stroke-width=".5"/><text fill="#008000" font-family="Times New Roman" font-size="6" text-anchor="middle" x="794.98368" y="490">100,300</text><path d="m806.25459 475v5" stroke="#008000" stroke-width=".5"/><text fill="#008000" font-family="Times New Roman" font-size="6" text-anchor="middle" x="806.25459" y="490">102,000</text><path d="m817.5255 475v5" stroke="#008000" stroke-width=".5"/><text fill="#008000" font-family="Times New Roman" font-size="6" text-anchor="middle" x="817.5255" y="490">103,700</text><path d="m828.79641 475v5" stroke="#008000" stroke-width=".5"/><text fill="#008000" font-family="Times New Roman" font-size="6" text-anchor="middle" x="828.79641" y="490">105,400</text><path d="m840.067319 475v5" stroke="#008000" stroke-width=".5"/><text fill="#008000" font-family="Times New Roman" font-size="6" text-anchor="middle" x="840.067319" y="490">107,100</text><path d="m851.338229 475v5" stroke="#008000" stroke-width=".5"/><text fill="#008000" font-family="Times New Roman" font-size="6" text-anchor="middle" x="851.338229" y="490">108,800</text><path d="m862.609139 475v5" stroke="#008000" stroke-width=".5"/><text fill="#008000" font-family="Times New Roman" font-size="6" text-anchor="middle" x="862.609139" y="490">110,500</text><path d="m873.880049 475v5" stroke="#008000" stroke-width=".5"/><text fill="#008000" font-family="Times New Roman" font-size="6" text-anchor="middle" x="873.880049" y="490">112,200</text><path d="m885.150959 475v5" stroke="#008000" stroke-width=".5"/><text fill="#008000" font-family="Times New Roman" font-size="6" text-anchor="middle" x="885.150959" y="490">113,900</text><path d="m896.421869 475v5" stroke="#008000" stroke-width=".5"/><text fill="#008000" font-family="Times New Roman" font-size="6" text-anchor="middle" x="896.421869" y="490">115,600</text><path d="m907.692778 475v5" stroke="#008000" stroke-width=".5"/><text fill="#008000" font-family="Times New Roman" font-size="6" text-anchor="middle" x="907.692778" y="490">117,300</text><path d="m918.963688 475v5" stroke="#008000" stroke-width=".5"/><text fill="#008000" font-family="Times New Roman" font-size="6" text-anchor="middle" x="918.963688" y="490">119,000</text><path d="m930.234598 475v5" stroke="#008000" stroke-width=".5"/><text fill="#008000" font-family="Times New Roman" font-size="6" text-anchor="middle" x="930.234598" y="490">120,700</text><path d="m941.505508 475v5" stroke="#008000" stroke-width=".5"/><text fill="#008000" font-family="Times New Roman" font-size="6" text-anchor="middle" x="941.505508" y="490">122,400</text><path d="m952.776418 475v5" stroke="#008000" stroke-width=".5"/><text fill="#008000" font-family="Times New Roman" font-size="6" text-anchor="middle" x="952.776418" y="490">124,100</text><path d="m964.047328 475v5" stroke="#008000" stroke-width=".5"/><text fill="#008000" font-family="Times New Roman" font-size="6" text-anchor="middle" x="964.047328" y="490">125,800</text><path d="m975.318237 475v5" stroke="#008000" stroke-width=".5"/><text fill="#008000" font-family="Times New Roman" font-size="6" text-anchor="middle" x="975.318237" y="490">127,500</text><path d="m986.589147 475v5" stroke="#008000" stroke-width=".5"/><text fill="#008000" font-family="Times New Roman" font-size="6" text-anchor="middle" x="986.589147" y="490">129,200</text><path d="m997.860057 475v5" stroke="#008000" stroke-width=".5"/><text fill="#008000" font-family="Times New Roman" font-size="6" text-anchor="middle" x="997.860057" y="490">130,900</text><path d="m1009.130967 475v5" stroke="#008000" stroke-width=".5"/><text fill="#008000" font-family="Times New Roman" font-size="6" text-anchor="middle" x="1009.130967" y="490">132,600</text><path d="m1020.401877 475v5" stroke="#008000" stroke-width=".5"/><text fill="#008000" font-family="Times New Roman" font-size="6" text-anchor="middle" x="1020.401877" y="490">134,300</text><path d="m1031.672787 475v5" stroke="#008000" stroke-width=".5"/><text fill="#008000" font-family="Times New Roman" font-size="6" text-anchor="middle" x="1031.672787" y="490">136,000</text><path d="m1042.943696 475v5" stroke="#008000" stroke-width=".5"/><text fill="#008000" font-family="Times New Roman" font-size="6" text-anchor="middle" x="1042.943696" y="490">137,700</text><path d="m1054.214606 475v5" stroke="#008000" stroke-width=".5"/><text fill="#008000" font-family="Times New Roman" font-size="6" text-anchor="middle" x="1054.214606" y="490">139,400</text><path d="m1065.485516 475v5" stroke="#008000" stroke-width=".5"/><text fill="#008000" font-family="Times New Roman" font-size="6" text-anchor="middle" x="1065.485516" y="490">141,100</text><path d="m1076.756426 475v5" stroke="#008000" stroke-width=".5"/><text fill="#008000" font-family="Times New Roman" font-size="6" text-anchor="middle" x="1076.756426" y="490">142,800</text><path d="m1088.027336 475v5" stroke="#008000" stroke-width=".5"/><text fill="#008000" font-family="Times New Roman" font-size="6" text-anchor="middle" x="1088.027336" y="490">144,500</text><path d="m1105 475v5" stroke="#008000" stroke-width=".5"/><text fill="#008000" font-family="Times New Roman" font-size="6" text-anchor="middle" x="1105" y="490">147,060bp</text><path d="m166.19288046 116v1.33333333h938.80711954v-1.33333333z" fill="#ffa500" opacity=".5"/><path d="m166.19288046 249.33333333v1.33333334h938.80711954v-1.33333334z" fill="#ffa500" opacity=".5"/><path d="m166.19288046 121.33333333h938.80711954v124h-938.80711954z" fill="#ffa500" opacity=".5"/><path d="m143.92288862 116v1.33333333h22.32966136v-1.33333333z" fill="#ffa500" opacity=".5"/><path d="m142.53059976 249.33333333v1.33333334h22.32303141v-1.33333334z" fill="#ffa500" opacity=".5"/><path d="m143.92288862 121.33333333h22.32966136l-1.39891881 124h-22.32303141z" fill="#ffa500" opacity=".4997"/><path d="m130 116v1.33333333h12.58363933v-1.33333333z" fill="#ffa500" opacity=".5"/><path d="m130 249.33333333v1.33333334h12.58363933v-1.33333334z" fill="#ffa500" opacity=".5"/><path d="m130 121.33333333h12.58363933v124h-12.58363933z" fill="#ffa500" opacity=".49945"/><path d="m398.42003264 116v1.33333333h11.7747858v-1.33333333z" fill="#00f" opacity=".7"/><path d="m360.21164831 249.33333333v1.33333334h11.78141575v-1.33333334z" fill="#00f" opacity=".7"/><path d="m398.42003264 121.33333333h11.7747858l-38.20175438 124h-11.78141575z" fill="#00f" opacity=".55944"/><path d="m360.21164831 116v1.33333333h11.78141575v-1.33333333z" fill="#00f" opacity=".7"/><path d="m398.42003264 249.33333333v1.33333334h11.7747858v-1.33333334z" fill="#00f" opacity=".7"/><path d="m360.21164831 121.33333333h11.78141575l38.20175438 124h-11.7747858z" fill="#00f" opacity=".55944"/><path d="m445.11474908 116v1.33333333h5.43655651v-1.33333333z" fill="#00f" opacity=".7"/><path d="m429.53437373 249.33333333v1.33333334h5.4365565v-1.33333334z" fill="#00f" opacity=".7"/><path d="m445.11474908 121.33333333h5.43655651l-15.58037536 124h-5.4365565z" fill="#00f" opacity=".7"/><path d="m429.53437373 116v1.33333333h5.4365565v-1.33333333z" fill="#00f" opacity=".7"/><path d="m445.11474908 249.33333333v1.33333334h5.43655651v-1.33333334z" fill="#00f" opacity=".7"/><path d="m429.53437373 121.33333333h5.4365565l15.58037536 124h-5.43655651z" fill="#00f" opacity=".7"/><path d="m420.16625867 116v1.33333333h5.13157895v-1.33333333z" fill="#ffa500" opacity=".5"/><path d="m1050.23663811 249.33333333v1.33333334h5.13157894v-1.33333334z" fill="#ffa500" opacity=".5"/><path d="m420.16625867 121.33333333h5.13157895l630.07037943 124h-5.13157894z" fill="#ffa500" opacity=".49355"/><path d="m1050.23663811 116v1.33333333h5.13157894v-1.33333333z" fill="#ffa500" opacity=".5"/><path d="m420.16625867 249.33333333v1.33333334h5.13157895v-1.33333334z" fill="#ffa500" opacity=".5"/><path d="m1050.23663811 121.33333333h5.13157894l-630.07037943 124h-5.13157895z" fill="#ffa500" opacity=".49355"/><path d="m620.69563443 116v1.33333333h5.11168911v-1.33333333z" fill="#ffa500" opacity=".5"/><path d="m862.41024072 249.33333333v1.33333334h5.1116891v-1.33333334z" fill="#ffa500" opacity=".5"/><path d="m620.69563443 121.33333333h5.11168911l241.71460628 124h-5.1116891z" fill="#ffa500" opacity=".4935"/><path d="m862.41024072 116v1.33333333h5.1116891v-1.33333333z" fill="#ffa500" opacity=".5"/><path d="m620.69563443 249.33333333v1.33333334h5.11168911v-1.33333334z" fill="#ffa500" opacity=".5"/><path d="m862.41024072 121.33333333h5.1116891l-241.71460628 124h-5.11168911z" fill="#ffa500" opacity=".4935"/><path d="m1050.21674827 116v1.33333333h5.1116891v-1.33333333z" fill="#00f" opacity=".7"/><path d="m862.43013056 249.33333333v1.33333334h5.11168911v-1.33333334z" fill="#00f" opacity=".7"/><path d="m1050.21674827 121.33333333h5.1116891l-187.7866177 124h-5.11168911z" fill="#00f" opacity=".69818"/><path d="m862.43013056 116v1.33333333h5.11168911v-1.33333333z" fill="#00f" opacity=".7"/><path d="m1050.21674827 249.33333333v1.33333334h5.1116891v-1.33333334z" fill="#00f" opacity=".7"/><path d="m862.43013056 121.33333333h5.11168911l187.7866177 124h-5.1116891z" fill="#00f" opacity=".69818"/><path d="m620.71552428 116v1.33333333h5.09842921v-1.33333333z" fill="#00f" opacity=".7"/><path d="m420.15962872 249.33333333v1.33333334h5.09842922v-1.33333334z" fill="#00f" opacity=".7"/><path d="m620.71552428 121.33333333h5.09842921l-200.55589555 124h-5.09842922z" fill="#00f" opacity=".7"/><path d="m420.15962872 116v1.33333333h5.09842922v-1.33333333z" fill="#00f" opacity=".7"/><path d="m620.71552428 249.33333333v1.33333334h5.09842921v-1.33333334z" fill="#00f" opacity=".7"/><path d="m420.15962872 121.33333333h5.09842922l200.55589555 124h-5.09842921z" fill="#00f" opacity=".7"/><path d="m620.70889433 116v1.33333333h5.09842921v-1.33333333z" fill="#00f" opacity=".7"/><path d="m1050.23663811 249.33333333v1.33333334h5.09842921v-1.33333334z" fill="#00f" opacity=".7"/><path d="m620.70889433 121.33333333h5.09842921l429.52774378 124h-5.09842921z" fill="#00f" opacity=".69272"/><path d="m1050.23663811 116v1.33333333h5.09842921v-1.33333333z" fill="#00f" opacity=".7"/><path d="m620.70889433 249.33333333v1.33333334h5.09842921v-1.33333334z" fill="#00f" opacity=".7"/><path d="m1050.23663811 121.33333333h5.09842921l-429.52774378 124h-5.09842921z" fill="#00f" opacity=".69272"/><path d="m420.16625867 116v1.33333333h5.09179927v-1.33333333z" fill="#00f" opacity=".7"/><path d="m862.43013056 249.33333333v1.33333334h5.09179926v-1.33333334z" fill="#00f" opacity=".7"/><path d="m420.16625867 121.33333333h5.09179927l442.26387188 124h-5.09179926z" fill="#00f" opacity=".69181"/><path d="m862.43013056 116v1.33333333h5.09179926v-1.33333333z" fill="#00f" opacity=".7"/><path d="m420.16625867 249.33333333v1.33333334h5.09179927v-1.33333334z" fill="#00f" opacity=".7"/><path d="m862.43013056 121.33333333h5.09179926l-442.26387188 124h-5.09179927z" fill="#00f" opacity=".69181"/><path d="m420.16625867 116v1.33333333h5.09179927v-1.33333333z" fill="#ffa500" opacity=".5"/><path d="m970.16013872 249.33333333v1.33333334h5.09179926v-1.33333334z" fill="#ffa500" opacity=".5"/><path d="m420.16625867 121.33333333h5.09179927l549.99388004 124h-5.09179926z" fill="#ffa500" opacity=".4948"/><path d="m620.71552428 116v1.33333333h5.09179926v-1.33333333z" fill="#00f" opacity=".7"/><path d="m970.16013872 249.33333333v1.33333334h5.09179926v-1.33333334z" fill="#00f" opacity=".7"/><path d="m620.71552428 121.33333333h5.09179926l349.44461444 124h-5.09179926z" fill="#00f" opacity=".69272"/><path d="m970.16013872 116v1.33333333h5.09179926v-1.33333333z" fill="#ffa500" opacity=".5"/><path d="m420.16625867 249.33333333v1.33333334h5.09179927v-1.33333334z" fill="#ffa500" opacity=".5"/><path d="m970.16013872 121.33333333h5.09179926l-549.99388004 124h-5.09179927z" fill="#ffa500" opacity=".4948"/><path d="m970.16013872 116v1.33333333h5.09179926v-1.33333333z" fill="#00f" opacity=".7"/><path d="m620.71552428 249.33333333v1.33333334h5.09179926v-1.33333334z" fill="#00f" opacity=".7"/><path d="m970.16013872 121.33333333h5.09179926l-349.44461444 124h-5.09179926z" fill="#00f" opacity=".69272"/><path d="m1050.23663811 116v1.33333333h5.09179926v-1.33333333z" fill="#ffa500" opacity=".5"/><path d="m1050.23663811 121.33333333h5.09179926l-80.07649939 124h-5.09179926z" fill="#ffa500" opacity=".4987"/><path d="m1050.23663811 249.33333333v1.33333334h5.09179926v-1.33333334z" fill="#ffa500" opacity=".5"/><path d="m970.16013872 121.33333333h5.09179926l80.07649939 124h-5.09179926z" fill="#ffa500" opacity=".4987"/><path d="m970.16013872 121.33333333h5.09179926l-107.73000816 124h-5.09179926z" fill="#00f" opacity=".69909"/><path d="m862.43013056 121.33333333h5.09179926l107.73000816 124h-5.09179926z" fill="#00f" opacity=".69909"/><path d="m843.09057528 116v1.33333333h2.68512851v-1.33333333z" fill="#ffa500" opacity=".5"/><path d="m842.52039984 249.33333333v1.33333334h2.68512852v-1.33333334z" fill="#ffa500" opacity=".5"/><path d="m843.09057528 121.33333333h2.68512851l-.57017543 124h-2.68512852z" fill="#ffa500" opacity=".45185"/><path d="m842.52039984 116v1.33333333h2.68512852v-1.33333333z" fill="#ffa500" opacity=".5"/><path d="m843.09057528 249.33333333v1.33333334h2.68512851v-1.33333334z" fill="#ffa500" opacity=".5"/><path d="m842.52039984 121.33333333h2.68512852l.57017543 124h-2.68512851z" fill="#ffa500" opacity=".45185"/><path d="m837.71368829 116v1.33333333h2.4000408v-1.33333333z" fill="#ffa500" opacity=".5"/><path d="m813.61383109 249.33333333v1.33333334h2.4000408v-1.33333334z" fill="#ffa500" opacity=".5"/><path d="m837.71368829 121.33333333h2.4000408l-24.0998572 124h-2.4000408z" fill="#ffa500" opacity=".4848"/><path d="m813.61383109 116v1.33333333h2.4000408v-1.33333333z" fill="#ffa500" opacity=".5"/><path d="m837.71368829 249.33333333v1.33333334h2.4000408v-1.33333334z" fill="#ffa500" opacity=".5"/><path d="m813.61383109 121.33333333h2.4000408l24.0998572 124h-2.4000408z" fill="#ffa500" opacity=".4848"/><path d="m843.37566299 116v1.33333333h2.38678091v-1.33333333z" fill="#00f" opacity=".7"/><path d="m843.37566299 249.33333333v1.33333334h2.38678091v-1.33333334z" fill="#00f" opacity=".7"/><path d="m843.37566299 121.33333333h2.38678091v124h-2.38678091z" fill="#00f" opacity=".43554"/><g fill="#ffa500"><path d="m843.66075071 116v1.33333333h2.11495308v-1.33333333z" opacity=".5"/><path d="m842.52039984 249.33333333v1.33333334h2.11495308v-1.33333334z" opacity=".5"/><path d="m843.66075071 121.33333333h2.11495308l-1.14035087 124h-2.11495308z" opacity=".4514"/><path d="m842.52039984 116v1.33333333h2.11495308v-1.33333333z" opacity=".5"/><path d="m843.66075071 249.33333333v1.33333334h2.11495308v-1.33333334z" opacity=".5"/><path d="m842.52039984 121.33333333h2.11495308l1.14035087 124h-2.11495308z" opacity=".4514"/><path d="m844.23092615 116v1.33333333h1.54477764v-1.33333333z" opacity=".5"/><path d="m842.52039984 249.33333333v1.33333334h1.54477764v-1.33333334z" opacity=".5"/><path d="m844.23092615 121.33333333h1.54477764l-1.71052631 124h-1.54477764z" opacity=".4528"/><path d="m842.52039984 116v1.33333333h1.54477764v-1.33333333z" opacity=".5"/><path d="m844.23092615 249.33333333v1.33333334h1.54477764v-1.33333334z" opacity=".5"/><path d="m842.52039984 121.33333333h1.54477764l1.71052631 124h-1.54477764z" opacity=".4528"/><path d="m142.53059976 116v1.33333333h1.39228886v-1.33333333z" opacity=".5"/><path d="m164.80722154 249.33333333v1.33333334h1.39228886v-1.33333334z" opacity=".5"/><path d="m142.53059976 121.33333333h1.39228886l22.27662178 124h-1.39228886z" opacity=".5"/><path d="m1086.21736026 116v1.33333333h.96797226v-1.33333333z" opacity=".5"/><path d="m1066.99714402 249.33333333v1.33333334h.96797226v-1.33333334z" opacity=".5"/><path d="m1086.21736026 121.33333333h.96797226l-19.22021624 124h-.96797226z" opacity=".45205"/><path d="m1066.99714402 116v1.33333333h.96797226v-1.33333333z" opacity=".5"/><path d="m1086.21736026 249.33333333v1.33333334h.96797226v-1.33333334z" opacity=".5"/><path d="m1066.99714402 121.33333333h.96797226l19.22021624 124h-.96797226z" opacity=".45205"/><path d="m844.84088127 116v1.33333333h.93482252v-1.33333333z" opacity=".5"/><path d="m842.56017952 249.33333333v1.33333334h.93482252v-1.33333334z" opacity=".5"/><path d="m844.84088127 121.33333333h.93482252l-2.28070175 124h-.93482252z" opacity=".43615"/><path d="m842.56017952 116v1.33333333h.93482252v-1.33333333z" opacity=".5"/><path d="m844.84088127 249.33333333v1.33333334h.93482252v-1.33333334z" opacity=".5"/><path d="m842.56017952 121.33333333h.93482252l2.28070175 124h-.93482252z" opacity=".43615"/></g><path d="m626.84159527 116v1.33333333h.80222358v-1.33333333z" fill="#00f" opacity=".7"/><path d="m234.87913097 249.33333333v1.33333334h.81548347v-1.33333334z" fill="#00f" opacity=".7"/><path d="m626.84159527 121.33333333h.80222358l-391.94920441 124h-.81548347z" fill="#00f" opacity=".59759"/><path d="m234.87913097 116v1.33333333h.81548347v-1.33333333z" fill="#00f" opacity=".7"/><path d="m626.84159527 249.33333333v1.33333334h.80222358v-1.33333334z" fill="#00f" opacity=".7"/><path d="m234.87913097 121.33333333h.81548347l391.94920441 124h-.80222358z" fill="#00f" opacity=".59759"/><path d="m845.08618931 116v1.33333333h.68951448v-1.33333333z" fill="#ffa500" opacity=".5"/><path d="m842.52039984 249.33333333v1.33333334h.68951448v-1.33333334z" fill="#ffa500" opacity=".5"/><path d="m845.08618931 121.33333333h.68951448l-2.56578947 124h-.68951448z" fill="#ffa500" opacity=".4279"/><path d="m130 116h975v1.333333h-975z" fill="#00f" opacity=".2"/><text alignment-baseline="middle" font-family="Times New Roman" font-size="10" text-anchor="end" x="129" y="116.666667">5"</text><text alignment-baseline="middle" font-family="Times New Roman" font-size="10" x="1106" y="116.666667">3"</text><path d="m842.52039984 116v1.33333333h.68951448v-1.33333333z" fill="#ffa500" opacity=".5"/><path d="m130 249.333333h975v1.333333h-975z" fill="#00f" opacity=".2"/><text alignment-baseline="middle" font-family="Times New Roman" font-size="10" text-anchor="end" x="129" y="250">5"</text><text alignment-baseline="middle" font-family="Times New Roman" font-size="10" x="1106" y="250">3"</text><path d="m845.08618931 249.33333333v1.33333334h.68951448v-1.33333334z" fill="#ffa500" opacity=".5"/><path d="m130 249.33333333v1.33333334h975v-1.33333334z" fill="#ffa500" opacity=".5"/><path d="m130 382.666667h975v1.333333h-975z" fill="#00f" opacity=".2"/><text alignment-baseline="middle" font-family="Times New Roman" font-size="10" text-anchor="end" x="129" y="383.333333">5"</text><text alignment-baseline="middle" font-family="Times New Roman" font-size="10" x="1106" y="383.333333">3"</text><path d="m130 382.66666667v1.33333333h975v-1.33333333z" fill="#ffa500" opacity=".5"/><path d="m130 254.66666667h975v124h-975z" fill="#ffa500" opacity=".498574"/><path d="m842.52039984 121.33333333h.68951448l2.56578947 124h-.68951448z" fill="#ffa500" opacity=".4279"/><text alignment-baseline="baseline" font-size="6" text-anchor="middle" x="616.5" y="126.833333">NC_017659.1</text><text alignment-baseline="baseline" font-size="6" text-anchor="middle" x="616.5" y="260.166667">NC_017659.1.fake</text><text alignment-baseline="baseline" font-size="6" text-anchor="middle" x="616.5" y="393.5">NC_017659.1</text></svg>