<svg xmlns="http://www.w3.org/2000/svg" version="1.1" width="1500" height="800" style="background-color:white;">
<text x="135" y="160.16" font-size="15px" fill="black"  text-anchor='end'>s1</text>
<text x="135" y="320.16" font-size="15px" fill="black"  text-anchor='end'>s2</text>
<text x="135" y="480.16" font-size="15px" fill="black"  text-anchor='end'>s3</text>
<text x="135" y="640.16" font-size="15px" fill="black"  text-anchor='end'>s4</text>

<line x1="150" y1="704" x2="1275" y2="704" style="stroke:green;stroke-width:0.5"/>
<line x1="150" y1="696" x2="150" y2="704" style="stroke:green;stroke-width:0.5;opacity:1"/>
<text x="150" y="719" font-size="13px" fill="green"  text-anchor='middle' font-family="Times New Roman">0</text>
<line x1="251.378751013788" y1="696" x2="251.378751013788" y2="704" style="stroke:green;stroke-width:0.5;opacity:1"/>
<text x="251.378751013788" y="719" font-size="13px" fill="green"  text-anchor='middle' font-family="Times New Roman">2,000</text>
<line x1="352.757502027575" y1="696" x2="352.757502027575" y2="704" style="stroke:green;stroke-width:0.5;opacity:1"/>
<text x="352.757502027575" y="719" font-size="13px" fill="green"  text-anchor='middle' font-family="Times New Roman">4,000</text>
<line x1="454.136253041363" y1="696" x2="454.136253041363" y2="704" style="stroke:green;stroke-width:0.5;opacity:1"/>
<text x="454.136253041363" y="719" font-size="13px" fill="green"  text-anchor='middle' font-family="Times New Roman">6,000</text>
<line x1="555.51500405515" y1="696" x2="555.51500405515" y2="704" style="stroke:green;stroke-width:0.5;opacity:1"/>
<text x="555.51500405515" y="719" font-size="13px" fill="green"  text-anchor='middle' font-family="Times New Roman">8,000</text>
<line x1="656.893755068938" y1="696" x2="656.893755068938" y2="704" style="stroke:green;stroke-width:0.5;opacity:1"/>
<text x="656.893755068938" y="719" font-size="13px" fill="green"  text-anchor='middle' font-family="Times New Roman">10,000</text>
<line x1="758.272506082725" y1="696" x2="758.272506082725" y2="704" style="stroke:green;stroke-width:0.5;opacity:1"/>
<text x="758.272506082725" y="719" font-size="13px" fill="green"  text-anchor='middle' font-family="Times New Roman">12,000</text>
<line x1="859.651257096513" y1="696" x2="859.651257096513" y2="704" style="stroke:green;stroke-width:0.5;opacity:1"/>
<text x="859.651257096513" y="719" font-size="13px" fill="green"  text-anchor='middle' font-family="Times New Roman">14,000</text>
<line x1="961.0300081103" y1="696" x2="961.0300081103" y2="704" style="stroke:green;stroke-width:0.5;opacity:1"/>
<text x="961.0300081103" y="719" font-size="13px" fill="green"  text-anchor='middle' font-family="Times New Roman">16,000</text>
<line x1="1062.40875912409" y1="696" x2="1062.40875912409" y2="704" style="stroke:green;stroke-width:0.5;opacity:1"/>
<text x="1062.40875912409" y="719" font-size="13px" fill="green"  text-anchor='middle' font-family="Times New Roman">18,000</text>
<line x1="1163.78751013788" y1="696" x2="1163.78751013788" y2="704" style="stroke:green;stroke-width:0.5;opacity:1"/>
<text x="1163.78751013788" y="719" font-size="13px" fill="green"  text-anchor='middle' font-family="Times New Roman">20,000</text>
<line x1="1275" y1="696" x2="1275" y2="704" style="stroke:green;stroke-width:0.5;opacity:1"/>
<text x="1275" y="719" font-size="13px" fill="green"  text-anchor='middle' font-family="Times New Roman">22,194bp</text>


<g><title>gene_s203 -> gene_s303</title><polygon points="298.266423357664,328.16 308.100162206002,328.16 312.20600162206,481.76 302.372262773723,481.76" style="fill:#FF8C00;stroke:#000000;stroke-width:0;opacity:1"/></g>
<g><title>gene_s404000 -> gene_s4020000</title><path d="M233.302919708029 641.76 L225.375101378751 641.76 A88.7824412003244 39.42  0 0 1   402.9399837794 641.76 L395.012165450122 641.76 A80.8546228710462 31.536 0 1 0 233.302919708029 641.76 Z"  style="fill:#FF8C00;opacity:0.5" /></g><g><title>gene_s307 -> gene_s308</title><line x1="458.546228710462" y1="484.96" x2="491.950527169505" y2="484.96" style="fill:red;stroke:red;stroke-width:0.64;opacity:1" /></g>
<g><title>gene_s2100000 -> gene_s4100000</title><polygon points="1132.91768045418,318.24 1146.70519059205,318.24 710.928629359286,645.293755068938 710.928629359286,631.506244931062" style="fill:#FF8C00;stroke:#000000;stroke-width:0;opacity:1"/></g>
<g><title>gene_s303 -> gene_s403000</title><polygon points="302.372262773723,488.16 312.20600162206,488.16 206.772100567721,641.76 196.938361719384,641.76" style="fill:#FF8C00;stroke:#000000;stroke-width:0;opacity:1"/></g>
<g><title>gene_s406000 -> gene_s4060000</title><path d="M303.619221411192 631.84 L292.741281427413 631.84 A156.478102189781 39.42  0 0 1   605.697485806975 631.84 L594.819545823196 631.84 A145.600162206002 31.536 0 1 0 303.619221411192 631.84 Z"  style="fill:#FF8C00;opacity:1" /></g><g><title>gene_s208 -> gene_s304</title><line x1="511.567315490673" y1="324.96" x2="340.211881589619" y2="484.96" style="fill:#FF8C00;stroke:#FF8C00;stroke-width:0.64;opacity:1" /></g>
<g><title>gene_s403000 -> gene_s406000</title><path d="M207.816301703163 648.16 L196.938361719384 648.16 A75.0963098134631 15.768  0 1 0   347.13098134631 638.24 L336.25304136253 638.24 A64.2183698296837 14.1912 0 0 1 207.816301703163 648.16 Z"  style="fill:#FF8C00;opacity:1" /></g><g><title>gene_s1060000 -> gene_s2100000</title><polygon points="1007.00527169505,158.24 1061.39497161395,158.24 1146.70519059205,311.84 1132.91768045418,311.84" style="fill:#FF8C00;stroke:#000000;stroke-width:0;opacity:1"/></g>


<g><title>s1,2,3050</title><rect x="150" y="159.84" width="154.551905920519" height="0.32" style="fill:blue;opacity:0.2"   /></g>
<g><title>s1,3000,6010</title><rect x="309.620843471208" y="159.84" width="152.625709651257" height="0.32" style="fill:blue;opacity:0.2"   /></g>
<g><title>s1,5980,9609</title><rect x="467.315490673155" y="159.84" width="184.002433090024" height="0.32" style="fill:blue;opacity:0.2"   /></g>
<g><title>s1000,2000,6000</title><rect x="656.386861313869" y="159.84" width="202.808191403082" height="0.32" style="fill:blue;opacity:0.2"   /></g>
<g><title>s10000,2000,6000</title><rect x="864.26399026764" y="159.84" width="202.808191403082" height="0.32" style="fill:blue;opacity:0.2"   /></g>
<g><title>s10000,6000,10000</title><rect x="1072.14111922141" y="159.84" width="202.808191403082" height="0.32" style="fill:blue;opacity:0.2"   /></g>
<g><title>s2,1,9000</title><rect x="150" y="319.84" width="456.204379562044" height="0.32" style="fill:blue;opacity:0.2"   /></g>
<g><title>s2000,2000,6000</title><rect x="611.273317112733" y="319.84" width="202.808191403082" height="0.32" style="fill:blue;opacity:0.2"   /></g>
<g><title>s20000,2000,6000</title><rect x="819.150446066504" y="319.84" width="202.808191403082" height="0.32" style="fill:blue;opacity:0.2"   /></g>
<g><title>s20000,6000,10000</title><rect x="1027.02757502028" y="319.84" width="202.808191403082" height="0.32" style="fill:blue;opacity:0.2"   /></g>
<g><title>s3,11,2010</title><rect x="150" y="479.84" width="101.378751013788" height="0.32" style="fill:blue;opacity:0.2"   /></g>
<g><title>s3,2020,5000</title><rect x="256.447688564477" y="479.84" width="151.10502838605" height="0.32" style="fill:blue;opacity:0.2"   /></g>
<g><title>s3,5100,9609</title><rect x="412.621654501217" y="479.84" width="228.609083536091" height="0.32" style="fill:blue;opacity:0.2"   /></g>
<g><title>s3000,2000,6000</title><rect x="646.299675587997" y="479.84" width="202.808191403082" height="0.32" style="fill:blue;opacity:0.2"   /></g>
<g><title>s30000,2000,6000</title><rect x="854.176804541768" y="479.84" width="202.808191403082" height="0.32" style="fill:blue;opacity:0.2"   /></g>
<g><title>s4000,2000,6000</title><rect x="150" y="639.84" width="202.808191403082" height="0.32" style="fill:blue;opacity:0.2"   /></g>
<g><title>s40000,1000,8000</title><rect x="357.877128953771" y="639.84" width="354.876317923763" height="0.32" style="fill:blue;opacity:0.2"   /></g>
<g><title>s40000,8000,9609</title><rect x="717.822384428224" y="639.84" width="81.6098945660989" height="0.32" style="fill:blue;opacity:0.2"   /></g>



				<g style="fill:none">
				<title>gene_s101,s1,s1,87,1109,1</title>
				<polygon points="154.359286293593,163.36 154.359286293593,166.56 190.622465531225,166.56 190.622465531225,168.16 206.163828061638,164.96 190.622465531225,161.76 190.622465531225,163.36" style="fill:rgb(50,205,50);stroke:black;stroke-width:0;opacity:1"/> 
				</g>

				<g style="fill:none">
				<title>gene_s102,s1,s1,1106,1888,1</title>
				<polygon points="206.011759935118,163.36 206.011759935118,166.56 233.759124087591,166.56 233.759124087591,168.16 245.650851581509,164.96 233.759124087591,161.76 233.759124087591,163.36" style="fill:rgb(50,205,50);stroke:black;stroke-width:0;opacity:1"/> 
				</g>

				<g style="fill:none">
				<title>gene_s104,s1,s1,3486,3857,1</title>
				<polygon points="334.306569343066,163.36 334.306569343066,166.56 347.470600162206,166.56 347.470600162206,168.16 353.112327656123,164.96 347.470600162206,161.76 347.470600162206,163.36" style="fill:rgb(50,205,50);stroke:black;stroke-width:0;opacity:1"/> 
				</g>

				<g style="fill:none">
				<title>gene_s105,s1,s1,4343,4780,1</title>
				<polygon points="377.747364152474,163.36 377.747364152474,166.56 393.253244120032,166.56 393.253244120032,168.16 399.898621248986,164.96 393.253244120032,161.76 393.253244120032,163.36" style="fill:rgb(50,205,50);stroke:black;stroke-width:0;opacity:1"/> 
				</g>

				<g style="fill:none">
				<title>gene_s106,s1,s1,4815,5888,0</title>
				<polygon points="401.672749391728,155.04 417.989659367397,158.24 417.989659367397,156.64 456.062449310625,156.64 456.062449310625,153.44 417.989659367397,153.44 417.989659367397,151.84" style="fill:rgb(50,205,50);stroke:black;stroke-width:0;opacity:1"/> 
				</g>

				<g style="fill:none">
				<title>gene_s107,s1,s1,6005,6421,1</title>
				<polygon points="468.633414436334,163.36 468.633414436334,166.56 483.394160583942,166.56 483.394160583942,168.16 489.720194647202,164.96 483.394160583942,161.76 483.394160583942,163.36" style="fill:rgb(50,205,50);stroke:black;stroke-width:0;opacity:1"/> 
				</g>

				<g style="fill:none">
				<title>gene_s108,s1,s1,6664,7602,1</title>
				<polygon points="502.037712895377,163.36 502.037712895377,166.56 535.320356853204,166.56 535.320356853204,168.16 549.584347120844,164.96 535.320356853204,161.76 535.320356853204,163.36" style="fill:rgb(50,205,50);stroke:black;stroke-width:0;opacity:1"/> 
				</g>

				<g style="fill:none">
				<title>gene_s109,s1,s1,7789,8088,0</title>
				<polygon points="559.063260340633,155.04 563.610097323601,158.24 563.610097323601,156.64 574.219383617194,156.64 574.219383617194,153.44 563.610097323601,153.44 563.610097323601,151.84" style="fill:rgb(50,205,50);stroke:black;stroke-width:0;opacity:1"/> 
				</g>

				<g style="fill:none">
				<title>gene_s110,s1,s1,8088,8360,0</title>
				<polygon points="574.219383617194,155.04 578.355636658556,158.24 578.355636658556,156.64 588.006893755069,156.64 588.006893755069,153.44 578.355636658556,153.44 578.355636658556,151.84" style="fill:rgb(50,205,50);stroke:black;stroke-width:0;opacity:1"/> 
				</g>

				<g style="fill:none">
				<title>gene_s103000,s1,s1000,2925,3119,1</title>
				<polygon points="703.325223033252,163.36 703.325223033252,166.56 710.208840227088,166.56 710.208840227088,168.16 713.15896188159,164.96 710.208840227088,161.76 710.208840227088,163.36" style="fill:rgb(50,205,50);stroke:black;stroke-width:0;opacity:1"/> 
				</g>

				<g style="fill:none">
				<title>gene_s104000,s1,s1000,3486,3857,1</title>
				<polygon points="731.76196269262,163.36 731.76196269262,166.56 744.92599351176,166.56 744.92599351176,168.16 750.567721005677,164.96 744.92599351176,161.76 744.92599351176,163.36" style="fill:rgb(50,205,50);stroke:black;stroke-width:0;opacity:1"/> 
				</g>

				<g style="fill:none">
				<title>gene_s105000,s1,s1000,4343,4780,1</title>
				<polygon points="775.202757502028,163.36 775.202757502028,166.56 790.708637469586,166.56 790.708637469586,168.16 797.35401459854,164.96 790.708637469586,161.76 790.708637469586,163.36" style="fill:rgb(50,205,50);stroke:black;stroke-width:0;opacity:1"/> 
				</g>

				<g style="fill:none">
				<title>gene_s106000,s1,s1000,4815,5888,0</title>
				<polygon points="799.128142741281,155.04 815.44505271695,158.24 815.44505271695,156.64 853.517842660178,156.64 853.517842660178,153.44 815.44505271695,153.44 815.44505271695,151.84" style="fill:rgb(50,205,50);stroke:black;stroke-width:0;opacity:1"/> 
				</g>

				<g style="fill:none">
				<title>gene_s1030000,s1,s10000,2925,3119,1</title>
				<polygon points="911.202351987023,163.36 911.202351987023,166.56 918.08596918086,166.56 918.08596918086,168.16 921.036090835361,164.96 918.08596918086,161.76 918.08596918086,163.36" style="fill:rgb(50,205,50);stroke:black;stroke-width:0;opacity:1"/> 
				</g>

				<g style="fill:none">
				<title>gene_s1040000,s1,s10000,3486,3857,1</title>
				<polygon points="939.639091646391,163.36 939.639091646391,166.56 952.803122465531,166.56 952.803122465531,168.16 958.444849959448,164.96 952.803122465531,161.76 952.803122465531,163.36" style="fill:rgb(50,205,50);stroke:black;stroke-width:0;opacity:1"/> 
				</g>

				<g style="fill:none">
				<title>gene_s1050000,s1,s10000,4343,4780,1</title>
				<polygon points="983.079886455799,163.36 983.079886455799,166.56 998.585766423358,166.56 998.585766423358,168.16 1005.23114355231,164.96 998.585766423358,161.76 998.585766423358,163.36" style="fill:rgb(50,205,50);stroke:black;stroke-width:0;opacity:1"/> 
				</g>

				<g style="fill:none">
				<title>gene_s1060000,s1,s10000,4815,5888,0</title>
				<polygon points="1007.00527169505,155.04 1023.32218167072,158.24 1023.32218167072,156.64 1061.39497161395,156.64 1061.39497161395,153.44 1023.32218167072,153.44 1023.32218167072,151.84" style="fill:rgb(50,205,50);stroke:black;stroke-width:0;opacity:1"/> 
				</g>

				<g style="fill:none">
				<title>gene_s1070000,s1,s10000,6005,6421,1</title>
				<polygon points="1072.44525547445,163.36 1072.44525547445,166.56 1087.20600162206,166.56 1087.20600162206,168.16 1093.53203568532,164.96 1087.20600162206,161.76 1087.20600162206,163.36" style="fill:rgb(50,205,50);stroke:black;stroke-width:0;opacity:1"/> 
				</g>

				<g style="fill:none">
				<title>gene_s1080000,s1,s10000,6664,7602,1</title>
				<polygon points="1105.8495539335,163.36 1105.8495539335,166.56 1139.13219789132,166.56 1139.13219789132,168.16 1153.39618815896,164.96 1139.13219789132,161.76 1139.13219789132,163.36" style="fill:rgb(50,205,50);stroke:black;stroke-width:0;opacity:1"/> 
				</g>

				<g style="fill:none">
				<title>gene_s1090000,s1,s10000,7789,8088,0</title>
				<polygon points="1162.87510137875,155.04 1167.42193836172,158.24 1167.42193836172,156.64 1178.03122465531,156.64 1178.03122465531,153.44 1167.42193836172,153.44 1167.42193836172,151.84" style="fill:rgb(50,205,50);stroke:black;stroke-width:0;opacity:1"/> 
				</g>

				<g style="fill:none">
				<title>gene_s1100000,s1,s10000,8088,8360,0</title>
				<polygon points="1178.03122465531,155.04 1182.16747769667,158.24 1182.16747769667,156.64 1191.81873479319,156.64 1191.81873479319,153.44 1182.16747769667,153.44 1182.16747769667,151.84" style="fill:rgb(50,205,50);stroke:black;stroke-width:0;opacity:1"/> 
				</g>

				<g style="fill:none">
				<title>gene_s11000001,s1,s10000,8361,8560,0</title>
				<polygon points="1191.86942416869,155.04 1194.89557988646,158.24 1194.89557988646,156.64 1201.95660989457,156.64 1201.95660989457,153.44 1194.89557988646,153.44 1194.89557988646,151.84" style="fill:rgb(50,205,50);stroke:black;stroke-width:0;opacity:1"/> 
				</g>

				<g style="fill:none">
				<title>gene_s201,s2,s2,87,1109,1</title>
				<polygon points="154.4099756691,323.36 154.4099756691,326.56 190.673154906732,326.56 190.673154906732,328.16 206.214517437145,324.96 190.673154906732,321.76 190.673154906732,323.36" style="fill:rgb(50,205,50);stroke:black;stroke-width:0;opacity:1"/> 
				</g>

				<g style="fill:none">
				<title>gene_s202,s2,s2,1106,1888,1</title>
				<polygon points="206.062449310624,323.36 206.062449310624,326.56 233.809813463098,326.56 233.809813463098,328.16 245.701540957015,324.96 233.809813463098,321.76 233.809813463098,323.36" style="fill:rgb(50,205,50);stroke:black;stroke-width:0;opacity:1"/> 
				</g>

				<g style="fill:none">
				<title>gene_s203,s2,s2,2925,3119,1</title>
				<polygon points="298.266423357664,323.36 298.266423357664,326.56 305.1500405515,326.56 305.1500405515,328.16 308.100162206002,324.96 305.1500405515,321.76 305.1500405515,323.36" style="fill:rgb(50,205,50);stroke:black;stroke-width:0;opacity:1"/> 
				</g>

				<g style="fill:none">
				<title>gene_s204,s2,s2,3486,3857,1</title>
				<polygon points="326.703163017032,323.36 326.703163017032,326.56 339.867193836172,326.56 339.867193836172,328.16 345.508921330089,324.96 339.867193836172,321.76 339.867193836172,323.36" style="fill:rgb(50,205,50);stroke:black;stroke-width:0;opacity:1"/> 
				</g>

				<g style="fill:none">
				<title>gene_s205,s2,s2,4343,4780,1</title>
				<polygon points="370.14395782644,323.36 370.14395782644,326.56 385.649837793998,326.56 385.649837793998,328.16 392.295214922952,324.96 385.649837793998,321.76 385.649837793998,323.36" style="fill:rgb(50,205,50);stroke:black;stroke-width:0;opacity:1"/> 
				</g>

				<g style="fill:none">
				<title>gene_s206,s2,s2,4815,5888,0</title>
				<polygon points="394.069343065693,315.04 410.386253041363,318.24 410.386253041363,316.64 448.45904298459,316.64 448.45904298459,313.44 410.386253041363,313.44 410.386253041363,311.84" style="fill:rgb(50,205,50);stroke:black;stroke-width:0;opacity:1"/> 
				</g>

				<g style="fill:none">
				<title>gene_s207,s2,s2,6005,6421,1</title>
				<polygon points="454.389699918897,323.36 454.389699918897,326.56 469.150446066504,326.56 469.150446066504,328.16 475.476480129765,324.96 469.150446066504,321.76 469.150446066504,323.36" style="fill:rgb(50,205,50);stroke:black;stroke-width:0;opacity:1"/> 
				</g>

				<g style="fill:none">
				<title>gene_s208,s2,s2,6664,7602,1</title>
				<polygon points="487.79399837794,323.36 487.79399837794,326.56 521.076642335766,326.56 521.076642335766,328.16 535.340632603406,324.96 521.076642335766,321.76 521.076642335766,323.36" style="fill:rgb(50,205,50);stroke:black;stroke-width:0;opacity:1"/> 
				</g>

				<g style="fill:none">
				<title>gene_s209,s2,s2,7789,8088,0</title>
				<polygon points="544.819545823196,315.04 549.366382806164,318.24 549.366382806164,316.64 559.975669099757,316.64 559.975669099757,313.44 549.366382806164,313.44 549.366382806164,311.84" style="fill:rgb(50,205,50);stroke:black;stroke-width:0;opacity:1"/> 
				</g>

				<g style="fill:none">
				<title>gene_s210,s2,s2,8088,8360,0</title>
				<polygon points="559.975669099757,315.04 564.111922141119,318.24 564.111922141119,316.64 573.763179237632,316.64 573.763179237632,313.44 564.111922141119,313.44 564.111922141119,311.84" style="fill:rgb(50,205,50);stroke:black;stroke-width:0;opacity:1"/> 
				</g>

				<g style="fill:none">
				<title>gene_s203000,s2,s2000,2925,3119,1</title>
				<polygon points="658.211678832117,323.36 658.211678832117,326.56 665.095296025953,326.56 665.095296025953,328.16 668.045417680454,324.96 665.095296025953,321.76 665.095296025953,323.36" style="fill:rgb(50,205,50);stroke:black;stroke-width:0;opacity:1"/> 
				</g>

				<g style="fill:none">
				<title>gene_s204000,s2,s2000,3486,3857,1</title>
				<polygon points="686.648418491484,323.36 686.648418491484,326.56 699.812449310624,326.56 699.812449310624,328.16 705.454176804542,324.96 699.812449310624,321.76 699.812449310624,323.36" style="fill:rgb(50,205,50);stroke:black;stroke-width:0;opacity:1"/> 
				</g>

				<g style="fill:none">
				<title>gene_s205000,s2,s2000,4343,4780,1</title>
				<polygon points="730.089213300892,323.36 730.089213300892,326.56 745.595093268451,326.56 745.595093268451,328.16 752.240470397405,324.96 745.595093268451,321.76 745.595093268451,323.36" style="fill:rgb(50,205,50);stroke:black;stroke-width:0;opacity:1"/> 
				</g>

				<g style="fill:none">
				<title>gene_s206000,s2,s2000,4815,5888,0</title>
				<polygon points="754.014598540146,315.04 770.331508515815,318.24 770.331508515815,316.64 808.404298459043,316.64 808.404298459043,313.44 770.331508515815,313.44 770.331508515815,311.84" style="fill:rgb(50,205,50);stroke:black;stroke-width:0;opacity:1"/> 
				</g>

				<g style="fill:none">
				<title>gene_s2030000,s2,s20000,2925,3119,1</title>
				<polygon points="866.088807785888,323.36 866.088807785888,326.56 872.972424979724,326.56 872.972424979724,328.16 875.922546634225,324.96 872.972424979724,321.76 872.972424979724,323.36" style="fill:rgb(50,205,50);stroke:black;stroke-width:0;opacity:1"/> 
				</g>

				<g style="fill:none">
				<title>gene_s2040000,s2,s20000,3486,3857,1</title>
				<polygon points="894.525547445255,323.36 894.525547445255,326.56 907.689578264396,326.56 907.689578264396,328.16 913.331305758313,324.96 907.689578264396,321.76 907.689578264396,323.36" style="fill:rgb(50,205,50);stroke:black;stroke-width:0;opacity:1"/> 
				</g>

				<g style="fill:none">
				<title>gene_s2050000,s2,s20000,4343,4780,1</title>
				<polygon points="937.966342254663,323.36 937.966342254663,326.56 953.472222222222,326.56 953.472222222222,328.16 960.117599351176,324.96 953.472222222222,321.76 953.472222222222,323.36" style="fill:rgb(50,205,50);stroke:black;stroke-width:0;opacity:1"/> 
				</g>

				<g style="fill:none">
				<title>gene_s2060000,s2,s20000,4815,5888,0</title>
				<polygon points="961.891727493917,315.04 978.208637469586,318.24 978.208637469586,316.64 1016.28142741281,316.64 1016.28142741281,313.44 978.208637469586,313.44 978.208637469586,311.84" style="fill:rgb(50,205,50);stroke:black;stroke-width:0;opacity:1"/> 
				</g>

				<g style="fill:none">
				<title>gene_s2070000,s2,s20000,6005,6421,1</title>
				<polygon points="1027.33171127332,323.36 1027.33171127332,326.56 1042.09245742092,326.56 1042.09245742092,328.16 1048.41849148418,324.96 1042.09245742092,321.76 1042.09245742092,323.36" style="fill:rgb(50,205,50);stroke:black;stroke-width:0;opacity:1"/> 
				</g>

				<g style="fill:none">
				<title>gene_s2080000,s2,s20000,6664,7602,1</title>
				<polygon points="1060.73600973236,323.36 1060.73600973236,326.56 1094.01865369019,326.56 1094.01865369019,328.16 1108.28264395783,324.96 1094.01865369019,321.76 1094.01865369019,323.36" style="fill:rgb(50,205,50);stroke:black;stroke-width:0;opacity:1"/> 
				</g>

				<g style="fill:none">
				<title>gene_s2090000,s2,s20000,7789,8088,0</title>
				<polygon points="1117.76155717762,315.04 1122.30839416058,318.24 1122.30839416058,316.64 1132.91768045418,316.64 1132.91768045418,313.44 1122.30839416058,313.44 1122.30839416058,311.84" style="fill:rgb(50,205,50);stroke:black;stroke-width:0;opacity:1"/> 
				</g>

				<g style="fill:none">
				<title>gene_s2100000,s2,s20000,8088,8360,0</title>
				<polygon points="1132.91768045418,315.04 1137.05393349554,318.24 1137.05393349554,316.64 1146.70519059205,316.64 1146.70519059205,313.44 1137.05393349554,313.44 1137.05393349554,311.84" style="fill:rgb(50,205,50);stroke:black;stroke-width:0;opacity:1"/> 
				</g>

				<g style="fill:none">
				<title>gene_s301,s3,s3,87,1109,1</title>
				<polygon points="153.903081914031,483.36 153.903081914031,486.56 190.166261151663,486.56 190.166261151663,488.16 205.707623682076,484.96 190.166261151663,481.76 190.166261151663,483.36" style="fill:rgb(50,205,50);stroke:black;stroke-width:0;opacity:1"/> 
				</g>

				<g style="fill:none">
				<title>gene_s302,s3,s3,1106,1888,1</title>
				<polygon points="205.555555555556,483.36 205.555555555556,486.56 233.302919708029,486.56 233.302919708029,488.16 245.194647201946,484.96 233.302919708029,481.76 233.302919708029,483.36" style="fill:rgb(50,205,50);stroke:black;stroke-width:0;opacity:1"/> 
				</g>

				<g style="fill:none">
				<title>gene_s303,s3,s3,2925,3119,1</title>
				<polygon points="302.372262773723,483.36 302.372262773723,486.56 309.255879967559,486.56 309.255879967559,488.16 312.20600162206,484.96 309.255879967559,481.76 309.255879967559,483.36" style="fill:rgb(50,205,50);stroke:black;stroke-width:0;opacity:1"/> 
				</g>

				<g style="fill:none">
				<title>gene_s304,s3,s3,3486,3857,1</title>
				<polygon points="330.80900243309,483.36 330.80900243309,486.56 343.97303325223,486.56 343.97303325223,488.16 349.614760746148,484.96 343.97303325223,481.76 343.97303325223,483.36" style="fill:rgb(50,205,50);stroke:black;stroke-width:0;opacity:1"/> 
				</g>

				<g style="fill:none">
				<title>gene_s305,s3,s3,4343,4780,1</title>
				<polygon points="374.249797242498,483.36 374.249797242498,486.56 389.755677210057,486.56 389.755677210057,488.16 396.401054339011,484.96 389.755677210057,481.76 389.755677210057,483.36" style="fill:rgb(50,205,50);stroke:black;stroke-width:0;opacity:1"/> 
				</g>

				<g style="fill:none">
				<title>gene_s307,s3,s3,6005,6421,1</title>
				<polygon points="458.546228710462,483.36 458.546228710462,486.56 473.30697485807,486.56 473.30697485807,488.16 479.63300892133,484.96 473.30697485807,481.76 473.30697485807,483.36" style="fill:rgb(50,205,50);stroke:black;stroke-width:0;opacity:1"/> 
				</g>

				<g style="fill:none">
				<title>gene_s308,s3,s3,6664,7602,1</title>
				<polygon points="491.950527169505,483.36 491.950527169505,486.56 525.233171127332,486.56 525.233171127332,488.16 539.497161394972,484.96 525.233171127332,481.76 525.233171127332,483.36" style="fill:rgb(50,205,50);stroke:black;stroke-width:0;opacity:1"/> 
				</g>

				<g style="fill:none">
				<title>gene_s309,s3,s3,7789,8088,0</title>
				<polygon points="548.976074614761,475.04 553.522911597729,478.24 553.522911597729,476.64 564.132197891322,476.64 564.132197891322,473.44 553.522911597729,473.44 553.522911597729,471.84" style="fill:rgb(50,205,50);stroke:black;stroke-width:0;opacity:1"/> 
				</g>

				<g style="fill:none">
				<title>gene_s310,s3,s3,8088,8360,0</title>
				<polygon points="564.132197891322,475.04 568.268450932685,478.24 568.268450932685,476.64 577.919708029197,476.64 577.919708029197,473.44 568.268450932685,473.44 568.268450932685,471.84" style="fill:rgb(50,205,50);stroke:black;stroke-width:0;opacity:1"/> 
				</g>

				<g style="fill:none">
				<title>gene_s303000,s3,s3000,2925,3119,1</title>
				<polygon points="693.23803730738,483.36 693.23803730738,486.56 700.121654501216,486.56 700.121654501216,488.16 703.071776155718,484.96 700.121654501216,481.76 700.121654501216,483.36" style="fill:rgb(50,205,50);stroke:black;stroke-width:0;opacity:1"/> 
				</g>

				<g style="fill:none">
				<title>gene_s304000,s3,s3000,3486,3857,1</title>
				<polygon points="721.674776966748,483.36 721.674776966748,486.56 734.838807785888,486.56 734.838807785888,488.16 740.480535279805,484.96 734.838807785888,481.76 734.838807785888,483.36" style="fill:rgb(50,205,50);stroke:black;stroke-width:0;opacity:1"/> 
				</g>

				<g style="fill:none">
				<title>gene_s305000,s3,s3000,4343,4780,1</title>
				<polygon points="765.115571776156,483.36 765.115571776156,486.56 780.621451743714,486.56 780.621451743714,488.16 787.266828872668,484.96 780.621451743714,481.76 780.621451743714,483.36" style="fill:rgb(50,205,50);stroke:black;stroke-width:0;opacity:1"/> 
				</g>

				<g style="fill:none">
				<title>gene_s306000,s3,s3000,4815,5888,0</title>
				<polygon points="789.04095701541,475.04 805.357866991079,478.24 805.357866991079,476.64 843.430656934307,476.64 843.430656934307,473.44 805.357866991079,473.44 805.357866991079,471.84" style="fill:rgb(50,205,50);stroke:black;stroke-width:0;opacity:1"/> 
				</g>

				<g style="fill:none">
				<title>gene_s3030000,s3,s30000,2925,3119,1</title>
				<polygon points="901.115166261152,483.36 901.115166261152,486.56 907.998783454988,486.56 907.998783454988,488.16 910.948905109489,484.96 907.998783454988,481.76 907.998783454988,483.36" style="fill:rgb(50,205,50);stroke:black;stroke-width:0;opacity:1"/> 
				</g>

				<g style="fill:none">
				<title>gene_s3040000,s3,s30000,3486,3857,1</title>
				<polygon points="929.551905920519,483.36 929.551905920519,486.56 942.715936739659,486.56 942.715936739659,488.16 948.357664233577,484.96 942.715936739659,481.76 942.715936739659,483.36" style="fill:rgb(50,205,50);stroke:black;stroke-width:0;opacity:1"/> 
				</g>

				<g style="fill:none">
				<title>gene_s3050000,s3,s30000,4343,4780,1</title>
				<polygon points="972.992700729927,483.36 972.992700729927,486.56 988.498580697486,486.56 988.498580697486,488.16 995.14395782644,484.96 988.498580697486,481.76 988.498580697486,483.36" style="fill:rgb(50,205,50);stroke:black;stroke-width:0;opacity:1"/> 
				</g>

				<g style="fill:none">
				<title>gene_s3060000,s3,s30000,4815,5888,0</title>
				<polygon points="996.918085969181,475.04 1013.23499594485,478.24 1013.23499594485,476.64 1051.30778588808,476.64 1051.30778588808,473.44 1013.23499594485,473.44 1013.23499594485,471.84" style="fill:rgb(50,205,50);stroke:black;stroke-width:0;opacity:1"/> 
				</g>

				<g style="fill:none">
				<title>gene_s403000,s4,s4000,2925,3119,1</title>
				<polygon points="196.938361719384,643.36 196.938361719384,646.56 203.82197891322,646.56 203.82197891322,648.16 206.772100567721,644.96 203.82197891322,641.76 203.82197891322,643.36" style="fill:rgb(50,205,50);stroke:black;stroke-width:0;opacity:1"/> 
				</g>

				<g style="fill:none">
				<title>gene_s404000,s4,s4000,3486,3857,1</title>
				<polygon points="225.375101378751,643.36 225.375101378751,646.56 238.539132197891,646.56 238.539132197891,648.16 244.180859691809,644.96 238.539132197891,641.76 238.539132197891,643.36" style="fill:rgb(50,205,50);stroke:black;stroke-width:0;opacity:1"/> 
				</g>

				<g style="fill:none">
				<title>gene_s405000,s4,s4000,4343,4780,1</title>
				<polygon points="268.815896188159,643.36 268.815896188159,646.56 284.321776155718,646.56 284.321776155718,648.16 290.967153284671,644.96 284.321776155718,641.76 284.321776155718,643.36" style="fill:rgb(50,205,50);stroke:black;stroke-width:0;opacity:1"/> 
				</g>

				<g style="fill:none">
				<title>gene_s406000,s4,s4000,4815,5888,0</title>
				<polygon points="292.741281427413,635.04 309.058191403082,638.24 309.058191403082,636.64 347.13098134631,636.64 347.13098134631,633.44 309.058191403082,633.44 309.058191403082,631.84" style="fill:rgb(50,205,50);stroke:black;stroke-width:0;opacity:1"/> 
				</g>

				<g style="fill:none">
				<title>gene_s4020000,s4,s40000,1106,1888,1</title>
				<polygon points="363.300892133009,643.36 363.300892133009,646.56 391.048256285483,646.56 391.048256285483,648.16 402.9399837794,644.96 391.048256285483,641.76 391.048256285483,643.36" style="fill:rgb(50,205,50);stroke:black;stroke-width:0;opacity:1"/> 
				</g>

				<g style="fill:none">
				<title>gene_s4030000,s4,s40000,2925,3119,1</title>
				<polygon points="455.504866180049,643.36 455.504866180049,646.56 462.388483373885,646.56 462.388483373885,648.16 465.338605028386,644.96 462.388483373885,641.76 462.388483373885,643.36" style="fill:rgb(50,205,50);stroke:black;stroke-width:0;opacity:1"/> 
				</g>

				<g style="fill:none">
				<title>gene_s4040000,s4,s40000,3486,3857,1</title>
				<polygon points="483.941605839416,643.36 483.941605839416,646.56 497.105636658556,646.56 497.105636658556,648.16 502.747364152474,644.96 497.105636658556,641.76 497.105636658556,643.36" style="fill:rgb(50,205,50);stroke:black;stroke-width:0;opacity:1"/> 
				</g>

				<g style="fill:none">
				<title>gene_s4050000,s4,s40000,4343,4780,1</title>
				<polygon points="527.382400648824,643.36 527.382400648824,646.56 542.888280616383,646.56 542.888280616383,648.16 549.533657745337,644.96 542.888280616383,641.76 542.888280616383,643.36" style="fill:rgb(50,205,50);stroke:black;stroke-width:0;opacity:1"/> 
				</g>

				<g style="fill:none">
				<title>gene_s4060000,s4,s40000,4815,5888,0</title>
				<polygon points="551.307785888078,635.04 567.624695863747,638.24 567.624695863747,636.64 605.697485806975,636.64 605.697485806975,633.44 567.624695863747,633.44 567.624695863747,631.84" style="fill:rgb(50,205,50);stroke:black;stroke-width:0;opacity:1"/> 
				</g>

				<g style="fill:none">
				<title>gene_s4070000,s4,s40000,6005,6421,1</title>
				<polygon points="611.628142741281,643.36 611.628142741281,646.56 626.388888888889,646.56 626.388888888889,648.16 632.714922952149,644.96 626.388888888889,641.76 626.388888888889,643.36" style="fill:rgb(50,205,50);stroke:black;stroke-width:0;opacity:1"/> 
				</g>

				<g style="fill:none">
				<title>gene_s4080000,s4,s40000,6664,7602,1</title>
				<polygon points="645.032441200324,643.36 645.032441200324,646.56 678.315085158151,646.56 678.315085158151,648.16 692.579075425791,644.96 678.315085158151,641.76 678.315085158151,643.36" style="fill:rgb(50,205,50);stroke:black;stroke-width:0;opacity:1"/> 
				</g>

				<g style="fill:none">
				<title>gene_s4100000,s4,s40000,8088,8360,0</title>
				<circle cx="710.928629359286" cy="640" r="6.89375506893755" stroke="black" stroke-width="0" fill="black" style="opacity:1"/>

				</g>

				<g style="fill:none">
				<title>gene_s410000000,s4,s40000,8188,8260,1</title>
				<polygon points="727.402676399027,640.96 727.402676399027,642.56 731.052311435523,642.56 731.052311435523,640.96 " style="fill:red;stroke:black;stroke-width:0;opacity:1"/> 
				</g>

</svg>