<?xml version="1.0" encoding="UTF-8" standalone="yes"?>
<!DOCTYPE svg PUBLIC "-//W3C//DTD SVG 1.0//EN" "http://www.w3.org/TR/2001/REC-SVG-20010904/DTD/svg10.dtd">
<svg height="650" width="950" xmlns="http://www.w3.org/2000/svg" xmlns:xlink="http://www.w3.org/1999/xlink">
	<line stroke="black" stroke-width="0.8" x1="100" x2="900" y1="122.5" y2="122.5" />
	<line stroke="black" stroke-width="0.8" x1="100" x2="900" y1="577.5" y2="577.5" />
	<text fill="black" font-family="Arial" font-size="15" stroke="none" text-anchor="start" x="907.5" xml:space="preserve" y="130">Kb
	</text>
	<line stroke="black" stroke-width="0.8" x1="100" x2="100" y1="122.5" y2="117.5" />
	<line stroke="black" stroke-width="0.8" x1="100" x2="100" y1="582.5" y2="577.5" />
	<text fill="black" font-family="Arial" font-size="15" stroke="none" text-anchor="middle" x="100" xml:space="preserve" y="115">0
	</text>
	<text fill="black" font-family="Arial" font-size="15" stroke="none" text-anchor="middle" x="100" xml:space="preserve" y="595">0
	</text>
	<line stroke="black" stroke-width="0.16" x1="122.857142857143" x2="122.857142857143" y1="122.5" y2="577.5" />
	<line stroke="black" stroke-width="0.16" x1="145.714285714286" x2="145.714285714286" y1="122.5" y2="577.5" />
	<line stroke="black" stroke-width="0.16" x1="168.571428571429" x2="168.571428571429" y1="122.5" y2="577.5" />
	<line stroke="black" stroke-width="0.16" x1="191.428571428571" x2="191.428571428571" y1="122.5" y2="577.5" />
	<line stroke="black" stroke-width="0.8" x1="214.285714285714" x2="214.285714285714" y1="122.5" y2="117.5" />
	<line stroke="black" stroke-width="0.8" x1="214.285714285714" x2="214.285714285714" y1="582.5" y2="577.5" />
	<text fill="black" font-family="Arial" font-size="15" stroke="none" text-anchor="middle" x="214.285714285714" xml:space="preserve" y="115">5
	</text>
	<text fill="black" font-family="Arial" font-size="15" stroke="none" text-anchor="middle" x="214.285714285714" xml:space="preserve" y="595">5
	</text>
	<line stroke="black" stroke-width="0.16" x1="214.285714285714" x2="214.285714285714" y1="122.5" y2="577.5" />
	<line stroke="black" stroke-width="0.16" x1="237.142857142857" x2="237.142857142857" y1="122.5" y2="577.5" />
	<line stroke="black" stroke-width="0.16" x1="260" x2="260" y1="122.5" y2="577.5" />
	<line stroke="black" stroke-width="0.16" x1="282.857142857143" x2="282.857142857143" y1="122.5" y2="577.5" />
	<line stroke="black" stroke-width="0.16" x1="305.714285714286" x2="305.714285714286" y1="122.5" y2="577.5" />
	<line stroke="black" stroke-width="0.8" x1="328.571428571428" x2="328.571428571428" y1="122.5" y2="117.5" />
	<line stroke="black" stroke-width="0.8" x1="328.571428571428" x2="328.571428571428" y1="582.5" y2="577.5" />
	<text fill="black" font-family="Arial" font-size="15" stroke="none" text-anchor="middle" x="328.571428571428" xml:space="preserve" y="115">10
	</text>
	<text fill="black" font-family="Arial" font-size="15" stroke="none" text-anchor="middle" x="328.571428571428" xml:space="preserve" y="595">10
	</text>
	<line stroke="black" stroke-width="0.16" x1="328.571428571428" x2="328.571428571428" y1="122.5" y2="577.5" />
	<line stroke="black" stroke-width="0.16" x1="351.428571428571" x2="351.428571428571" y1="122.5" y2="577.5" />
	<line stroke="black" stroke-width="0.16" x1="374.285714285714" x2="374.285714285714" y1="122.5" y2="577.5" />
	<line stroke="black" stroke-width="0.16" x1="397.142857142857" x2="397.142857142857" y1="122.5" y2="577.5" />
	<line stroke="black" stroke-width="0.16" x1="420" x2="420" y1="122.5" y2="577.5" />
	<line stroke="black" stroke-width="0.8" x1="442.857142857143" x2="442.857142857143" y1="122.5" y2="117.5" />
	<line stroke="black" stroke-width="0.8" x1="442.857142857143" x2="442.857142857143" y1="582.5" y2="577.5" />
	<text fill="black" font-family="Arial" font-size="15" stroke="none" text-anchor="middle" x="442.857142857143" xml:space="preserve" y="115">15
	</text>
	<text fill="black" font-family="Arial" font-size="15" stroke="none" text-anchor="middle" x="442.857142857143" xml:space="preserve" y="595">15
	</text>
	<line stroke="black" stroke-width="0.16" x1="442.857142857143" x2="442.857142857143" y1="122.5" y2="577.5" />
	<line stroke="black" stroke-width="0.16" x1="465.714285714285" x2="465.714285714285" y1="122.5" y2="577.5" />
	<line stroke="black" stroke-width="0.16" x1="488.571428571428" x2="488.571428571428" y1="122.5" y2="577.5" />
	<line stroke="black" stroke-width="0.16" x1="511.428571428571" x2="511.428571428571" y1="122.5" y2="577.5" />
	<line stroke="black" stroke-width="0.16" x1="534.285714285714" x2="534.285714285714" y1="122.5" y2="577.5" />
	<line stroke="black" stroke-width="0.8" x1="557.142857142857" x2="557.142857142857" y1="122.5" y2="117.5" />
	<line stroke="black" stroke-width="0.8" x1="557.142857142857" x2="557.142857142857" y1="582.5" y2="577.5" />
	<text fill="black" font-family="Arial" font-size="15" stroke="none" text-anchor="middle" x="557.142857142857" xml:space="preserve" y="115">20
	</text>
	<text fill="black" font-family="Arial" font-size="15" stroke="none" text-anchor="middle" x="557.142857142857" xml:space="preserve" y="595">20
	</text>
	<line stroke="black" stroke-width="0.16" x1="557.142857142857" x2="557.142857142857" y1="122.5" y2="577.5" />
	<line stroke="black" stroke-width="0.16" x1="580" x2="580" y1="122.5" y2="577.5" />
	<line stroke="black" stroke-width="0.16" x1="602.857142857143" x2="602.857142857143" y1="122.5" y2="577.5" />
	<line stroke="black" stroke-width="0.16" x1="625.714285714286" x2="625.714285714286" y1="122.5" y2="577.5" />
	<line stroke="black" stroke-width="0.16" x1="648.571428571428" x2="648.571428571428" y1="122.5" y2="577.5" />
	<line stroke="black" stroke-width="0.8" x1="671.428571428571" x2="671.428571428571" y1="122.5" y2="117.5" />
	<line stroke="black" stroke-width="0.8" x1="671.428571428571" x2="671.428571428571" y1="582.5" y2="577.5" />
	<text fill="black" font-family="Arial" font-size="15" stroke="none" text-anchor="middle" x="671.428571428571" xml:space="preserve" y="115">25
	</text>
	<text fill="black" font-family="Arial" font-size="15" stroke="none" text-anchor="middle" x="671.428571428571" xml:space="preserve" y="595">25
	</text>
	<line stroke="black" stroke-width="0.16" x1="671.428571428571" x2="671.428571428571" y1="122.5" y2="577.5" />
	<line stroke="black" stroke-width="0.16" x1="694.285714285714" x2="694.285714285714" y1="122.5" y2="577.5" />
	<line stroke="black" stroke-width="0.16" x1="717.142857142857" x2="717.142857142857" y1="122.5" y2="577.5" />
	<line stroke="black" stroke-width="0.16" x1="740" x2="740" y1="122.5" y2="577.5" />
	<line stroke="black" stroke-width="0.16" x1="762.857142857143" x2="762.857142857143" y1="122.5" y2="577.5" />
	<line stroke="black" stroke-width="0.8" x1="785.714285714286" x2="785.714285714286" y1="122.5" y2="117.5" />
	<line stroke="black" stroke-width="0.8" x1="785.714285714286" x2="785.714285714286" y1="582.5" y2="577.5" />
	<text fill="black" font-family="Arial" font-size="15" stroke="none" text-anchor="middle" x="785.714285714286" xml:space="preserve" y="115">30
	</text>
	<text fill="black" font-family="Arial" font-size="15" stroke="none" text-anchor="middle" x="785.714285714286" xml:space="preserve" y="595">30
	</text>
	<line stroke="black" stroke-width="0.16" x1="785.714285714286" x2="785.714285714286" y1="122.5" y2="577.5" />
	<line stroke="black" stroke-width="0.16" x1="808.571428571429" x2="808.571428571429" y1="122.5" y2="577.5" />
	<line stroke="black" stroke-width="0.16" x1="831.428571428572" x2="831.428571428572" y1="122.5" y2="577.5" />
	<line stroke="black" stroke-width="0.16" x1="854.285714285714" x2="854.285714285714" y1="122.5" y2="577.5" />
	<line stroke="black" stroke-width="0.16" x1="877.142857142857" x2="877.142857142857" y1="122.5" y2="577.5" />
	<rect fill="darkorange" fill-opacity="0.5" height="25" stroke="none" width="180.634285714286" x="681.428571428571" y="155" />
	<rect fill="darkorange" fill-opacity="0.5" height="25" stroke="none" width="180.634285714286" x="162.788571428571" y="337.5" />
	<polygon fill="orange" fill-opacity="0.5" points="681.428571428571, 180, 861.062857142857, 180, 342.422857142857, 337.5, 162.788571428571, 337.5" stroke="orange" stroke-width="0.1" />
	<rect fill="darkorange" fill-opacity="0.5" height="25" stroke="none" width="25.6628571428572" x="637.542857142857" y="155" />
	<rect fill="darkorange" fill-opacity="0.5" height="25" stroke="none" width="25.6628571428571" x="138.102857142857" y="337.5" />
	<polygon fill="orange" fill-opacity="0.5" points="637.542857142857, 180, 662.205714285714, 180, 162.765714285714, 337.5, 138.102857142857, 337.5" stroke="orange" stroke-width="0.1" />
	<rect fill="darkorange" fill-opacity="0.5" height="25" stroke="none" width="9.41142857142859" x="861.085714285714" y="155" />
	<rect fill="darkorange" fill-opacity="0.5" height="25" stroke="none" width="9.41142857142859" x="345.188571428571" y="337.5" />
	<polygon fill="orange" fill-opacity="0.5" points="861.085714285714, 180, 869.497142857143, 180, 353.6, 337.5, 345.188571428571, 337.5" stroke="orange" stroke-width="0.1" />
	<rect fill="darkorange" fill-opacity="0.5" height="25" stroke="none" width="9.20571428571429" x="673.2" y="155" />
	<rect fill="darkorange" fill-opacity="0.5" height="25" stroke="none" width="9.20571428571427" x="239.588571428571" y="337.5" />
	<polygon fill="orange" fill-opacity="0.5" points="673.2, 180, 681.405714285714, 180, 247.794285714286, 337.5, 239.588571428571, 337.5" stroke="orange" stroke-width="0.1" />
	<rect fill="darkorange" fill-opacity="0.5" height="25" stroke="none" width="5.09142857142865" x="662.228571428571" y="155" />
	<rect fill="darkorange" fill-opacity="0.5" height="25" stroke="none" width="5.09142857142857" x="149.074285714286" y="337.5" />
	<polygon fill="orange" fill-opacity="0.5" points="662.228571428571, 180, 666.32, 180, 153.165714285714, 337.5, 149.074285714286, 337.5" stroke="orange" stroke-width="0.1" />
	<rect fill="darkorange" fill-opacity="0.5" height="25" stroke="none" width="3.72000000000003" x="667.714285714286" y="155" />
	<rect fill="darkorange" fill-opacity="0.5" height="25" stroke="none" width="3.71999999999997" x="168.274285714286" y="337.5" />
	<polygon fill="orange" fill-opacity="0.5" points="667.714285714286, 180, 670.434285714286, 180, 170.994285714286, 337.5, 168.274285714286, 337.5" stroke="orange" stroke-width="0.1" />
	<rect fill="darkorange" fill-opacity="0.5" height="25" stroke="none" width="180.634285714286" x="681.428571428571" y="155" />
	<rect fill="darkorange" fill-opacity="0.5" height="25" stroke="none" width="180.634285714286" x="405.28" y="337.5" />
	<polygon fill="orange" fill-opacity="0.5" points="681.428571428571, 180, 861.062857142857, 180, 584.914285714286, 337.5, 405.28, 337.5" stroke="orange" stroke-width="0.1" />
	<rect fill="darkorange" fill-opacity="0.5" height="25" stroke="none" width="25.6628571428572" x="637.542857142857" y="155" />
	<rect fill="darkorange" fill-opacity="0.5" height="25" stroke="none" width="25.6628571428571" x="380.594285714286" y="337.5" />
	<polygon fill="orange" fill-opacity="0.5" points="637.542857142857, 180, 662.205714285714, 180, 405.257142857143, 337.5, 380.594285714286, 337.5" stroke="orange" stroke-width="0.1" />
	<rect fill="darkorange" fill-opacity="0.5" height="25" stroke="none" width="9.41142857142859" x="861.085714285714" y="155" />
	<rect fill="darkorange" fill-opacity="0.5" height="25" stroke="none" width="9.41142857142859" x="587.68" y="337.5" />
	<polygon fill="orange" fill-opacity="0.5" points="861.085714285714, 180, 869.497142857143, 180, 596.091428571429, 337.5, 587.68, 337.5" stroke="orange" stroke-width="0.1" />
	<rect fill="darkorange" fill-opacity="0.5" height="25" stroke="none" width="9.20571428571429" x="673.2" y="155" />
	<rect fill="darkorange" fill-opacity="0.5" height="25" stroke="none" width="9.20571428571429" x="482.08" y="337.5" />
	<polygon fill="orange" fill-opacity="0.5" points="673.2, 180, 681.405714285714, 180, 490.285714285714, 337.5, 482.08, 337.5" stroke="orange" stroke-width="0.1" />
	<rect fill="darkorange" fill-opacity="0.5" height="25" stroke="none" width="5.09142857142865" x="662.228571428571" y="155" />
	<rect fill="darkorange" fill-opacity="0.5" height="25" stroke="none" width="5.09142857142854" x="391.565714285714" y="337.5" />
	<polygon fill="orange" fill-opacity="0.5" points="662.228571428571, 180, 666.32, 180, 395.657142857143, 337.5, 391.565714285714, 337.5" stroke="orange" stroke-width="0.1" />
	<rect fill="darkorange" fill-opacity="0.5" height="25" stroke="none" width="3.72000000000003" x="667.714285714286" y="155" />
	<rect fill="darkorange" fill-opacity="0.5" height="25" stroke="none" width="3.71999999999997" x="410.765714285714" y="337.5" />
	<polygon fill="orange" fill-opacity="0.5" points="667.714285714286, 180, 670.434285714286, 180, 413.485714285714, 337.5, 410.765714285714, 337.5" stroke="orange" stroke-width="0.1" />
	<rect fill="darkorange" fill-opacity="0.5" height="25" stroke="none" width="70.92" x="681.428571428571" y="155" />
	<rect fill="darkorange" fill-opacity="0.5" height="25" stroke="none" width="70.92" x="647.771428571429" y="337.5" />
	<polygon fill="orange" fill-opacity="0.5" points="681.428571428571, 180, 751.348571428571, 180, 717.691428571429, 337.5, 647.771428571429, 337.5" stroke="orange" stroke-width="0.1" />
	<rect fill="darkorange" fill-opacity="0.5" height="25" stroke="none" width="66.8057142857143" x="763.714285714286" y="155" />
	<rect fill="darkorange" fill-opacity="0.5" height="25" stroke="none" width="66.8057142857142" x="741.028571428571" y="337.5" />
	<polygon fill="orange" fill-opacity="0.5" points="763.714285714286, 180, 829.52, 180, 806.834285714286, 337.5, 741.028571428571, 337.5" stroke="orange" stroke-width="0.1" />
	<rect fill="darkorange" fill-opacity="0.5" height="25" stroke="none" width="32.5200000000001" x="829.542857142857" y="155" />
	<rect fill="darkorange" fill-opacity="0.5" height="25" stroke="none" width="32.52" x="815.085714285714" y="337.5" />
	<polygon fill="orange" fill-opacity="0.5" points="829.542857142857, 180, 861.062857142857, 180, 846.605714285714, 337.5, 815.085714285714, 337.5" stroke="orange" stroke-width="0.1" />
	<rect fill="darkorange" fill-opacity="0.5" height="25" stroke="none" width="25.6628571428572" x="637.542857142857" y="155" />
	<rect fill="darkorange" fill-opacity="0.5" height="25" stroke="none" width="25.6628571428571" x="623.085714285714" y="337.5" />
	<polygon fill="orange" fill-opacity="0.5" points="637.542857142857, 180, 662.205714285714, 180, 647.748571428571, 337.5, 623.085714285714, 337.5" stroke="orange" stroke-width="0.1" />
	<rect fill="darkorange" fill-opacity="0.5" height="25" stroke="none" width="9.41142857142859" x="861.085714285714" y="155" />
	<rect fill="darkorange" fill-opacity="0.5" height="25" stroke="none" width="9.41142857142847" x="849.371428571429" y="337.5" />
	<polygon fill="orange" fill-opacity="0.5" points="861.085714285714, 180, 869.497142857143, 180, 857.782857142857, 337.5, 849.371428571429, 337.5" stroke="orange" stroke-width="0.1" />
	<rect fill="darkorange" fill-opacity="0.5" height="25" stroke="none" width="9.2285714285714" x="758.205714285714" y="155" />
	<rect fill="darkorange" fill-opacity="0.5" height="25" stroke="none" width="9.22857142857151" x="806.834285714286" y="337.5" />
	<polygon fill="orange" fill-opacity="0.5" points="758.205714285714, 180, 766.434285714286, 180, 815.062857142857, 337.5, 806.834285714286, 337.5" stroke="orange" stroke-width="0.1" />
	<rect fill="darkorange" fill-opacity="0.5" height="25" stroke="none" width="9.20571428571429" x="750" y="155" />
	<rect fill="darkorange" fill-opacity="0.5" height="25" stroke="none" width="9.20571428571429" x="719.085714285714" y="337.5" />
	<polygon fill="orange" fill-opacity="0.5" points="750, 180, 758.205714285714, 180, 727.291428571429, 337.5, 719.085714285714, 337.5" stroke="orange" stroke-width="0.1" />
	<rect fill="darkorange" fill-opacity="0.5" height="25" stroke="none" width="9.20571428571429" x="673.2" y="155" />
	<rect fill="darkorange" fill-opacity="0.5" height="25" stroke="none" width="9.20571428571429" x="806.857142857143" y="337.5" />
	<polygon fill="orange" fill-opacity="0.5" points="673.2, 180, 681.405714285714, 180, 815.062857142857, 337.5, 806.857142857143, 337.5" stroke="orange" stroke-width="0.1" />
	<rect fill="darkorange" fill-opacity="0.5" height="25" stroke="none" width="9.20571428571429" x="637.542857142857" y="155" />
	<rect fill="darkorange" fill-opacity="0.5" height="25" stroke="none" width="9.20571428571429" x="857.805714285714" y="337.5" />
	<polygon fill="orange" fill-opacity="0.5" points="637.542857142857, 180, 645.748571428571, 180, 866.011428571429, 337.5, 857.805714285714, 337.5" stroke="orange" stroke-width="0.1" />
	<rect fill="darkorange" fill-opacity="0.5" height="25" stroke="none" width="6.48571428571427" x="674.571428571429" y="155" />
	<rect fill="darkorange" fill-opacity="0.5" height="25" stroke="none" width="6.48571428571438" x="735.542857142857" y="337.5" />
	<polygon fill="orange" fill-opacity="0.5" points="674.571428571429, 180, 680.057142857143, 180, 741.028571428571, 337.5, 735.542857142857, 337.5" stroke="orange" stroke-width="0.1" />
	<rect fill="darkorange" fill-opacity="0.5" height="25" stroke="none" width="6.48571428571427" x="759.6" y="155" />
	<rect fill="darkorange" fill-opacity="0.5" height="25" stroke="none" width="6.48571428571438" x="735.542857142857" y="337.5" />
	<polygon fill="orange" fill-opacity="0.5" points="759.6, 180, 765.085714285714, 180, 741.028571428571, 337.5, 735.542857142857, 337.5" stroke="orange" stroke-width="0.1" />
	<rect fill="darkorange" fill-opacity="0.5" height="25" stroke="none" width="5.09142857142865" x="662.228571428571" y="155" />
	<rect fill="darkorange" fill-opacity="0.5" height="25" stroke="none" width="5.09142857142865" x="634.057142857143" y="337.5" />
	<polygon fill="orange" fill-opacity="0.5" points="662.228571428571, 180, 666.32, 180, 638.148571428571, 337.5, 634.057142857143, 337.5" stroke="orange" stroke-width="0.1" />
	<rect fill="darkorange" fill-opacity="0.5" height="25" stroke="none" width="5.09142857142854" x="756.857142857143" y="155" />
	<rect fill="darkorange" fill-opacity="0.5" height="25" stroke="none" width="5.09142857142865" x="730.057142857143" y="337.5" />
	<polygon fill="orange" fill-opacity="0.5" points="756.857142857143, 180, 760.948571428571, 180, 734.148571428571, 337.5, 730.057142857143, 337.5" stroke="orange" stroke-width="0.1" />
	<rect fill="darkorange" fill-opacity="0.5" height="25" stroke="none" width="3.72000000000003" x="667.714285714286" y="155" />
	<rect fill="darkorange" fill-opacity="0.5" height="25" stroke="none" width="3.72000000000003" x="653.257142857143" y="337.5" />
	<polygon fill="orange" fill-opacity="0.5" points="667.714285714286, 180, 670.434285714286, 180, 655.977142857143, 337.5, 653.257142857143, 337.5" stroke="orange" stroke-width="0.1" />
	<rect fill="darkorange" fill-opacity="0.5" height="25" stroke="none" width="3.71999999999991" x="673.2" y="155" />
	<rect fill="darkorange" fill-opacity="0.5" height="25" stroke="none" width="3.72000000000003" x="731.428571428571" y="337.5" />
	<polygon fill="orange" fill-opacity="0.5" points="673.2, 180, 675.92, 180, 734.148571428571, 337.5, 731.428571428571, 337.5" stroke="orange" stroke-width="0.1" />
	<rect fill="darkorange" fill-opacity="0.5" height="25" stroke="none" width="3.72000000000003" x="678.685714285714" y="155" />
	<rect fill="darkorange" fill-opacity="0.5" height="25" stroke="none" width="3.71999999999991" x="741.028571428571" y="337.5" />
	<polygon fill="orange" fill-opacity="0.5" points="678.685714285714, 180, 681.405714285714, 180, 743.748571428571, 337.5, 741.028571428571, 337.5" stroke="orange" stroke-width="0.1" />
	<rect fill="darkorange" fill-opacity="0.5" height="25" stroke="none" width="135.582857142857" x="479.851428571429" y="155" />
	<rect fill="darkorange" fill-opacity="0.5" height="25" stroke="none" width="135.582857142857" x="219.017142857143" y="337.5" />
	<polygon fill="orange" fill-opacity="0.5" points="479.851428571429, 180, 614.434285714286, 180, 353.6, 337.5, 219.017142857143, 337.5" stroke="orange" stroke-width="0.1" />
	<rect fill="darkorange" fill-opacity="0.5" height="25" stroke="none" width="86.0057142857143" x="373.222857142857" y="155" />
	<rect fill="darkorange" fill-opacity="0.5" height="25" stroke="none" width="86.0057142857143" x="133.988571428571" y="337.5" />
	<polygon fill="orange" fill-opacity="0.5" points="373.222857142857, 180, 458.228571428571, 180, 218.994285714286, 337.5, 133.988571428571, 337.5" stroke="orange" stroke-width="0.1" />
	<rect fill="darkorange" fill-opacity="0.5" height="25" stroke="none" width="135.582857142857" x="479.851428571429" y="155" />
	<rect fill="darkorange" fill-opacity="0.5" height="25" stroke="none" width="135.582857142857" x="461.508571428571" y="337.5" />
	<polygon fill="orange" fill-opacity="0.5" points="479.851428571429, 180, 614.434285714286, 180, 596.091428571429, 337.5, 461.508571428571, 337.5" stroke="orange" stroke-width="0.1" />
	<rect fill="darkorange" fill-opacity="0.5" height="25" stroke="none" width="86.0057142857143" x="373.222857142857" y="155" />
	<rect fill="darkorange" fill-opacity="0.5" height="25" stroke="none" width="86.0057142857142" x="376.48" y="337.5" />
	<polygon fill="orange" fill-opacity="0.5" points="373.222857142857, 180, 458.228571428571, 180, 461.485714285714, 337.5, 376.48, 337.5" stroke="orange" stroke-width="0.1" />
	<rect fill="darkorange" fill-opacity="0.5" height="25" stroke="none" width="86.0057142857143" x="373.222857142857" y="155" />
	<rect fill="darkorange" fill-opacity="0.5" height="25" stroke="none" width="86.0057142857144" x="618.971428571429" y="337.5" />
	<polygon fill="orange" fill-opacity="0.5" points="373.222857142857, 180, 458.228571428571, 180, 703.977142857143, 337.5, 618.971428571429, 337.5" stroke="orange" stroke-width="0.1" />
	<rect fill="darkorange" fill-opacity="0.5" height="25" stroke="none" width="66.8057142857144" x="505.908571428571" y="155" />
	<rect fill="darkorange" fill-opacity="0.5" height="25" stroke="none" width="66.8057142857142" x="741.028571428571" y="337.5" />
	<polygon fill="orange" fill-opacity="0.5" points="505.908571428571, 180, 571.714285714286, 180, 806.834285714286, 337.5, 741.028571428571, 337.5" stroke="orange" stroke-width="0.1" />
	<rect fill="darkorange" fill-opacity="0.5" height="25" stroke="none" width="43.6971428571428" x="571.737142857143" y="155" />
	<rect fill="darkorange" fill-opacity="0.5" height="25" stroke="none" width="43.6971428571428" x="815.085714285714" y="337.5" />
	<polygon fill="orange" fill-opacity="0.5" points="571.737142857143, 180, 614.434285714286, 180, 857.782857142857, 337.5, 815.085714285714, 337.5" stroke="orange" stroke-width="0.1" />
	<rect fill="darkorange" fill-opacity="0.5" height="25" stroke="none" width="14.6914285714286" x="479.851428571429" y="155" />
	<rect fill="darkorange" fill-opacity="0.5" height="25" stroke="none" width="14.6914285714286" x="704" y="337.5" />
	<polygon fill="orange" fill-opacity="0.5" points="479.851428571429, 180, 493.542857142857, 180, 717.691428571429, 337.5, 704, 337.5" stroke="orange" stroke-width="0.1" />
	<rect fill="darkorange" fill-opacity="0.5" height="25" stroke="none" width="9.22857142857146" x="500.4" y="155" />
	<rect fill="darkorange" fill-opacity="0.5" height="25" stroke="none" width="9.22857142857151" x="806.834285714286" y="337.5" />
	<polygon fill="orange" fill-opacity="0.5" points="500.4, 180, 508.628571428571, 180, 815.062857142857, 337.5, 806.834285714286, 337.5" stroke="orange" stroke-width="0.1" />
	<rect fill="darkorange" fill-opacity="0.5" height="25" stroke="none" width="9.20571428571424" x="492.194285714286" y="155" />
	<rect fill="darkorange" fill-opacity="0.5" height="25" stroke="none" width="9.20571428571429" x="719.085714285714" y="337.5" />
	<polygon fill="orange" fill-opacity="0.5" points="492.194285714286, 180, 500.4, 180, 727.291428571429, 337.5, 719.085714285714, 337.5" stroke="orange" stroke-width="0.1" />
	<rect fill="darkorange" fill-opacity="0.5" height="25" stroke="none" width="9.20571428571429" x="377.337142857143" y="155" />
	<rect fill="darkorange" fill-opacity="0.5" height="25" stroke="none" width="9.20571428571429" x="857.805714285714" y="337.5" />
	<polygon fill="orange" fill-opacity="0.5" points="377.337142857143, 180, 385.542857142857, 180, 866.011428571429, 337.5, 857.805714285714, 337.5" stroke="orange" stroke-width="0.1" />
	<rect fill="darkorange" fill-opacity="0.5" height="25" stroke="none" width="6.48571428571427" x="501.794285714286" y="155" />
	<rect fill="darkorange" fill-opacity="0.5" height="25" stroke="none" width="6.48571428571438" x="735.542857142857" y="337.5" />
	<polygon fill="orange" fill-opacity="0.5" points="501.794285714286, 180, 507.28, 180, 741.028571428571, 337.5, 735.542857142857, 337.5" stroke="orange" stroke-width="0.1" />
	<rect fill="darkorange" fill-opacity="0.5" height="25" stroke="none" width="5.09142857142859" x="499.051428571429" y="155" />
	<rect fill="darkorange" fill-opacity="0.5" height="25" stroke="none" width="5.09142857142865" x="730.057142857143" y="337.5" />
	<polygon fill="orange" fill-opacity="0.5" points="499.051428571429, 180, 503.142857142857, 180, 734.148571428571, 337.5, 730.057142857143, 337.5" stroke="orange" stroke-width="0.1" />
	<rect fill="darkorange" fill-opacity="0.5" height="25" stroke="none" width="220.611428571429" x="130.502857142857" y="155" />
	<rect fill="darkorange" fill-opacity="0.5" height="25" stroke="none" width="220.611428571429" x="133.988571428571" y="337.5" />
	<polygon fill="orange" fill-opacity="0.5" points="130.502857142857, 180, 350.114285714286, 180, 353.6, 337.5, 133.988571428571, 337.5" stroke="orange" stroke-width="0.1" />
	<rect fill="darkorange" fill-opacity="0.5" height="25" stroke="none" width="220.611428571429" x="130.502857142857" y="155" />
	<rect fill="darkorange" fill-opacity="0.5" height="25" stroke="none" width="220.611428571429" x="376.48" y="337.5" />
	<polygon fill="orange" fill-opacity="0.5" points="130.502857142857, 180, 350.114285714286, 180, 596.091428571429, 337.5, 376.48, 337.5" stroke="orange" stroke-width="0.1" />
	<rect fill="darkorange" fill-opacity="0.5" height="25" stroke="none" width="99.72" x="130.502857142857" y="155" />
	<rect fill="darkorange" fill-opacity="0.5" height="25" stroke="none" width="99.72" x="618.971428571429" y="337.5" />
	<polygon fill="orange" fill-opacity="0.5" points="130.502857142857, 180, 229.222857142857, 180, 717.691428571429, 337.5, 618.971428571429, 337.5" stroke="orange" stroke-width="0.1" />
	<rect fill="darkorange" fill-opacity="0.5" height="25" stroke="none" width="66.8057142857143" x="241.588571428571" y="155" />
	<rect fill="darkorange" fill-opacity="0.5" height="25" stroke="none" width="66.8057142857142" x="741.028571428571" y="337.5" />
	<polygon fill="orange" fill-opacity="0.5" points="241.588571428571, 180, 307.394285714286, 180, 806.834285714286, 337.5, 741.028571428571, 337.5" stroke="orange" stroke-width="0.1" />
	<rect fill="darkorange" fill-opacity="0.5" height="25" stroke="none" width="43.6971428571429" x="307.417142857143" y="155" />
	<rect fill="darkorange" fill-opacity="0.5" height="25" stroke="none" width="43.6971428571428" x="815.085714285714" y="337.5" />
	<polygon fill="orange" fill-opacity="0.5" points="307.417142857143, 180, 350.114285714286, 180, 857.782857142857, 337.5, 815.085714285714, 337.5" stroke="orange" stroke-width="0.1" />
	<rect fill="darkorange" fill-opacity="0.5" height="25" stroke="none" width="9.22857142857143" x="236.08" y="155" />
	<rect fill="darkorange" fill-opacity="0.5" height="25" stroke="none" width="9.22857142857151" x="806.834285714286" y="337.5" />
	<polygon fill="orange" fill-opacity="0.5" points="236.08, 180, 244.308571428571, 180, 815.062857142857, 337.5, 806.834285714286, 337.5" stroke="orange" stroke-width="0.1" />
	<rect fill="darkorange" fill-opacity="0.5" height="25" stroke="none" width="9.20571428571429" x="227.874285714286" y="155" />
	<rect fill="darkorange" fill-opacity="0.5" height="25" stroke="none" width="9.20571428571429" x="719.085714285714" y="337.5" />
	<polygon fill="orange" fill-opacity="0.5" points="227.874285714286, 180, 236.08, 180, 727.291428571429, 337.5, 719.085714285714, 337.5" stroke="orange" stroke-width="0.1" />
	<rect fill="darkorange" fill-opacity="0.5" height="25" stroke="none" width="9.20571428571429" x="134.617142857143" y="155" />
	<rect fill="darkorange" fill-opacity="0.5" height="25" stroke="none" width="9.20571428571429" x="857.805714285714" y="337.5" />
	<polygon fill="orange" fill-opacity="0.5" points="134.617142857143, 180, 142.822857142857, 180, 866.011428571429, 337.5, 857.805714285714, 337.5" stroke="orange" stroke-width="0.1" />
	<rect fill="darkorange" fill-opacity="0.5" height="25" stroke="none" width="6.48571428571429" x="237.474285714286" y="155" />
	<rect fill="darkorange" fill-opacity="0.5" height="25" stroke="none" width="6.48571428571438" x="735.542857142857" y="337.5" />
	<polygon fill="orange" fill-opacity="0.5" points="237.474285714286, 180, 242.96, 180, 741.028571428571, 337.5, 735.542857142857, 337.5" stroke="orange" stroke-width="0.1" />
	<rect fill="darkorange" fill-opacity="0.5" height="25" stroke="none" width="5.09142857142857" x="234.731428571429" y="155" />
	<rect fill="darkorange" fill-opacity="0.5" height="25" stroke="none" width="5.09142857142865" x="730.057142857143" y="337.5" />
	<polygon fill="orange" fill-opacity="0.5" points="234.731428571429, 180, 238.822857142857, 180, 734.148571428571, 337.5, 730.057142857143, 337.5" stroke="orange" stroke-width="0.1" />
	<rect fill="darkorange" fill-opacity="0.5" height="25" stroke="none" width="220.611428571429" x="133.988571428571" y="337.5" />
	<rect fill="darkorange" fill-opacity="0.5" height="25" stroke="none" width="220.611428571429" x="631.771428571429" y="520" />
	<polygon fill="orange" fill-opacity="0.5" points="133.988571428571, 362.5, 353.6, 362.5, 851.382857142857, 520, 631.771428571429, 520" stroke="orange" stroke-width="0.1" />
	<rect fill="darkorange" fill-opacity="0.5" height="25" stroke="none" width="220.611428571429" x="376.48" y="337.5" />
	<rect fill="darkorange" fill-opacity="0.5" height="25" stroke="none" width="220.611428571429" x="631.771428571429" y="520" />
	<polygon fill="orange" fill-opacity="0.5" points="376.48, 362.5, 596.091428571429, 362.5, 851.382857142857, 520, 631.771428571429, 520" stroke="orange" stroke-width="0.1" />
	<rect fill="darkorange" fill-opacity="0.5" height="25" stroke="none" width="99.72" x="618.971428571429" y="337.5" />
	<rect fill="darkorange" fill-opacity="0.5" height="25" stroke="none" width="99.7199999999999" x="631.771428571429" y="520" />
	<polygon fill="orange" fill-opacity="0.5" points="618.971428571429, 362.5, 717.691428571429, 362.5, 730.491428571429, 520, 631.771428571429, 520" stroke="orange" stroke-width="0.1" />
	<rect fill="darkorange" fill-opacity="0.5" height="25" stroke="none" width="66.8057142857142" x="741.028571428571" y="337.5" />
	<rect fill="darkorange" fill-opacity="0.5" height="25" stroke="none" width="66.8057142857142" x="742.857142857143" y="520" />
	<polygon fill="orange" fill-opacity="0.5" points="741.028571428571, 362.5, 806.834285714286, 362.5, 808.662857142857, 520, 742.857142857143, 520" stroke="orange" stroke-width="0.1" />
	<rect fill="darkorange" fill-opacity="0.5" height="25" stroke="none" width="43.6971428571428" x="815.085714285714" y="337.5" />
	<rect fill="darkorange" fill-opacity="0.5" height="25" stroke="none" width="43.6971428571428" x="808.685714285714" y="520" />
	<polygon fill="orange" fill-opacity="0.5" points="815.085714285714, 362.5, 857.782857142857, 362.5, 851.382857142857, 520, 808.685714285714, 520" stroke="orange" stroke-width="0.1" />
	<rect fill="darkorange" fill-opacity="0.5" height="25" stroke="none" width="9.22857142857151" x="806.834285714286" y="337.5" />
	<rect fill="darkorange" fill-opacity="0.5" height="25" stroke="none" width="9.2285714285714" x="737.348571428571" y="520" />
	<polygon fill="orange" fill-opacity="0.5" points="806.834285714286, 362.5, 815.062857142857, 362.5, 745.577142857143, 520, 737.348571428571, 520" stroke="orange" stroke-width="0.1" />
	<rect fill="darkorange" fill-opacity="0.5" height="25" stroke="none" width="9.20571428571429" x="719.085714285714" y="337.5" />
	<rect fill="darkorange" fill-opacity="0.5" height="25" stroke="none" width="9.20571428571429" x="729.142857142857" y="520" />
	<polygon fill="orange" fill-opacity="0.5" points="719.085714285714, 362.5, 727.291428571429, 362.5, 737.348571428571, 520, 729.142857142857, 520" stroke="orange" stroke-width="0.1" />
	<rect fill="darkorange" fill-opacity="0.5" height="25" stroke="none" width="9.20571428571429" x="857.805714285714" y="337.5" />
	<rect fill="darkorange" fill-opacity="0.5" height="25" stroke="none" width="9.20571428571429" x="635.885714285714" y="520" />
	<polygon fill="orange" fill-opacity="0.5" points="857.805714285714, 362.5, 866.011428571429, 362.5, 644.091428571429, 520, 635.885714285714, 520" stroke="orange" stroke-width="0.1" />
	<rect fill="darkorange" fill-opacity="0.5" height="25" stroke="none" width="6.48571428571438" x="735.542857142857" y="337.5" />
	<rect fill="darkorange" fill-opacity="0.5" height="25" stroke="none" width="6.48571428571427" x="738.742857142857" y="520" />
	<polygon fill="orange" fill-opacity="0.5" points="735.542857142857, 362.5, 741.028571428571, 362.5, 744.228571428571, 520, 738.742857142857, 520" stroke="orange" stroke-width="0.1" />
	<rect fill="darkorange" fill-opacity="0.5" height="25" stroke="none" width="5.09142857142865" x="730.057142857143" y="337.5" />
	<rect fill="darkorange" fill-opacity="0.5" height="25" stroke="none" width="5.09142857142854" x="736" y="520" />
	<polygon fill="orange" fill-opacity="0.5" points="730.057142857143, 362.5, 734.148571428571, 362.5, 740.091428571429, 520, 736, 520" stroke="orange" stroke-width="0.1" />
	<rect fill="darkorange" fill-opacity="0.5" height="25" stroke="none" width="220.611428571429" x="133.988571428571" y="337.5" />
	<rect fill="darkorange" fill-opacity="0.5" height="25" stroke="none" width="220.611428571428" x="390.194285714286" y="520" />
	<polygon fill="orange" fill-opacity="0.5" points="133.988571428571, 362.5, 353.6, 362.5, 609.805714285714, 520, 390.194285714286, 520" stroke="orange" stroke-width="0.1" />
	<rect fill="darkorange" fill-opacity="0.5" height="25" stroke="none" width="220.611428571429" x="376.48" y="337.5" />
	<rect fill="darkorange" fill-opacity="0.5" height="25" stroke="none" width="220.611428571428" x="390.194285714286" y="520" />
	<polygon fill="orange" fill-opacity="0.5" points="376.48, 362.5, 596.091428571429, 362.5, 609.805714285714, 520, 390.194285714286, 520" stroke="orange" stroke-width="0.1" />
	<rect fill="darkorange" fill-opacity="0.5" height="25" stroke="none" width="99.72" x="618.971428571429" y="337.5" />
	<rect fill="darkorange" fill-opacity="0.5" height="25" stroke="none" width="99.72" x="390.194285714286" y="520" />
	<polygon fill="orange" fill-opacity="0.5" points="618.971428571429, 362.5, 717.691428571429, 362.5, 488.914285714286, 520, 390.194285714286, 520" stroke="orange" stroke-width="0.1" />
	<rect fill="darkorange" fill-opacity="0.5" height="25" stroke="none" width="66.8057142857142" x="741.028571428571" y="337.5" />
	<rect fill="darkorange" fill-opacity="0.5" height="25" stroke="none" width="66.8057142857143" x="501.28" y="520" />
	<polygon fill="orange" fill-opacity="0.5" points="741.028571428571, 362.5, 806.834285714286, 362.5, 567.085714285714, 520, 501.28, 520" stroke="orange" stroke-width="0.1" />
	<rect fill="darkorange" fill-opacity="0.5" height="25" stroke="none" width="43.6971428571428" x="815.085714285714" y="337.5" />
	<rect fill="darkorange" fill-opacity="0.5" height="25" stroke="none" width="43.6971428571428" x="567.108571428571" y="520" />
	<polygon fill="orange" fill-opacity="0.5" points="815.085714285714, 362.5, 857.782857142857, 362.5, 609.805714285714, 520, 567.108571428571, 520" stroke="orange" stroke-width="0.1" />
	<rect fill="darkorange" fill-opacity="0.5" height="25" stroke="none" width="9.22857142857151" x="806.834285714286" y="337.5" />
	<rect fill="darkorange" fill-opacity="0.5" height="25" stroke="none" width="9.22857142857146" x="495.771428571429" y="520" />
	<polygon fill="orange" fill-opacity="0.5" points="806.834285714286, 362.5, 815.062857142857, 362.5, 504, 520, 495.771428571429, 520" stroke="orange" stroke-width="0.1" />
	<rect fill="darkorange" fill-opacity="0.5" height="25" stroke="none" width="9.20571428571429" x="719.085714285714" y="337.5" />
	<rect fill="darkorange" fill-opacity="0.5" height="25" stroke="none" width="9.20571428571424" x="487.565714285714" y="520" />
	<polygon fill="orange" fill-opacity="0.5" points="719.085714285714, 362.5, 727.291428571429, 362.5, 495.771428571429, 520, 487.565714285714, 520" stroke="orange" stroke-width="0.1" />
	<rect fill="darkorange" fill-opacity="0.5" height="25" stroke="none" width="9.20571428571429" x="857.805714285714" y="337.5" />
	<rect fill="darkorange" fill-opacity="0.5" height="25" stroke="none" width="9.20571428571429" x="394.308571428571" y="520" />
	<polygon fill="orange" fill-opacity="0.5" points="857.805714285714, 362.5, 866.011428571429, 362.5, 402.514285714286, 520, 394.308571428571, 520" stroke="orange" stroke-width="0.1" />
	<rect fill="darkorange" fill-opacity="0.5" height="25" stroke="none" width="6.48571428571438" x="735.542857142857" y="337.5" />
	<rect fill="darkorange" fill-opacity="0.5" height="25" stroke="none" width="6.48571428571432" x="497.165714285714" y="520" />
	<polygon fill="orange" fill-opacity="0.5" points="735.542857142857, 362.5, 741.028571428571, 362.5, 502.651428571429, 520, 497.165714285714, 520" stroke="orange" stroke-width="0.1" />
	<rect fill="darkorange" fill-opacity="0.5" height="25" stroke="none" width="5.09142857142865" x="730.057142857143" y="337.5" />
	<rect fill="darkorange" fill-opacity="0.5" height="25" stroke="none" width="5.09142857142859" x="494.422857142857" y="520" />
	<polygon fill="orange" fill-opacity="0.5" points="730.057142857143, 362.5, 734.148571428571, 362.5, 498.514285714286, 520, 494.422857142857, 520" stroke="orange" stroke-width="0.1" />
	<rect fill="darkorange" fill-opacity="0.5" height="25" stroke="none" width="220.611428571429" x="133.988571428571" y="337.5" />
	<rect fill="darkorange" fill-opacity="0.5" height="25" stroke="none" width="220.611428571429" x="148.617142857143" y="520" />
	<polygon fill="orange" fill-opacity="0.5" points="133.988571428571, 362.5, 353.6, 362.5, 368.228571428571, 520, 148.617142857143, 520" stroke="orange" stroke-width="0.1" />
	<rect fill="darkorange" fill-opacity="0.5" height="25" stroke="none" width="220.611428571429" x="376.48" y="337.5" />
	<rect fill="darkorange" fill-opacity="0.5" height="25" stroke="none" width="220.611428571429" x="148.617142857143" y="520" />
	<polygon fill="orange" fill-opacity="0.5" points="376.48, 362.5, 596.091428571429, 362.5, 368.228571428571, 520, 148.617142857143, 520" stroke="orange" stroke-width="0.1" />
	<rect fill="darkorange" fill-opacity="0.5" height="25" stroke="none" width="99.72" x="618.971428571429" y="337.5" />
	<rect fill="darkorange" fill-opacity="0.5" height="25" stroke="none" width="99.72" x="148.617142857143" y="520" />
	<polygon fill="orange" fill-opacity="0.5" points="618.971428571429, 362.5, 717.691428571429, 362.5, 247.337142857143, 520, 148.617142857143, 520" stroke="orange" stroke-width="0.1" />
	<rect fill="darkorange" fill-opacity="0.5" height="25" stroke="none" width="66.8057142857142" x="741.028571428571" y="337.5" />
	<rect fill="darkorange" fill-opacity="0.5" height="25" stroke="none" width="66.8057142857143" x="259.702857142857" y="520" />
	<polygon fill="orange" fill-opacity="0.5" points="741.028571428571, 362.5, 806.834285714286, 362.5, 325.508571428571, 520, 259.702857142857, 520" stroke="orange" stroke-width="0.1" />
	<rect fill="darkorange" fill-opacity="0.5" height="25" stroke="none" width="43.6971428571428" x="815.085714285714" y="337.5" />
	<rect fill="darkorange" fill-opacity="0.5" height="25" stroke="none" width="43.6971428571429" x="325.531428571429" y="520" />
	<polygon fill="orange" fill-opacity="0.5" points="815.085714285714, 362.5, 857.782857142857, 362.5, 368.228571428571, 520, 325.531428571429, 520" stroke="orange" stroke-width="0.1" />
	<rect fill="darkorange" fill-opacity="0.5" height="25" stroke="none" width="9.22857142857151" x="806.834285714286" y="337.5" />
	<rect fill="darkorange" fill-opacity="0.5" height="25" stroke="none" width="9.22857142857143" x="254.194285714286" y="520" />
	<polygon fill="orange" fill-opacity="0.5" points="806.834285714286, 362.5, 815.062857142857, 362.5, 262.422857142857, 520, 254.194285714286, 520" stroke="orange" stroke-width="0.1" />
	<rect fill="darkorange" fill-opacity="0.5" height="25" stroke="none" width="9.20571428571429" x="719.085714285714" y="337.5" />
	<rect fill="darkorange" fill-opacity="0.5" height="25" stroke="none" width="9.20571428571429" x="245.988571428571" y="520" />
	<polygon fill="orange" fill-opacity="0.5" points="719.085714285714, 362.5, 727.291428571429, 362.5, 254.194285714286, 520, 245.988571428571, 520" stroke="orange" stroke-width="0.1" />
	<rect fill="darkorange" fill-opacity="0.5" height="25" stroke="none" width="9.20571428571429" x="857.805714285714" y="337.5" />
	<rect fill="darkorange" fill-opacity="0.5" height="25" stroke="none" width="9.20571428571429" x="152.731428571429" y="520" />
	<polygon fill="orange" fill-opacity="0.5" points="857.805714285714, 362.5, 866.011428571429, 362.5, 160.937142857143, 520, 152.731428571429, 520" stroke="orange" stroke-width="0.1" />
	<rect fill="darkorange" fill-opacity="0.5" height="25" stroke="none" width="6.48571428571438" x="735.542857142857" y="337.5" />
	<rect fill="darkorange" fill-opacity="0.5" height="25" stroke="none" width="6.48571428571424" x="255.588571428571" y="520" />
	<polygon fill="orange" fill-opacity="0.5" points="735.542857142857, 362.5, 741.028571428571, 362.5, 261.074285714286, 520, 255.588571428571, 520" stroke="orange" stroke-width="0.1" />
	<rect fill="darkorange" fill-opacity="0.5" height="25" stroke="none" width="5.09142857142865" x="730.057142857143" y="337.5" />
	<rect fill="darkorange" fill-opacity="0.5" height="25" stroke="none" width="5.09142857142854" x="252.845714285714" y="520" />
	<polygon fill="orange" fill-opacity="0.5" points="730.057142857143, 362.5, 734.148571428571, 362.5, 256.937142857143, 520, 252.845714285714, 520" stroke="orange" stroke-width="0.1" />
	<rect fill="none" height="25" stroke="chocolate" stroke-width="1.6" width="219.611428571429" x="130.502857142857" y="155" />
	<g fill="black" font-family="Arial" stroke="none">
		<text font-size="10" text-anchor="middle" x="240.308571428571" xml:space="preserve" y="150">s1
		</text>
	</g>
	<rect fill="none" height="25" stroke="chocolate" stroke-width="1.6" width="241.211428571429" x="373.222857142857" y="155" />
	<g fill="black" font-family="Arial" stroke="none">
		<text font-size="10" text-anchor="middle" x="493.828571428571" xml:space="preserve" y="150">s1000
		</text>
	</g>
	<rect fill="none" height="25" stroke="chocolate" stroke-width="1.6" width="231.954285714286" x="637.542857142857" y="155" />
	<g fill="black" font-family="Arial" stroke="none">
		<text font-size="10" text-anchor="middle" x="753.52" xml:space="preserve" y="150">s10000
		</text>
	</g>
	<g fill="black" font-family="Arial" stroke="none">
		<text font-size="20" text-anchor="end" x="120.502857142857" xml:space="preserve" y="174.7">Query
		</text>
	</g>
	<rect fill="none" height="25" stroke="chocolate" stroke-width="1.6" width="219.611428571429" x="133.988571428571" y="337.5" />
	<g fill="black" font-family="Arial" stroke="none">
		<text font-size="10" text-anchor="middle" x="243.794285714286" xml:space="preserve" y="353.6">s2
		</text>
	</g>
	<rect fill="none" height="25" stroke="chocolate" stroke-width="1.6" width="219.611428571429" x="376.48" y="337.5" />
	<g fill="black" font-family="Arial" stroke="none">
		<text font-size="10" text-anchor="middle" x="486.285714285714" xml:space="preserve" y="353.6">s2000
		</text>
	</g>
	<rect fill="none" height="25" stroke="chocolate" stroke-width="1.6" width="247.04" x="618.971428571429" y="337.5" />
	<g fill="black" font-family="Arial" stroke="none">
		<text font-size="10" text-anchor="middle" x="742.491428571429" xml:space="preserve" y="353.6">s20000
		</text>
	</g>
	<g fill="black" font-family="Arial" stroke="none">
		<text font-size="20" text-anchor="end" x="123.988571428571" xml:space="preserve" y="357.2">Target
		</text>
	</g>
	<rect fill="none" height="25" stroke="chocolate" stroke-width="1.6" width="219.611428571429" x="148.617142857143" y="520" />
	<g fill="black" font-family="Arial" stroke="none">
		<text font-size="10" text-anchor="middle" x="258.422857142857" xml:space="preserve" y="557.2">s4
		</text>
	</g>
	<rect fill="none" height="25" stroke="chocolate" stroke-width="1.6" width="219.611428571428" x="390.194285714286" y="520" />
	<g fill="black" font-family="Arial" stroke="none">
		<text font-size="10" text-anchor="middle" x="500" xml:space="preserve" y="557.2">s4000
		</text>
	</g>
	<rect fill="none" height="25" stroke="chocolate" stroke-width="1.6" width="219.611428571429" x="631.771428571429" y="520" />
	<g fill="black" font-family="Arial" stroke="none">
		<text font-size="10" text-anchor="middle" x="741.577142857143" xml:space="preserve" y="557.2">s40000
		</text>
	</g>
	<g fill="black" font-family="Arial" stroke="none">
		<text font-size="20" text-anchor="end" x="138.617142857143" xml:space="preserve" y="539.7">Query2
		</text>
	</g>
	<rect fill="none" height="15" stroke="chocolate" stroke-width="1.2" width="15" x="115" y="49" />
	<text fill="black" font-family="Arial" font-size="15" stroke="none" text-anchor="star" x="137.5" xml:space="preserve" y="61.9">Forward chain
	</text>
	<rect fill="none" height="15" stroke="blue" stroke-width="1.2" width="15" x="115" y="67" />
	<text fill="black" font-family="Arial" font-size="15" stroke="none" text-anchor="star" x="137.5" xml:space="preserve" y="79.9">Reverse chain
	</text>
	<rect fill="darkorange" fill-opacity="1" height="15" stroke="darkorange" stroke-width="0.4" width="15" x="242.5" y="49" />
	<text fill="black" font-family="Arial" font-size="15" stroke="none" text-anchor="star" x="265" xml:space="preserve" y="61.9">Forw alignment
	</text>
	<rect fill="dodgerblue" fill-opacity="1" height="15" stroke="dodgerblue" stroke-width="0.4" width="15" x="242.5" y="67" />
	<text fill="black" font-family="Arial" font-size="15" stroke="none" text-anchor="star" x="265" xml:space="preserve" y="79.9">Reve alignment
	</text><!-- 
	Generated using the Perl SVG Module V2.33
	by Ronan Oger, modifyed by fanwei
	Info: http://www.roasp.com/
 -->
</svg>