<svg xmlns="http://www.w3.org/2000/svg" version="1.1" width="1000" height="200" style="background-color:white;">
<text class='myth' x="85" y="57.5" style="font-size:10px;fill:black;text-anchor:end;alignment-baseline:middle" >mychr1</text>


<line x1="100" y1="192.5" x2="850" y2="192.5" style="stroke:green;stroke-width:0.5"/>
<line x1="100" y1="190.5" x2="100" y2="192.5" style="stroke:green;stroke-width:0.5;opacity:0.9"/>
<text class='myth' x="100" y="202.5" style="font-size:10px;fill:green;text-anchor:middle;font-family:Times New Roman;">1bp</text>
<line x1="236.314067611778" y1="190.5" x2="236.314067611778" y2="192.5" style="stroke:green;stroke-width:0.5;opacity:0.9"/>
<text class='myth' x="236.314067611778" y="202.5" style="font-size:10px;fill:green;text-anchor:middle;font-family:Times New Roman;">1,000</text>
<line x1="372.628135223555" y1="190.5" x2="372.628135223555" y2="192.5" style="stroke:green;stroke-width:0.5;opacity:0.9"/>
<text class='myth' x="372.628135223555" y="202.5" style="font-size:10px;fill:green;text-anchor:middle;font-family:Times New Roman;">2,000</text>
<line x1="508.942202835333" y1="190.5" x2="508.942202835333" y2="192.5" style="stroke:green;stroke-width:0.5;opacity:0.9"/>
<text class='myth' x="508.942202835333" y="202.5" style="font-size:10px;fill:green;text-anchor:middle;font-family:Times New Roman;">3,000</text>
<line x1="645.25627044711" y1="190.5" x2="645.25627044711" y2="192.5" style="stroke:green;stroke-width:0.5;opacity:0.9"/>
<text class='myth' x="645.25627044711" y="202.5" style="font-size:10px;fill:green;text-anchor:middle;font-family:Times New Roman;">4,000</text>
<line x1="850" y1="190.5" x2="850" y2="192.5" style="stroke:green;stroke-width:0.5;opacity:0.9"/>
<text class='myth'  x="850" y="202.5" style="font-size:10px;fill:green;text-anchor:middle;font-family:Times New Roman">5,502bp</text>



<rect x="100" y="57.075" width="272.764449291167" height="0.85" style="fill:green"   />
<text class='myth'  x="99" y="57.5" style="font-family:Times New Roman;font-size:10px;fill:black;text-anchor:end;alignment-baseline:middle" >5'</text>
 <text class='myth'  x="373.764449291167" y="57.5" style="font-family:Times New Roman;font-size:10px;fill:black;text-anchor:start;alignment-baseline:middle" >3'</text>

<rect x="440.921483097056" y="57.075" width="409.078516902944" height="0.85" style="fill:green"   />
<text class='myth'  x="439.921483097056" y="57.5" style="font-family:Times New Roman;font-size:10px;fill:black;text-anchor:end;alignment-baseline:middle" >5'</text>
 <text class='myth'  x="851" y="57.5" style="font-family:Times New Roman;font-size:10px;fill:black;text-anchor:start;alignment-baseline:middle" >3'</text>

<rect x="100" y="142.075" width="409.078516902944" height="0.85" style="fill:green"   />
<text class='myth'  x="99" y="142.5" style="font-family:Times New Roman;font-size:10px;fill:black;text-anchor:end;alignment-baseline:middle" >5'</text>
 <text class='myth'  x="510.078516902944" y="142.5" style="font-family:Times New Roman;font-size:10px;fill:black;text-anchor:start;alignment-baseline:middle" >3'</text>






				<polygon id="gene1" points="140.894220283533,56.225 140.894220283533,58.775 173.718647764449,58.775 173.718647764449,59.03 181.924754634678,57.5 173.718647764449,55.97 173.718647764449,56.225" style="fill:blue;stroke:black;stroke-width:0;opacity:1"/>




				<polygon id="gene2" points="209.051254089422,56.225 209.051254089422,58.775 296.401308615049,58.775 296.401308615049,59.03 318.238822246456,57.5 296.401308615049,55.97 296.401308615049,56.225" style="fill:green;stroke:black;stroke-width:0;opacity:1"/>




				<polygon id="gene3" points="536.3413304253,56.225 536.3413304253,58.775 569.165757906216,58.775 569.165757906216,59.03 577.371864776445,57.5 569.165757906216,55.97 569.165757906216,56.225" style="fill:black;stroke:black;stroke-width:0;opacity:1"/>




				<polygon id="gene3" points="195.419847328244,141.225 195.419847328244,143.775 228.24427480916,143.775 228.24427480916,144.03 236.450381679389,142.5 228.24427480916,140.97 228.24427480916,141.225" style="fill:black;stroke:black;stroke-width:0;opacity:1"/>

</svg>