<svg height="800" width="1500" xmlns="http://www.w3.org/2000/svg"><text alignment-baseline="middle" fill="#008000" font-size="15" text-anchor="end" x="135" y="130">s1</text><g fill="none" stroke="#000" stroke-width="2"><g stroke-dasharray="2 5"><path d="m291.78171372 130h23.01802174"/><path d="m455.0469144 130h23.01802174" fill="none" stroke="#000" stroke-width="2"/><path d="m1065.69875584 130h23.01802174" fill="none" stroke="#000" stroke-width="2"/></g><text alignment-baseline="middle" fill="#00f" font-size="15" text-anchor="end" x="135" y="310">s2</text><g fill="none" stroke="#000" stroke-width="2"><path d="m987.11197454 310h23.01802174" stroke-dasharray="2 5"/><text alignment-baseline="middle" fill="#f00" font-size="15" text-anchor="end" x="135" y="490">s4</text><g fill="none" stroke="#000" stroke-width="2"><path d="m684.85512338 490h23.01802174" stroke-dasharray="2 5"/><text alignment-baseline="middle" fill="#000" font-size="15" text-anchor="end" x="135" y="670">s3</text><g fill="none" stroke="#000" stroke-width="2"><path d="m243.00210805 670h23.01802174" stroke-dasharray="2 5"/><path d="m404.8722771 670h23.01802175" fill="none" stroke="#000" stroke-dasharray="2 5" stroke-width="2"/><path d="m150 752h1125" stroke="#008000" stroke-width=".5"/><path d="m150 432v320" stroke="#008000" stroke-width=".5"/><text fill="#008000" font-family="Times New Roman" font-size="13" text-anchor="middle" x="150" y="767">0</text><path d="m243.002108 432v320" stroke="#008000" stroke-width=".5"/><text fill="#008000" font-family="Times New Roman" font-size="13" text-anchor="middle" x="243.002108" y="767">2,000</text><path d="m336.004216 432v320" stroke="#008000" stroke-width=".5"/><text fill="#008000" font-family="Times New Roman" font-size="13" text-anchor="middle" x="336.004216" y="767">4,000</text><path d="m429.006324 432v320" stroke="#008000" stroke-width=".5"/><text fill="#008000" font-family="Times New Roman" font-size="13" text-anchor="middle" x="429.006324" y="767">6,000</text><path d="m522.008432 432v320" stroke="#008000" stroke-width=".5"/><text fill="#008000" font-family="Times New Roman" font-size="13" text-anchor="middle" x="522.008432" y="767">8,000</text><path d="m615.01054 432v320" stroke="#008000" stroke-width=".5"/><text fill="#008000" font-family="Times New Roman" font-size="13" text-anchor="middle" x="615.01054" y="767">10,000</text><path d="m708.012648 432v320" stroke="#008000" stroke-width=".5"/><text fill="#008000" font-family="Times New Roman" font-size="13" text-anchor="middle" x="708.012648" y="767">12,000</text><path d="m801.014756 432v320" stroke="#008000" stroke-width=".5"/><text fill="#008000" font-family="Times New Roman" font-size="13" text-anchor="middle" x="801.014756" y="767">14,000</text><path d="m894.016864 432v320" stroke="#008000" stroke-width=".5"/><text fill="#008000" font-family="Times New Roman" font-size="13" text-anchor="middle" x="894.016864" y="767">16,000</text><path d="m987.018972 432v320" stroke="#008000" stroke-width=".5"/><text fill="#008000" font-family="Times New Roman" font-size="13" text-anchor="middle" x="987.018972" y="767">18,000</text><path d="m1080.02108 432v320" stroke="#008000" stroke-width=".5"/><text fill="#008000" font-family="Times New Roman" font-size="13" text-anchor="middle" x="1080.02108" y="767">20,000</text><path d="m1173.023189 432v320" stroke="#008000" stroke-width=".5"/><text fill="#008000" font-family="Times New Roman" font-size="13" text-anchor="middle" x="1173.023189" y="767">22,000</text><path d="m1275 432v320" stroke="#008000" stroke-width=".5"/><text fill="#008000" font-family="Times New Roman" font-size="13" text-anchor="middle" x="1275" y="767">24,193bp</text><path d="m150 24h1125" stroke="#008000" stroke-width=".5"/><path d="m150 344v-320" stroke="#008000" stroke-width=".5"/><text fill="#008000" font-family="Times New Roman" font-size="13" text-anchor="middle" x="150" y="21">0</text><path d="m243.002108 344v-320" stroke="#008000" stroke-width=".5"/><text fill="#008000" font-family="Times New Roman" font-size="13" text-anchor="middle" x="243.002108" y="21">2,000</text><path d="m336.004216 344v-320" stroke="#008000" stroke-width=".5"/><text fill="#008000" font-family="Times New Roman" font-size="13" text-anchor="middle" x="336.004216" y="21">4,000</text><path d="m429.006324 344v-320" stroke="#008000" stroke-width=".5"/><text fill="#008000" font-family="Times New Roman" font-size="13" text-anchor="middle" x="429.006324" y="21">6,000</text><path d="m522.008432 344v-320" stroke="#008000" stroke-width=".5"/><text fill="#008000" font-family="Times New Roman" font-size="13" text-anchor="middle" x="522.008432" y="21">8,000</text><path d="m615.01054 344v-320" stroke="#008000" stroke-width=".5"/><text fill="#008000" font-family="Times New Roman" font-size="13" text-anchor="middle" x="615.01054" y="21">10,000</text><path d="m708.012648 344v-320" stroke="#008000" stroke-width=".5"/><text fill="#008000" font-family="Times New Roman" font-size="13" text-anchor="middle" x="708.012648" y="21">12,000</text><path d="m801.014756 344v-320" stroke="#008000" stroke-width=".5"/><text fill="#008000" font-family="Times New Roman" font-size="13" text-anchor="middle" x="801.014756" y="21">14,000</text><path d="m894.016864 344v-320" stroke="#008000" stroke-width=".5"/><text fill="#008000" font-family="Times New Roman" font-size="13" text-anchor="middle" x="894.016864" y="21">16,000</text><path d="m987.018972 344v-320" stroke="#008000" stroke-width=".5"/><text fill="#008000" font-family="Times New Roman" font-size="13" text-anchor="middle" x="987.018972" y="21">18,000</text><path d="m1080.02108 344v-320" stroke="#008000" stroke-width=".5"/><text fill="#008000" font-family="Times New Roman" font-size="13" text-anchor="middle" x="1080.02108" y="21">20,000</text><path d="m1173.023189 344v-320" stroke="#008000" stroke-width=".5"/><text fill="#008000" font-family="Times New Roman" font-size="13" text-anchor="middle" x="1173.023189" y="21">22,000</text><path d="m1275 344v-320" stroke="#008000" stroke-width=".5"/><text fill="#008000" font-family="Times New Roman" font-size="13" text-anchor="middle" x="1275" y="21">24,193bp</text><path d="m286.01558302 310h9.06770553l13.29930146 360h9.06770553z" fill="#3cb371" opacity=".5" stroke="#000" stroke-width=".1"/><path d="m576.36816435 130h12.69478774l-50.2676394 180h-12.69478774z" fill="#00bfff" opacity=".8" stroke="#000" stroke-width=".1"/><path d="m286.01558302 310h9.06770553l56.68478486 360h-17.2983921z" fill="#ff8c00" opacity=".6" stroke="#000" stroke-width=".1"/><path d="m1107.50320341 315.4h12.69478774l-395.2589592 169.2h-12.69478775z" fill="#ff8c00" opacity=".3" stroke="#000" stroke-width=".1"/><path d="m193.05997603 490h9.06770553l115.32261398 180h-9.06770553z" fill="#ff8c00" opacity=".6" stroke="#000" stroke-width=".1"/><path d="m526.10052495 310h12.69478774l41.01392965 360h-12.69478775z" fill="#ff8c00" opacity=".6" stroke="#000" stroke-width=".1"/><path d="m1010.59500682 130h49.94213202l59.66085231 180h-12.69478774z" fill="#ff8c00" opacity=".6" stroke="#000" stroke-width=".1"/><path d="m479.50646881 130h19.39093953l-69.65857893 180h19.39093953z" fill="#3cb371" opacity=".6" stroke="#000" stroke-width=".1"/><path d="m592.08552061 490h19.39093952l-110.57950647 180h43.66448973z" fill="#3cb371" opacity=".6" stroke="#000" stroke-width=".1"/><path d="m429.23882941 315.4h19.39093953l41.01392965 349.2h-19.39093953z" fill="#ff8c00" opacity=".6" stroke="#000" stroke-width=".1"/><path d="m514.80076882 490h20.36746166l44.64101186 180h-12.69478775z" fill="#ff8c00" opacity=".6" stroke="#000" stroke-width=".1"/><path d="m150 129.1h141.781714v1.8h-141.781714z" fill="#00f"/><path d="m315.032241 129.1h140.014674v1.8h-140.014674z" fill="#00f"/><path d="m478.297441 129.1h168.798826v1.8h-168.798826z" fill="#00f"/><path d="m670.346795 129.1h186.050717v1.8h-186.050717z" fill="#00f"/><path d="m879.648039 129.1h186.050717v1.8h-186.050717z" fill="#00f"/><path d="m1088.949283 129.1h186.050717v1.8h-186.050717z" fill="#00f"/><path d="m150 309.1h418.509486v1.8h-418.509486z" fill="#00f"/><path d="m591.760013 309.1h186.050717v1.8h-186.050717z" fill="#00f"/><path d="m801.061257 309.1h186.050717v1.8h-186.050717z" fill="#00f"/><path d="m1010.362502 309.1h186.050717v1.8h-186.050717z" fill="#00f"/><path d="m150 489.1h186.050717v1.8h-186.050717z" fill="#00f"/><path d="m359.301244 489.1h325.553879v1.8h-325.553879z" fill="#00f"/><path d="m708.10565 489.1h74.866697v1.8h-74.866697z" fill="#00f"/><path d="m150 669.1h93.002108v1.8h-93.002108z" fill="#00f"/><path d="m266.252635 669.1h138.619642v1.8h-138.619642z" fill="#00f"/><path d="m428.122804 669.1h209.719754v1.8h-209.719754z" fill="#00f"/><path d="m661.093085 669.1h186.050717v1.8h-186.050717z" fill="#00f"/><path d="m870.394329 669.1h186.050717v1.8h-186.050717z" fill="#00f"/><g fill="#32cd32" stroke="none"><path d="m153.99909065 126.4v7.2h33.29940478v1.8l14.27117348-5.4-14.27117348-5.4v1.8z" opacity=".8"/><path d="m201.3836647 126.4v7.2h25.48722771v1.8l10.92309759-5.4-10.92309759-5.4v1.8z" opacity=".8"/><path d="m337.67825404 126.4v7.2h12.10887447v1.8l5.18951763-5.4-5.18951763-5.4v1.8z" opacity=".8"/><path d="m377.52965734 126.4v7.2h14.25722316v1.8l6.1102385-5.4-6.1102385-5.4v1.8z" opacity=".8"/><path d="m399.47815484 130 14.9826396 5.4v-1.8h34.95949242v-7.2h-34.95949242v-1.8z" opacity=".8"/><path d="m479.50646881 126.4v7.2h13.57365767v1.8l5.81728186-5.4-5.81728186-5.4v1.8z" opacity=".8"/><path d="m510.15066342 126.4v7.2h30.5651428v1.8l13.09934692-5.4-13.09934692-5.4v1.8z" opacity=".8"/><path d="m562.46434919 130 4.18509486 5.4v-1.8h9.76522135v-7.2h-9.76522135v-1.8z" opacity=".8"/><path d="m576.36816435 130 3.80843632 5.4v-1.8h8.88635142v-7.2h-8.88635142v-1.8z" opacity=".8"/><path d="m713.40677055 126.4v7.2h6.34739388v1.8l2.72031166-5.4-2.72031166-5.4v1.8z" opacity=".8"/><path d="m739.49386186 126.4v7.2h12.10887447v1.8l5.18951763-5.4-5.18951763-5.4v1.8z" opacity=".8"/><path d="m779.34526516 126.4v7.2h14.25722316v1.8l6.1102385-5.4-6.1102385-5.4v1.8z" opacity=".8"/><path d="m801.29376266 130 14.98263961 5.4v-1.8h34.95949241v-7.2h-34.95949241v-1.8z" opacity=".8"/><path d="m922.70801472 126.4v7.2h6.34739387v1.8l2.72031166-5.4-2.72031166-5.4v1.8z" opacity=".8"/><path d="m948.79510602 126.4v7.2h12.10887447v1.8l5.18951763-5.4-5.18951763-5.4v1.8z" opacity=".8"/><path d="m988.64650932 126.4v7.2h14.25722316v1.8l6.1102385-5.4-6.1102385-5.4v1.8z" opacity=".8"/><path d="m1010.59500682 130 14.98263961 5.4v-1.8h34.95949241v-7.2h-34.95949241v-1.8z" opacity=".8"/><path d="m1089.22828917 126.4v7.2h13.57365767v1.8l5.81728186-5.4-5.81728186-5.4v1.8z" opacity=".8"/><path d="m1119.87248378 126.4v7.2h30.56514281v1.8l13.09934691-5.4-13.09934691-5.4v1.8z" opacity=".8"/><path d="m1172.18616955 130 4.18509487 5.4v-1.8h9.76522134v-7.2h-9.76522134v-1.8z" opacity=".8"/><path d="m1186.08998471 130 3.80843632 5.4v-1.8h8.88635142v-7.2h-8.88635142v-1.8z" opacity=".8"/><path d="m1198.78477245 130 2.79006325 5.4v-1.8h6.51014756v-7.2h-6.51014756v-1.8z" opacity=".8"/><path d="m154.0455917 306.4v7.2h33.29940479v1.8l14.27117348-5.4-14.27117348-5.4v1.8z" opacity=".8"/><path d="m201.43016575 306.4v7.2h25.48722771v1.8l10.92309759-5.4-10.92309759-5.4v1.8z" opacity=".8"/><path d="m286.01558302 306.4v7.2h6.34739387v1.8l2.72031166-5.4-2.72031166-5.4v1.8z" opacity=".8"/><path d="m312.10267433 306.4v7.2h12.10887447v1.8l5.18951762-5.4-5.18951762-5.4v1.8z" opacity=".8"/><path d="m351.95407763 306.4v7.2h14.25722316v1.8l6.1102385-5.4-6.1102385-5.4v1.8z" opacity=".8"/><path d="m373.90257513 310 14.9826396 5.4v-1.8h34.95949242v-7.2h-34.95949242v-1.8z" opacity=".8"/><path d="m429.23882941 306.4v7.2h13.57365767v1.8l5.81728186-5.4-5.81728186-5.4v1.8z" opacity=".8"/><path d="m459.88302402 306.4v7.2h30.56514281v1.8l13.09934691-5.4-13.09934691-5.4v1.8z" opacity=".8"/><path d="m512.19670979 310 4.18509486 5.4v-1.8h9.76522135v-7.2h-9.76522135v-1.8z" opacity=".8"/><path d="m526.10052495 310 3.80843632 5.4v-1.8h8.88635142v-7.2h-8.88635142v-1.8z" opacity=".8"/><path d="m634.81998925 306.4v7.2h6.34739388v1.8l2.72031166-5.4-2.72031166-5.4v1.8z" opacity=".8"/><path d="m660.90708056 306.4v7.2h12.10887447v1.8l5.18951763-5.4-5.18951763-5.4v1.8z" opacity=".8"/><path d="m700.75848386 306.4v7.2h14.25722316v1.8l6.1102385-5.4-6.1102385-5.4v1.8z" opacity=".8"/><path d="m722.70698136 310 14.9826396 5.4v-1.8h34.95949242v-7.2h-34.95949242v-1.8z" opacity=".8"/><path d="m844.12123341 306.4v7.2h6.34739388v1.8l2.72031166-5.4-2.72031166-5.4v1.8z" opacity=".8"/><path d="m870.20832472 306.4v7.2h12.10887447v1.8l5.18951763-5.4-5.18951763-5.4v1.8z" opacity=".8"/><path d="m910.05972802 306.4v7.2h14.25722316v1.8l6.1102385-5.4-6.1102385-5.4v1.8z" opacity=".8"/><path d="m932.00822552 310 14.98263961 5.4v-1.8h34.95949241v-7.2h-34.95949241v-1.8z" opacity=".8"/><path d="m1010.64150787 306.4v7.2h13.57365767v1.8l5.81728186-5.4-5.81728186-5.4v1.8z" opacity=".8"/><path d="m1041.28570248 306.4v7.2h30.56514281v1.8l13.09934691-5.4-13.09934691-5.4v1.8z" opacity=".8"/><path d="m1093.59938825 310 4.18509486 5.4v-1.8h9.76522135v-7.2h-9.76522135v-1.8z" opacity=".8"/><path d="m1107.50320341 310 3.80843632 5.4v-1.8h8.88635142v-7.2h-8.88635142v-1.8z" opacity=".8"/><path d="m193.05997603 486.4v7.2h6.34739387v1.8l2.72031166-5.4-2.72031166-5.4v1.8z" opacity=".8"/><path d="m219.14706733 486.4v7.2h12.10887447v1.8l5.18951763-5.4-5.18951763-5.4v1.8z" opacity=".8"/><path d="m258.99847063 486.4v7.2h14.25722317v1.8l6.11023849-5.4-6.11023849-5.4v1.8z" opacity=".8"/><path d="m280.94696813 490 14.98263961 5.4v-1.8h34.95949241v-7.2h-34.95949241v-1.8z" opacity=".8"/><path d="m364.27685694 486.4v7.2h25.48722771v1.8l10.92309759-5.4-10.92309759-5.4v1.8z" opacity=".8"/><path d="m448.86227421 486.4v7.2h6.34739388v1.8l2.72031166-5.4-2.72031166-5.4v1.8z" opacity=".8"/><path d="m474.94936552 486.4v7.2h12.10887447v1.8l5.18951763-5.4-5.18951763-5.4v1.8z" opacity=".8"/><path d="m514.80076882 486.4v7.2h14.25722316v1.8l6.1102385-5.4-6.1102385-5.4v1.8z" opacity=".8"/><path d="m536.74926632 490 14.9826396 5.4v-1.8h34.95949242v-7.2h-34.95949242v-1.8z" opacity=".8"/><path d="m592.08552061 486.4v7.2h13.57365766v1.8l5.81728186-5.4-5.81728186-5.4v1.8z" opacity=".8"/><path d="m622.72971521 486.4v7.2h30.56514281v1.8l13.09934692-5.4-13.09934692-5.4v1.8z" opacity=".8"/><path d="m712.2442442 490 3.80843633 5.4v-1.8h8.88635142v-7.2h-8.88635142v-1.8z" opacity=".8"/><path d="m716.89434961 486.4v7.2h2.37620386v1.8l1.01837308-5.4-1.01837308-5.4v1.8z" opacity=".8"/><path d="m153.58058116 666.4v7.2h33.29940479v1.8l14.27117348-5.4-14.27117348-5.4v1.8z" opacity=".8"/><path d="m200.96515521 666.4v7.2h25.48722771v1.8l10.92309759-5.4-10.92309759-5.4v1.8z" opacity=".8"/><path d="m308.38259001 666.4v7.2h6.34739387v1.8l2.72031166-5.4-2.72031166-5.4v1.8z" opacity=".8"/><path d="m334.46968131 666.4v7.2h12.10887447v1.8l5.18951763-5.4-5.18951763-5.4v1.8z" opacity=".8"/><path d="m374.32108461 666.4v7.2h14.25722316v1.8l6.1102385-5.4-6.1102385-5.4v1.8z" opacity=".8"/><path d="m470.25275906 666.4v7.2h13.57365767v1.8l5.81728186-5.4-5.81728186-5.4v1.8z" opacity=".8"/><path d="m500.89695366 666.4v7.2h30.56514281v1.8l13.09934692-5.4-13.09934692-5.4v1.8z" opacity=".8"/><path d="m553.21063944 670 4.18509486 5.4v-1.8h9.76522135v-7.2h-9.76522135v-1.8z" opacity=".8"/><path d="m567.11445459 670 3.80843633 5.4v-1.8h8.88635142v-7.2h-8.88635142v-1.8z" opacity=".8"/><path d="m704.1530608 666.4v7.2h6.34739388v1.8l2.72031166-5.4-2.72031166-5.4v1.8z" opacity=".8"/><path d="m730.24015211 666.4v7.2h12.10887447v1.8l5.18951763-5.4-5.18951763-5.4v1.8z" opacity=".8"/><path d="m770.09155541 666.4v7.2h14.25722316v1.8l6.1102385-5.4-6.1102385-5.4v1.8z" opacity=".8"/><path d="m792.04005291 670 14.9826396 5.4v-1.8h34.95949242v-7.2h-34.95949242v-1.8z" opacity=".8"/><path d="m913.45430496 666.4v7.2h6.34739388v1.8l2.72031166-5.4-2.72031166-5.4v1.8z" opacity=".8"/><path d="m939.54139627 666.4v7.2h12.10887447v1.8l5.18951763-5.4-5.18951763-5.4v1.8z" opacity=".8"/><path d="m979.39279957 666.4v7.2h14.25722316v1.8l6.1102385-5.4-6.1102385-5.4v1.8z" opacity=".8"/><path d="m1001.34129707 670 14.98263961 5.4v-1.8h34.95949241v-7.2h-34.95949241v-1.8z" opacity=".8"/></g></g></g></g></g></svg>