<svg height="400" width="1500" xmlns="http://www.w3.org/2000/svg"><text alignment-baseline="middle" fill="#008000" font-size="15" text-anchor="end" x="135" y="65">s1</text><g fill="none" stroke="#000" stroke-width="2"><g stroke-dasharray="2 2"><path d="m291.78171372 65h23.01802174"/><path d="m455.0469144 65h23.01802174" fill="none" stroke="#000" stroke-width="2"/><path d="m1065.69875584 65h23.01802174" fill="none" stroke="#000" stroke-width="2"/></g><text alignment-baseline="middle" fill="#00f" font-size="15" text-anchor="end" x="135" y="155">s2</text><g fill="none" stroke="#000" stroke-width="2"><path d="m987.11197454 155h23.01802174" stroke-dasharray="2 2"/><text alignment-baseline="middle" fill="#000" font-size="15" text-anchor="end" x="135" y="245">s3</text><g fill="none" stroke="#000" stroke-width="2"><path d="m243.00210805 245h23.01802174" stroke-dasharray="2 2"/><path d="m404.8722771 245h23.01802175" fill="none" stroke="#000" stroke-dasharray="2 2" stroke-width="2"/><text alignment-baseline="middle" fill="#f00" font-size="15" text-anchor="end" x="135" y="335">s4</text><g fill="none" stroke="#000" stroke-width="2"><path d="m684.85512338 335h23.01802174" stroke-dasharray="2 2"/><path d="m1312.125 189.2h47.25v6.75h-47.25z" fill="#000" stroke="#000" stroke-width=".5"/><text fill="#000" font-size="15" x="1365.45" y="195.6125">legend.s1i</text><path d="m1312.125 196.625h47.25v6.75h-47.25z" fill="#f00" stroke="#000" stroke-width=".5"/><text fill="#000" font-size="15" x="1365.45" y="203.0375">legend.s1</text><path d="m1312.125 204.05h47.25v6.75h-47.25z" fill="#ffa500" stroke="#000" stroke-width=".5"/><text fill="#000" font-size="15" x="1365.45" y="210.4625">legend.s2</text><path d="m150 368h1125" stroke="#008000" stroke-width=".5"/><path d="m150 364v4" stroke="#008000" stroke-width=".5"/><text fill="#008000" font-family="Times New Roman" font-size="13" text-anchor="middle" x="150" y="383">0</text><path d="m243.002108 364v4" stroke="#008000" stroke-width=".5"/><text fill="#008000" font-family="Times New Roman" font-size="13" text-anchor="middle" x="243.002108" y="383">2,000</text><path d="m336.004216 364v4" stroke="#008000" stroke-width=".5"/><text fill="#008000" font-family="Times New Roman" font-size="13" text-anchor="middle" x="336.004216" y="383">4,000</text><path d="m429.006324 364v4" stroke="#008000" stroke-width=".5"/><text fill="#008000" font-family="Times New Roman" font-size="13" text-anchor="middle" x="429.006324" y="383">6,000</text><path d="m522.008432 364v4" stroke="#008000" stroke-width=".5"/><text fill="#008000" font-family="Times New Roman" font-size="13" text-anchor="middle" x="522.008432" y="383">8,000</text><path d="m615.01054 364v4" stroke="#008000" stroke-width=".5"/><text fill="#008000" font-family="Times New Roman" font-size="13" text-anchor="middle" x="615.01054" y="383">10,000</text><path d="m708.012648 364v4" stroke="#008000" stroke-width=".5"/><text fill="#008000" font-family="Times New Roman" font-size="13" text-anchor="middle" x="708.012648" y="383">12,000</text><path d="m801.014756 364v4" stroke="#008000" stroke-width=".5"/><text fill="#008000" font-family="Times New Roman" font-size="13" text-anchor="middle" x="801.014756" y="383">14,000</text><path d="m894.016864 364v4" stroke="#008000" stroke-width=".5"/><text fill="#008000" font-family="Times New Roman" font-size="13" text-anchor="middle" x="894.016864" y="383">16,000</text><path d="m987.018972 364v4" stroke="#008000" stroke-width=".5"/><text fill="#008000" font-family="Times New Roman" font-size="13" text-anchor="middle" x="987.018972" y="383">18,000</text><path d="m1080.02108 364v4" stroke="#008000" stroke-width=".5"/><text fill="#008000" font-family="Times New Roman" font-size="13" text-anchor="middle" x="1080.02108" y="383">20,000</text><path d="m1173.023189 364v4" stroke="#008000" stroke-width=".5"/><text fill="#008000" font-family="Times New Roman" font-size="13" text-anchor="middle" x="1173.023189" y="383">22,000</text><path d="m1275 364v4" stroke="#008000" stroke-width=".5"/><text fill="#008000" font-family="Times New Roman" font-size="13" text-anchor="middle" x="1275" y="383">24,193bp</text><path d="m150 64.55h141.781714v.9h-141.781714z" fill="#00f"/><path d="m315.032241 64.55h140.014674v.9h-140.014674z" fill="#00f"/><path d="m478.297441 64.55h168.798826v.9h-168.798826z" fill="#00f"/><path d="m670.346795 64.55h186.050717v.9h-186.050717z" fill="#00f"/><path d="m713.40677055 64.1v1.8h9.06770554v-1.8z" fill="#000" stroke="none"/><path d="m1088.949283 64.55h186.050717v.9h-186.050717z" fill="#00f"/><path d="m150 154.55h418.509486v.9h-418.509486z" fill="#00f"/><path d="m591.760013 154.55h186.050717v.9h-186.050717z" fill="#00f"/><path d="m801.061257 154.55h186.050717v.9h-186.050717z" fill="#00f"/><path d="m1010.362502 154.55h186.050717v.9h-186.050717z" fill="#00f"/><path d="m150 244.55h93.002108v.9h-93.002108z" fill="#00f"/><path d="m266.252635 244.55h138.619642v.9h-138.619642z" fill="#00f"/><path d="m428.122804 244.55h209.719754v.9h-209.719754z" fill="#00f"/><path d="m661.093085 244.55h186.050717v.9h-186.050717z" fill="#00f"/><path d="m870.394329 244.55h186.050717v.9h-186.050717z" fill="#00f"/><path d="m150 334.55h186.050717v.9h-186.050717z" fill="#00f"/><path d="m359.301244 334.55h325.553879v.9h-325.553879z" fill="#00f"/><path d="m708.10565 334.55h74.866697v.9h-74.866697z" fill="#00f"/><g stroke="none"><path d="m153.99909065 62.75v4.5h47.57057826v-4.5z" fill="#32cd32"/><path d="m201.3836647 62.75v4.5h36.4103253v-4.5z" fill="#32cd32"/><path d="m337.67825404 62.75v4.5h17.2983921v-4.5z" fill="#32cd32"/><path d="m377.52965734 62.75v4.5h20.36746166v-4.5z" fill="#32cd32"/><path d="m399.47815484 62.75v4.5h49.94213202v-4.5z" fill="#32cd32"/><path d="m479.50646881 62.75v4.5h19.39093953v-4.5z" fill="#32cd32"/><path d="m510.15066342 62.75v4.5h43.66448972v-4.5z" fill="#32cd32"/><path d="m562.46434919 62.75v4.5h13.95031621v-4.5z" fill="#32cd32"/><path d="m576.36816435 62.75v4.5h12.69478774v-4.5z" fill="#32cd32"/><path d="m739.49386186 62.75v4.5h17.2983921v-4.5z" fill="#32cd32"/><path d="m779.34526516 62.75v4.5h20.36746166v-4.5z" fill="#32cd32"/><path d="m801.29376266 62.75v4.5h49.94213202v-4.5z" fill="#32cd32"/><path d="m948.79510602 62.75v4.5h17.2983921v-4.5z" fill="#32cd32"/><path d="m988.64650932 62.75v4.5h20.36746166v-4.5z" fill="#32cd32"/><path d="m1010.59500682 62.75v4.5h49.94213202v-4.5z" fill="#32cd32"/><path d="m1089.22828917 62.75v4.5h19.39093953v-4.5z" fill="#32cd32"/><path d="m1119.87248378 62.75v4.5h43.66448972v-4.5z" fill="#32cd32"/><path d="m1172.18616955 62.75v4.5h13.95031621v-4.5z" fill="#32cd32"/><path d="m1186.08998471 62.75v4.5h12.69478774v-4.5z" fill="#32cd32"/><path d="m1198.78477245 62.75v4.5h9.30021081v-4.5z" fill="#32cd32"/><path d="m154.0455917 152.75v4.5h47.57057827v-4.5z" fill="#32cd32"/><path d="m201.43016575 152.75v4.5h36.4103253v-4.5z" fill="#32cd32"/><path d="m286.01558302 152.75v4.5h9.06770553v-4.5z" fill="#32cd32"/><path d="m312.10267433 152.75v4.5h17.29839209v-4.5z" fill="#32cd32"/><path d="m351.95407763 152.75v4.5h20.36746166v-4.5z" fill="#32cd32"/><path d="m373.90257513 152.75v4.5h49.94213202v-4.5z" fill="#32cd32"/><path d="m429.23882941 152.75v4.5h19.39093953v-4.5z" fill="#ffa500"/><path d="m459.88302402 152.75v4.5h43.66448972v-4.5z" fill="#32cd32"/><path d="m512.19670979 152.75v4.5h13.95031621v-4.5z" fill="#32cd32"/><path d="m526.10052495 152.75v4.5h12.69478774v-4.5z" fill="#32cd32"/><path d="m634.81998925 152.75v4.5h9.06770554v-4.5z" fill="#32cd32"/><path d="m660.90708056 152.75v4.5h17.2983921v-4.5z" fill="#32cd32"/><path d="m700.75848386 152.75v4.5h20.36746166v-4.5z" fill="#32cd32"/><path d="m722.70698136 152.75v4.5h49.94213202v-4.5z" fill="#ffa500" opacity=".5"/><path d="m844.12123341 152.75v4.5h9.06770554v-4.5z" fill="#32cd32"/><path d="m870.20832472 152.75v4.5h17.2983921v-4.5z" fill="#32cd32"/><path d="m910.05972802 152.75v4.5h20.36746166v-4.5z" fill="#32cd32"/><path d="m932.00822552 152.75v4.5h49.94213202v-4.5z" fill="#32cd32"/><path d="m1010.64150787 152.75v4.5h19.39093953v-4.5z" fill="#ffa500"/><path d="m1041.28570248 152.75v4.5h43.66448972v-4.5z" fill="#32cd32"/><path d="m1093.59938825 152.75v4.5h13.95031621v-4.5z" fill="#32cd32"/><path d="m1107.50320341 152.75v4.5h12.69478774v-4.5z" fill="#32cd32"/><path d="m153.58058116 242.75v4.5h47.57057827v-4.5z" fill="#32cd32"/><path d="m200.96515521 242.75v4.5h36.4103253v-4.5z" fill="#32cd32"/><path d="m308.38259001 242.75v4.5h9.06770553v-4.5z" fill="#32cd32"/><path d="m334.46968131 242.75v4.5h17.2983921v-4.5z" fill="#32cd32"/><path d="m374.32108461 242.75v4.5h20.36746166v-4.5z" fill="#32cd32"/><path d="m470.25275906 242.75v4.5h19.39093953v-4.5z" fill="#32cd32"/><path d="m500.89695366 242.75v4.5h43.66448973v-4.5z" fill="#32cd32"/><path d="m553.21063944 242.75v4.5h13.95031621v-4.5z" fill="#32cd32"/><path d="m567.11445459 242.75v4.5h12.69478775v-4.5z" fill="#32cd32"/><path d="m704.1530608 242.75v4.5h9.06770554v-4.5z" fill="#32cd32"/><path d="m730.24015211 242.75v4.5h17.2983921v-4.5z" fill="#32cd32"/><path d="m770.09155541 242.75v4.5h20.36746166v-4.5z" fill="#32cd32"/><path d="m792.04005291 242.75v4.5h49.94213202v-4.5z" fill="#32cd32"/><path d="m913.45430496 242.75v4.5h9.06770554v-4.5z" fill="#32cd32"/><path d="m939.54139627 242.75v4.5h17.2983921v-4.5z" fill="#32cd32"/><path d="m979.39279957 242.75v4.5h20.36746166v-4.5z" fill="#32cd32"/><path d="m1001.34129707 242.75v4.5h49.94213202v-4.5z" fill="#32cd32"/><path d="m193.05997603 332.75v4.5h9.06770553v-4.5z" fill="#32cd32"/><path d="m219.14706733 332.75v4.5h17.2983921v-4.5z" fill="#32cd32"/><path d="m258.99847063 332.75v4.5h20.36746166v-4.5z" fill="#32cd32"/><path d="m280.94696813 332.75v4.5h49.94213202v-4.5z" fill="#32cd32"/><path d="m364.27685694 332.75v4.5h36.4103253v-4.5z" fill="#32cd32"/><path d="m448.86227421 332.75v4.5h9.06770554v-4.5z" fill="#32cd32"/><path d="m474.94936552 332.75v4.5h17.2983921v-4.5z" fill="#32cd32"/><path d="m514.80076882 332.75v4.5h20.36746166v-4.5z" fill="#32cd32"/><path d="m536.74926632 332.75v4.5h49.94213202v-4.5z" fill="#32cd32"/><path d="m592.08552061 332.75v4.5h19.39093952v-4.5z" fill="#32cd32"/><path d="m622.72971521 332.75v4.5h43.66448973v-4.5z" fill="#32cd32"/><path d="m712.2442442 332.75v4.5h12.69478775v-4.5z" fill="#32cd32"/><path d="m716.89434961 332.75v4.5h3.39457694v-4.5z" fill="#32cd32"/></g><path d="m879.648039 64.55h186.050717v.9h-186.050717z" fill="#00f"/><path d="m922.70801472 63.2v3.6h9.06770553v-3.6z" fill="#f00" stroke="none"/></g></g></g></g></svg>