<svg height="400" width="1500" xmlns="http://www.w3.org/2000/svg"><text alignment-baseline="middle" fill="#008000" font-size="15" text-anchor="end" x="135" y="80">s1</text><text alignment-baseline="middle" fill="#00f" font-size="15" text-anchor="end" x="135" y="160">s2</text><text alignment-baseline="middle" font-size="15" text-anchor="end" x="135" y="240">s3</text><text alignment-baseline="middle" fill="#f00" font-size="15" text-anchor="end" x="135" y="320">s4</text><path d="m150 352h1125" stroke="#008000" stroke-width=".5"/><path d="m150 348v4" stroke="#008000" stroke-width=".5"/><text fill="#008000" font-family="Times New Roman" font-size="13" text-anchor="middle" x="150" y="367">0</text><path d="m243.002108 348v4" stroke="#008000" stroke-width=".5"/><text fill="#008000" font-family="Times New Roman" font-size="13" text-anchor="middle" x="243.002108" y="367">2,000</text><path d="m336.004216 348v4" stroke="#008000" stroke-width=".5"/><text fill="#008000" font-family="Times New Roman" font-size="13" text-anchor="middle" x="336.004216" y="367">4,000</text><path d="m429.006324 348v4" stroke="#008000" stroke-width=".5"/><text fill="#008000" font-family="Times New Roman" font-size="13" text-anchor="middle" x="429.006324" y="367">6,000</text><path d="m522.008432 348v4" stroke="#008000" stroke-width=".5"/><text fill="#008000" font-family="Times New Roman" font-size="13" text-anchor="middle" x="522.008432" y="367">8,000</text><path d="m615.01054 348v4" stroke="#008000" stroke-width=".5"/><text fill="#008000" font-family="Times New Roman" font-size="13" text-anchor="middle" x="615.01054" y="367">10,000</text><path d="m708.012648 348v4" stroke="#008000" stroke-width=".5"/><text fill="#008000" font-family="Times New Roman" font-size="13" text-anchor="middle" x="708.012648" y="367">12,000</text><path d="m801.014756 348v4" stroke="#008000" stroke-width=".5"/><text fill="#008000" font-family="Times New Roman" font-size="13" text-anchor="middle" x="801.014756" y="367">14,000</text><path d="m894.016864 348v4" stroke="#008000" stroke-width=".5"/><text fill="#008000" font-family="Times New Roman" font-size="13" text-anchor="middle" x="894.016864" y="367">16,000</text><path d="m987.018972 348v4" stroke="#008000" stroke-width=".5"/><text fill="#008000" font-family="Times New Roman" font-size="13" text-anchor="middle" x="987.018972" y="367">18,000</text><path d="m1080.02108 348v4" stroke="#008000" stroke-width=".5"/><text fill="#008000" font-family="Times New Roman" font-size="13" text-anchor="middle" x="1080.02108" y="367">20,000</text><path d="m1173.023189 348v4" stroke="#008000" stroke-width=".5"/><text fill="#008000" font-family="Times New Roman" font-size="13" text-anchor="middle" x="1173.023189" y="367">22,000</text><path d="m1275 348v4" stroke="#008000" stroke-width=".5"/><text fill="#008000" font-family="Times New Roman" font-size="13" text-anchor="middle" x="1275" y="367">24,193bp</text><path d="m150 78h141.781714v4h-141.781714z" fill="#00f"/><path d="m315.032241 78h140.014674v4h-140.014674z" fill="#00f"/><path d="m478.297441 78h168.798826v4h-168.798826z" fill="#00f"/><path d="m670.346795 78h186.050717v4h-186.050717z" fill="#00f"/><path d="m879.648039 78h186.050717v4h-186.050717z" fill="#00f"/><path d="m1088.949283 78h186.050717v4h-186.050717z" fill="#00f"/><path d="m150 158h418.509486v4h-418.509486z" fill="#00f"/><path d="m591.760013 158h186.050717v4h-186.050717z" fill="#00f"/><path d="m801.061257 158h186.050717v4h-186.050717z" fill="#00f"/><path d="m1010.362502 158h186.050717v4h-186.050717z" fill="#00f"/><path d="m150 238h93.002108v4h-93.002108z" fill="#00f"/><path d="m266.252635 238h138.619642v4h-138.619642z" fill="#00f"/><path d="m428.122804 238h209.719754v4h-209.719754z" fill="#00f"/><path d="m661.093085 238h186.050717v4h-186.050717z" fill="#00f"/><path d="m870.394329 238h186.050717v4h-186.050717z" fill="#00f"/><path d="m150 318h186.050717v4h-186.050717z" fill="#00f"/><path d="m359.301244 318h325.553879v4h-325.553879z" fill="#00f"/><path d="m708.10565 318h74.866697v4h-74.866697z" fill="#00f"/><g fill="#32cd32"><path d="m153.99909065 74v12h47.57057826v-12z"/><path d="m201.3836647 74v12h36.4103253v-12z"/><path d="m337.67825404 74v12h17.2983921v-12z"/><path d="m377.52965734 74v12h20.36746166v-12z"/><path d="m399.47815484 74v12h49.94213202v-12z"/><path d="m479.50646881 74v12h19.39093953v-12z"/><path d="m510.15066342 74v12h43.66448972v-12z"/><path d="m562.46434919 74v12h13.95031621v-12z"/><path d="m576.36816435 74v12h12.69478774v-12z"/><path d="m713.40677055 74v12h9.06770554v-12z"/><path d="m739.49386186 74v12h17.2983921v-12z"/><path d="m779.34526516 74v12h20.36746166v-12z"/><path d="m801.29376266 74v12h49.94213202v-12z"/><path d="m922.70801472 74v12h9.06770553v-12z"/><path d="m948.79510602 74v12h17.2983921v-12z"/><path d="m988.64650932 74v12h20.36746166v-12z"/><path d="m1010.59500682 74v12h49.94213202v-12z"/><path d="m1089.22828917 74v12h19.39093953v-12z"/><path d="m1119.87248378 74v12h43.66448972v-12z"/><path d="m1172.18616955 74v12h13.95031621v-12z"/><path d="m1186.08998471 74v12h12.69478774v-12z"/><path d="m1198.78477245 74v12h9.30021081v-12z"/><path d="m154.0455917 154v12h47.57057827v-12z"/><path d="m201.43016575 154v12h36.4103253v-12z"/><path d="m286.01558302 154v12h9.06770553v-12z"/><path d="m312.10267433 154v12h17.29839209v-12z"/><path d="m351.95407763 154v12h20.36746166v-12z"/><path d="m373.90257513 154v12h49.94213202v-12z"/><path d="m429.23882941 154v12h19.39093953v-12z"/><path d="m459.88302402 154v12h43.66448972v-12z"/><path d="m512.19670979 154v12h13.95031621v-12z"/><path d="m526.10052495 154v12h12.69478774v-12z"/><path d="m634.81998925 154v12h9.06770554v-12z"/><path d="m660.90708056 154v12h17.2983921v-12z"/><path d="m700.75848386 154v12h20.36746166v-12z"/><path d="m722.70698136 154v12h49.94213202v-12z"/><path d="m844.12123341 154v12h9.06770554v-12z"/><path d="m870.20832472 154v12h17.2983921v-12z"/><path d="m910.05972802 154v12h20.36746166v-12z"/><path d="m932.00822552 154v12h49.94213202v-12z"/><path d="m1010.64150787 154v12h19.39093953v-12z"/><path d="m1041.28570248 154v12h43.66448972v-12z"/><path d="m1093.59938825 154v12h13.95031621v-12z"/><path d="m1107.50320341 154v12h12.69478774v-12z"/><path d="m153.58058116 234v12h47.57057827v-12z"/><path d="m200.96515521 234v12h36.4103253v-12z"/><path d="m308.38259001 234v12h9.06770553v-12z"/><path d="m334.46968131 234v12h17.2983921v-12z"/><path d="m374.32108461 234v12h20.36746166v-12z"/><path d="m470.25275906 234v12h19.39093953v-12z"/><path d="m500.89695366 234v12h43.66448973v-12z"/><path d="m553.21063944 234v12h13.95031621v-12z"/><path d="m567.11445459 234v12h12.69478775v-12z"/><path d="m704.1530608 234v12h9.06770554v-12z"/><path d="m730.24015211 234v12h17.2983921v-12z"/><path d="m770.09155541 234v12h20.36746166v-12z"/><path d="m792.04005291 234v12h49.94213202v-12z"/><path d="m913.45430496 234v12h9.06770554v-12z"/><path d="m939.54139627 234v12h17.2983921v-12z"/><path d="m979.39279957 234v12h20.36746166v-12z"/><path d="m1001.34129707 234v12h49.94213202v-12z"/><path d="m193.05997603 314v12h9.06770553v-12z"/><path d="m219.14706733 314v12h17.2983921v-12z"/><path d="m258.99847063 314v12h20.36746166v-12z"/><path d="m280.94696813 314v12h49.94213202v-12z"/><path d="m364.27685694 314v12h36.4103253v-12z"/><path d="m448.86227421 314v12h9.06770554v-12z"/><path d="m474.94936552 314v12h17.2983921v-12z"/><path d="m514.80076882 314v12h20.36746166v-12z"/><path d="m536.74926632 314v12h49.94213202v-12z"/><path d="m592.08552061 314v12h19.39093952v-12z"/><path d="m622.72971521 314v12h43.66448973v-12z"/><path d="m712.2442442 314v12h12.69478775v-12z"/></g><path d="m716.89434961 328.4v8h3.39457694v-8z"/></svg>