<svg height="400" width="1500" xmlns="http://www.w3.org/2000/svg"><text alignment-baseline="middle" fill="#008000" font-size="15" text-anchor="end" x="135" y="80">s1</text><g fill="none" stroke="#000" stroke-width="2"><g stroke-dasharray="2 5"><path d="m291.78171372 80h23.01802174"/><path d="m455.0469144 80h23.01802174" fill="none" stroke="#000" stroke-width="2"/><path d="m1065.69875584 80h23.01802174" fill="none" stroke="#000" stroke-width="2"/></g><text alignment-baseline="middle" fill="#00f" font-size="15" text-anchor="end" x="135" y="160">s2</text><g fill="none" stroke="#000" stroke-width="2"><path d="m987.11197454 160h23.01802174" stroke-dasharray="2 5"/><text alignment-baseline="middle" fill="#000" font-size="15" text-anchor="end" x="135" y="240">s3</text><g fill="none" stroke="#000" stroke-width="2"><path d="m243.00210805 240h23.01802174" stroke-dasharray="2 5"/><path d="m404.8722771 240h23.01802175" fill="none" stroke="#000" stroke-dasharray="2 5" stroke-width="2"/><text alignment-baseline="middle" fill="#f00" font-size="15" text-anchor="end" x="135" y="320">s4</text><g fill="none" stroke="#000" stroke-width="2"><path d="m684.85512338 320h23.01802174" stroke-dasharray="2 5"/><path d="m150 79.6h141.781714v.8h-141.781714z" fill="#00f"/><path d="m315.032241 79.6h140.014674v.8h-140.014674z" fill="#00f"/><path d="m478.297441 79.6h168.798826v.8h-168.798826z" fill="#00f"/><path d="m670.346795 79.6h186.050717v.8h-186.050717z" fill="#00f"/><path d="m879.648039 79.6h186.050717v.8h-186.050717z" fill="#00f"/><path d="m1088.949283 79.6h186.050717v.8h-186.050717z" fill="#00f"/><path d="m150 159.6h418.509486v.8h-418.509486z" fill="#00f"/><path d="m591.760013 159.6h186.050717v.8h-186.050717z" fill="#00f"/><path d="m801.061257 159.6h186.050717v.8h-186.050717z" fill="#00f"/><path d="m1010.362502 159.6h186.050717v.8h-186.050717z" fill="#00f"/><path d="m150 239.6h93.002108v.8h-93.002108z" fill="#00f"/><path d="m266.252635 239.6h138.619642v.8h-138.619642z" fill="#00f"/><path d="m428.122804 239.6h209.719754v.8h-209.719754z" fill="#00f"/><path d="m661.093085 239.6h186.050717v.8h-186.050717z" fill="#00f"/><path d="m870.394329 239.6h186.050717v.8h-186.050717z" fill="#00f"/><path d="m150 319.6h186.050717v.8h-186.050717z" fill="#00f"/><path d="m359.301244 319.6h325.553879v.8h-325.553879z" fill="#00f"/><path d="m708.10565 319.6h74.866697v.8h-74.866697z" fill="#00f"/><g fill="#32cd32" stroke="none"><path d="m153.99909065 78v4h47.57057826v-4z"/><path d="m201.3836647 78v4h36.4103253v-4z"/><path d="m337.67825404 78v4h17.2983921v-4z"/><path d="m377.52965734 78v4h20.36746166v-4z"/><path d="m399.47815484 78v4h49.94213202v-4z"/><path d="m479.50646881 78v4h19.39093953v-4z"/><path d="m510.15066342 78v4h43.66448972v-4z"/><path d="m562.46434919 78v4h13.95031621v-4z"/><path d="m576.36816435 78v4h12.69478774v-4z"/><path d="m713.40677055 78v4h9.06770554v-4z"/><path d="m739.49386186 78v4h17.2983921v-4z"/><path d="m779.34526516 78v4h20.36746166v-4z"/><path d="m801.29376266 78v4h49.94213202v-4z"/><path d="m922.70801472 78v4h9.06770553v-4z"/><path d="m948.79510602 78v4h17.2983921v-4z"/><path d="m988.64650932 78v4h20.36746166v-4z"/><path d="m1010.59500682 78v4h49.94213202v-4z"/><path d="m1089.22828917 78v4h19.39093953v-4z"/><path d="m1119.87248378 78v4h43.66448972v-4z"/><path d="m1172.18616955 78v4h13.95031621v-4z"/><path d="m1186.08998471 78v4h12.69478774v-4z"/><path d="m1198.78477245 78v4h9.30021081v-4z"/><path d="m154.0455917 158v4h47.57057827v-4z"/><path d="m201.43016575 158v4h36.4103253v-4z"/><path d="m286.01558302 158v4h9.06770553v-4z"/><path d="m312.10267433 158v4h17.29839209v-4z"/><path d="m351.95407763 158v4h20.36746166v-4z"/><path d="m373.90257513 158v4h49.94213202v-4z"/><path d="m429.23882941 158v4h19.39093953v-4z"/><path d="m459.88302402 158v4h43.66448972v-4z"/><path d="m512.19670979 158v4h13.95031621v-4z"/><path d="m526.10052495 158v4h12.69478774v-4z"/><path d="m634.81998925 158v4h9.06770554v-4z"/><path d="m660.90708056 158v4h17.2983921v-4z"/><path d="m700.75848386 158v4h20.36746166v-4z"/><path d="m722.70698136 158v4h49.94213202v-4z"/><path d="m844.12123341 158v4h9.06770554v-4z"/><path d="m870.20832472 158v4h17.2983921v-4z"/><path d="m910.05972802 158v4h20.36746166v-4z"/><path d="m932.00822552 158v4h49.94213202v-4z"/><path d="m1010.64150787 158v4h19.39093953v-4z"/><path d="m1041.28570248 158v4h43.66448972v-4z"/><path d="m1093.59938825 158v4h13.95031621v-4z"/><path d="m1107.50320341 158v4h12.69478774v-4z"/><path d="m153.58058116 238v4h47.57057827v-4z"/><path d="m200.96515521 238v4h36.4103253v-4z"/><path d="m308.38259001 238v4h9.06770553v-4z"/><path d="m334.46968131 238v4h17.2983921v-4z"/><path d="m374.32108461 238v4h20.36746166v-4z"/><path d="m470.25275906 238v4h19.39093953v-4z"/><path d="m500.89695366 238v4h43.66448973v-4z"/><path d="m553.21063944 238v4h13.95031621v-4z"/><path d="m567.11445459 238v4h12.69478775v-4z"/><path d="m704.1530608 238v4h9.06770554v-4z"/><path d="m730.24015211 238v4h17.2983921v-4z"/><path d="m770.09155541 238v4h20.36746166v-4z"/><path d="m792.04005291 238v4h49.94213202v-4z"/><path d="m913.45430496 238v4h9.06770554v-4z"/><path d="m939.54139627 238v4h17.2983921v-4z"/><path d="m979.39279957 238v4h20.36746166v-4z"/><path d="m1001.34129707 238v4h49.94213202v-4z"/><path d="m193.05997603 318v4h9.06770553v-4z"/><path d="m219.14706733 318v4h17.2983921v-4z"/><path d="m258.99847063 318v4h20.36746166v-4z"/><path d="m280.94696813 318v4h49.94213202v-4z"/><path d="m364.27685694 318v4h36.4103253v-4z"/><path d="m448.86227421 318v4h9.06770554v-4z"/><path d="m474.94936552 318v4h17.2983921v-4z"/><path d="m514.80076882 318v4h20.36746166v-4z"/><path d="m536.74926632 318v4h49.94213202v-4z"/><path d="m592.08552061 318v4h19.39093952v-4z"/><path d="m622.72971521 318v4h43.66448973v-4z"/><path d="m712.2442442 318v4h12.69478775v-4z"/><path d="m716.89434961 318v4h3.39457694v-4z"/></g></g></g></g></g></svg>