<svg height="800" width="1500" xmlns="http://www.w3.org/2000/svg" xmlns:xlink="http://www.w3.org/1999/xlink"><linearGradient id="a" x1="0%" x2="0%" y1="0%" y2="100%"><stop offset="0" stop-color="#00f"/><stop offset=".5" stop-color="#008000"/><stop offset="1" stop-color="#00f"/></linearGradient><linearGradient id="b" x1="0%" x2="0%" y1="0%" y2="100%"><stop offset="0" stop-color="#ffa500"/><stop offset=".5"/><stop offset="1" stop-color="#ffa500"/></linearGradient><linearGradient id="c" x1="0%" x2="0%" y1="0%" y2="100%"><stop offset="0" stop-color="#32d732"/><stop offset=".5" stop-color="#326432"/><stop offset="1" stop-color="#32d732"/></linearGradient><linearGradient id="d" x1="0%" x2="0%" y1="0%" y2="100%"><stop offset="0" stop-color="#f00"/><stop offset=".5" stop-color="#00f"/><stop offset="1" stop-color="#f00"/></linearGradient><text alignment-baseline="middle" fill="#008000" font-size="15" text-anchor="end" x="135" y="130">s1</text><g fill="none" stroke="#000" stroke-width="2"><g stroke-dasharray="2 2"><path d="m291.78171372 130h23.01802174"/><path d="m455.0469144 130h23.01802174" fill="none" stroke="#000" stroke-width="2"/><path d="m1065.69875584 130h23.01802174" fill="none" stroke="#000" stroke-width="2"/></g><text alignment-baseline="middle" fill="#00f" font-size="15" text-anchor="end" x="135" y="310">s2</text><g fill="none" stroke="#000" stroke-width="2"><path d="m987.11197454 310h23.01802174" stroke-dasharray="2 2"/><text alignment-baseline="middle" fill="#000" font-size="15" text-anchor="end" x="135" y="490">s3</text><g fill="none" stroke="#000" stroke-width="2"><path d="m243.00210805 490h23.01802174" stroke-dasharray="2 2"/><path d="m404.8722771 490h23.01802175" fill="none" stroke="#000" stroke-dasharray="2 2" stroke-width="2"/><text alignment-baseline="middle" fill="#f00" font-size="15" text-anchor="end" x="135" y="670">s4</text><g fill="none" stroke="#000" stroke-width="2"><path d="m684.85512338 670h23.01802174" stroke-dasharray="2 2"/><g fill="none"><path d="m1312.125 394.582h47.25v2.52h-47.25z" fill="url(#a)" stroke="#000" stroke-width="1"/><text fill="#000" font-size="20" x="1365.45" y="396.976">legend.s1i</text><g fill="none"><path d="m1312.125 397.354h47.25v2.52h-47.25z" fill="url(#d)" stroke="#000" stroke-width="1"/><text fill="#000" font-size="20" x="1365.45" y="399.748">legend.s1</text><path d="m1312.125 400.126h47.25v2.52h-47.25z" fill="#ffa500" stroke="#000" stroke-width=".5"/><text fill="#000" font-size="20" x="1365.45" y="402.52">legend.s2</text><g fill="none"><path d="m1312.125 402.898h47.25v2.52h-47.25z" fill="url(#b)" stroke="#000" stroke-width="1"/><text fill="#000" font-size="20" x="1365.45" y="405.292">legend.s2</text><path d="m150 752h1125" stroke="#008000" stroke-width=".5"/><path d="m150 744v8" stroke="#008000" stroke-width=".5"/><text fill="#008000" font-family="Times New Roman" font-size="13" text-anchor="middle" x="150" y="767">0</text><path d="m243.002108 744v8" stroke="#008000" stroke-width=".5"/><text fill="#008000" font-family="Times New Roman" font-size="13" text-anchor="middle" x="243.002108" y="767">2,000</text><path d="m336.004216 744v8" stroke="#008000" stroke-width=".5"/><text fill="#008000" font-family="Times New Roman" font-size="13" text-anchor="middle" x="336.004216" y="767">4,000</text><path d="m429.006324 744v8" stroke="#008000" stroke-width=".5"/><text fill="#008000" font-family="Times New Roman" font-size="13" text-anchor="middle" x="429.006324" y="767">6,000</text><path d="m522.008432 744v8" stroke="#008000" stroke-width=".5"/><text fill="#008000" font-family="Times New Roman" font-size="13" text-anchor="middle" x="522.008432" y="767">8,000</text><path d="m615.01054 744v8" stroke="#008000" stroke-width=".5"/><text fill="#008000" font-family="Times New Roman" font-size="13" text-anchor="middle" x="615.01054" y="767">10,000</text><path d="m708.012648 744v8" stroke="#008000" stroke-width=".5"/><text fill="#008000" font-family="Times New Roman" font-size="13" text-anchor="middle" x="708.012648" y="767">12,000</text><path d="m801.014756 744v8" stroke="#008000" stroke-width=".5"/><text fill="#008000" font-family="Times New Roman" font-size="13" text-anchor="middle" x="801.014756" y="767">14,000</text><path d="m894.016864 744v8" stroke="#008000" stroke-width=".5"/><text fill="#008000" font-family="Times New Roman" font-size="13" text-anchor="middle" x="894.016864" y="767">16,000</text><path d="m987.018972 744v8" stroke="#008000" stroke-width=".5"/><text fill="#008000" font-family="Times New Roman" font-size="13" text-anchor="middle" x="987.018972" y="767">18,000</text><path d="m1080.02108 744v8" stroke="#008000" stroke-width=".5"/><text fill="#008000" font-family="Times New Roman" font-size="13" text-anchor="middle" x="1080.02108" y="767">20,000</text><path d="m1173.023189 744v8" stroke="#008000" stroke-width=".5"/><text fill="#008000" font-family="Times New Roman" font-size="13" text-anchor="middle" x="1173.023189" y="767">22,000</text><path d="m1275 744v8" stroke="#008000" stroke-width=".5"/><text fill="#008000" font-family="Times New Roman" font-size="13" text-anchor="middle" x="1275" y="767">24,193bp</text><path d="m150 24h1125" stroke="#008000" stroke-width=".5"/><path d="m150 32v-8" stroke="#008000" stroke-width=".5"/><text fill="#008000" font-family="Times New Roman" font-size="13" text-anchor="middle" x="150" y="21">0</text><path d="m243.002108 32v-8" stroke="#008000" stroke-width=".5"/><text fill="#008000" font-family="Times New Roman" font-size="13" text-anchor="middle" x="243.002108" y="21">2,000</text><path d="m336.004216 32v-8" stroke="#008000" stroke-width=".5"/><text fill="#008000" font-family="Times New Roman" font-size="13" text-anchor="middle" x="336.004216" y="21">4,000</text><path d="m429.006324 32v-8" stroke="#008000" stroke-width=".5"/><text fill="#008000" font-family="Times New Roman" font-size="13" text-anchor="middle" x="429.006324" y="21">6,000</text><path d="m522.008432 32v-8" stroke="#008000" stroke-width=".5"/><text fill="#008000" font-family="Times New Roman" font-size="13" text-anchor="middle" x="522.008432" y="21">8,000</text><path d="m615.01054 32v-8" stroke="#008000" stroke-width=".5"/><text fill="#008000" font-family="Times New Roman" font-size="13" text-anchor="middle" x="615.01054" y="21">10,000</text><path d="m708.012648 32v-8" stroke="#008000" stroke-width=".5"/><text fill="#008000" font-family="Times New Roman" font-size="13" text-anchor="middle" x="708.012648" y="21">12,000</text><path d="m801.014756 32v-8" stroke="#008000" stroke-width=".5"/><text fill="#008000" font-family="Times New Roman" font-size="13" text-anchor="middle" x="801.014756" y="21">14,000</text><path d="m894.016864 32v-8" stroke="#008000" stroke-width=".5"/><text fill="#008000" font-family="Times New Roman" font-size="13" text-anchor="middle" x="894.016864" y="21">16,000</text><path d="m987.018972 32v-8" stroke="#008000" stroke-width=".5"/><text fill="#008000" font-family="Times New Roman" font-size="13" text-anchor="middle" x="987.018972" y="21">18,000</text><path d="m1080.02108 32v-8" stroke="#008000" stroke-width=".5"/><text fill="#008000" font-family="Times New Roman" font-size="13" text-anchor="middle" x="1080.02108" y="21">20,000</text><path d="m1173.023189 32v-8" stroke="#008000" stroke-width=".5"/><text fill="#008000" font-family="Times New Roman" font-size="13" text-anchor="middle" x="1173.023189" y="21">22,000</text><path d="m1275 32v-8" stroke="#008000" stroke-width=".5"/><text fill="#008000" font-family="Times New Roman" font-size="13" text-anchor="middle" x="1275" y="21">24,193bp</text><text fill="#008000" font-family="Times New Roman" font-size="15" transform="matrix(.5 .8660254 -.8660254 .5 617.669533 -714.075013)" x="927.241867" y="177.88">gene_s1030000.label</text><path d="m286.01558302 310h9.06770553l13.29930146 180h9.06770553z" fill="#3cb371" opacity=".5" stroke="#000" stroke-width=".1"/><path d="m576.36816435 133.06h12.69478774l-50.2676394 173.88h-12.69478774z" fill="#00bfff" opacity=".8" stroke="#000" stroke-width=".1"/><path d="m286.01558302 313.06h9.06770553l56.68478486 173.88h-17.2983921z" fill="#ff8c00" stroke="#000" stroke-width=".1"/><path d="m1107.50320341 313.06h12.69478774l-395.2589592 353.88h-12.69478775z" fill="#ff8c00" opacity=".3" stroke="#000" stroke-width=".1"/><path d="m308.38259001 493.06h9.06770553l-115.32261398 173.88h-9.06770553z" fill="#ff8c00" stroke="#000" stroke-width=".1"/><path d="m526.10052495 313.06h12.69478774l41.01392965 173.88h-12.69478775z" fill="#ff8c00" stroke="#000" stroke-width=".1"/><path d="m1010.59500682 133.06h49.94213202l59.66085231 173.88h-12.69478774z" fill="#ff8c00" stroke="#000" stroke-width=".1"/><path d="m479.50646881 133.06h19.39093953l-69.65857893 173.88h19.39093953z" fill="#3cb371" stroke="#000" stroke-width=".1"/><path d="m500.89695366 493.06h43.66448973l47.52407722 173.88h19.39093952z" fill="#3cb371" stroke="#000" stroke-width=".1"/><path d="m429.23882941 313.06h19.39093953l41.01392965 173.88h-19.39093953z" fill="#ff8c00" stroke="#000" stroke-width=".1"/><path d="m567.11445459 493.06h12.69478775l-44.64101186 173.88h-20.36746166z" fill="#ff8c00" stroke="#000" stroke-width=".1"/><path d="m150 129.1h141.781714v1.8h-141.781714z" fill="#00f"/><path d="m315.032241 129.1h140.014674v1.8h-140.014674z" fill="#00f"/><path d="m478.297441 129.1h168.798826v1.8h-168.798826z" fill="#00f"/><path d="m670.346795 129.1h186.050717v1.8h-186.050717z" fill="#00f"/><path d="m713.40677055 128.2v3.6h6.34739388v1.26l2.72031166-3.06-2.72031166-3.06v1.26z" fill="url(#a)" stroke="none"/><text fill="#000" font-family="Times New Roman" font-size="10" transform="matrix(.64278761 -.76604444 .76604444 .64278761 164.731125 592.747037)" x="717.940623" y="119.74">gene_s103000.label</text><path d="m1088.949283 129.1h186.050717v1.8h-186.050717z" fill="#00f"/><path d="m150 309.1h418.509486v1.8h-418.509486z" fill="#00f"/><path d="m591.760013 309.1h186.050717v1.8h-186.050717z" fill="#00f"/><path d="m801.061257 309.1h186.050717v1.8h-186.050717z" fill="#00f"/><path d="m1010.362502 309.1h186.050717v1.8h-186.050717z" fill="#00f"/><path d="m150 489.1h93.002108v1.8h-93.002108z" fill="#00f"/><path d="m266.252635 489.1h138.619642v1.8h-138.619642z" fill="#00f"/><path d="m428.122804 489.1h209.719754v1.8h-209.719754z" fill="#00f"/><path d="m661.093085 489.1h186.050717v1.8h-186.050717z" fill="#00f"/><path d="m870.394329 489.1h186.050717v1.8h-186.050717z" fill="#00f"/><path d="m150 669.1h186.050717v1.8h-186.050717z" fill="#00f"/><path d="m359.301244 669.1h325.553879v1.8h-325.553879z" fill="#00f"/><path d="m708.10565 669.1h74.866697v1.8h-74.866697z" fill="#00f"/><path d="m153.99909065 128.2v3.6h33.29940478v1.26l14.27117348-3.06-14.27117348-3.06v1.26z" fill="url(#c)" stroke="none"/><path d="m201.3836647 128.2v3.6h25.48722771v1.26l10.92309759-3.06-10.92309759-3.06v1.26z" fill="url(#c)" stroke="none"/><path d="m337.67825404 128.2v3.6h12.10887447v1.26l5.18951763-3.06-5.18951763-3.06v1.26z" fill="url(#c)" stroke="none"/><path d="m377.52965734 128.2v3.6h14.25722316v1.26l6.1102385-3.06-6.1102385-3.06v1.26z" fill="url(#c)" stroke="none"/><path d="m399.47815484 130 14.9826396 3.06v-1.26h34.95949242v-3.6h-34.95949242v-1.26z" fill="url(#c)" stroke="none"/><path d="m479.50646881 128.2v3.6h13.57365767v1.26l5.81728186-3.06-5.81728186-3.06v1.26z" fill="url(#c)" stroke="none"/><path d="m510.15066342 128.2v3.6h30.5651428v1.26l13.09934692-3.06-13.09934692-3.06v1.26z" fill="url(#c)" stroke="none"/><path d="m562.46434919 130 4.18509486 3.06v-1.26h9.76522135v-3.6h-9.76522135v-1.26z" fill="url(#c)" stroke="none"/><path d="m576.36816435 130 3.80843632 3.06v-1.26h8.88635142v-3.6h-8.88635142v-1.26z" fill="url(#c)" stroke="none"/><path d="m739.49386186 128.2v3.6h12.10887447v1.26l5.18951763-3.06-5.18951763-3.06v1.26z" fill="url(#c)" stroke="none"/><path d="m779.34526516 128.2v3.6h14.25722316v1.26l6.1102385-3.06-6.1102385-3.06v1.26z" fill="url(#c)" stroke="none"/><path d="m801.29376266 130 14.98263961 3.06v-1.26h34.95949241v-3.6h-34.95949241v-1.26z" fill="url(#c)" stroke="none"/><path d="m948.79510602 128.2v3.6h12.10887447v1.26l5.18951763-3.06-5.18951763-3.06v1.26z" fill="url(#c)" stroke="none"/><path d="m988.64650932 128.2v3.6h14.25722316v1.26l6.1102385-3.06-6.1102385-3.06v1.26z" fill="url(#c)" stroke="none"/><path d="m1010.59500682 130 14.98263961 3.06v-1.26h34.95949241v-3.6h-34.95949241v-1.26z" fill="url(#c)" stroke="none"/><path d="m1089.22828917 128.2v3.6h13.57365767v1.26l5.81728186-3.06-5.81728186-3.06v1.26z" fill="url(#c)" stroke="none"/><path d="m1119.87248378 128.2v3.6h30.56514281v1.26l13.09934691-3.06-13.09934691-3.06v1.26z" fill="url(#c)" stroke="none"/><path d="m1172.18616955 130 4.18509487 3.06v-1.26h9.76522134v-3.6h-9.76522134v-1.26z" fill="url(#c)" stroke="none"/><path d="m1186.08998471 130 3.80843632 3.06v-1.26h8.88635142v-3.6h-8.88635142v-1.26z" fill="url(#c)" stroke="none"/><path d="m1198.78477245 130 2.79006325 3.06v-1.26h6.51014756v-3.6h-6.51014756v-1.26z" fill="url(#c)" stroke="none"/><path d="m154.0455917 308.2v3.6h33.29940479v1.8l14.27117348-3.6-14.27117348-3.6v1.8z" fill="url(#c)" stroke="none"/><path d="m201.43016575 308.2v3.6h25.48722771v1.26l10.92309759-3.06-10.92309759-3.06v1.26z" fill="url(#c)" stroke="none"/><path d="m286.01558302 308.2v3.6h6.34739387v1.26l2.72031166-3.06-2.72031166-3.06v1.26z" fill="url(#c)" stroke="none"/><path d="m312.10267433 308.2v3.6h12.10887447v1.26l5.18951762-3.06-5.18951762-3.06v1.26z" fill="url(#c)" stroke="none"/><path d="m351.95407763 308.2v3.6h14.25722316v1.26l6.1102385-3.06-6.1102385-3.06v1.26z" fill="url(#c)" stroke="none"/><path d="m373.90257513 310 14.9826396 3.06v-1.26h34.95949242v-3.6h-34.95949242v-1.26z" fill="url(#c)" stroke="none"/><path d="m429.23882941 308.2v3.6 1.26l19.39093953-3.06-19.39093953-3.06z" fill="#ffa500" stroke="none"/><path d="m459.88302402 308.2v3.6h30.56514281v1.26l13.09934691-3.06-13.09934691-3.06v1.26z" fill="url(#c)" stroke="none"/><path d="m512.19670979 310 4.18509486 3.06v-1.26h9.76522135v-3.6h-9.76522135v-1.26z" fill="url(#c)" stroke="none"/><path d="m526.10052495 310 3.80843632 3.06v-1.26h8.88635142v-3.6h-8.88635142v-1.26z" fill="url(#c)" stroke="none"/><path d="m634.81998925 308.2v3.6h6.34739388v1.26l2.72031166-3.06-2.72031166-3.06v1.26z" fill="url(#c)" stroke="none"/><path d="m660.90708056 308.2v3.6h12.10887447v1.26l5.18951763-3.06-5.18951763-3.06v1.26z" fill="url(#c)" stroke="none"/><path d="m700.75848386 308.2v3.6h14.25722316v1.26l6.1102385-3.06-6.1102385-3.06v1.26z" fill="url(#c)" stroke="none"/><path d="m722.70698136 308.2v3.6h49.94213202v-3.6z" fill="url(#b)" stroke="none"/><path d="m844.12123341 308.2v3.6h6.34739388v1.26l2.72031166-3.06-2.72031166-3.06v1.26z" fill="url(#c)" stroke="none"/><path d="m870.20832472 308.2v3.6h12.10887447v1.26l5.18951763-3.06-5.18951763-3.06v1.26z" fill="url(#c)" stroke="none"/><path d="m910.05972802 308.2v3.6h14.25722316v1.26l6.1102385-3.06-6.1102385-3.06v1.26z" fill="url(#c)" stroke="none"/><path d="m932.00822552 310 14.98263961 3.06v-1.26h34.95949241v-3.6h-34.95949241v-1.26z" fill="url(#c)" stroke="none"/><path d="m1010.64150787 308.2v3.6h13.57365767v1.26l5.81728186-3.06-5.81728186-3.06v1.26z" fill="#ffa500" stroke="none"/><path d="m1041.28570248 308.2v3.6h30.56514281v1.26l13.09934691-3.06-13.09934691-3.06v1.26z" fill="url(#c)" stroke="none"/><path d="m1093.59938825 310 4.18509486 3.06v-1.26h9.76522135v-3.6h-9.76522135v-1.26z" fill="url(#c)" stroke="none"/><path d="m1107.50320341 310 3.80843632 3.06v-1.26h8.88635142v-3.6h-8.88635142v-1.26z" fill="url(#c)" stroke="none"/><path d="m153.58058116 488.2v3.6h33.29940479v1.26l14.27117348-3.06-14.27117348-3.06v1.26z" fill="url(#c)" stroke="none"/><path d="m200.96515521 488.2v3.6h25.48722771v1.26l10.92309759-3.06-10.92309759-3.06v1.26z" fill="url(#c)" stroke="none"/><path d="m308.38259001 488.2v3.6h6.34739387v1.26l2.72031166-3.06-2.72031166-3.06v1.26z" fill="url(#c)" stroke="none"/><path d="m334.46968131 488.2v3.6h12.10887447v1.26l5.18951763-3.06-5.18951763-3.06v1.26z" fill="url(#c)" stroke="none"/><path d="m374.32108461 488.2v3.6h14.25722316v1.26l6.1102385-3.06-6.1102385-3.06v1.26z" fill="url(#c)" stroke="none"/><path d="m470.25275906 488.2v3.6h13.57365767v1.26l5.81728186-3.06-5.81728186-3.06v1.26z" fill="url(#c)" stroke="none"/><path d="m500.89695366 488.2v3.6h30.56514281v1.26l13.09934692-3.06-13.09934692-3.06v1.26z" fill="url(#c)" stroke="none"/><path d="m553.21063944 490 4.18509486 3.06v-1.26h9.76522135v-3.6h-9.76522135v-1.26z" fill="url(#c)" stroke="none"/><path d="m567.11445459 490 3.80843633 3.06v-1.26h8.88635142v-3.6h-8.88635142v-1.26z" fill="url(#c)" stroke="none"/><path d="m704.1530608 488.2v3.6h6.34739388v1.26l2.72031166-3.06-2.72031166-3.06v1.26z" fill="url(#c)" stroke="none"/><path d="m730.24015211 488.2v3.6h12.10887447v1.26l5.18951763-3.06-5.18951763-3.06v1.26z" fill="url(#c)" stroke="none"/><path d="m770.09155541 488.2v3.6h14.25722316v1.26l6.1102385-3.06-6.1102385-3.06v1.26z" fill="url(#c)" stroke="none"/><path d="m792.04005291 490 14.9826396 3.06v-1.26h34.95949242v-3.6h-34.95949242v-1.26z" fill="url(#c)" stroke="none"/><path d="m913.45430496 488.2v3.6h6.34739388v1.26l2.72031166-3.06-2.72031166-3.06v1.26z" fill="url(#c)" stroke="none"/><path d="m939.54139627 488.2v3.6h12.10887447v1.26l5.18951763-3.06-5.18951763-3.06v1.26z" fill="url(#c)" stroke="none"/><path d="m979.39279957 488.2v3.6h14.25722316v1.26l6.1102385-3.06-6.1102385-3.06v1.26z" fill="url(#c)" stroke="none"/><path d="m1001.34129707 490 14.98263961 3.06v-1.26h34.95949241v-3.6h-34.95949241v-1.26z" fill="url(#c)" stroke="none"/><path d="m193.05997603 668.2v3.6h6.34739387v1.26l2.72031166-3.06-2.72031166-3.06v1.26z" fill="url(#c)" stroke="none"/><path d="m219.14706733 668.2v3.6h12.10887447v1.26l5.18951763-3.06-5.18951763-3.06v1.26z" fill="url(#c)" stroke="none"/><path d="m258.99847063 668.2v3.6h14.25722317v1.26l6.11023849-3.06-6.11023849-3.06v1.26z" fill="url(#c)" stroke="none"/><path d="m280.94696813 670 14.98263961 3.06v-1.26h34.95949241v-3.6h-34.95949241v-1.26z" fill="url(#c)" stroke="none"/><path d="m364.27685694 668.2v3.6h25.48722771v1.26l10.92309759-3.06-10.92309759-3.06v1.26z" fill="url(#c)" stroke="none"/><path d="m448.86227421 668.2v3.6h6.34739388v1.26l2.72031166-3.06-2.72031166-3.06v1.26z" fill="url(#c)" stroke="none"/><path d="m474.94936552 668.2v3.6h12.10887447v1.26l5.18951763-3.06-5.18951763-3.06v1.26z" fill="url(#c)" stroke="none"/><path d="m514.80076882 668.2v3.6h14.25722316v1.26l6.1102385-3.06-6.1102385-3.06v1.26z" fill="url(#c)" stroke="none"/><path d="m536.74926632 670 14.9826396 3.06v-1.26h34.95949242v-3.6h-34.95949242v-1.26z" fill="url(#c)" stroke="none"/><path d="m592.08552061 668.2v3.6h13.57365766v1.26l5.81728186-3.06-5.81728186-3.06v1.26z" fill="url(#c)" stroke="none"/><path d="m622.72971521 668.2v3.6h30.56514281v1.26l13.09934692-3.06-13.09934692-3.06v1.26z" fill="url(#c)" stroke="none"/><path d="m712.2442442 670 3.80843633 3.06v-1.26h8.88635142v-3.6h-8.88635142v-1.26z" fill="url(#c)" stroke="none"/><path d="m716.89434961 668.2v3.6h2.37620386v1.26l1.01837308-3.06-1.01837308-3.06v1.26z" fill="url(#c)" stroke="none"/><g fill="#000" font-family="Times New Roman"><text font-size="10" transform="matrix(.64278761 -.76604444 .76604444 .64278761 -28.219378 178.963348)" x="177.78438" y="119.74">gene_s101</text><text font-size="10" transform="matrix(.64278761 -.76604444 .76604444 .64278761 -13.286312 210.987413)" x="219.588827" y="119.74">gene_s102</text><text font-size="10" transform="matrix(.64278761 -.76604444 .76604444 .64278761 31.986295 308.07483)" x="346.32745" y="119.74">gene_s104</text><text font-size="10" transform="matrix(.64278761 -.76604444 .76604444 .64278761 46.769865 339.778298)" x="387.713388" y="119.74">gene_s105</text><text font-size="10" transform="matrix(.64278761 -.76604444 .76604444 .64278761 59.892359 367.919579)" x="424.449221" y="119.74">gene_s106</text><text font-size="10" transform="matrix(.64278761 -.76604444 .76604444 .64278761 83.022832 417.523038)" x="489.201939" y="119.74">gene_s107</text><text font-size="10" transform="matrix(.64278761 -.76604444 .76604444 .64278761 98.304725 450.295162)" x="531.982908" y="119.74">gene_s108</text><text font-size="10" transform="matrix(.76604444 -.64278761 .64278761 .76604444 56.256149 394.042498)" x="569.439507" y="119.74">gene_s109</text><text font-size="10" transform="matrix(.8660254 -.5 .5 .8660254 18.199082 307.399897)" x="582.715558" y="119.74">gene_s110</text><text font-size="10" transform="matrix(.64278761 -.76604444 .76604444 .64278761 175.519808 615.883444)" x="748.143058" y="119.74">gene_s104000</text><text font-size="10" transform="matrix(.64278761 -.76604444 .76604444 .64278761 190.303378 647.586912)" x="789.528996" y="119.74">gene_s105000</text><text font-size="10" transform="matrix(.64278761 -.76604444 .76604444 .64278761 203.425873 675.728192)" x="826.264829" y="119.74">gene_s106000</text><text font-size="10" transform="matrix(.64278761 -.76604444 .76604444 .64278761 250.284806 776.217499)" x="957.444302" y="119.74">gene_s1040000</text><text font-size="10" transform="matrix(.64278761 -.76604444 .76604444 .64278761 265.068376 807.920967)" x="998.83024" y="119.74">gene_s1050000</text><text font-size="10" transform="matrix(.64278761 -.76604444 .76604444 .64278761 278.190871 836.062247)" x="1035.566073" y="119.74">gene_s1060000</text><text font-size="10" transform="matrix(.64278761 -.76604444 .76604444 .64278761 300.823021 884.597051)" x="1098.923759" y="119.74">gene_s1070000</text><text font-size="10" transform="matrix(.64278761 -.76604444 .76604444 .64278761 316.104914 917.369175)" x="1141.704729" y="119.74">gene_s1080000</text><text font-size="10" transform="matrix(.76604444 -.64278761 .64278761 .76604444 198.903957 785.96413)" x="1179.161328" y="119.74">gene_s1090000</text><text font-size="10" transform="matrix(.8660254 -.5 .5 .8660254 99.886316 612.260807)" x="1192.437379" y="119.74">gene_s1100000</text><text font-size="10" transform="matrix(.93969262 -.34202014 .34202014 .93969262 31.622512 418.820175)" x="1203.434878" y="119.74">gene_s11000001</text><text font-size="5" x="154.045592" y="311.8">GENE201</text><text font-size="10" transform="matrix(.64278761 -.76604444 .76604444 .64278761 -151.157701 275.321265)" x="219.635328" y="299.74">gene_s202</text><text font-size="10" transform="matrix(.64278761 -.76604444 .76604444 .64278761 -125.826303 329.644623)" x="290.549436" y="299.74">gene_s203</text><text font-size="10" transform="matrix(.64278761 -.76604444 .76604444 .64278761 -115.037619 352.78103)" x="320.75187" y="299.74">gene_s204</text><text font-size="10" transform="matrix(.64278761 -.76604444 .76604444 .64278761 -100.254049 384.484498)" x="362.137808" y="299.74">gene_s205</text><text font-size="10" transform="matrix(.64278761 -.76604444 .76604444 .64278761 -87.131555 412.625778)" x="398.873641" y="299.74">gene_s206</text><text font-size="10" transform="matrix(.76604444 -.64278761 .64278761 .76604444 -89.97804 352.267368)" x="438.934299" y="299.74">gene_s207.label</text><text font-size="10" transform="matrix(.64278761 -.76604444 .76604444 .64278761 -57.539499 476.086147)" x="481.715269" y="299.74">gene_s208</text><text font-size="10" transform="matrix(.76604444 -.64278761 .64278761 .76604444 -71.206015 403.843083)" x="519.171868" y="299.74">gene_s209</text><text font-size="10" transform="matrix(.8660254 -.5 .5 .8660254 -78.535505 306.381505)" x="532.447919" y="299.74">gene_s210</text><text font-size="10" transform="matrix(.64278761 -.76604444 .76604444 .64278761 -1.229047 596.8443)" x="639.353842" y="299.74">gene_s203000</text><text font-size="10" transform="matrix(.64278761 -.76604444 .76604444 .64278761 9.559637 619.980707)" x="669.556277" y="299.74">gene_s204000</text><text font-size="10" transform="matrix(.64278761 -.76604444 .76604444 .64278761 24.343207 651.684175)" x="710.942215" y="299.74">gene_s205000</text><text font-size="10" transform="matrix(.64278761 -.76604444 .76604444 .64278761 36.500485 680.275543)" x="747.678047" y="301">gene_s206000.label</text><text font-size="10" transform="matrix(.64278761 -.76604444 .76604444 .64278761 73.535951 757.178355)" x="848.655086" y="299.74">gene_s2030000</text><text font-size="10" transform="matrix(.64278761 -.76604444 .76604444 .64278761 84.324634 780.314762)" x="878.857521" y="299.74">gene_s2040000</text><text font-size="10" transform="matrix(.64278761 -.76604444 .76604444 .64278761 99.108204 812.01823)" x="920.243459" y="299.74">gene_s2050000</text><text font-size="10" transform="matrix(.64278761 -.76604444 .76604444 .64278761 112.230699 840.15951)" x="956.979292" y="299.74">gene_s2060000</text><text font-size="10" transform="matrix(.64278761 -.76604444 .76604444 .64278761 134.862849 888.694314)" x="1020.336978" y="299.74">gene_s2070000.label</text><text font-size="10" transform="matrix(.64278761 -.76604444 .76604444 .64278761 150.144742 921.466438)" x="1063.117947" y="299.74">gene_s2080000</text><text font-size="10" transform="matrix(.76604444 -.64278761 .64278761 .76604444 64.816373 777.561521)" x="1100.574546" y="299.74">gene_s2090000</text><text font-size="10" transform="matrix(.8660254 -.5 .5 .8660254 -.642316 597.082844)" x="1113.850597" y="299.74">gene_s2100000</text><text font-size="10" transform="matrix(.64278761 -.76604444 .76604444 .64278761 -304.144875 307.239211)" x="177.36587" y="479.74">gene_s301</text><text font-size="10" transform="matrix(.64278761 -.76604444 .76604444 .64278761 -289.211808 339.263276)" x="219.170318" y="479.74">gene_s302</text><text font-size="10" transform="matrix(.64278761 -.76604444 .76604444 .64278761 -255.724531 411.076974)" x="312.916443" y="479.74">gene_s303</text><text font-size="10" transform="matrix(.64278761 -.76604444 .76604444 .64278761 -244.935847 434.213381)" x="343.118877" y="479.74">gene_s304</text><text font-size="10" transform="matrix(.64278761 -.76604444 .76604444 .64278761 -230.152277 465.916849)" x="384.504815" y="479.74">gene_s305</text><text font-size="10" transform="matrix(.64278761 -.76604444 .76604444 .64278761 -196.058707 539.030746)" x="479.948229" y="479.74">gene_s307</text><text font-size="10" transform="matrix(.64278761 -.76604444 .76604444 .64278761 -180.776815 571.80287)" x="522.729199" y="479.74">gene_s308</text><text font-size="10" transform="matrix(.76604444 -.64278761 .64278761 .76604444 -177.312348 472.318329)" x="560.185798" y="479.74">gene_s309</text><text font-size="10" transform="matrix(.8660254 -.5 .5 .8660254 -163.04068 351.003897)" x="573.461848" y="479.74">gene_s310</text><text font-size="10" transform="matrix(.64278761 -.76604444 .76604444 .64278761 -114.350415 714.254744)" x="708.686914" y="479.74">gene_s303000</text><text font-size="10" transform="matrix(.64278761 -.76604444 .76604444 .64278761 -103.561731 737.391151)" x="738.889348" y="479.74">gene_s304000</text><text font-size="10" transform="matrix(.64278761 -.76604444 .76604444 .64278761 -88.778161 769.094619)" x="780.275286" y="479.74">gene_s305000</text><text font-size="10" transform="matrix(.64278761 -.76604444 .76604444 .64278761 -75.655666 797.2359)" x="817.011119" y="479.74">gene_s306000</text><text font-size="10" transform="matrix(.64278761 -.76604444 .76604444 .64278761 -39.585417 874.588799)" x="917.988158" y="479.74">gene_s3030000</text><text font-size="10" transform="matrix(.64278761 -.76604444 .76604444 .64278761 -28.796733 897.725206)" x="948.190592" y="479.74">gene_s3040000</text><text font-size="10" transform="matrix(.64278761 -.76604444 .76604444 .64278761 -14.013163 929.428674)" x="989.57653" y="479.74">gene_s3050000</text><text font-size="10" transform="matrix(.64278761 -.76604444 .76604444 .64278761 -.890669 957.569955)" x="1026.312363" y="479.74">gene_s3060000</text><text font-size="10" transform="matrix(.64278761 -.76604444 .76604444 .64278761 -434.807197 387.032957)" x="197.593829" y="659.74">gene_s403000</text><text font-size="10" transform="matrix(.64278761 -.76604444 .76604444 .64278761 -424.018513 410.169364)" x="227.796263" y="659.74">gene_s404000</text><text font-size="10" transform="matrix(.64278761 -.76604444 .76604444 .64278761 -409.234943 441.872832)" x="269.182201" y="659.74">gene_s405000</text><text font-size="10" transform="matrix(.64278761 -.76604444 .76604444 .64278761 -396.112449 470.014112)" x="305.918034" y="659.74">gene_s406000</text><text font-size="10" transform="matrix(.64278761 -.76604444 .76604444 .64278761 -368.762844 528.665528)" x="382.48202" y="659.74">gene_s4020000</text><text font-size="10" transform="matrix(.64278761 -.76604444 .76604444 .64278761 -343.431447 582.988886)" x="453.396127" y="659.74">gene_s4030000</text><text font-size="10" transform="matrix(.64278761 -.76604444 .76604444 .64278761 -332.642763 606.125293)" x="483.598562" y="659.74">gene_s4040000</text><text font-size="10" transform="matrix(.64278761 -.76604444 .76604444 .64278761 -317.859193 637.828761)" x="524.9845" y="659.74">gene_s4050000</text><text font-size="10" transform="matrix(.64278761 -.76604444 .76604444 .64278761 -304.736698 665.970042)" x="561.720332" y="659.74">gene_s4060000</text><text font-size="10" transform="matrix(.76604444 -.64278761 .64278761 .76604444 -283.282691 541.167203)" x="601.78099" y="659.74">gene_s4070000</text><text font-size="10" transform="matrix(.64278761 -.76604444 .76604444 .64278761 -275.144642 729.43041)" x="644.56196" y="659.74">gene_s4080000</text><text font-size="10" transform="matrix(.64278761 -.76604444 .76604444 .64278761 -248.700324 786.140434)" x="718.591638" y="659.74">gene_s4100000</text><text font-size="10" transform="matrix(.76604444 -.64278761 .64278761 .76604444 -255.954191 616.25164)" x="718.591638" y="659.74">gene_s410000000</text></g><path d="m879.648039 129.1h186.050717v1.8h-186.050717z" fill="#00f"/><path d="m922.70801472 126.4v7.2 1.08l9.06770553-4.68-9.06770553-4.68z" fill="url(#d)" stroke="none"/></g></g></g></g></g></g></g></svg>