<svg height="800" width="1500" xmlns="http://www.w3.org/2000/svg"><text alignment-baseline="middle" fill="#008000" font-size="15" text-anchor="end" x="135" y="160">s1</text><text alignment-baseline="middle" fill="#00f" font-size="15" text-anchor="end" x="135" y="320">s2</text><text alignment-baseline="middle" font-size="15" text-anchor="end" x="135" y="480">s3</text><text alignment-baseline="middle" fill="#f00" font-size="15" text-anchor="end" x="135" y="640">s4</text><path d="m150 704h1125" stroke="#008000" stroke-width=".5"/><path d="m150 696v8" stroke="#008000" stroke-width=".5"/><text fill="#008000" font-family="Times New Roman" font-size="13" text-anchor="middle" x="150" y="719">0</text><path d="m251.383319 696v8" stroke="#008000" stroke-width=".5"/><text fill="#008000" font-family="Times New Roman" font-size="13" text-anchor="middle" x="251.383319" y="719">2,000</text><path d="m352.766638 696v8" stroke="#008000" stroke-width=".5"/><text fill="#008000" font-family="Times New Roman" font-size="13" text-anchor="middle" x="352.766638" y="719">4,000</text><path d="m454.149957 696v8" stroke="#008000" stroke-width=".5"/><text fill="#008000" font-family="Times New Roman" font-size="13" text-anchor="middle" x="454.149957" y="719">6,000</text><path d="m555.533276 696v8" stroke="#008000" stroke-width=".5"/><text fill="#008000" font-family="Times New Roman" font-size="13" text-anchor="middle" x="555.533276" y="719">8,000</text><path d="m656.916595 696v8" stroke="#008000" stroke-width=".5"/><text fill="#008000" font-family="Times New Roman" font-size="13" text-anchor="middle" x="656.916595" y="719">10,000</text><path d="m758.299914 696v8" stroke="#008000" stroke-width=".5"/><text fill="#008000" font-family="Times New Roman" font-size="13" text-anchor="middle" x="758.299914" y="719">12,000</text><path d="m859.683233 696v8" stroke="#008000" stroke-width=".5"/><text fill="#008000" font-family="Times New Roman" font-size="13" text-anchor="middle" x="859.683233" y="719">14,000</text><path d="m961.066553 696v8" stroke="#008000" stroke-width=".5"/><text fill="#008000" font-family="Times New Roman" font-size="13" text-anchor="middle" x="961.066553" y="719">16,000</text><path d="m1062.449872 696v8" stroke="#008000" stroke-width=".5"/><text fill="#008000" font-family="Times New Roman" font-size="13" text-anchor="middle" x="1062.449872" y="719">18,000</text><path d="m1163.833191 696v8" stroke="#008000" stroke-width=".5"/><text fill="#008000" font-family="Times New Roman" font-size="13" text-anchor="middle" x="1163.833191" y="719">20,000</text><path d="m1275 696v8" stroke="#008000" stroke-width=".5"/><text fill="#008000" font-family="Times New Roman" font-size="13" text-anchor="middle" x="1275" y="719">22,193bp</text><path d="m298.27310413 328.16h9.88487361l4.10602442 153.6h-9.88487361z" fill="#ff8c00" stroke="#000" stroke-width=".1"/><path d="m233.31681161 641.76h-7.93831389a88.8117875 39.42 0 0 1 177.62357501 0h-7.93831389a80.87347362 31.536 0 1 0 -161.74694723 0z" fill="#ff8c00" opacity=".5" stroke="#000" stroke-width=".1"/><path d="m458.560132 484.96h33.405803" fill="#f00" stroke="#f00" stroke-width=".64"/><path d="m1132.96196999 318.24h13.83882305l-435.82154283 327.07941153v-13.83882306z" fill="#ff8c00" stroke="#000" stroke-width=".1"/><path d="m302.37912855 488.16h9.88487361l-105.43865182 153.6h-9.88487361z" fill="#ff8c00" stroke="#000" stroke-width=".1"/><path d="m303.63628171 631.84h-10.88856847a156.51049881 39.42 0 0 1 313.02099761 0h-10.88856846a145.62193034 31.536 0 1 0 -291.24386068 0z" fill="#ff8c00" stroke="#000" stroke-width=".1"/><path d="m511.608953 324.96-171.363155 160" fill="#ff8c00" stroke="#ff8c00" stroke-width=".64"/><path d="m303.63628171 638.24h-10.88856847a-42.96118145 15.768 0 1 0 -85.9223629 9.92h-10.88856847a-53.84974992 14.1912 0 0 1 107.69949984-9.92z" fill="#ff8c00" stroke="#000" stroke-width=".1"/><path d="m1007.04388771 158.24h54.44284234l85.31406299 153.6h-13.83882305z" fill="#ff8c00" stroke="#000" stroke-width=".1"/><path d="m150 159.84h154.55887v.32h-154.55887z" fill="#00f" opacity=".2"/><path d="m309.628036 159.84h152.632587v.32h-152.632587z" fill="#00f" opacity=".2"/><path d="m467.329789 159.84h184.010724v.32h-184.010724z" fill="#00f" opacity=".2"/><path d="m656.409679 159.84h202.81733v.32h-202.81733z" fill="#00f" opacity=".2"/><path d="m864.296174 159.84h202.81733v.32h-202.81733z" fill="#00f" opacity=".2"/><path d="m1072.18267 159.84h202.81733v.32h-202.81733z" fill="#00f" opacity=".2"/><path d="m150 319.84h456.224936v.32h-456.224936z" fill="#00f" opacity=".2"/><path d="m611.294102 319.84h202.81733v.32h-202.81733z" fill="#00f" opacity=".2"/><path d="m819.180597 319.84h202.81733v.32h-202.81733z" fill="#00f" opacity=".2"/><path d="m1027.067093 319.84h202.81733v.32h-202.81733z" fill="#00f" opacity=".2"/><path d="m150 479.84h101.383319v.32h-101.383319z" fill="#00f" opacity=".2"/><path d="m256.452485 479.84h151.111837v.32h-151.111837z" fill="#00f" opacity=".2"/><path d="m412.633488 479.84h228.619384v.32h-228.619384z" fill="#00f" opacity=".2"/><path d="m646.322038 479.84h202.81733v.32h-202.81733z" fill="#00f" opacity=".2"/><path d="m854.208534 479.84h202.81733v.32h-202.81733z" fill="#00f" opacity=".2"/><path d="m150 639.84h202.81733v.32h-202.81733z" fill="#00f" opacity=".2"/><path d="m357.886496 639.84h354.892308v.32h-354.892308z" fill="#00f" opacity=".2"/><path d="m717.84797 639.84h81.613572v.32h-81.613572z" fill="#00f" opacity=".2"/><g fill="#32cd32"><path d="m154.35948272 163.36v3.2h36.30029739v1.6l15.55727031-3.2-15.55727031-3.2v1.6z"/><path d="m206.01428378 163.36v3.2h27.78409859v1.6l11.90747083-3.2-11.90747083-3.2v1.6z"/><path d="m334.31487406 163.36v3.2h13.20010814v1.6l5.65718921-3.2-5.65718921-3.2v1.6z"/><path d="m377.75762628 163.36v3.2h15.54206281v1.6l6.66088406-3.2-6.66088406-3.2v1.6z"/><path d="m401.68408958 155.04 16.3328527 3.2v-1.6h38.10998964v-3.2h-38.10998964v-1.6z"/><path d="m468.64777182 163.36v3.2h14.79689542v1.6l6.3415266-3.2-6.3415266-3.2v1.6z"/><path d="m502.05357545 163.36v3.2h33.31962781v1.6l14.27984049-3.2-14.27984049-3.2v1.6z"/><path d="m559.08169243 155.04 4.56224935 3.2v-1.6h10.64524851v-3.2h-10.64524851v-1.6z"/><path d="m574.23849863 155.04 4.15164691 3.2v-1.6h9.68717614v-3.2h-9.68717614v-1.6z"/><path d="m703.35015545 163.36v3.2h6.91941153v1.6l2.96546208-3.2-2.96546208-3.2v1.6z"/><path d="m731.78817645 163.36v3.2h13.20010814v1.6l5.65718921-3.2-5.65718921-3.2v1.6z"/><path d="m775.23092867 163.36v3.2h15.54206281v1.6l6.66088407-3.2-6.66088407-3.2v1.6z"/><path d="m799.15739197 155.04 16.3328527 3.2v-1.6h38.10998964v-3.2h-38.10998964v-1.6z"/><path d="m911.2366512 163.36v3.2h6.91941152v1.6l2.96546209-3.2-2.96546209-3.2v1.6z"/><path d="m939.67467219 163.36v3.2h13.20010815v1.6l5.6571892-3.2-5.6571892-3.2v1.6z"/><path d="m983.11742441 163.36v3.2h15.54206282v1.6l6.66088406-3.2-6.66088406-3.2v1.6z"/><path d="m1007.04388771 155.04 16.3328527 3.2v-1.6h38.10998964v-3.2h-38.10998964v-1.6z"/><path d="m1072.48682017 163.36v3.2h14.79689542v1.6l6.3415266-3.2-6.3415266-3.2v1.6z"/><path d="m1105.8926238 163.36v3.2h33.31962781v1.6l14.27984049-3.2-14.27984049-3.2v1.6z"/><path d="m1162.92074077 155.04 4.56224936 3.2v-1.6h10.6452485v-3.2h-10.6452485v-1.6z"/><path d="m1178.07754697 155.04 4.15164692 3.2v-1.6h9.68717614v-3.2h-9.68717614v-1.6z"/><path d="m1191.91637003 155.04 3.04149957 3.2v-1.6h7.09683233v-3.2h-7.09683233v-1.6z"/><path d="m154.41017438 323.36v3.2h36.30029739v1.6l15.55727031-3.2-15.55727031-3.2v1.6z"/><path d="m206.06497544 323.36v3.2h27.78409859v1.6l11.90747083-3.2-11.90747083-3.2v1.6z"/><path d="m298.27310413 323.36v3.2h6.91941153v1.6l2.96546208-3.2-2.96546208-3.2v1.6z"/><path d="m326.71112513 323.36v3.2h13.20010814v1.6l5.65718921-3.2-5.65718921-3.2v1.6z"/><path d="m370.15387735 323.36v3.2h15.54206281v1.6l6.66088406-3.2-6.66088406-3.2v1.6z"/><path d="m394.08034065 315.04 16.3328527 3.2v-1.6h38.10998964v-3.2h-38.10998964v-1.6z"/><path d="m454.40341549 323.36v3.2h14.79689542v1.6l6.34152661-3.2-6.34152661-3.2v1.6z"/><path d="m487.80921912 323.36v3.2h33.31962781v1.6l14.27984049-3.2-14.27984049-3.2v1.6z"/><path d="m544.8373361 315.04 4.56224935 3.2v-1.6h10.64524851v-3.2h-10.64524851v-1.6z"/><path d="m559.9941423 315.04 4.15164691 3.2v-1.6h9.68717614v-3.2h-9.68717614v-1.6z"/><path d="m658.23457847 323.36v3.2h6.91941153v1.6l2.96546208-3.2-2.96546208-3.2v1.6z"/><path d="m686.67259947 323.36v3.2h13.20010814v1.6l5.6571892-3.2-5.6571892-3.2v1.6z"/><path d="m730.11535169 323.36v3.2h15.54206281v1.6l6.66088406-3.2-6.66088406-3.2v1.6z"/><path d="m754.04181499 315.04 16.3328527 3.2v-1.6h38.10998963v-3.2h-38.10998963v-1.6z"/><path d="m866.12107421 323.36v3.2h6.91941153v1.6l2.96546208-3.2-2.96546208-3.2v1.6z"/><path d="m894.55909521 323.36v3.2h13.20010814v1.6l5.65718921-3.2-5.65718921-3.2v1.6z"/><path d="m938.00184743 323.36v3.2h15.54206281v1.6l6.66088406-3.2-6.66088406-3.2v1.6z"/><path d="m961.92831073 315.04 16.3328527 3.2v-1.6h38.10998964v-3.2h-38.10998964v-1.6z"/><path d="m1027.37124318 323.36v3.2h14.79689542v1.6l6.34152661-3.2-6.34152661-3.2v1.6z"/><path d="m1060.77704682 323.36v3.2h33.31962781v1.6l14.27984049-3.2-14.27984049-3.2v1.6z"/><path d="m1117.80516379 315.04 4.56224936 3.2v-1.6h10.6452485v-3.2h-10.6452485v-1.6z"/><path d="m1132.96196999 315.04 4.15164692 3.2v-1.6h9.68717613v-3.2h-9.68717613v-1.6z"/><path d="m153.90325778 483.36v3.2h36.3002974v1.6l15.55727031-3.2-15.55727031-3.2v1.6z"/><path d="m205.55805885 483.36v3.2h27.78409859v1.6l11.90747082-3.2-11.90747082-3.2v1.6z"/><path d="m302.37912855 483.36v3.2h6.91941153v1.6l2.96546208-3.2-2.96546208-3.2v1.6z"/><path d="m330.81714955 483.36v3.2h13.20010814v1.6l5.65718921-3.2-5.65718921-3.2v1.6z"/><path d="m374.25990177 483.36v3.2h15.54206281v1.6l6.66088407-3.2-6.66088407-3.2v1.6z"/><path d="m458.56013157 483.36v3.2h14.79689542v1.6l6.34152661-3.2-6.34152661-3.2v1.6z"/><path d="m491.9659352 483.36v3.2h33.31962782v1.6l14.27984049-3.2-14.27984049-3.2v1.6z"/><path d="m548.99405218 475.04 4.56224936 3.2v-1.6h10.6452485v-3.2h-10.6452485v-1.6z"/><path d="m564.15085838 475.04 4.15164691 3.2v-1.6h9.68717614v-3.2h-9.68717614v-1.6z"/><path d="m693.26251521 483.36v3.2h6.91941152v1.6l2.96546209-3.2-2.96546209-3.2v1.6z"/><path d="m721.70053621 483.36v3.2h13.20010814v1.6l5.6571892-3.2-5.6571892-3.2v1.6z"/><path d="m765.14328842 483.36v3.2h15.54206282v1.6l6.66088406-3.2-6.66088406-3.2v1.6z"/><path d="m789.06975172 475.04 16.3328527 3.2v-1.6h38.10998964v-3.2h-38.10998964v-1.6z"/><path d="m901.14901095 483.36v3.2h6.91941153v1.6l2.96546208-3.2-2.96546208-3.2v1.6z"/><path d="m929.58703195 483.36v3.2h13.20010814v1.6l5.6571892-3.2-5.6571892-3.2v1.6z"/><path d="m973.02978417 483.36v3.2h15.54206281v1.6l6.66088406-3.2-6.66088406-3.2v1.6z"/><path d="m996.95624747 475.04 16.3328527 3.2v-1.6h38.10998963v-3.2h-38.10998963v-1.6z"/><path d="m196.94047673 643.36v3.2h6.91941152v1.6l2.96546209-3.2-2.96546209-3.2v1.6z"/><path d="m225.37849772 643.36v3.2h13.20010815v1.6l5.6571892-3.2-5.6571892-3.2v1.6z"/><path d="m268.82124994 643.36v3.2h15.54206282v1.6l6.66088406-3.2-6.66088406-3.2v1.6z"/><path d="m292.74771324 635.04 16.3328527 3.2v-1.6h38.10998964v-3.2h-38.10998964v-1.6z"/><path d="m363.31050331 643.36v3.2h27.78409859v1.6l11.90747083-3.2-11.90747083-3.2v1.6z"/><path d="m455.518632 643.36v3.2h6.91941153v1.6l2.96546208-3.2-2.96546208-3.2v1.6z"/><path d="m483.956653 643.36v3.2h13.20010814v1.6l5.6571892-3.2-5.6571892-3.2v1.6z"/><path d="m527.39940522 643.36v3.2h15.54206281v1.6l6.66088406-3.2-6.66088406-3.2v1.6z"/><path d="m551.32586852 635.04 16.3328527 3.2v-1.6h38.10998963v-3.2h-38.10998963v-1.6z"/><path d="m611.64894336 643.36v3.2h14.79689542v1.6l6.34152661-3.2-6.34152661-3.2v1.6z"/><path d="m645.05474699 643.36v3.2h33.31962781v1.6l14.27984049-3.2-14.27984049-3.2v1.6z"/></g><circle cx="710.97925" cy="640" r="6.919412"/><path d="m727.42869373 640.96v1.6h3.70049115v-1.6z" fill="#f00"/></svg>